<svg width="400" height="277" viewBox="0 0 400 277" fill="none" xmlns="http://www.w3.org/2000/svg">
<path d="M382.737 276.946C357.504 276.946 16.3818 276.214 16.3818 276.163C16.2455 275.839 -26.9162 222.938 27.4318 167.62C54.3675 140.208 2.70963 104.708 27.4318 74.2305C69.7933 22.0108 111.712 51.4153 146.633 36.7386C152.797 34.1506 158.994 29.9791 165.192 23.5773C168.682 19.9847 172.496 16.8348 176.599 14.1106C177.229 13.685 177.859 13.2763 178.506 12.8847C180.958 11.3694 183.495 9.99026 186.117 8.74734C187.871 7.91305 189.659 7.14686 191.497 6.44878C194.392 5.32505 197.371 4.37157 200.402 3.55431C204.71 2.39652 209.154 1.52818 213.683 0.949283C215.658 0.693888 217.65 0.489574 219.659 0.336337C258.683 -2.59219 302.577 13.9063 325.239 38.0156C329.802 42.8681 350.54 67.9989 334.195 102.528C323.877 124.339 367.124 145.162 382.499 170.055C421.557 233.341 383.094 276.112 382.737 276.946Z" fill="#CEE5F8"/>
<g opacity="0.8">
<path d="M294.456 129.77C293.417 132.63 292.14 135.354 290.642 137.891C287.066 144.004 282.316 149.129 276.782 153.096C263.927 162.324 246.884 165.252 230.896 159.429C211.878 152.517 199.653 135.167 198.342 116.183C198.172 113.68 198.189 111.16 198.41 108.623C198.768 104.366 199.704 100.076 201.22 95.8702C202.462 92.465 204.029 89.281 205.885 86.3355C205.902 86.3014 205.919 86.2674 205.953 86.2333C211.095 78.0947 218.416 71.8291 226.827 67.896C229.211 66.7722 231.68 65.8528 234.234 65.1207C235.442 64.7802 236.668 64.4737 237.911 64.2183C246.595 62.4305 255.857 62.9583 264.796 66.1933C265.988 66.619 267.145 67.0957 268.269 67.6065C269.87 68.3216 271.402 69.1219 272.883 69.9902C279.132 73.6338 284.359 78.5204 288.36 84.2072C290.863 87.7487 292.872 91.5966 294.37 95.6659C295.154 97.7942 295.801 99.9906 296.294 102.204C296.601 103.583 296.839 104.996 297.027 106.409C297.469 109.815 297.571 113.271 297.282 116.761C296.941 121.103 296.005 125.479 294.456 129.77Z" fill="#D7E5FF"/>
<path d="M239.58 86.1981C236.651 88.4626 237.434 94.541 232.361 91.1187C227.287 87.6964 224.103 85.8406 222.673 88.8202C221.225 91.8168 225.737 93.4513 224.545 96.7034C223.354 99.9554 220.953 100.296 218.416 97.6228C215.879 94.9497 215.811 92.3787 211.691 92.4638C207.587 92.549 205.817 90.8633 206.021 87.7646C206.055 87.2197 206.004 86.743 205.885 86.3343C205.902 86.3003 205.919 86.2662 205.953 86.2322C211.095 78.0936 218.416 71.8279 226.827 67.8948C229.211 66.7711 231.68 65.8517 234.233 65.1196C235.442 64.779 236.668 64.4726 237.911 64.2172C239.341 64.7961 240.874 65.9879 241.691 68.3546C243.479 73.5646 246.39 72.3387 243.921 76.7145C241.453 81.0902 242.474 82.1629 245.164 82.9631C247.855 83.7634 250.953 84.8871 250.528 87.0154C250.102 89.1437 242.508 83.9166 239.58 86.1981Z" fill="#AEC3FF"/>
<path d="M294.455 129.769C293.417 132.629 292.14 135.354 290.641 137.89C287.066 144.003 282.316 149.128 276.782 153.095C275.403 153.044 274.143 152.584 273.087 151.648C268.116 147.204 274.705 142.488 278.161 140.206C281.635 137.907 275.199 137.158 271.947 132.68C268.695 128.202 276.305 122.158 271.419 121.835C266.532 121.511 260.59 121.188 259.603 115.961C258.615 110.733 263.74 111.806 262.838 107.396C261.935 102.986 266.192 102.169 270.738 103.429C275.284 104.689 275.846 101.335 281.481 102.85C287.117 104.366 284.461 111.312 290.676 113.032C296.89 114.769 296.107 116.063 296.107 116.063C296.55 116.216 296.941 116.454 297.265 116.795C296.941 121.102 296.005 125.478 294.455 129.769Z" fill="#AEC3FF"/>
<path d="M297.026 106.409C291.118 107.022 291.51 99.6492 286.487 100.075C281.43 100.518 283.593 96.908 281.09 93.1962C278.587 89.4845 270.125 91.4936 271.845 87.7308C273.564 83.9679 278.28 86.9135 280.494 84.2063C282.707 81.4991 287.39 84.0871 287.39 84.0871C287.713 84.0871 288.037 84.1212 288.36 84.2063C290.863 87.7478 292.872 91.5957 294.37 95.665C295.154 97.7933 295.801 99.9897 296.294 102.203C296.601 103.599 296.839 104.995 297.026 106.409Z" fill="#AEC3FF"/>
<path d="M259.534 77.6508C259.534 77.6508 263.552 74.8074 259.773 72.1683C255.993 69.5293 255.533 71.0276 252.417 69.4952C249.284 67.9628 247.088 70.023 248.535 73.6667C249.982 77.3103 250.034 83.3035 253.269 81.2944C256.487 79.2683 256.844 76.9868 259.534 77.6508Z" fill="#AEC3FF"/>
</g>
<path d="M27.6533 276.299H44.952C45.8714 275.516 44.305 273.728 42.6705 273.609C41.9554 273.558 41.053 273.711 40.0314 273.915C39.793 270.748 38.4309 256.548 33.306 257.11C27.5511 257.757 33.306 263.376 34.9405 266.696C36.1494 269.165 37.4264 272.689 38.0053 274.358C37.5455 274.46 37.0518 274.562 36.558 274.647C35.7918 272.298 32.9485 264.414 29.3389 264.874C25.0993 265.419 26.8019 268.569 29.8156 270.459C32.029 271.838 34.7362 273.796 36.0132 274.749C34.9235 274.92 33.7827 275.056 32.6249 275.022C29.6624 274.971 28.2151 275.839 27.6533 276.299Z" fill="#ABDDDA"/>
<path d="M302.952 276.299H286.879C286.011 275.567 287.475 273.915 288.99 273.796C289.654 273.745 290.488 273.881 291.442 274.085C291.663 271.157 292.923 257.944 297.691 258.472C303.037 259.068 297.691 264.278 296.175 267.377C295.051 269.659 293.877 272.945 293.332 274.494C293.775 274.596 294.217 274.681 294.677 274.766C295.392 272.587 298.031 265.266 301.385 265.691C305.318 266.185 303.735 269.131 300.943 270.867C298.899 272.144 296.38 273.966 295.188 274.852C296.192 275.022 297.265 275.124 298.338 275.107C301.079 275.056 302.424 275.873 302.952 276.299Z" fill="#ABDDDA"/>
<path d="M314.428 170.992C314.428 170.992 314.802 167.195 312.827 167.314C310.835 167.45 310.307 168.353 310.529 169.085C310.75 169.817 312.691 172.235 312.691 172.235L314.428 170.992Z" fill="#FFB27D"/>
<path d="M345.416 178.601C345.416 178.601 343.219 181.189 338.486 184.169C338.043 184.458 337.566 184.731 337.073 185.02C335.234 186.093 333.072 187.183 330.586 188.204C330.313 188.323 329.99 188.443 329.632 188.579C326.789 189.6 321.579 191.065 318.344 191.184C318.054 191.201 317.799 191.201 317.543 191.184C312.623 190.979 312.027 171.876 312.027 171.876C312.027 171.876 312.572 169.969 315.109 170.446C315.109 170.446 318.957 181.24 320.336 182.126C321.562 182.909 328.594 172.251 334.638 171.501C338.673 171.008 345.416 178.601 345.416 178.601Z" fill="#ABDDDA"/>
<path d="M332.186 271.804C332.186 271.804 332.544 276.01 331.658 276.453L320.268 276.435C320.268 276.435 320.268 275.124 322.09 274.835C323.911 274.546 327.129 273.473 327.674 271.089C328.236 268.706 332.186 271.804 332.186 271.804Z" fill="#1C3154"/>
<path d="M323.826 220.895C323.877 223.653 324.013 226.48 324.269 229.034C325.495 241.139 325.937 255.765 326.108 258.574C326.414 263.461 327.385 271.293 327.385 271.293C327.385 271.293 329.309 273.115 333.037 272.246C333.037 272.246 336.136 260.992 336.834 249.125C336.851 248.937 336.851 248.733 336.868 248.546C336.953 246.979 337.039 245.192 337.124 243.251C337.686 230.311 338.316 211.071 338.316 211.071L324.03 207.717C324.013 207.717 323.69 214.033 323.826 220.895Z" fill="#2A4E96"/>
<path d="M323.826 220.895C327.453 227.144 334.349 238.653 337.107 243.251C337.669 230.311 338.299 211.071 338.299 211.071L324.014 207.717C324.014 207.717 323.69 214.033 323.826 220.895Z" fill="#233862"/>
<path d="M329.615 188.596C326.772 189.617 321.562 191.082 318.327 191.201C318.82 191.116 322.43 190.4 323.758 188.783C325.188 187.046 327.606 182.364 329.513 184.271C330.415 185.173 330.143 186.961 329.615 188.596Z" fill="#91CECF"/>
<path d="M353.622 218.852C353.622 218.852 354.508 222.326 354.371 223.109C354.218 223.875 353.367 226.497 352.822 227.144C352.277 227.791 352.26 224.318 351.903 223.773C351.545 223.228 351.732 225.067 351.443 225.22C351.153 225.373 350.677 223.824 350.455 223.279C350.234 222.734 351.222 220.827 351.307 219.465C351.392 218.103 353.622 218.852 353.622 218.852Z" fill="#FFB27D"/>
<path d="M360.535 267.036C360.535 267.036 362.561 268.892 362.17 270.203C361.778 271.514 359.939 272.4 359.701 274C359.462 275.601 358.458 276.486 357.572 276.486C356.687 276.486 353.333 276.486 353.333 276.486C353.333 276.486 352.686 275.362 354.252 275.022C355.836 274.681 356.432 272.791 356.33 271.038C356.227 269.284 356.483 266.951 356.483 266.951L359.837 266.168L360.535 267.036Z" fill="#1C3154"/>
<path d="M326.261 211.361C326.261 211.361 339.627 239.965 346.744 252.513C353.861 265.062 356.074 268.569 356.074 268.569C356.074 268.569 360.144 266.969 360.518 265.862C360.518 265.862 357.794 241.633 353.027 235.725C350.336 232.388 347.17 222.377 347.016 218.869C346.863 215.362 343.747 207.002 343.747 207.002L326.261 211.361Z" fill="#2A4E96"/>
<path d="M323.775 209.862C323.775 209.862 328.134 214.544 335.523 215.957C338.775 216.587 345.365 217.183 346.999 214.867C347.391 214.323 347.391 213.522 347.306 212.262C347.084 208.993 346.267 202.694 349.962 190.026C350.302 188.851 350.541 187.711 350.677 186.638C351.477 180.151 351.392 175.264 345.773 172.642C337.345 168.726 333.889 171.944 333.889 171.944C333.889 171.944 329.411 174.038 327.368 180.134C323.265 192.376 323.775 209.862 323.775 209.862Z" fill="#ABDDDA"/>
<path d="M340.716 171.588C339.303 172.592 336.8 173.188 334.417 171.996C334.229 171.911 334.263 170.651 334.297 169.408C334.348 168.199 334.451 167.008 334.451 167.008L337.447 165.033L340.308 163.16C339.984 169.63 341.363 171.128 340.716 171.588Z" fill="#FFB27D"/>
<path d="M339.831 165.832C339.831 165.832 337.89 168.743 334.315 169.407C334.366 168.198 334.485 166.853 334.485 166.853L337.464 165.031L339.831 165.832Z" fill="#ED985F"/>
<path d="M331.778 166.258C331.778 166.258 339.031 168.965 340.648 164.504C342.266 160.043 344.292 157.37 339.729 155.463C335.166 153.539 333.65 154.935 332.731 156.298C331.829 157.643 329.939 165.441 331.778 166.258Z" fill="#FFB27D"/>
<path d="M345.177 155.956C345.262 155.888 345.433 155.854 345.79 155.905C345.79 155.905 345.552 155.684 345.177 155.599C345.194 155.105 345.109 154.185 344.309 153.811C344.309 153.811 344.718 154.134 344.666 154.662C343.9 153.47 341.959 152.347 336.136 151.665C328.44 150.763 329.99 156.109 330.858 156.876C331.727 157.642 334.502 156.552 336.307 157.063C338.111 157.574 337.924 160.281 338.486 160.758C339.031 161.234 338.912 160.553 339.831 160.332C340.75 160.111 340.546 161.524 340.138 162.375C339.712 163.226 340.631 164.657 340.631 164.657C340.631 164.657 340.631 164.657 342.044 163.635C343.458 162.613 345.603 157.523 345.296 156.28C345.228 156.177 345.194 156.058 345.177 155.956Z" fill="#2C3A64"/>
<path d="M347.306 212.28C347.084 209.011 346.267 202.711 349.962 190.044C350.302 188.869 350.541 187.728 350.677 186.656C347.919 185.753 342.913 187.762 342.913 187.762C342.913 187.762 341.738 204.516 347.306 212.28Z" fill="#91CECF"/>
<path d="M347.289 173.511C347.289 173.511 350.677 174.737 352.839 183.709C354.269 189.635 356.891 198.335 357.181 201.076C357.47 203.817 354.184 219.822 354.184 219.822C354.184 219.822 353.724 220.163 352.584 219.941C351.494 219.72 350.983 218.988 350.983 218.988C350.983 218.988 350.2 208.312 350.404 203.273C350.489 201.178 340.716 187.932 335.438 186.229C333.344 185.548 347.289 173.511 347.289 173.511Z" fill="#ABDDDA"/>
<path d="M299.939 161.915C299.939 161.915 309.729 161.643 321.017 163.72L322.192 160.741L323.486 157.489C323.486 157.489 312.146 152.602 305.336 145.808L299.939 161.915Z" fill="#AEC3FF"/>
<path d="M305.489 145.656L299.87 162.24C299.053 162.001 298.593 161.116 298.883 160.299L303.82 146.371C304.076 145.69 304.842 145.367 305.489 145.656Z" fill="#ABDDDA"/>
<path d="M310.852 174.26C311.942 174.482 313.015 173.767 313.236 172.677L315.177 163.006C315.398 161.916 314.683 160.844 313.594 160.622C312.504 160.401 311.431 161.116 311.21 162.206L309.269 171.877C309.048 172.966 309.763 174.039 310.852 174.26Z" fill="#ABDDDA"/>
<path d="M299.939 161.915C299.939 161.915 309.729 161.643 321.017 163.72L322.192 160.74C311.585 158.578 299.939 161.915 299.939 161.915Z" fill="#739AF0"/>
<path d="M317.884 163.108L320.949 163.652C320.898 163.652 323.792 164.214 324.729 161.66C324.814 161.49 324.865 161.32 324.916 161.115C325.648 157.932 323.894 157.336 323.894 157.336L319.961 155.803L318.718 160.23C318.718 160.23 318.718 160.23 318.718 160.247L317.884 163.108Z" fill="#ABDDDA"/>
<path d="M317.884 163.108L320.949 163.652C320.898 163.652 323.792 164.214 324.729 161.66C322.992 160.4 318.701 160.23 318.701 160.23C318.701 160.23 318.701 160.23 318.701 160.247L317.884 163.108Z" fill="#91CECF"/>
<path d="M311.108 164.879C311.108 164.879 312.606 165.475 312.333 166.139C312.061 166.803 310.154 167.705 309.865 167.178C309.558 166.667 310.171 164.334 311.108 164.879Z" fill="#FFB27D"/>
<path d="M314.445 170.378C314.445 170.378 314.734 168.846 314.751 168.148C314.768 167.45 314.854 166.871 314.683 166.854C314.513 166.837 314.394 166.956 314.326 167.195C314.258 167.416 314.002 168.829 314.002 168.829L314.138 170.174L314.445 170.378Z" fill="#FFB27D"/>
<path d="M166.503 169.391L158.024 270.153C158.024 270.153 157.138 276.265 161.684 276.265C169.159 276.282 198.87 276.265 198.87 276.265C198.87 276.265 193.251 274.988 193.319 272.128C193.404 268.756 203.229 168.42 203.229 168.42L166.503 169.391Z" fill="#7599EA"/>
<path d="M201.662 274.478C200.198 274.478 171.423 274.529 164.153 274.444C160.986 274.41 160.424 271.617 160.407 269.829C160.39 268.961 160.51 268.331 160.51 268.331L160.731 265.709L161.293 259.035L161.786 253.144L162.416 245.567L162.961 239.165L168.989 167.569L205.697 166.616C205.697 166.616 201.56 208.603 198.631 239.165C198.308 242.57 198.001 245.839 197.712 248.887C197.627 249.858 197.525 250.811 197.44 251.731C197.167 254.625 196.912 257.281 196.707 259.631C196.588 260.874 196.486 262.014 196.401 263.07C196.026 267.19 195.805 269.829 195.805 270.323C195.805 270.613 195.822 270.885 195.873 271.141C196.452 274.341 201.117 274.478 201.662 274.478Z" fill="#90AFF4"/>
<path d="M77.3531 114.549L97.989 197.467L100.815 208.824L110.435 247.439H289.041L253.609 114.549H77.3531Z" fill="#AEC3FF"/>
<path d="M77.353 114.549L74.4756 115.503L106.621 250.334L110.435 247.439L77.353 114.549Z" fill="#90AFF4"/>
<path d="M106.621 250.334H284.138L289.041 247.439H110.435L106.621 250.334Z" fill="#7599EA"/>
<path d="M168.975 276.308H207.404V274.486H168.975V276.308Z" fill="#AEC3FF"/>
<path d="M197.627 250.334L197.423 251.73L161.276 259.034L161.77 253.126L162.008 250.334H197.627Z" fill="#5888DD"/>
<path opacity="0.4" d="M201.662 274.477C200.198 274.477 171.423 274.528 164.153 274.443C160.986 274.409 160.424 271.616 160.407 269.829L196.384 263.052C196.009 267.173 195.788 269.812 195.788 270.305C195.788 270.595 195.805 270.867 195.856 271.123C196.452 274.341 201.117 274.477 201.662 274.477Z" fill="#5888DD"/>
<path d="M77.3531 114.549H253.609L282.197 221.355H103.931L77.3531 114.549Z" fill="#AEC3FF"/>
<path d="M273.888 216.724H108.852L102.961 193.227L100.679 184.152L99.7425 180.441L93.6812 156.297L93.3747 155.037L90.1737 142.268L88.7265 136.564L87.5176 131.694L84.6402 120.27H247.293L250.442 131.694L251.788 136.564L253.371 142.268L263.74 179.896L264.608 183.08L265.017 184.561L272.185 210.526L273.888 216.724Z" fill="#C5DCF9"/>
<path d="M250.442 131.694H87.5176L84.6402 120.27H247.293L250.442 131.694Z" fill="#607CF4"/>
<path d="M91.3831 125.429C91.1788 124.646 91.6725 123.999 92.4557 123.999C93.2389 123.999 94.0392 124.646 94.2435 125.429C94.4478 126.212 93.954 126.859 93.1708 126.859C92.3706 126.859 91.5704 126.229 91.3831 125.429Z" fill="#E9F3FE"/>
<path d="M96.1164 125.429C95.9121 124.646 96.4059 123.999 97.1891 123.999C97.9723 123.999 98.7725 124.646 98.9768 125.429C99.1811 126.212 98.6874 126.859 97.9042 126.859C97.121 126.859 96.3207 126.229 96.1164 125.429Z" fill="#E9F3FE"/>
<path d="M101.224 125.429C101.02 124.646 101.514 123.999 102.297 123.999C103.08 123.999 103.88 124.646 104.085 125.429C104.289 126.212 103.795 126.859 103.012 126.859C102.229 126.859 101.429 126.229 101.224 125.429Z" fill="#E9F3FE"/>
<path d="M281.107 219.006L137.712 231.094C126.815 232.014 118.949 220.913 123.409 210.935L184.159 74.963C188.756 64.645 202.922 63.4532 209.188 72.8517L291.834 196.735C297.895 205.827 291.987 218.086 281.107 219.006Z" fill="#E6EFFF"/>
<path d="M281.55 224.42L138.154 236.508C131.105 237.104 124.448 234.006 120.344 228.234C116.241 222.462 115.526 215.157 118.42 208.704L179.17 72.7323C182.15 66.058 188.296 61.6993 195.584 61.0863C202.871 60.4734 209.647 63.7424 213.717 69.8208L296.362 193.704C300.296 199.595 300.806 206.917 297.725 213.285C294.66 219.669 288.616 223.824 281.55 224.42ZM196.503 71.9321C193.217 72.2045 190.459 74.1625 189.114 77.1762L128.364 213.148C127.07 216.06 127.393 219.346 129.232 221.934C131.071 224.539 134.068 225.918 137.252 225.663L280.647 213.574C283.814 213.302 286.538 211.429 287.934 208.568C289.314 205.691 289.092 202.405 287.322 199.749L204.676 75.8652C202.837 73.1239 199.789 71.6596 196.503 71.9321Z" fill="#80B4F1"/>
<path d="M193.131 198.198C192.978 196.342 193.166 194.623 193.693 192.988C194.221 191.371 195.038 189.924 196.145 188.681C197.252 187.438 198.631 186.416 200.266 185.633C201.9 184.85 203.79 184.356 205.901 184.186C208.03 184.015 209.971 184.169 211.741 184.662C213.512 185.156 215.061 185.939 216.355 186.978C217.649 188.017 218.705 189.311 219.488 190.809C220.271 192.324 220.748 194.01 220.901 195.849C221.055 197.705 220.867 199.424 220.34 201.008C219.812 202.608 218.994 204.021 217.888 205.281C216.781 206.524 215.385 207.546 213.716 208.346C212.048 209.129 210.158 209.623 208.03 209.793C205.901 209.981 203.977 209.81 202.224 209.317C200.47 208.823 198.954 208.04 197.643 207.001C196.349 205.962 195.294 204.685 194.511 203.204C193.761 201.706 193.302 200.054 193.131 198.198ZM215.317 172.25L194.664 173.987L185.793 103.651L212.303 101.421L215.317 172.25Z" fill="#80B4F1"/>
<path d="M104.084 176.576C104.084 176.576 104.527 175.572 104.833 175.078C105.123 174.601 106.366 173.188 106.587 173.511C106.791 173.835 107.643 175.963 107.2 176.559C106.757 177.155 107.234 178.194 104.987 178.824L104.084 176.576Z" fill="#FFB27D"/>
<path d="M79.226 170.191C79.226 170.191 90.6847 179.76 95.1456 178.875C98.636 178.177 104.17 176.423 104.17 176.423C104.17 176.423 105.634 177.802 105.208 179.471C105.208 179.471 98.1763 186.094 93.1535 186.128C85.3214 186.196 81.6267 182.246 81.6267 182.246L79.226 170.191Z" fill="#91CECF"/>
<path d="M59.135 271.055C59.135 271.055 59.4755 276.418 60.4971 276.503C60.6333 276.52 65.7582 276.52 65.7582 276.52L72.2963 276.486C72.2963 276.486 72.2453 274.903 70.3383 274.579C68.4314 274.238 65.2304 272.893 64.0726 270.374C62.8638 267.7 59.135 271.055 59.135 271.055Z" fill="#113C68"/>
<path d="M58.7603 271.43C58.7603 271.43 60.7523 272.094 62.3017 272.094C64.0384 272.094 65.6048 271.617 65.6048 271.617C65.6048 271.617 65.9794 267.99 68.0396 260.022C69.1123 255.834 70.6617 250.453 72.8581 243.779C78.9364 225.306 80.7753 214.511 80.9456 213.489C80.9626 213.438 80.9626 213.404 80.9626 213.404L80.9456 213.387L62.2847 205.197C62.2847 205.197 64.5833 230.652 61.6547 240.425C61.2461 241.787 60.8886 243.387 60.5821 245.107C58.7092 255.715 58.7603 271.43 58.7603 271.43Z" fill="#2A4E96"/>
<path d="M68.0396 260.022C69.1123 255.833 70.6617 250.453 72.8581 243.779C78.9365 225.305 80.7753 214.51 80.9456 213.489C80.9456 213.455 80.9456 213.438 80.9456 213.404L62.2847 205.214C62.2847 205.214 64.5833 230.668 61.6548 240.442C61.2291 241.787 68.0396 260.022 68.0396 260.022Z" fill="#233862"/>
<path d="M73.7095 271.055C73.7095 271.055 74.0501 276.418 75.0716 276.503C75.2078 276.52 80.3328 276.52 80.3328 276.52L86.8709 276.486C86.8709 276.486 86.8198 274.903 84.9128 274.579C83.0059 274.238 79.805 272.893 78.6472 270.374C77.4383 267.7 73.7095 271.055 73.7095 271.055Z" fill="#15447C"/>
<path d="M84.2826 205.793C84.2826 205.793 84.5209 222.292 81.6775 242.536C78.8341 262.78 79.7876 271.395 79.7876 271.395C79.7876 271.395 77.8296 272.025 77.0293 272.093C75.0202 272.264 72.943 271.617 72.943 271.617C72.943 271.617 68.8567 251.355 70.0315 241.225C71.2063 231.094 64.4299 206.44 64.4299 206.44L84.2826 205.793Z" fill="#2A4E96"/>
<path d="M71.0533 167.195L74.6969 169.579L78.017 168.643C78.63 167.774 78.7832 166.106 78.8003 164.658C78.8173 163.228 78.664 162.002 78.664 162.002L73.7434 159.84L71.9046 159.04C71.9046 159.074 72.0408 160.538 72.0749 160.759C72.4154 164.59 71.0533 167.195 71.0533 167.195Z" fill="#FFB27D"/>
<path d="M84.3678 210.374C79.8388 214.75 62.6763 214.018 61.6206 209.199C60.565 204.381 62.7784 168.132 70.5254 165.867C72.1259 165.39 80.7242 168.166 80.7242 168.166C80.7242 168.166 82.0692 171.69 82.9546 176.185C83.1249 177.053 83.6186 186.316 84.0102 194.982C84.1805 199.034 84.3337 202.951 84.4018 205.828C84.4699 208.518 84.4699 210.289 84.3678 210.374Z" fill="#ABDDDA"/>
<path d="M72.4494 160.827C73.454 162.513 76.9444 163.994 78.8002 164.658C78.8173 163.228 78.664 162.002 78.664 162.002L73.7434 159.84C72.6537 159.84 71.9897 160.078 72.4494 160.827Z" fill="#FCA56B"/>
<path d="M80.5198 161.711C80.5198 161.711 72.6026 164.18 71.1383 159.225C69.674 154.271 67.6649 151.257 72.6707 149.469C77.6594 147.681 79.2088 149.282 80.0941 150.814C80.9795 152.347 82.5289 160.945 80.5198 161.711Z" fill="#FFB27D"/>
<path d="M79.7709 150.339C79.7709 150.339 79.2601 156.11 78.0683 155.855C76.8764 155.6 75.5654 155.072 75.7357 156.809C75.9059 158.545 74.5779 161.525 72.8582 161.525C69.1635 161.508 65.1623 152.041 66.1669 150.253C69.0954 145.077 83.9934 144.022 79.7709 150.339Z" fill="#163560"/>
<path d="M78.6131 165.985C78.5109 165.934 72.722 163.346 72.0409 163.568C71.3599 163.789 70.5256 165.866 70.5256 165.866L80.7243 168.165C80.7243 168.165 79.9071 166.53 78.6131 165.985Z" fill="#91CECF"/>
<path d="M114.674 194.046L82.2049 224.626C81.5749 225.222 80.7576 225.409 80.4171 225.051L79.3274 223.893C78.9869 223.536 79.2253 222.736 79.8553 222.14L112.324 191.561C112.954 190.965 113.772 190.777 114.112 191.135L115.202 192.293C115.542 192.667 115.304 193.45 114.674 194.046Z" fill="#1F4D84"/>
<path d="M96.4559 211.208L82.2049 224.625C81.5749 225.22 80.7576 225.408 80.4171 225.05L79.3274 223.892C78.9869 223.535 79.2253 222.735 79.8553 222.139L94.1063 208.722L96.4559 211.208Z" fill="#739AF0"/>
<path d="M107.217 182.502C108.46 186.605 110.775 190.453 114.129 193.62C124.362 203.257 140.469 202.763 150.106 192.53C159.607 182.434 159.249 166.616 149.408 156.945C149.272 156.809 149.135 156.69 149.016 156.554C138.783 146.917 122.677 147.411 113.04 157.643C106.536 164.522 104.646 174.074 107.217 182.502ZM114.487 159.023C120.089 153.063 128.074 150.697 135.582 151.991C139.958 152.74 144.164 154.749 147.62 158.018C157.053 166.889 157.495 181.719 148.625 191.151C145.356 194.625 141.286 196.872 136.979 197.894C129.572 199.647 121.451 197.757 115.491 192.156C106.059 183.285 105.616 168.455 114.487 159.023Z" fill="#1F4D84"/>
<g opacity="0.5">
<path d="M148.625 191.151C145.356 194.624 141.286 196.872 136.979 197.893C129.572 199.647 121.451 197.757 115.492 192.155C106.059 183.285 105.616 168.455 114.487 159.022C120.089 153.063 128.074 150.696 135.583 151.99C139.958 152.74 144.164 154.749 147.62 158.018C157.053 166.871 157.513 181.718 148.625 191.151Z" fill="#B3CFF9"/>
</g>
<path d="M84.4018 205.828C66.5071 193.075 67.9884 176.066 67.9884 176.066C74.5265 179.76 81.0136 187.916 83.9932 194.982C84.1634 199.034 84.3167 202.95 84.4018 205.828Z" fill="#91CECF"/>
<path d="M102.058 200.021C103.318 199.732 104.169 198.778 104.34 198.608C104.34 198.608 104.885 198.642 104.255 199.8C104.203 199.902 104.084 200.14 103.999 200.311C103.965 200.379 104.016 200.464 104.084 200.464C104.816 200.515 105.549 200.226 106.945 200.532C107.132 200.566 107.2 201.043 107.183 201.23C107.166 201.571 107.2 201.945 106.808 202.456C106.587 202.762 105.957 203.069 104.544 203.648C104.016 203.869 102.484 203.699 101.054 203.205L99.9128 202.677L100.27 200.549L100.56 200.617C101.02 200.702 101.581 200.14 102.058 200.021Z" fill="#FFB27D"/>
<path d="M73.5389 168.166C73.5389 168.166 57.4661 171.23 78.2723 194.505C81.5924 198.234 99.5722 203.07 99.5722 203.07C99.5722 203.07 101.394 201.52 100.475 200.26C100.475 200.26 88.0964 191.27 85.3722 189.84C84.1463 189.193 80.6219 175.487 78.6128 172.184C76.6377 168.915 73.5389 168.166 73.5389 168.166Z" fill="#ABDDDA"/>
<path d="M104.527 176.847C104.527 176.847 105.055 175.843 105.157 175.315C105.259 174.787 105.923 173.238 106.196 172.965C106.298 172.863 106.672 172.999 106.706 173.459C106.723 173.663 106.621 174.038 106.451 174.481C106.162 175.196 106.213 176.183 106.111 176.507C105.855 177.324 104.527 176.847 104.527 176.847Z" fill="#FFB27D"/>
<path d="M110.929 136.956C110.657 137.262 110.623 137.62 110.759 137.994C111.014 138.692 111.832 139.459 112.802 140.225C112.921 140.327 113.04 140.412 113.126 140.497C113.143 140.514 113.177 140.548 113.194 140.565C113.211 140.582 113.228 140.599 113.245 140.616C114.147 141.434 113.807 141.638 115.407 143.307C117.246 145.214 118.506 145.248 118.863 145.077C119.17 144.924 118.557 143.92 117.859 142.779C117.825 142.728 117.791 142.677 117.757 142.608C117.672 142.455 117.569 142.302 117.484 142.149C116.684 140.787 116.888 140.14 117.076 138.097C117.229 136.445 119.647 128.851 119.647 128.851L116.139 128.238C116.139 128.238 115.084 134.283 113.909 135.219C113.279 135.713 112.581 135.713 111.985 136.087C111.951 136.121 111.9 136.138 111.866 136.173C111.542 136.411 111.202 136.649 110.929 136.956Z" fill="#FFB27D"/>
<path d="M110.929 136.956C110.657 137.262 110.623 137.62 110.759 137.994C111.065 138.693 111.866 139.459 112.802 140.225C112.921 140.327 113.023 140.412 113.126 140.497C113.143 140.514 113.177 140.548 113.194 140.565C113.211 140.582 113.228 140.599 113.245 140.616C114.147 141.434 113.807 141.638 115.407 143.307C117.246 145.214 118.506 145.248 118.863 145.077C119.17 144.924 118.557 143.92 117.859 142.779C117.501 142.643 115.85 141.979 114.59 140.361C113.534 138.999 112.802 137.279 112.087 136.207C112.002 136.19 111.968 136.19 111.883 136.173C111.542 136.411 111.202 136.649 110.929 136.956Z" fill="#233862"/>
<path d="M139.261 134.777C139.482 135.867 141.031 135.679 142.751 135.254C144.471 134.828 144.062 135.339 146.531 135.066C148.983 134.794 149.732 133.875 149.817 133.517C149.885 133.194 148.676 133.074 147.365 132.921C147.195 132.904 147.042 132.887 146.872 132.87C145.407 132.683 144.318 131.729 142.99 130.963C141.73 130.231 139.84 127.217 139.84 127.217L136.468 127.49C136.468 127.49 138.239 130.18 138.92 131.355C139.329 132.036 139.295 132.955 139.244 133.653C139.21 134.011 139.193 134.402 139.261 134.777Z" fill="#FFB27D"/>
<path d="M142.751 135.253C144.471 134.827 144.062 135.338 146.531 135.066C148.983 134.793 149.732 133.874 149.817 133.516C149.885 133.193 148.676 133.074 147.365 132.92L147.348 132.937C147.348 132.937 145.867 133.976 143.824 134.027C142.155 134.061 140.385 133.584 139.244 133.601C139.21 133.976 139.193 134.368 139.278 134.759C139.482 135.866 141.032 135.679 142.751 135.253Z" fill="#233862"/>
<path d="M126.355 113.204L123.205 121.684L119.084 132.751C119.084 132.751 117.961 132.853 116.905 132.546C115.918 132.257 114.794 131.525 114.794 131.525C114.794 131.525 115.935 119.64 118.08 112.813C118.625 111.059 119.238 109.646 119.919 108.846C123.205 104.947 126.355 113.204 126.355 113.204Z" fill="#233862"/>
<path d="M123.154 99.7363C121.366 99.1574 116.684 99.7193 111.593 100.639C110.197 100.894 108.784 100.247 108.035 99.0382L95.2478 98.0337C95.2478 98.0337 91.0253 107.381 93.3409 113.34C93.6814 114.209 94.4305 114.771 95.5713 114.788C95.5713 114.788 103.301 114.805 105.77 114.805C112.121 114.805 119.221 110.446 120.14 110.259C121.639 109.952 122.235 112.966 123.75 116.116C125.248 119.266 137.865 130.094 137.865 130.094C137.865 130.094 139.806 130.111 140.606 129.822C141.474 129.498 141.781 129.073 141.781 129.073C141.781 129.073 127.802 101.235 123.154 99.7363Z" fill="#2A4E96"/>
<path d="M106.689 61.5122C105.736 60.9504 104.816 60.8652 104.255 60.8823C103.863 60.8993 103.471 60.8652 103.08 60.8142C98.2103 60.0991 95.2647 67.182 95.0945 69.3273C94.771 73.2604 92.6938 73.8563 89.7652 76.3251C83.8912 81.2628 85.6108 87.0006 88.8288 89.1289C90.7528 90.4059 94.141 89.1289 94.141 89.1289C94.1921 89.163 103.42 83.9699 107.983 81.4671C114.794 80.4625 109.431 63.1468 106.689 61.5122Z" fill="#233862"/>
<path d="M104.152 79.3051C104.169 79.3221 101.905 80.0883 100.407 79.4243C98.9935 78.7943 97.9038 76.4617 97.9378 76.4617C98.5848 76.4277 99.3 75.8658 99.8448 72.1541L100.117 72.2562L104.748 73.9248C104.748 73.9248 104.408 75.4061 104.204 76.8193C103.999 77.9941 103.897 79.1348 104.152 79.3051Z" fill="#FFB27D"/>
<path d="M104.731 73.9076C104.731 73.9076 104.544 74.7078 104.272 76.2062C101.616 75.7294 100.475 73.6862 100.1 72.239L104.731 73.9076Z" fill="#ED975D"/>
<path d="M105.43 75.3881C105.43 75.3881 99.0958 74.5368 99.6917 70.6037C100.288 66.6706 99.862 63.9124 103.931 64.287C108.001 64.6615 108.562 66.279 108.682 67.6411C108.801 69.0032 107.098 75.5073 105.43 75.3881Z" fill="#FFB27D"/>
<path d="M108.443 65.4798C108.443 65.4798 104.391 68.9702 101.633 69.2597C98.8743 69.5321 97.8357 68.6467 97.8357 68.6467C97.8357 68.6467 99.4532 67.3017 100.441 65.1223C100.73 64.4753 101.343 64.0326 102.041 63.9815C103.999 63.8113 107.745 63.7261 108.443 65.4798Z" fill="#233862"/>
<path d="M105.906 65.1725C105.906 65.1725 107.268 66.4835 107.694 67.454C108.103 68.3905 108.222 70.638 107.898 71.5233C107.898 71.5233 110.01 67.42 108.818 65.4109C107.558 63.2996 105.906 65.1725 105.906 65.1725Z" fill="#233862"/>
<path d="M109.482 88.6355C109.278 101.456 109.431 98.7831 108.018 99.992C107.677 100.281 106.724 100.452 105.481 100.537C101.548 100.792 94.6349 100.145 94.3796 99.4131C93.4772 96.8932 94.1071 96.11 93.358 92.2621C93.2728 91.8534 93.1877 91.4107 93.0685 90.934C92.4385 88.2949 91.8256 87.3925 94.056 83.153C96.0822 79.305 98.1934 76.1892 98.3807 76.2914C103.727 79.4753 104.17 76.8022 104.17 76.8022C104.17 76.8022 109.584 82.3868 109.482 88.6355Z" fill="#ABDDDA"/>
<path d="M123.205 121.701L119.084 132.768C119.084 132.768 117.961 132.87 116.905 132.563C115.918 132.274 114.794 131.542 114.794 131.542C114.794 131.542 115.935 119.657 118.08 112.83L123.205 121.701Z" fill="#2A4E96"/>
<path d="M104.187 76.8011C104.187 76.8011 109.703 77.7376 110.333 80.1042C110.98 82.4709 113.109 96.8752 113.109 96.8752C113.109 96.8752 111.559 98.3905 110.265 97.0965C108.971 95.8025 106.196 83.6287 106.196 83.6287L104.187 76.8011Z" fill="#ABDDDA"/>
<path d="M105.498 100.536C101.565 100.792 94.652 100.145 94.3966 99.4125C93.4942 96.8926 94.1242 96.1094 93.3751 92.2614L95.265 86.9152C95.265 86.9152 94.9415 92.8574 96.6952 94.4238C98.4489 95.9902 103.88 97.4374 104.732 98.7484C105.14 99.4125 105.413 100.025 105.498 100.536Z" fill="#91CECF"/>
<path d="M100.986 98.0334C100.986 98.0334 104.868 97.1651 105.498 97.5226C106.127 97.8632 107.66 99.1231 107.847 99.5488C108.034 99.9915 106.451 99.2253 105.94 99.072C105.6 98.9869 104.731 99.2934 104.289 99.4296C102.45 100.043 101.343 99.719 101.343 99.719L100.986 98.0334Z" fill="#FFB27D"/>
<path d="M98.3977 76.2915C98.3977 76.2915 93.1876 76.615 91.3828 79.1179C88.8459 82.6593 83.8061 97.7447 86.6836 99.7538C89.9356 102.018 101.462 100.35 101.462 100.35C101.462 100.35 101.854 98.5619 101.309 97.6936C100.781 96.8252 92.0979 95.4121 91.6893 95.0204C91.2807 94.6118 96.695 87.2054 96.695 86.0135C96.7291 84.8047 98.3977 76.2915 98.3977 76.2915Z" fill="#ABDDDA"/>
<path d="M105.685 98.5958C105.685 98.5958 106.502 99.6515 106.758 99.7706C107.03 99.8898 107.2 99.8728 107.2 99.8728L106.656 98.8853L105.685 98.5958Z" fill="#FFB27D"/>
<path d="M105.498 97.5231L107.864 98.6638C107.864 98.6638 107.762 98.8341 107.473 98.8171C107.183 98.8001 106.451 98.5276 106.451 98.5276L105.498 97.5231Z" fill="#FFB27D"/>
<path d="M125.657 100.23L100.986 100.213V100.758L125.452 100.775L125.657 100.23Z" fill="#233862"/>
<path d="M106.757 100.757L125.452 100.774L131.071 86.7953L112.41 86.7783L106.757 100.757Z" fill="#233862"/>
<path d="M120.736 93.7772C120.872 93.2834 120.6 92.8918 120.106 92.8918C119.612 92.8918 119.101 93.2834 118.965 93.7772C118.829 94.271 119.101 94.6626 119.595 94.6626C120.072 94.6626 120.583 94.271 120.736 93.7772Z" fill="white"/>
<path d="M247.207 153.469C244.687 152.635 242.951 153.691 242.951 153.691C235.697 153.98 235.425 161.421 236.276 164.179C237.468 168.061 233.246 171.126 237.928 172.692C243.376 174.514 247.939 172.352 247.616 173.288C264.829 174.667 252.928 155.376 247.207 153.469Z" fill="#163560"/>
<path d="M239.682 189.617C239.682 189.617 239.001 190.979 237.741 192.545C236.242 194.435 228.325 189.957 229.006 189.617C229.687 189.276 233.654 177.835 234.608 176.404C235.561 174.974 238.779 174.225 238.779 174.225L239.682 189.617Z" fill="#ABDDDA"/>
<path d="M266.362 266.779C266.362 266.779 268.541 268.771 268.116 270.184C267.69 271.597 265.715 272.534 265.459 274.27C265.187 276.007 264.131 276.944 263.178 276.944C262.224 276.944 258.615 276.944 258.615 276.944C258.615 276.944 257.917 275.735 259.619 275.36C261.322 274.985 261.969 272.959 261.85 271.069C261.731 269.18 262.003 266.677 262.003 266.677L265.613 265.842L266.362 266.779Z" fill="#1F447F"/>
<path d="M247.888 267.614C247.888 267.614 248.672 276.042 247.718 276.519L235.459 276.502C235.459 276.502 235.459 275.089 237.434 274.765C239.409 274.459 242.866 273.301 243.444 270.73C244.023 268.159 247.888 267.614 247.888 267.614Z" fill="#1C3154"/>
<path d="M257.321 183.929C257.321 183.929 257.508 186.5 257.321 189.599C257.202 191.642 255.124 194.383 254.835 195.064C254.103 196.767 253.269 197.039 253.269 197.039L246.833 198.623L244.568 199.185L237.434 197.056C237.434 197.056 234.182 187.981 235.493 182.873C236.804 177.765 238.796 174.224 238.796 174.224C238.796 174.224 243.649 173.134 252.196 173.747L257.321 183.929Z" fill="#ABDDDA"/>
<path d="M257.934 189.668C257.815 191.711 255.124 194.384 254.835 195.065C254.103 196.768 253.269 197.04 253.269 197.04L246.833 198.624L245.675 195.286C245.675 195.286 255.073 192.818 253.558 184.117L257.934 189.668Z" fill="#91CECF"/>
<path d="M237.877 198.419C237.877 198.419 234.335 209.418 234.114 213.164C233.893 216.909 240.873 266.354 241.146 268.09C241.418 269.725 243.427 270.746 243.427 270.746C243.427 270.746 244.364 271.291 245.675 270.917C247.514 270.406 248.093 269.776 248.093 269.776C248.093 269.776 250.851 234.514 249.148 221.915C247.446 209.316 247.429 198.419 247.429 198.419H237.877Z" fill="#233862"/>
<path d="M252.86 198.078C252.86 198.078 258.257 205.314 258.751 210.2C259.262 215.087 259.534 232.266 260.607 237.034C261.68 241.801 265.613 250.978 265.613 265.842C265.613 265.842 265.204 266.694 263.944 267.153C263.535 267.307 263.008 267.443 262.48 267.562C261.441 267.8 260.369 267.289 259.892 266.336C257.236 260.99 248.757 243.708 248.331 240.133C248.024 237.596 245.351 220.808 239.511 210.949C238.115 208.583 240.363 199.184 240.363 199.184L252.86 198.078Z" fill="#2A4E96"/>
<path d="M237.315 196.716C237.315 196.716 238.728 197.84 241.555 197.891C244.926 197.959 253.269 197.04 253.269 197.04C253.269 197.04 253.643 198.078 253.626 199.168C253.626 199.168 243.445 201.739 237.536 199.543C237.536 199.543 236.77 198.112 237.315 196.716Z" fill="#233862"/>
<path d="M240.755 200.802C239.903 200.802 239.222 200.019 239.222 199.066C239.222 198.112 239.903 197.329 240.755 197.329C241.606 197.329 242.287 198.112 242.287 199.066C242.287 200.019 241.589 200.802 240.755 200.802ZM240.755 197.823C240.193 197.823 239.733 198.368 239.733 199.049C239.733 199.73 240.193 200.275 240.755 200.275C241.317 200.275 241.776 199.73 241.776 199.049C241.776 198.368 241.317 197.823 240.755 197.823Z" fill="white"/>
<path d="M248.11 203.953L232.803 204.106L225.26 186.399L240.567 186.246L248.11 203.953Z" fill="#1E70D0"/>
<path d="M246.101 195.949L244.977 194.57C244.977 194.57 244.211 193.889 243.666 193.77C243.121 193.651 241.946 192.987 241.844 193.174C241.725 193.361 242.747 194.706 242.747 194.706H242.798C241.64 195.575 238.728 194.809 238.371 195.166C237.928 195.592 238.967 196.528 239.529 197.039C240.09 197.55 241.674 198.435 242.917 198.044C243.819 197.754 245.249 197.482 245.249 197.482L246.101 195.949Z" fill="#FFB27D"/>
<path d="M226.418 189.515C226.418 189.515 227.389 188.425 227.985 188.953C228.598 189.481 227.831 192.052 227.235 191.796C226.64 191.541 226.078 189.838 226.418 189.515Z" fill="#FFB27D"/>
<path d="M252.196 173.731C252.196 173.731 256.572 174.208 259.722 179.929C262.207 184.441 266.447 192.75 264.846 195.082C264.148 196.121 257.406 199.781 244.432 197.687C244.432 197.687 244.636 196.053 245.692 195.287C245.692 195.287 256.623 191.779 256.606 191.081C256.572 189.753 255.124 188.612 249.029 182.517C247.343 180.848 252.196 173.731 252.196 173.731Z" fill="#ABDDDA"/>
<path d="M248.808 173.951C248.961 173.747 248.757 173.1 248.518 171.908C248.297 170.818 247.923 169.15 247.94 167.26L247.616 167.311L242.185 168.23C242.185 168.23 242.304 169.678 242.304 171.057C242.304 171.074 242.304 171.074 242.304 171.091C242.304 172.283 241.98 174.07 242.389 174.309C244.466 175.501 248.229 174.734 248.808 173.951Z" fill="#FFB27D"/>
<path d="M242.202 168.231C242.202 168.231 242.304 170.275 242.321 171.654C245.368 171.586 246.986 168.623 247.633 167.329L242.202 168.231Z" fill="#E8945B"/>
<path d="M241.861 170.667C241.861 170.667 248.978 169.645 248.28 165.235C247.582 160.825 248.024 157.692 243.444 158.152C238.864 158.612 238.251 160.434 238.132 161.966C238.013 163.515 240.005 170.82 241.861 170.667Z" fill="#FFB27D"/>
<path d="M240.209 158.56C240.209 158.56 242.985 163.447 246.083 163.736C249.182 164.026 250.357 163.021 250.357 163.021C250.357 163.021 247.786 161.574 246.799 158.475C246.799 158.458 241.282 155.853 240.209 158.56Z" fill="#163560"/>
<path d="M240.754 158.9C240.754 158.9 239.392 159.667 238.967 160.807C238.558 161.931 238.269 163.361 238.66 165.03C238.66 165.03 236.634 161.744 237.962 159.479C239.375 157.079 240.754 158.9 240.754 158.9Z" fill="#163560"/>
<path d="M323.073 57.9962L323.858 53.9443L320.759 53.337C320.769 52.6774 320.727 52.0387 320.623 51.4L323.607 50.3739L322.266 46.4685L319.282 47.4946C318.968 46.9292 318.602 46.3952 318.194 45.8822L320.267 43.495L317.147 40.7832L315.073 43.1704C314.518 42.8458 313.943 42.5631 313.325 42.3223L313.932 39.2231L309.88 38.4379L309.273 41.537C308.613 41.5266 307.975 41.5685 307.336 41.6732L306.31 38.6892L302.404 40.0293L303.431 43.0134C302.865 43.3275 302.331 43.6939 301.818 44.1023L299.431 42.0291L296.719 45.1493L299.106 47.2224C298.782 47.7773 298.499 48.3532 298.258 48.9709L295.159 48.3636L294.374 52.4156L297.473 53.0229C297.462 53.6825 297.504 54.3212 297.609 54.9599L294.625 55.986L295.965 59.8913L298.949 58.8653C299.263 59.4307 299.63 59.9646 300.038 60.4777L297.965 62.8649L301.085 65.5767L303.158 63.1895C303.713 63.514 304.289 63.7967 304.907 64.0375L304.3 67.1367L308.352 67.922L308.959 64.8228C309.618 64.8333 310.257 64.7914 310.896 64.6867L311.922 67.6707L315.827 66.3305L314.801 63.3465C315.367 63.0324 315.901 62.6659 316.414 62.2576L318.801 64.3307L321.513 61.2106L319.125 59.1375C319.45 58.5826 319.733 58.0067 319.973 57.389L323.073 57.9962ZM308.006 58.8967C300.52 57.3052 302.698 46.1439 310.226 47.4737C317.712 49.0651 315.545 60.2264 308.006 58.8967Z" fill="#B8D7FC"/>
<path d="M64.5064 65.4577L65.8828 58.3557L60.4508 57.2913C60.4691 56.1352 60.3957 55.0158 60.2122 53.8963L65.4423 52.0979L63.0934 45.2528L57.8632 47.0513C57.3127 46.0603 56.6704 45.1244 55.9547 44.2252L59.5883 40.0411L54.1196 35.2881L50.486 39.4722C49.5134 38.9033 48.504 38.4078 47.4213 37.9857L48.4857 32.5537L41.3837 31.1774L40.3194 36.6094C39.1632 36.591 38.0438 36.6644 36.9244 36.8479L35.1259 31.6178L28.2809 33.9668L30.0793 39.1969C29.0883 39.7474 28.1524 40.3897 27.2532 41.1054L23.0691 37.4719L18.3161 42.9406L22.5002 46.5741C21.9313 47.5468 21.4358 48.5561 21.0137 49.6388L15.5817 48.5744L14.2054 55.6764L19.6374 56.7408C19.619 57.8969 19.6924 59.0163 19.876 60.1358L14.6458 61.9342L16.9948 68.7793L22.2249 66.9808C22.7755 67.9718 23.4178 68.9077 24.1335 69.8069L20.4999 73.991L25.9686 78.744L29.6022 74.5599C30.5748 75.1288 31.5841 75.6243 32.6668 76.0464L31.6025 81.4784L38.7044 82.8547L39.7688 77.4227C40.9249 77.4411 42.0444 77.3677 43.1638 77.1842L44.9622 82.4143L51.8073 80.0653L50.0088 74.8352C50.9998 74.2847 51.9357 73.6424 52.835 72.9267L57.0191 76.5602L61.7721 71.0915L57.588 67.458C58.1569 66.4853 58.6523 65.476 59.0744 64.3933L64.5064 65.4577ZM38.0988 67.0359C24.9776 64.2465 28.7947 44.684 41.9893 47.0146C55.1105 49.804 51.3118 69.3665 38.0988 67.0359Z" fill="#B8D7FC"/>
</svg>
