<svg width="385" height="193" viewBox="0 0 385 193" fill="none" xmlns="http://www.w3.org/2000/svg">
<path d="M35.9728 67.2968C55.67 60.5405 62.546 -34.1376 150.043 13.2015C184.843 32.0322 234.942 9.24654 282.924 21.6955C326.987 33.1258 328.008 66.1133 322.438 77.993C316.343 90.9663 340.634 106.486 365.496 117.138C404.5 133.856 375.825 192.595 338.968 192.865C302.126 193.15 31.4388 192.311 31.4388 192.311C31.4388 192.311 -42.2306 94.1422 35.9728 67.2968Z" fill="#E5F0FA"/>
<path d="M106.819 108.239C106.819 108.239 108.531 106.247 106.924 104.973C106.924 104.973 105.753 104.269 104.793 104.314C104.793 104.314 106.159 106.591 105.708 106.816C105.273 107.041 104.372 104.179 104.372 104.179C104.372 104.179 101.7 103.925 100.829 104.329C100.829 104.329 103.111 106.202 102.631 106.307C102.15 106.412 99.673 104.584 99.673 104.584C99.673 104.584 97.1809 105.003 97.316 106.516C97.4511 108.029 98.3068 108.494 98.6822 108.464C99.0575 108.419 101.264 107.58 101.309 107.895C101.355 108.209 100.033 109.213 99.1025 109.258C99.1025 109.258 100.859 111.19 102.03 110.636C103.201 110.082 103.291 109.198 104.027 108.868C104.747 108.539 105.378 108.539 105.078 108.868C104.777 109.213 103.456 109.543 103.051 110.277C102.631 111.011 102.255 111.505 103.471 111.325C104.672 111.145 106.639 110.262 106.729 109.258C106.819 108.239 106.819 108.239 106.819 108.239Z" fill="#599DAD"/>
<path d="M98.5621 106.561C98.5621 106.561 105.333 106.307 106.819 108.239C106.819 108.239 107.15 109.228 108.171 110.127L108.336 110.561C108.336 110.561 107.165 109.333 106.744 109.258C106.729 109.243 107.39 106.846 98.5621 106.561Z" fill="#599DAD"/>
<path d="M108.171 110.127C108.171 110.127 109.627 111.205 109.717 113.108L109.447 113.138C109.447 113.138 108.981 111.16 108.141 110.381C107.315 109.602 108.171 110.127 108.171 110.127Z" fill="#599DAD"/>
<path d="M112.825 105.722C112.825 105.722 110.093 104.194 111.369 102.127C111.369 102.127 112.39 100.854 113.486 100.524C113.486 100.524 112.9 103.61 113.486 103.685C114.071 103.76 113.891 100.194 113.891 100.194C113.891 100.194 116.773 98.8163 117.899 98.9211C117.899 98.9211 116.113 101.932 116.698 101.857C117.284 101.782 119.281 98.7264 119.281 98.7264C119.281 98.7264 122.223 98.1871 122.704 99.9248C123.184 101.663 122.418 102.546 121.983 102.651C121.548 102.756 118.74 102.726 118.815 103.086C118.89 103.445 120.782 104.03 121.833 103.7C121.833 103.7 120.662 106.576 119.145 106.426C117.614 106.277 117.149 105.333 116.203 105.258C115.257 105.183 114.566 105.438 115.032 105.692C115.512 105.947 117.104 105.782 117.869 106.426C118.635 107.071 119.251 107.475 117.839 107.76C116.413 108.044 113.876 107.865 113.365 106.786C112.825 105.722 112.825 105.722 112.825 105.722Z" fill="#86D1CD"/>
<path d="M121.337 100.494C121.337 100.494 113.696 102.966 112.825 105.722C112.825 105.722 112.855 106.951 112.104 108.374V108.913C112.104 108.913 112.9 107.056 113.335 106.801C113.335 106.816 111.624 104.419 121.337 100.494Z" fill="#599DAD"/>
<path d="M112.089 108.374C112.089 108.374 110.903 110.156 111.579 112.329L111.879 112.254C111.879 112.254 111.579 109.857 112.194 108.658C112.825 107.445 112.089 108.374 112.089 108.374Z" fill="#599DAD"/>
<path d="M108.471 103.625C108.471 103.625 112.074 101.618 110.393 98.8913C110.393 98.8913 109.056 97.2134 107.615 96.779C107.615 96.779 108.381 100.854 107.615 100.944C106.849 101.033 107.09 96.3445 107.09 96.3445C107.09 96.3445 103.306 94.5319 101.805 94.6667C101.805 94.6667 104.162 98.6366 103.381 98.5467C102.616 98.4568 99.9735 94.427 99.9735 94.427C99.9735 94.427 96.0851 93.7079 95.4695 96C94.839 98.292 95.8599 99.4455 96.4304 99.5953C97.0009 99.7452 100.694 99.6852 100.604 100.165C100.514 100.644 98.0067 101.408 96.6255 100.974C96.6255 100.974 98.1569 104.749 100.184 104.569C102.195 104.374 102.826 103.131 104.072 103.041C105.318 102.951 106.234 103.281 105.603 103.61C104.973 103.94 102.871 103.715 101.865 104.569C100.859 105.423 100.049 105.947 101.91 106.337C103.787 106.726 107.135 106.486 107.81 105.048C108.471 103.625 108.471 103.625 108.471 103.625Z" fill="#86D1CD"/>
<path d="M97.2554 96.719C97.2554 96.719 107.329 99.9698 108.485 103.61C108.485 103.61 108.44 105.243 109.446 107.101V107.82C109.446 107.82 108.395 105.378 107.81 105.048C107.81 105.048 110.062 101.902 97.2554 96.719Z" fill="#599DAD"/>
<path d="M109.431 107.116C109.431 107.116 110.993 109.468 110.092 112.344L109.686 112.239C109.686 112.239 110.077 109.078 109.266 107.49C108.47 105.902 109.431 107.116 109.431 107.116Z" fill="#599DAD"/>
<path d="M108.591 118.546C104.703 118.546 101.535 115.4 101.535 111.505H115.647C115.647 115.4 112.495 118.546 108.591 118.546Z" fill="#F1A34F"/>
<path d="M106.865 118.501C107.15 118.531 107.45 118.561 107.735 118.561C111.624 118.561 114.792 115.415 114.792 111.52H113.035C113.035 115.1 110.348 118.066 106.865 118.501Z" fill="#FFB973"/>
<path d="M101.445 118.905H115.738C115.738 118.426 115.347 118.036 114.867 118.036H102.316C101.835 118.036 101.445 118.426 101.445 118.905Z" fill="#F1A34F"/>
<path d="M101.396 111.729H115.884V111.52H101.396V111.729Z" fill="#D86713"/>
<path d="M235.718 163.485H344.102C344.824 163.485 345.43 162.895 345.43 162.161V123.341H241.764C237.709 123.341 234.405 126.653 234.405 130.685V162.161C234.405 162.895 234.996 163.485 235.718 163.485Z" fill="#A7C1E9"/>
<path d="M228.127 161.009H338.013C342.01 161.009 345.271 164.263 345.271 168.251V185.127C345.271 189.116 342.01 192.37 338.013 192.37H228.127C224.13 192.37 220.869 189.116 220.869 185.127V168.251C220.869 164.263 224.144 161.009 228.127 161.009Z" fill="#A7C1E9"/>
<path d="M330.249 161.57C334.951 161.57 338.763 157.759 338.763 153.057V129.173C338.763 125.976 341.39 123.355 344.593 123.355H345.401C345.603 123.355 345.762 123.514 345.762 123.715V162.146V169.475V191.808C345.762 192.111 345.517 192.37 345.199 192.37H320.552C320.249 192.37 319.99 192.125 319.99 191.808V171.794C319.99 166.178 324.607 161.57 330.249 161.57Z" fill="#7498CD"/>
<path d="M320.047 123.629C320.047 123.629 328.171 122.851 330.985 127.517C333.799 132.182 330.985 149.734 333.366 152.845C335.747 155.955 338.561 157.841 338.46 161.513L320.985 161.7C320.985 161.7 305.617 162.247 305.733 170.426C305.848 178.59 305.733 192.715 305.733 192.715H296.945C296.945 192.715 296.555 156.459 305.444 154.328C324.968 149.648 320.047 123.629 320.047 123.629Z" fill="#7499D2"/>
<path d="M233.928 159.713L234.404 159.727V129.374C234.404 126.048 237.103 123.341 240.45 123.341H259.094C259.094 123.341 262.933 136.012 263.438 140.289C263.943 144.565 278.633 144.738 280.638 149.994C282.644 155.264 282.976 161.182 282.976 161.182H275.516C275.516 161.182 275.227 161.282 274.722 161.498C271.793 162.766 261.677 168.165 261.821 182.003V192.255H224.924C224.909 192.269 219.065 162.19 233.928 159.713Z" fill="#7499D2"/>
<path d="M296.988 146.711C296.988 146.711 295.458 146.25 294.91 146.523C294.376 146.797 292.933 147.661 293.049 148.323C293.178 148.986 295.733 149.389 297.262 148.366C298.806 147.344 296.988 146.711 296.988 146.711Z" fill="#DCABB0"/>
<path d="M302.111 190.282C302.111 190.714 301.894 191.016 301.533 191.203C300.87 191.578 299.802 191.29 298.518 191.232C298.359 191.232 296.656 191.952 294.246 192.154C291.505 192.384 290.494 191.549 290.336 191.175C290.206 190.858 291.375 190.483 292.688 190.066C292.746 190.051 292.818 190.023 292.875 190.008C293.049 189.951 293.222 189.893 293.395 189.835C294.953 189.317 296.497 188.698 296.887 187.128C297.291 185.458 296.064 180.779 296.064 180.779L300.408 180.318C300.408 180.318 300.826 185.199 301.101 186.725C301.245 187.532 301.62 188.18 301.837 188.885C301.851 188.928 301.865 188.986 301.88 189.029C301.995 189.432 302.111 189.85 302.111 190.282Z" fill="#CB7F83"/>
<path d="M302.111 190.282C302.111 190.714 301.894 191.016 301.534 191.203C300.567 191.823 298.835 190.959 296.036 192.255C295.92 192.312 294.968 192.24 294.319 192.24C293.467 192.226 292.241 192.298 291.952 192.255C290.625 192.039 290.437 191.391 290.336 191.175C290.206 190.858 291.375 190.483 292.688 190.066C293.063 190.21 294.809 190.815 296.887 190.426C298.72 190.08 300.538 189.173 301.837 188.871C301.851 188.914 301.866 188.972 301.88 189.015C301.995 189.432 302.111 189.85 302.111 190.282Z" fill="#2F5791"/>
<path d="M301.664 191.045L301.029 192.24H299.629V191.376L301.664 191.045Z" fill="#2F5791"/>
<path d="M324.535 148.626L310.48 147.287C310.48 147.287 288.965 147.387 286.959 150.224C286.959 150.224 283.12 152.873 287.464 163.86C291.807 174.846 296.901 185.818 296.901 185.818C296.901 185.818 298.2 186.178 299.975 186.034C300.682 185.977 301.62 185.746 301.62 185.746C301.62 185.746 300.639 169.36 298.474 162.981C296.31 156.603 295.631 157.841 299.47 158.201C303.308 158.561 315.66 161.383 321.346 160.678C327.046 159.958 324.535 148.626 324.535 148.626Z" fill="#2C3F77"/>
<path d="M304.809 190.282C304.809 190.714 304.593 191.016 304.232 191.203C303.568 191.578 302.471 190.771 297.464 191.952C294.795 192.586 293.207 191.563 293.034 191.175C292.904 190.858 294.073 190.483 295.386 190.066C295.444 190.051 295.516 190.023 295.574 190.008C295.747 189.951 295.92 189.893 296.093 189.835C297.652 189.317 299.196 188.698 299.585 187.128C299.989 185.458 298.763 180.779 298.763 180.779L303.106 180.318C303.106 180.318 303.525 185.199 303.799 186.725C303.943 187.532 304.319 188.18 304.535 188.885C304.549 188.928 304.564 188.986 304.578 189.029C304.708 189.432 304.809 189.85 304.809 190.282Z" fill="#DCABB0"/>
<path d="M256.786 190.282C256.786 190.714 256.569 191.016 256.209 191.203C255.545 191.578 254.362 191.607 253.092 191.549C252.933 191.549 252.774 191.535 252.644 191.535C252.616 191.535 252.572 191.535 252.543 191.535C252.515 191.535 252.486 191.535 252.471 191.535C251.201 191.563 251.346 191.938 248.936 192.154C246.194 192.384 245.184 191.549 245.025 191.175C244.895 190.858 246.064 190.483 247.377 190.066C247.435 190.051 247.507 190.023 247.565 190.008C247.738 189.951 247.911 189.893 248.084 189.835C249.643 189.317 251.187 188.698 251.577 187.128C251.981 185.458 250.754 180.779 250.754 180.779L255.098 180.318C255.098 180.318 255.516 185.199 255.79 186.725C255.934 187.532 256.31 188.18 256.526 188.885C256.541 188.928 256.555 188.986 256.569 189.029C256.685 189.432 256.786 189.85 256.786 190.282Z" fill="#DCABB0"/>
<path d="M256.786 190.282C256.786 190.714 256.569 191.016 256.209 191.204C255.502 191.535 254.347 191.578 253.092 191.549C252.933 191.549 252.774 191.549 252.644 191.549C252.616 191.549 252.572 191.549 252.543 191.549C252.515 191.549 252.486 191.549 252.471 191.549C251.201 191.578 251.346 191.952 248.936 192.168C246.194 192.399 245.184 191.563 245.025 191.189C244.895 190.872 246.064 190.498 247.377 190.08C247.753 190.224 249.499 190.829 251.577 190.44C253.409 190.095 255.227 189.188 256.526 188.885C256.541 188.928 256.555 188.986 256.569 189.029C256.685 189.432 256.786 189.85 256.786 190.282Z" fill="#163560"/>
<path d="M228.618 184.753C228.373 185.962 226.656 185.761 224.737 185.285C222.817 184.81 223.279 185.372 220.537 185.069C217.81 184.767 216.973 183.745 216.887 183.342C216.814 182.982 218.156 182.852 219.614 182.694C219.801 182.679 219.975 182.65 220.162 182.622C221.793 182.42 222.991 181.369 224.477 180.505C225.891 179.684 227.983 176.344 227.983 176.344L231.735 176.646C231.735 176.646 229.773 179.627 229.008 180.923C228.561 181.686 228.589 182.694 228.647 183.471C228.676 183.903 228.705 184.335 228.618 184.753Z" fill="#DCABB0"/>
<path d="M224.737 185.285C222.817 184.81 223.279 185.372 220.537 185.069C217.81 184.767 216.973 183.745 216.887 183.342C216.814 182.982 218.156 182.852 219.614 182.694L219.628 182.722C219.628 182.722 221.273 183.889 223.539 183.932C225.386 183.975 227.363 183.442 228.633 183.471C228.662 183.889 228.69 184.321 228.604 184.753C228.373 185.962 226.656 185.761 224.737 185.285Z" fill="#163560"/>
<path d="M236.959 129.835C236.959 129.835 236.064 127.646 235.083 127.56C234.102 127.474 230.97 126.984 230.754 127.43C230.537 127.877 230.754 129.475 231.418 130.065C232.081 130.641 236.237 131.577 236.237 131.577L236.959 129.835Z" fill="#DCABB0"/>
<path d="M242.976 160.85L251.057 182.535C251.057 182.535 252.298 182.65 253.481 182.319C254.578 182.003 255.833 181.182 255.833 181.182C255.833 181.182 253.828 160.361 250.162 156.027C246.483 151.678 242.976 160.85 242.976 160.85Z" fill="#365DA4"/>
<path d="M277.522 151.03C275.862 151.693 274.03 151.75 272.341 151.217C266.136 149.245 250.667 144.58 246.555 145.904C241.374 147.575 225.833 178.432 225.833 178.432C225.833 178.432 226.179 178.892 227.146 179.252C228.041 179.583 230.191 179.569 230.191 179.569C230.191 179.569 244.217 167.575 245.891 164.076C247.565 160.577 248.229 157.251 249.903 157.582C251.577 157.913 271.447 165.746 275.949 161.081C280.451 156.415 279.282 150.354 279.282 150.354L277.522 151.03Z" fill="#3F70C0"/>
<path d="M260.74 115.638C260.365 114.875 259.961 113.521 259.759 111.102C259.787 111.347 260.206 114.385 261.389 116.113C266.223 119.281 275.473 129.835 275.285 131.836C275.285 131.836 278.547 126.322 278.604 126.293C278.604 126.293 284.622 118.661 277.493 114.299C273.871 112.081 273.886 109.23 274.044 106.753C274.203 104.277 273.063 93.6216 265.805 96.415C265.805 96.415 264.636 95.8967 264.116 95.983C264.116 95.983 264.549 96.0694 264.766 96.2854C263.929 96.2422 262.717 96.2998 261.721 96.8614C259.037 98.3589 256.656 111.88 260.74 115.638Z" fill="#163560"/>
<path d="M261.663 116.271C261.634 116.286 264.001 117.495 265.761 117.02C267.421 116.574 268.518 114.414 268.489 114.399C267.782 114.255 267.58 113.291 267.594 109.129L267.277 109.187L261.909 110.252C261.909 110.252 262.024 111.937 262.038 113.521C262.053 114.86 261.966 116.127 261.663 116.271Z" fill="#DCABB0"/>
<path d="M261.923 110.267C261.923 110.267 262.039 111.952 262.053 113.535C265.054 113.449 266.642 110.713 267.291 109.201L261.923 110.267Z" fill="#CB7F83"/>
<path d="M267.839 108.625C267.839 108.625 269.412 106.149 269.788 104.032C270.062 102.52 269.282 96.9046 263.64 97.711C263.64 97.711 261.995 97.8694 260.451 98.9061C259.225 99.7268 257.45 101.512 259.427 106.408L259.946 108.064L267.839 108.625Z" fill="#163560"/>
<path d="M260.927 111.764C260.927 111.764 268.027 111.88 268.027 107.473C268.027 103.053 268.951 100.101 264.419 99.842C259.888 99.5828 259.008 101.267 258.647 102.736C258.287 104.205 259.08 111.62 260.927 111.764Z" fill="#DCABB0"/>
<path d="M267.623 100.663C267.623 100.663 262.775 97.351 261.245 99.6405C260.783 99.2373 259.946 98.9493 258.85 100.274C257.205 102.261 258.662 105.789 258.662 105.789C259.34 105.861 259.499 103.557 259.845 102.434C260.119 101.584 261 100.72 261.433 100.346C262.053 101.743 263.756 105.069 266.108 105.674C269.095 106.437 270.379 105.645 270.379 105.645C270.379 105.645 268.099 103.831 267.623 100.663Z" fill="#163560"/>
<path d="M277.479 135.335C278.186 132.398 275.79 126.725 273.308 122.016C271.057 117.754 268.705 114.284 268.503 114.414C262.558 117.941 262.01 115.004 262.01 115.004C262.01 115.004 256.598 115.724 255.069 118.345C252.948 121.988 250.639 132.888 248.373 132.729C247.334 132.657 236.872 128.726 236.872 128.726C236.872 128.726 235.126 130.353 235.458 132.355C235.458 132.355 240.624 135.811 244.997 138.014C247.305 139.18 249.398 140.001 250.379 139.77C252.37 139.31 255.473 134.702 257.161 131.98L257.176 131.966C259.326 144.076 256.411 146.84 257.883 148.107C259.441 149.461 261.663 147.459 266.57 149.59C269.787 150.987 274.246 152.989 277.248 153.349C278.821 153.536 279.99 153.262 280.379 152.197C281.49 149.115 276.151 140.922 277.479 135.335Z" fill="#ABDDDA"/>
<path d="M262.5 109.086C262.5 109.086 262.371 109.648 260.971 109.561C260.971 109.561 259.802 109.489 259.831 108.87C259.831 108.87 260.971 108.438 262.5 109.086Z" fill="white"/>
<path d="M280.379 152.197C279.989 153.262 278.821 153.536 277.248 153.348C275.17 152.441 266.194 148.971 266.295 146.624C266.44 143.14 268.027 143.039 266.901 138.734C266.007 135.278 274.304 128.87 275.617 127.474C278.099 132.182 278.171 132.398 277.479 135.335C276.151 140.922 281.49 149.115 280.379 152.197Z" fill="#95CCCA"/>
<path d="M257.176 131.981C255.502 134.688 252.385 139.295 250.394 139.77C249.412 140.001 247.32 139.18 245.011 138.014C246.699 138.446 248.33 138.431 249.932 138.287C251.663 138.114 252.154 136.012 254.881 132.844C256.656 130.785 257.089 131.304 257.176 131.981Z" fill="#95CCCA"/>
<path d="M265.487 138.647C265.487 138.647 263.986 137.481 262.558 137.754C261.144 138.028 260.437 139.007 260.494 139.454C260.552 139.9 261.302 141.153 262.385 141.253C263.467 141.369 266.555 140.591 266.555 140.591L265.487 138.647Z" fill="#DCABB0"/>
<path d="M268.503 114.399C268.503 114.399 274.29 114.759 276.295 117.538C279.109 121.469 285.891 138.921 282.674 141.153C279.066 143.658 265.069 141.081 265.069 141.081C265.069 141.081 264.636 139.094 265.242 138.129C265.834 137.164 275.487 135.609 275.935 135.163C276.382 134.716 270.365 126.494 270.365 125.17C270.35 123.845 268.503 114.399 268.503 114.399Z" fill="#ABDDDA"/>
<path d="M326.498 149.619L313.323 148.51C313.323 148.51 291.808 148.611 289.802 151.347C289.802 151.347 286.555 153.377 290.899 164.018C295.242 174.659 299.643 186.351 299.643 186.351C299.643 186.351 300.624 186.481 301.793 186.394C303.28 186.279 303.77 185.789 303.77 185.789C303.77 185.789 303.467 171.232 301.288 165.069C299.124 158.892 298.287 159.526 302.125 159.871C305.964 160.217 316.772 162.895 324.203 161.484C329.817 160.39 326.498 149.619 326.498 149.619Z" fill="#35488B"/>
<path d="M293.049 191.189C293.135 191.391 293.323 192.01 294.535 192.24H298.792C300.264 191.578 301.432 191.506 302.356 191.477C303.179 191.463 303.785 191.506 304.246 191.203C304.261 191.189 304.29 191.175 304.304 191.16C304.622 190.959 304.809 190.671 304.809 190.268C304.809 189.836 304.694 189.418 304.593 189.015C304.578 188.972 304.564 188.914 304.549 188.871C303.251 189.173 301.433 190.08 299.6 190.426C297.522 190.815 295.761 190.21 295.401 190.066C294.088 190.498 292.904 190.858 293.049 191.189Z" fill="#365DA4"/>
<path d="M304.376 191.045L303.742 192.24H302.342V191.376L304.376 191.045Z" fill="#365DA4"/>
<path d="M301.837 139.871C302.789 138.532 302.847 121.628 303.395 119.079C303.958 116.53 308.763 115.004 308.763 115.004C308.763 115.004 307.868 123.615 306.829 131.448C305.992 137.783 305.891 143.816 305.242 144.162C303.799 144.94 299.629 148.079 297.753 147.819L296.613 146.811C296.396 146.624 296.454 146.279 296.699 146.149C298.72 145.127 301.129 140.865 301.837 139.871Z" fill="#9AD1E9"/>
<path d="M308.445 96.847C309.34 96.127 310.653 96.2134 311.49 96.271C311.274 96.055 310.841 95.9686 310.841 95.9686C311.36 95.8967 312.529 96.4006 312.529 96.4006C312.529 96.4006 316.945 94.1544 318.979 99.9284C318.979 99.9284 318.633 99.4964 318.142 98.9924C319.326 102.319 318.128 107.344 314.419 108.237C312.01 108.813 299.225 104.234 308.445 96.847Z" fill="#163560"/>
<path d="M308.417 116.271C308.388 116.286 310.754 117.495 312.515 117.02C314.174 116.574 315.271 114.414 315.242 114.399C314.535 114.255 314.333 113.291 314.347 109.129L314.03 109.187L308.662 110.252C308.662 110.252 308.777 111.937 308.792 113.521C308.806 114.86 308.72 116.127 308.417 116.271Z" fill="#DCABB0"/>
<path d="M308.676 110.267C308.676 110.267 308.792 111.952 308.806 113.535C311.808 113.449 313.395 110.713 314.044 109.201L308.676 110.267Z" fill="#CB7F83"/>
<path d="M314.593 108.625C314.593 108.625 316.165 106.149 316.541 104.032C316.815 102.52 316.036 96.9046 310.393 97.7109C310.393 97.7109 308.748 97.8693 307.204 98.906C305.978 99.7268 304.203 101.512 306.18 106.408L306.699 108.064L314.593 108.625Z" fill="#163560"/>
<path d="M307.666 111.764C307.666 111.764 314.766 111.88 314.766 107.473C314.766 103.053 315.69 100.101 311.159 99.842C306.627 99.5828 305.747 101.267 305.386 102.736C305.026 104.205 305.819 111.62 307.666 111.764Z" fill="#DCABB0"/>
<path d="M305.935 121.541C306.065 121.037 304.997 120.663 304.737 121.109C304.246 121.944 304.16 123.01 303.958 123.845C303.395 126.25 303.958 129.547 303.958 129.547L305.935 121.541Z" fill="#74BAD8"/>
<path d="M305.603 100.274C306.699 98.9492 307.522 99.2372 307.998 99.6404C309.528 97.351 314.376 100.663 314.376 100.663C314.852 103.83 317.147 105.645 317.147 105.645C317.147 105.645 315.848 106.437 312.876 105.674C310.523 105.069 308.821 101.743 308.2 100.346C307.782 100.72 306.887 101.584 306.613 102.434C306.252 103.557 306.093 105.875 305.43 105.789C305.43 105.789 303.958 102.261 305.603 100.274Z" fill="#163560"/>
<path d="M309.253 109.086C309.253 109.086 309.124 109.648 307.724 109.561C307.724 109.561 306.555 109.489 306.584 108.87C306.584 108.87 307.724 108.438 309.253 109.086Z" fill="white"/>
<path d="M303.655 130.469C303.655 130.469 304.549 143.327 301.923 146.235L307.334 142.823L303.655 130.469Z" fill="#74BAD8"/>
<path d="M303.525 129.849C306.396 143.687 304.001 145.818 305.487 147.186C305.502 147.186 306.815 147.762 306.829 147.776C308.388 149.13 308.431 147.488 313.323 149.605C315.661 150.613 318.648 151.952 321.259 152.744C322.241 153.046 323.179 153.262 324.001 153.363C325.574 153.55 326.743 153.277 327.132 152.211C328.244 149.13 322.904 140.937 324.232 135.35C324.246 135.307 324.261 135.249 324.261 135.206C324.362 134.716 324.376 134.155 324.319 133.536C324.073 130.425 322.096 125.89 320.047 122.016C317.796 117.754 315.444 114.284 315.242 114.414C309.297 117.941 308.748 115.004 308.748 115.004C308.748 115.004 302.544 125.127 303.525 129.849Z" fill="#9AD1E9"/>
<path d="M306.353 147.56C306.339 147.56 306.353 147.575 306.353 147.56C307.912 148.914 308.417 147.474 313.323 149.59C315.661 150.598 318.648 151.937 321.259 152.729C322.601 152.96 323.583 153.161 324.001 153.349C325.574 153.536 326.743 153.262 327.132 152.197C328.244 149.115 322.904 140.922 324.232 135.335C324.246 135.292 324.261 135.235 324.261 135.191C324.376 134.644 324.391 134.083 324.319 133.521C324.03 131.16 322.298 128.582 320.307 124.839C318.979 126.235 309.052 124.623 311.404 138.388C312.14 142.621 306.974 144.292 306.353 147.56Z" fill="#74BAD8"/>
<path d="M306.829 148.266C306.829 148.266 304.636 147.747 303.64 148.15C302.645 148.554 300.639 149.59 300.826 150.152C301.014 150.713 303.381 151.001 304.391 150.454C305.386 149.893 306.137 150.598 307.363 150.195C308.575 149.778 306.829 148.266 306.829 148.266Z" fill="#DCABB0"/>
<path d="M315.256 114.399C315.256 114.399 323.337 114.5 324.78 118.402C326.223 122.29 325.776 135.955 323.669 140.058C321.548 144.162 309.528 149.72 308.2 149.95C306.858 150.166 306.036 148.122 306.079 147.891C306.122 147.661 318.72 137.51 318.662 136.444C318.59 135.393 315.256 114.399 315.256 114.399Z" fill="#9AD1E9"/>
<path d="M86.6771 117.108C86.6771 117.108 88.3285 116.568 89.1242 116.733C89.9199 116.898 92.3821 118.052 92.4421 118.291C92.5022 118.531 92.4421 118.711 92.4421 118.711H86.6771C86.6771 118.711 85.386 118.456 85.1758 117.707C84.9506 116.943 86.6771 117.108 86.6771 117.108Z" fill="#DCABB0"/>
<path d="M65.1933 189.539C65.2384 190.004 65.4936 190.318 65.9139 190.498C66.6796 190.828 67.9707 190.753 69.352 190.573C69.5321 190.543 69.6973 190.528 69.8324 190.513C69.8774 190.513 69.9074 190.513 69.9375 190.498C69.9675 190.498 69.9975 190.498 70.0275 190.498C71.4088 190.408 71.3037 190.828 73.946 190.813C76.9636 190.798 77.9845 189.779 78.1196 189.345C78.2397 188.985 76.9186 188.701 75.4323 188.371C75.3572 188.356 75.2821 188.341 75.2221 188.326C75.0269 188.281 74.8317 188.236 74.6366 188.191C72.88 187.787 71.1385 187.262 70.553 185.57C69.9375 183.787 70.0876 178.469 70.0876 178.469H64.7429C64.7429 178.469 66.1391 184.341 66.004 186.019C65.929 186.918 65.4936 187.173 65.3284 187.967C65.3134 188.026 65.2984 188.071 65.2984 188.131C65.2233 188.596 65.1483 189.06 65.1933 189.539Z" fill="#AD7041"/>
<path d="M58.978 132.148C59.4284 134.68 60.074 137.287 60.6295 139.998C61.5303 144.358 62.2058 149.002 61.5152 153.99C61.4252 154.634 61.3801 155.339 61.3651 156.103C61.23 164.926 65.1785 180.911 65.1785 180.911C65.1785 180.911 66.2444 181.375 68.046 181.285C68.9768 181.24 70.388 180.641 70.388 180.641C70.388 180.641 70.7633 170.724 70.7783 157.406C70.7934 147.743 72.7 135.025 73.0754 127.549C73.3006 123.025 72.8051 117.003 72.8051 117.003C72.8051 117.003 64.9382 110.681 62.1008 113.917C59.3233 117.108 57.2815 122.711 58.978 132.148Z" fill="#415DA5"/>
<path d="M61.4999 153.99C61.4098 154.634 61.3648 155.339 61.3498 156.103C67.2499 147.579 68.5561 128.987 68.5561 128.987L62.0854 132.118C62.0854 132.118 61.3798 135.609 60.6292 139.998C61.5149 144.358 62.2055 149.002 61.4999 153.99Z" fill="#355493"/>
<path d="M48.1535 189.539C48.1985 190.004 48.4538 190.318 48.8741 190.498C49.6398 190.828 50.9309 190.753 52.3121 190.573C52.4923 190.543 52.6575 190.528 52.7926 190.513C52.8376 190.513 52.8676 190.513 52.8977 190.498C52.9277 190.498 52.9577 190.498 52.9877 190.498C54.3689 190.408 54.2639 190.828 56.9062 190.813C59.9238 190.798 60.9447 189.779 61.0798 189.345C61.1999 188.985 59.8788 188.701 58.3925 188.371C58.3174 188.356 58.2423 188.341 58.1823 188.326C57.9871 188.281 57.7919 188.236 57.5968 188.191C55.8402 187.787 54.0987 187.262 53.5132 185.57C52.8977 183.787 53.7684 178.559 53.7684 178.559L48.8141 178.139C48.8141 178.139 49.1143 184.101 48.9792 185.779C48.9042 186.678 48.4388 187.173 48.2736 187.967C48.2586 188.026 48.2436 188.071 48.2436 188.131C48.1835 188.596 48.1085 189.06 48.1535 189.539Z" fill="#AD7041"/>
<path d="M48.8439 181.36C48.8439 181.36 50.12 181.959 51.0358 182.139C51.9516 182.319 53.8583 181.959 53.8583 181.959C54.2036 178.124 54.9993 172.117 56.5456 165.346C58.3022 157.631 60.9295 148.522 64.5927 139.893C65.3734 138.051 68.6012 129.332 69.1416 127.13C70.7931 120.478 69.1416 121.197 69.1416 121.197L54.684 119.505C54.684 119.505 52.8974 120.418 52.0867 129.811C51.8465 132.628 51.8165 144.762 51.4412 147.069C51.0959 149.256 50.6755 151.069 50.1951 152.237C47.5077 158.829 48.8439 181.36 48.8439 181.36Z" fill="#415DA5"/>
<path d="M48.1534 189.54C48.1984 190.004 48.4536 190.319 48.874 190.498C49.6847 190.783 50.9458 190.723 52.312 190.558C52.4922 190.543 52.6573 190.528 52.7924 190.513C52.8375 190.513 52.8675 190.513 52.8975 190.498C52.9275 190.498 52.9576 190.498 52.9876 190.498C54.3688 190.408 54.2637 190.828 56.906 190.813C59.9237 190.798 60.9446 189.779 61.0797 189.345C61.1998 188.985 59.8786 188.701 58.3923 188.371C58.002 188.566 56.1404 189.405 53.8433 189.18C51.8166 188.985 49.7448 188.176 48.2885 187.967C48.2735 188.026 48.2585 188.071 48.2585 188.131C48.1834 188.596 48.1083 189.06 48.1534 189.54Z" fill="#B84C42"/>
<path d="M65.1934 189.54C65.2384 190.004 65.4937 190.319 65.914 190.498C66.7247 190.783 67.9859 190.723 69.352 190.558C69.5322 190.543 69.6974 190.528 69.8325 190.513C69.8775 190.513 69.9075 190.513 69.9376 190.498C69.9676 190.498 69.9976 190.498 70.0276 190.498C71.4088 190.408 71.3038 190.828 73.9461 190.813C76.9637 190.798 77.9846 189.779 78.1197 189.345C78.2398 188.985 76.9187 188.701 75.4324 188.371C75.042 188.566 73.1804 189.405 70.8834 189.18C68.8566 188.985 66.7848 188.176 65.3285 187.967C65.3135 188.026 65.2985 188.071 65.2985 188.131C65.2234 188.596 65.1484 189.06 65.1934 189.54Z" fill="#B84C42"/>
<path d="M70.9734 76.3153C71.4688 72.3304 70.2227 65.9636 62.2507 66.9823C54.2938 68.001 51.7866 75.8059 53.393 79.2815C54.9994 82.757 51.081 83.5959 49.8499 87.3261C48.799 90.532 48.4236 94.5168 46.7121 96.2995C41.2023 102.052 51.9968 110.921 58.5125 109.048C70.3728 105.648 71.9042 105.138 71.4838 95.8351C71.2736 91.0713 67.5504 89.2286 69.9074 87.8504C75.6124 84.5247 69.8624 85.3187 70.9734 76.3153Z" fill="#2B478B"/>
<path d="M59.2782 86.7419L61.4701 92.3896L66.2143 92.6143L68.5713 89.0938C65.899 87.0714 66.0041 83.1914 66.1392 81.8432C66.1692 81.5436 66.1992 81.3638 66.1992 81.3638L60.2691 79.5661C60.194 81.1241 60.1039 82.3525 60.0138 83.3113C59.6835 86.652 59.2782 86.7419 59.2782 86.7419Z" fill="#DCABB0"/>
<path d="M68.5713 86.532C68.2711 86.532 63.0915 85.4834 54.3689 87.7155C54.3689 87.7155 59.1431 109.572 57.5217 113.692C55.9002 117.812 55.2847 121.467 55.2847 121.467L72.8951 121.692C72.8951 121.692 72.6549 107.55 73.4656 102.546C74.2913 97.5279 68.5713 86.532 68.5713 86.532Z" fill="#DCABB0"/>
<path d="M55.585 110.906C55.3298 113.797 52.6124 120.403 53.1979 121.812C53.8134 123.295 54.6692 124.044 56.5308 124.463C57.8219 124.763 59.5785 124.898 62.0857 125.032C67.4003 125.302 73.0753 124.628 73.856 122.111C74.2313 120.898 74.0812 116.224 73.886 114.067C73.4806 109.602 74.3364 103.191 74.4565 99.0409C74.5616 95.5804 72.4748 87.7155 72.4748 87.7155C72.4748 87.7155 71.5289 87.1163 68.5713 86.532C68.5713 86.532 68.2561 90.6218 66.1242 90.9663C62.431 91.5805 59.4434 88.1949 58.5726 86.8317C58.5726 86.8317 54.3239 87.8953 53.0778 89.3185C51.8917 90.6667 53.5132 100.599 53.8735 101.558C54.1888 102.382 54.474 103.176 54.7292 103.985C55.4198 106.112 55.8252 108.269 55.585 110.906Z" fill="#7A97F3"/>
<path d="M40.4667 117.123C40.4667 117.123 38.8152 116.583 38.0195 116.748C37.2238 116.913 34.7617 118.052 34.7016 118.291C34.6416 118.531 34.7016 118.711 34.7016 118.711H40.4667C40.4667 118.711 41.7578 118.456 41.968 117.707C42.1932 116.973 40.4667 117.123 40.4667 117.123Z" fill="#DCABB0"/>
<path d="M60.0138 83.6708C62.1757 82.2327 64.8931 82.1578 66.1241 82.2177C66.1542 81.9181 66.1842 81.7383 66.1842 81.7383L60.269 79.9406C60.194 81.4986 60.1039 82.727 60.0138 83.6708Z" fill="#CB7F83"/>
<path d="M67.7305 81.7683C67.7305 81.7683 60.6443 83.1914 59.8186 78.7721C58.9929 74.3528 57.5366 71.5664 62.0255 70.4728C66.5145 69.3792 67.7155 70.9072 68.3461 72.3154C68.9766 73.7086 69.5621 81.2739 67.7305 81.7683Z" fill="#DCABB0"/>
<path d="M58.4524 70.7574C59.6535 69.4091 61.38 69.1544 62.6411 69.1694C61.8754 68.2556 64.9381 66.2332 68.4362 69.6788C69.9375 71.1619 69.7123 74.0681 68.9016 75.7609C68.9016 75.7609 67.6555 72.1356 65.4035 71.3566C64.9081 71.1768 64.4277 70.8922 63.9923 70.5327C63.7221 71.2218 63.1666 72.1955 62.0556 73.409C59.7286 75.9557 60.179 81.0941 60.179 81.0941C60.179 81.0941 56.3506 73.1094 58.4524 70.7574Z" fill="#2B478B"/>
<path d="M65.5237 79.5811C65.5237 79.5811 65.7189 80.1054 67.055 79.8657C67.055 79.8657 68.181 79.671 68.0759 79.0717C68.0609 79.0867 66.9199 78.7871 65.5237 79.5811Z" fill="white"/>
<path d="M46.0817 106.546C48.769 96.2246 50.2403 90.3222 52.4322 88.5395C54.3689 86.9665 58.5726 86.8167 58.5726 86.8167C58.6327 88.0601 58.5726 89.3035 58.4225 90.5319L63.572 100.329C63.572 100.329 66.2143 105.543 67.1451 111.25C67.8507 105.588 68.5563 100.329 68.5563 100.329C68.5563 100.329 69.2169 96.9736 69.4271 93.9175C68.8116 91.5206 68.8716 89.0338 68.5864 86.532L68.9167 86.547C69.9376 86.6219 73.1053 86.9365 74.7267 88.2698C76.9187 90.0675 77.4141 97.9773 81.0773 106.441C81.0773 106.441 85.5062 113.887 86.9174 116.838C86.9174 116.838 86.6472 117.242 86.1217 117.542C85.6113 117.842 84.9657 117.947 84.9657 117.947C84.9657 117.947 76.9637 110.082 76.4382 108.838C76.2581 108.434 75.2972 106.996 74.0962 104.883C74.0962 104.883 73.7809 116.119 74.4715 120.958C74.6217 121.991 74.1262 122.995 73.2254 123.504C68.2861 126.291 53.4832 133.871 50.7207 126.501C50.4055 125.677 55.8252 111.64 55.0746 108.599C54.8343 107.625 54.5191 105.408 54.2038 102.846C52.5073 106.082 50.9159 108.374 50.6907 108.898C50.1653 110.127 42.1633 117.917 42.1633 117.917C42.1633 117.917 41.5177 117.797 41.0072 117.512C40.4818 117.213 40.2115 116.808 40.2115 116.808C41.6378 113.917 46.0817 106.546 46.0817 106.546Z" fill="#DCE1F1"/>
<path d="M58.8426 86.7867L63.5718 100.344L58.8426 95.88L59.2029 94.4868C59.2029 94.4868 58.122 94.5767 57.6716 94.2921C57.2362 94.0074 56.2003 87.0714 56.2003 87.0714C56.2003 87.0714 57.1612 86.9066 57.4764 86.8766C57.8217 86.8467 58.8426 86.7867 58.8426 86.7867Z" fill="#B2CBFD"/>
<path d="M68.5861 86.532C68.5861 86.532 69.5769 97.2432 68.556 100.344C68.556 100.344 71.4836 95.7152 70.9281 94.7565L69.8622 94.0524C69.8622 94.0524 71.904 93.7827 71.5286 92.6142C71.1533 91.4457 69.5019 86.6819 69.5019 86.6819L68.5861 86.532Z" fill="#B2CBFD"/>
<path d="M122.469 192.566H9.69031V155.608L122.469 155.234V192.566Z" fill="#97B6E4"/>
<path d="M122.469 125.677H9.69031V135.339H122.469V125.677Z" fill="#97B6E4"/>
<path d="M7.10772 125.677H124.841C126.567 125.677 127.963 124.283 127.963 122.561V121.812C127.963 120.089 126.567 118.696 124.841 118.696H7.10772C5.3812 118.696 3.98499 120.089 3.98499 121.812V122.561C4 124.283 5.39622 125.677 7.10772 125.677Z" fill="#466AA5"/>
<path d="M56.1703 100.075L59.4282 99.8799C59.6534 99.8649 59.8185 99.6851 59.8035 99.4604L59.7134 98.0073C59.6984 97.7826 59.5183 97.6178 59.2931 97.6328L56.0352 97.8275C55.81 97.8425 55.6449 98.0223 55.6599 98.247L55.75 99.7001C55.75 99.9248 55.9451 100.09 56.1703 100.075Z" fill="#2B478B"/>
<path d="M58.2264 99.5264L59.2903 99.4611L59.2026 98.0406L58.1387 98.106L58.2264 99.5264Z" fill="#E9F2FF"/>
<path d="M56.2903 98.5766L57.6114 98.5017C57.7165 98.5017 57.7766 98.4118 57.7766 98.3069C57.7766 98.2021 57.6865 98.1422 57.5814 98.1422L56.2602 98.2171C56.1551 98.2171 56.0951 98.3069 56.0951 98.4118C56.1101 98.5017 56.2002 98.5766 56.2903 98.5766Z" fill="#E9F2FF"/>
<path d="M56.2153 99.0709L57.7467 98.981C57.7767 98.981 57.8067 98.9511 57.8067 98.9061C57.8067 98.8762 57.7767 98.8462 57.7316 98.8462L56.2003 98.9361C56.1703 98.9361 56.1403 98.9661 56.1403 99.011C56.1403 99.041 56.1703 99.0709 56.2153 99.0709Z" fill="#E9F2FF"/>
<path d="M56.2303 99.2957L57.7617 99.2058C57.7917 99.2058 57.8217 99.1759 57.8217 99.1309C57.8217 99.1009 57.7917 99.071 57.7467 99.071L56.2153 99.1609C56.1853 99.1609 56.1553 99.1908 56.1553 99.2358C56.1553 99.2657 56.1853 99.2957 56.2303 99.2957Z" fill="#E9F2FF"/>
<path d="M66.4995 111.76C66.4995 111.475 66.2743 111.25 65.9891 111.25C65.7038 111.25 65.4786 111.475 65.4786 111.76C65.4786 112.044 65.7038 112.269 65.9891 112.269C66.2743 112.269 66.4995 112.029 66.4995 111.76Z" fill="#2B478B"/>
<path d="M66.4995 114.95C66.4995 114.666 66.2743 114.441 65.9891 114.441C65.7038 114.441 65.4786 114.666 65.4786 114.95C65.4786 115.235 65.7038 115.46 65.9891 115.46C66.2743 115.46 66.4995 115.235 66.4995 114.95Z" fill="#2B478B"/>
<path opacity="0.9" d="M120.982 155.234L11.1912 155.608V135.339H120.982V155.234Z" fill="#AFCDFB"/>
<path d="M20.8148 101.962L24.4179 118.711H10.3356L7.18286 101.962H20.8148Z" fill="#699FF0"/>
<path d="M20.3192 102.486L23.5921 117.632H10.8609L8.02344 102.486H20.3192Z" fill="white"/>
<path d="M9.69015 103.7H19.3736C19.5538 103.7 19.7039 103.85 19.7039 104.03C19.7039 104.209 19.5538 104.359 19.3736 104.359H9.69015C9.51 104.359 9.35986 104.209 9.35986 104.03C9.35986 103.85 9.51 103.7 9.69015 103.7Z" fill="#699FF0"/>
<path d="M10.1856 105.228H19.8691C20.0493 105.228 20.1994 105.378 20.1994 105.558C20.1994 105.737 20.0493 105.887 19.8691 105.887H10.1856C10.0055 105.887 9.85535 105.737 9.85535 105.558C9.85535 105.378 10.0055 105.228 10.1856 105.228Z" fill="#699FF0"/>
<path d="M10.4862 106.696H20.1696C20.3498 106.696 20.4999 106.846 20.4999 107.026C20.4999 107.205 20.3498 107.355 20.1696 107.355H10.4862C10.306 107.355 10.1559 107.205 10.1559 107.026C10.1709 106.846 10.306 106.696 10.4862 106.696Z" fill="#699FF0"/>
<path d="M10.9364 109.722H20.6198C20.8 109.722 20.9501 109.872 20.9501 110.052C20.9501 110.232 20.8 110.381 20.6198 110.381H10.9364C10.7562 110.381 10.6061 110.232 10.6061 110.052C10.6211 109.857 10.7562 109.722 10.9364 109.722Z" fill="#699FF0"/>
<path d="M11.4317 111.235H21.1152C21.2954 111.235 21.4455 111.385 21.4455 111.565C21.4455 111.745 21.2954 111.894 21.1152 111.894H11.4317C11.2516 111.894 11.1014 111.745 11.1014 111.565C11.1014 111.385 11.2516 111.235 11.4317 111.235Z" fill="#699FF0"/>
<path d="M11.7469 112.703H21.4304C21.6105 112.703 21.7607 112.853 21.7607 113.033C21.7607 113.213 21.6105 113.362 21.4304 113.362H11.7469C11.5668 113.362 11.4166 113.213 11.4166 113.033C11.4166 112.853 11.5668 112.703 11.7469 112.703Z" fill="#699FF0"/>
<path d="M26.8103 111.304L26.4222 111.421L28.5208 118.363L28.9089 118.246L26.8103 111.304Z" fill="#A53D38"/>
<path d="M28.6367 117.557C29.3573 117.557 29.9428 118.066 30.0479 118.711H27.2405C27.3155 118.066 27.9161 117.557 28.6367 117.557Z" fill="#B64C41"/>
<path d="M26.7898 118.531C27.3302 118.531 27.8557 118.441 27.9007 118.441L27.8857 118.351C27.3453 118.441 25.919 118.576 25.7539 118.126C25.6788 117.932 25.7539 117.587 25.8439 117.123C26.0091 116.284 26.2643 114.995 25.964 113.228C25.7238 111.834 25.904 111.415 26.0841 111.31C26.2793 111.19 26.5345 111.4 26.5496 111.4L26.6096 111.325C26.5946 111.31 26.2943 111.07 26.0391 111.22C25.7388 111.4 25.6788 112.074 25.874 113.243C26.1742 115.01 25.919 116.269 25.7539 117.108C25.6638 117.587 25.5887 117.932 25.6638 118.156C25.7839 118.456 26.2943 118.531 26.7898 118.531Z" fill="#B64C41"/>
<g opacity="0.5">
<path d="M210.775 45.58H133.367V192.497H210.775V45.58Z" fill="#BAD4F4"/>
<path d="M207.479 48.1564H136.767V192.497H207.479V48.1564Z" fill="#DFEBFD"/>
<path d="M195.474 119.34C195.474 117.548 196.873 116.096 198.599 116.096C200.326 116.096 201.725 117.548 201.725 119.34C201.725 121.131 200.326 122.583 198.599 122.583C196.873 122.583 195.474 121.131 195.474 119.34Z" fill="#C8DBF4"/>
<path d="M186.816 70.0359H157.626V79.6089H186.816V70.0359Z" fill="white"/>
<path d="M181.402 72.9915H163.041V73.9723H181.402V72.9915Z" fill="#BAD4F4"/>
<path d="M178.839 75.6463H165.617V76.6271H178.839V75.6463Z" fill="#BAD4F4"/>
<path d="M187.169 79.9619H157.273V69.6696H187.169V79.9619ZM157.979 79.2295H186.463V70.3888H157.979V79.2295Z" fill="#BAD4F4"/>
</g>
<path d="M154.908 182.783C154.908 182.783 152.941 184.611 153.316 185.899C153.707 187.187 155.478 188.056 155.718 189.644C155.958 191.232 156.919 192.086 157.79 192.086C158.661 192.086 161.919 192.086 161.919 192.086C161.919 192.086 162.549 190.977 161.018 190.633C159.487 190.303 158.901 188.431 158.991 186.708C159.081 184.985 158.841 182.678 158.841 182.678L155.568 181.914L154.908 182.783Z" fill="#2C3A64"/>
<path d="M179.469 192.011C179.499 192.026 179.544 192.041 179.604 192.056H190.639C190.549 191.666 190.189 190.932 188.897 190.723C187.171 190.438 184.183 189.449 183.523 187.247C183.508 187.172 183.478 187.097 183.463 187.037C182.937 184.685 179.094 187.756 179.094 187.756C179.094 187.756 179.079 187.846 179.064 188.011C178.974 188.865 178.749 191.651 179.469 192.011Z" fill="#2C3A64"/>
<path d="M188.432 129.167C188.432 129.167 187.846 136.433 187.156 145.181C186.225 157.046 185.099 171.637 184.994 174.394C184.799 179.188 184.033 186.858 184.033 186.858C184.033 186.858 182.201 188.685 178.553 187.906C178.553 187.906 175.295 176.955 174.365 165.36C174.35 165.166 174.335 164.986 174.319 164.791C173.449 152.986 172.113 128.148 172.113 128.148L188.432 129.167Z" fill="#35488B"/>
<path d="M188.432 129.167C188.432 129.167 187.846 136.433 187.156 145.181L174.365 165.375C174.35 165.181 174.335 165.001 174.319 164.806C173.449 153.001 172.113 128.163 172.113 128.163L188.432 129.167Z" fill="#2C3A64"/>
<path d="M185.774 130.021C185.774 130.021 175.25 156.357 168.329 168.731C161.408 181.105 159.246 184.551 159.246 184.551C159.246 184.551 155.283 182.963 154.922 181.884C154.922 181.884 157.565 157.99 162.204 152.177C164.816 148.882 167.894 139.009 168.044 135.564C168.194 132.118 168.975 125.272 168.975 125.272L185.774 130.021Z" fill="#35488B"/>
<path d="M182.547 81.2737C178.628 82.5021 171.842 79.1764 171.842 79.1764C171.842 79.1764 174.905 76.8843 175.25 72.1355C175.25 72.0755 175.265 72.0006 175.265 71.9407C175.28 71.5812 175.295 71.2216 175.28 70.8471L176.361 71.716L180.385 74.9518C180.385 74.9518 180.175 76.5398 180.1 79.2063C180.73 79.5509 181.241 79.9404 181.631 80.285C182.231 80.8243 182.547 81.2737 182.547 81.2737Z" fill="#DCABB0"/>
<path d="M167.488 78.667C167.488 78.667 177.847 77.0341 184.678 81.5433C184.678 81.5433 189.317 111.804 185.279 114.681C181.24 117.542 167.488 114.681 167.488 114.681V78.667Z" fill="#DCABB0"/>
<path d="M181.316 147.234H162.579C162.579 147.234 164.756 115.34 165.372 107.58C165.882 101.288 166.948 86.1873 167.323 80.7044C167.413 79.431 167.458 78.667 167.458 78.667L171.932 77.903L179.619 87.8352C179.619 87.8352 180.835 114.321 180.79 118.501C180.745 122.68 181.27 138.949 181.3 141.676C181.346 144.417 181.316 147.234 181.316 147.234Z" fill="#C0D0FD"/>
<path d="M179.634 87.8353L181.315 147.234H190.143C190.143 147.234 189.738 108.164 189.708 104.584C189.678 101.003 190.668 85.5283 187.906 83.1314C185.609 81.1239 180.069 79.1765 180.069 79.1765L179.634 87.8353Z" fill="#C0D0FD"/>
<path d="M180.114 77.8132C180.114 77.8132 182.636 79.536 182.531 80.1651C182.441 80.7794 182.096 81.7681 182.096 81.7681L180.55 81.4535L181.841 82.3673C181.841 82.3673 180.369 86.6518 179.619 87.8502L180.114 77.8132Z" fill="#E9F2FF"/>
<path opacity="0.2" d="M165.289 95.6556C166.129 88.928 175.882 98.8628 175.077 107.694C173.582 124.013 167.187 142.212 162.46 147.179L165.289 95.6556Z" fill="#7D9CF3"/>
<path d="M175.235 72.1354C175.22 72.0156 175.175 71.9557 175.175 71.9557L175.25 71.9407L176.331 71.701L180.355 74.9368C180.355 74.9368 180.175 76.4349 180.054 79.1913C180.039 79.1764 175.911 76.8993 175.235 72.1354Z" fill="#CB7F83"/>
<path d="M181.991 75.9106C181.991 75.9106 174.995 75.7158 175.19 71.3714C175.385 67.027 174.604 64.0758 179.078 64.0159C183.552 63.956 184.348 65.6488 184.633 67.1169C184.918 68.585 183.822 75.8506 181.991 75.9106Z" fill="#DCABB0"/>
<path d="M175.175 71.9557C175.175 71.9557 176.091 72.1954 176.812 71.2366C177.532 70.2778 178.733 66.5776 180.325 66.3379C181.916 66.0982 184.003 67.2667 184.678 66.6076C185.669 65.6338 186.93 64.0309 186.93 64.0309C186.93 64.0309 179.064 58.4281 175.911 61.0198C172.773 63.5965 171.677 67.3866 175.175 71.9557Z" fill="#2C3A64"/>
<path d="M184.633 87.4607C184.483 84.7642 183.012 80.3898 182.997 80.3448L183.417 80.5246C183.477 80.7044 184.633 84.7042 184.783 87.4457L184.633 87.4607Z" fill="#2C3A64"/>
<path d="M174.44 95.5054C174.289 95.3556 170.686 91.895 171.452 89.4681C171.752 88.5244 172.308 88.1499 172.893 87.8802C173.434 87.6854 174.71 87.4757 175.37 87.8952C176.571 88.6442 177.172 90.7265 177.352 94.1871H177.202C176.992 90.0824 175.926 88.5993 175.13 88.2547C174.139 87.8353 172.383 88.015 171.842 89.603C171.467 90.6966 172.203 92.2246 172.893 93.2882C173.659 94.4567 174.5 95.4904 174.5 95.5054H174.44Z" fill="#2C3A64"/>
<path d="M174.815 95.8799C174.68 96.0147 174.455 96.0147 174.319 95.8799L174.079 95.6402C173.944 95.5054 173.944 95.2807 174.079 95.1459C174.214 95.011 174.44 95.011 174.575 95.1459L174.815 95.3855C174.95 95.5054 174.95 95.7451 174.815 95.8799Z" fill="#B64C41"/>
<path d="M177.292 94.8462C177.097 94.8462 176.932 94.6814 176.932 94.4867V94.1421C176.932 93.9474 177.097 93.7826 177.292 93.7826C177.487 93.7826 177.652 93.9474 177.652 94.1421V94.4867C177.652 94.6964 177.487 94.8462 177.292 94.8462Z" fill="#B64C41"/>
<path d="M183.717 87.4607C183.717 86.9363 184.153 86.5019 184.678 86.5019C185.204 86.5019 185.639 86.9363 185.639 87.4607C185.639 87.985 185.204 88.4194 184.678 88.4194C184.153 88.4194 183.717 88 183.717 87.4607Z" fill="#2C3A64"/>
<path d="M184.228 87.4607C184.228 87.1911 184.453 86.9664 184.723 86.9664C184.993 86.9664 185.219 87.1911 185.219 87.4607C185.219 87.7304 184.993 87.9551 184.723 87.9551C184.438 87.9551 184.228 87.7304 184.228 87.4607Z" fill="#D6716B"/>
<path d="M180.324 147.234C180.324 147.174 179.709 141.197 179.889 135.998C179.964 133.796 179.904 131.219 179.844 128.718C179.754 125.152 179.559 121.722 179.859 119.49C180.354 115.654 180.249 98.2618 180.054 96.3743C179.859 94.5316 180.039 92.5242 180.234 91.91C180.414 91.2958 179.619 87.8952 179.619 87.8652L179.709 87.8353C179.739 87.9701 180.61 91.3258 180.414 91.9699C180.234 92.5692 179.964 94.5466 180.159 96.3593C180.369 98.2469 180.745 115.654 180.249 119.475C179.964 121.707 179.859 125.152 179.949 128.718C180.009 131.219 180.069 133.796 179.994 135.998C179.814 141.197 180.7 147.174 180.715 147.234H180.324Z" fill="#E0EAFF"/>
<path d="M195.833 99.4603C195.833 99.4603 198.205 103.535 195.713 104.599C193.221 105.677 192.966 104.539 192.966 104.539L195.833 99.4603Z" fill="#E9F2FF"/>
<path d="M175.971 101.962C175.971 101.962 176.346 102.726 176.301 103.415C176.256 104.134 175.926 105.228 175.926 105.228C175.926 105.228 161.288 108.329 158.45 105.737C155.403 102.951 161.063 81.9927 163.48 79.9404C164.531 79.0565 166.723 78.5172 168.764 78.1876C169.89 78.0079 170.956 77.903 171.752 77.8281C172.578 77.7532 173.103 77.7382 173.103 77.7382L172.773 78.9517L171.497 83.6856L169.996 89.1985C169.996 89.1985 165.522 98.3816 165.371 99.2505C165.221 100.134 175.971 101.962 175.971 101.962Z" fill="#C0D0FD"/>
<path opacity="0.2" d="M178.013 86.3671C178.013 86.3671 174.274 84.7492 171.602 83.2661C169.845 82.3074 168.96 80.4947 168.765 78.1877C169.891 78.0079 170.956 77.903 171.752 77.8281C171.887 77.8731 171.962 77.903 171.962 77.903L172.773 78.9517L178.013 86.3671Z" fill="#B2CBFD"/>
<path d="M179.634 87.8352L173.824 76.7795C173.824 76.7795 171.662 77.2139 170.927 77.903C170.927 77.903 171.302 81.2287 171.587 81.9628C171.587 81.9628 172.713 81.828 172.863 81.9328C172.863 81.9328 172.323 82.7718 172.158 82.8616C172.158 82.8616 177.217 85.2136 179.634 87.8352Z" fill="#E9F2FF"/>
<path d="M172.908 88.2697C172.518 87.4008 169.005 79.9404 169.905 78.0379L170.251 77.9929C169.575 79.4311 172.007 85.9177 173.058 88.2397L172.908 88.2697Z" fill="#2C3A64"/>
<path opacity="0.5" d="M180.625 94.7264C180.625 94.4717 180.835 94.262 181.09 94.262C181.346 94.262 181.556 94.4717 181.556 94.7264C181.556 94.981 181.346 95.1908 181.09 95.1908C180.835 95.1908 180.625 94.981 180.625 94.7264Z" fill="#B2CBFD"/>
<path opacity="0.5" d="M180.625 120.808C180.625 120.553 180.835 120.343 181.09 120.343C181.346 120.343 181.556 120.553 181.556 120.808C181.556 121.062 181.346 121.272 181.09 121.272C180.835 121.272 180.625 121.062 180.625 120.808Z" fill="#B2CBFD"/>
<path opacity="0.5" d="M180.865 108.883C180.865 108.628 181.075 108.419 181.33 108.419C181.585 108.419 181.796 108.628 181.796 108.883C181.796 109.138 181.585 109.348 181.33 109.348C181.075 109.348 180.865 109.138 180.865 108.883Z" fill="#E0EAFF"/>
<path opacity="0.5" d="M180.865 132.133C180.865 131.879 181.075 131.669 181.33 131.669C181.585 131.669 181.796 131.879 181.796 132.133C181.796 132.388 181.585 132.598 181.33 132.598C181.075 132.598 180.865 132.388 180.865 132.133Z" fill="#B2CBFD"/>
<path d="M175.701 80.3448C175.701 80.3448 177.322 81.1388 179.934 80.6445L179.634 87.8352L175.701 80.3448Z" fill="#7A97F3"/>
<path d="M185.909 88.8538L201.043 90.2021L191.81 106.576L177.577 105.767L185.909 88.8538Z" fill="#35488B"/>
<path d="M187.306 88.779C187.306 88.779 187.306 86.4719 188.597 86.6217C189.873 86.7865 190.263 89.1085 190.263 89.1085L187.306 88.779Z" fill="#B2CBFD"/>
<path d="M200.953 90.0074L185.819 88.6441L177.472 105.557L177.577 105.767L185.925 88.8538L201.058 90.2171L200.953 90.0074Z" fill="#7A97F3"/>
<path d="M188.597 86.6218C188.597 86.6218 190.729 87.6704 189.978 91.0261C189.227 94.3818 188.282 96.2244 188.822 98.2168L199.016 99.1456C199.016 99.1456 197.905 96.509 199.136 93.8275C200.367 91.1609 199.496 88.1049 198.355 87.8352L188.597 86.6218Z" fill="#E9F2FF"/>
<path d="M193.686 103.535C193.686 103.535 192.14 101.677 192.455 100.329C192.77 98.9808 193.926 98.6812 194.632 99.1456C195.338 99.625 196.359 100.704 196.178 101.543C195.983 102.381 194.467 103.909 193.686 103.535Z" fill="#DCABB0"/>
<path d="M175.19 102.426C175.19 102.426 177.817 101.273 179.018 101.618C180.219 101.962 181.841 102.187 181.976 102.621C182.096 103.056 181.105 104.659 179.634 104.734C178.163 104.808 175.565 105.498 174.935 104.734C174.319 103.955 175.19 102.426 175.19 102.426Z" fill="#DCABB0"/>
</svg>
