<svg width="311" height="238" viewBox="0 0 311 238" fill="none" xmlns="http://www.w3.org/2000/svg">
<path d="M234.615 57.494C234.615 57.494 225.547 40.3873 239.136 33.8796C239.136 33.8796 248.707 30.6736 255.477 32.6355C255.477 32.6355 242.079 46.7754 244.855 49.0962C247.63 51.417 258.66 32.2766 258.66 32.2766C258.66 32.2766 278.255 34.7409 283.733 39.0714C283.733 39.0714 264.33 48.7852 267.608 50.3643C270.885 51.9433 291.533 42.756 291.533 42.756C291.533 42.756 308.688 49.814 305.29 60.4847C301.893 71.1555 294.978 73.1413 292.347 72.2321C289.715 71.323 275.264 61.7528 274.426 63.8821C273.589 66.0115 281.461 75.3903 288.064 77.2325C288.064 77.2325 272.369 88.2622 264.904 82.4005C257.439 76.5148 258.157 70.0071 253.492 66.4661C248.826 62.9251 244.376 61.9203 245.979 64.8392C247.582 67.7581 256.482 72.2321 258.277 78.1656C260.071 84.0992 261.937 88.2622 253.587 85.0083C245.237 81.7545 232.605 72.28 233.61 64.887C234.614 57.494 234.615 57.494 234.615 57.494Z" fill="#599DAD"/>
<path d="M296.462 58.8108C296.462 58.8108 248.42 46.0346 234.615 57.4949C234.615 57.4949 230.643 64.0505 221.911 68.8595L220.068 71.7066C220.068 71.7066 230.452 64.7443 233.586 64.8879C233.61 64.8879 232.773 46.6567 296.462 58.8108Z" fill="#599DAD"/>
<path d="M221.934 68.8821C221.934 68.8821 209.804 74.2414 206 87.8072L207.842 88.4053C207.842 88.4053 214.35 74.9353 221.623 70.7244C228.849 66.5135 221.934 68.8821 221.934 68.8821Z" fill="#599DAD"/>
<path d="M139.084 70.5247C139.084 70.5247 112.24 56.5283 123.963 36.096C123.963 36.096 133.462 23.4873 143.917 19.9942C143.917 19.9942 139.18 50.0924 144.826 50.6187C150.473 51.1451 147.697 16.7164 147.697 16.7164C147.697 16.7164 175.116 2.50464 186.05 3.24633C186.05 3.24633 169.661 32.9857 175.284 32.1004C180.906 31.2391 199.376 1.09304 199.376 1.09304C199.376 1.09304 227.728 -5.03188 232.8 11.7159C237.873 28.4877 230.743 37.1487 226.556 38.3211C222.369 39.4934 195.237 39.948 196.051 43.465C196.864 46.9581 215.335 52.0543 225.455 48.5851C225.455 48.5851 215.024 76.7214 200.19 75.7644C185.356 74.8074 180.523 65.7875 171.336 65.3568C162.172 64.9262 155.545 67.5819 160.187 69.9266C164.828 72.2713 180.284 70.1419 187.844 76.1951C195.429 82.2482 201.53 85.9566 187.868 89.1866C174.231 92.4165 149.54 91.3877 144.276 80.9802C139.084 70.5247 139.084 70.5247 139.084 70.5247Z" fill="#86D1CD"/>
<path d="M219.953 17.3884C219.953 17.3884 146.741 43.539 139.085 70.5269C139.085 70.5269 139.803 82.4896 132.816 96.4381L132.984 101.726C132.984 101.726 140.185 83.5423 144.348 80.9584C144.325 80.9344 127.098 58.2053 219.953 17.3884Z" fill="#6BB7BF"/>
<path d="M132.815 96.4363C132.815 96.4363 121.929 114.093 129.059 134.956L131.978 134.071C131.978 134.071 128.437 110.935 134.06 99.092C139.658 87.2489 132.815 96.4363 132.815 96.4363Z" fill="#6BB7BF"/>
<path d="M21.6966 236.742C21.6966 236.742 -20.8917 136.241 70.7027 117.557C127.85 105.903 126.359 65.3693 207.233 68.1349C290.041 70.9639 257.433 149.076 268.176 166.947C278.918 184.818 306.492 191.986 296.49 236.752H21.6966V236.742Z" fill="#EBF3FA"/>
<path d="M310.598 237.244H0.338807C0.15301 237.244 0 237.147 0 237.03V236.967C0 236.849 0.15301 236.752 0.338807 236.752H310.598C310.784 236.752 310.937 236.849 310.937 236.967V237.03C310.948 237.147 310.795 237.244 310.598 237.244Z" fill="#B8D7FC"/>
<path d="M274.265 224H34.8529C32.2 224 30 221.8 30 219.147V63.8529C30 61.2 32.2 59 34.8529 59H274.265C276.918 59 279.118 61.2 279.118 63.8529V219.147C279.118 221.865 276.918 224 274.265 224Z" fill="#E4EEF7"/>
<path d="M276.723 141.5C276.723 144.153 274.588 146.223 272 146.223C269.347 146.223 267.276 144.088 267.276 141.5C267.276 138.847 269.412 136.776 272 136.776C274.588 136.776 276.723 138.912 276.723 141.5Z" fill="#9CA7B0"/>
<path d="M264.883 61.7825H39.0596V221.282H264.883V61.7825Z" fill="#B8D7FC"/>
<path d="M222.307 199.929H217.777V198.635H221.013V195.4H222.307V199.929Z" fill="#E4EEF7"/>
<path d="M209.882 199.929H201.988V198.635H209.882V199.929ZM194.094 199.929H186.2V198.635H194.094V199.929ZM178.37 199.929H170.476V198.635H178.37V199.929ZM162.582 199.929H154.688V198.635H162.582V199.929ZM146.794 199.929H138.9V198.635H146.794V199.929ZM131.005 199.929H123.111V198.635H131.005V199.929Z" fill="#E4EEF7"/>
<path d="M115.218 199.93H110.688V195.4H111.983V198.636H115.218V199.93Z" fill="#E4EEF7"/>
<path d="M111.983 187.506H110.688V179.612H111.983V187.506ZM111.983 171.717H110.688V163.823H111.983V171.717ZM111.983 155.929H110.688V148.035H111.983V155.929ZM111.983 140.206H110.688V132.312H111.983V140.206ZM111.983 124.417H110.688V116.523H111.983V124.417ZM111.983 108.629H110.688V100.735H111.983V108.629Z" fill="#E4EEF7"/>
<path d="M111.983 92.8412H110.688V88.3118H115.218V89.6059H111.983V92.8412Z" fill="#E4EEF7"/>
<path d="M209.882 89.6055H201.988V88.3114H209.882V89.6055ZM194.094 89.6055H186.2V88.3114H194.094V89.6055ZM178.37 89.6055H170.476V88.3114H178.37V89.6055ZM162.582 89.6055H154.688V88.3114H162.582V89.6055ZM146.794 89.6055H138.9V88.3114H146.794V89.6055ZM131.005 89.6055H123.111V88.3114H131.005V89.6055Z" fill="#E4EEF7"/>
<path d="M222.307 92.8409H221.013V89.6056H217.777V88.3115H222.307V92.8409Z" fill="#E4EEF7"/>
<path d="M222.306 187.506H221.012V179.612H222.306V187.506ZM222.306 171.718H221.012V163.824H222.306V171.718ZM222.306 155.93H221.012V148.035H222.306V155.93ZM222.306 140.206H221.012V132.312H222.306V140.206ZM222.306 124.418H221.012V116.524H222.306V124.418ZM222.306 108.63H221.012V100.735H222.306V108.63Z" fill="#E4EEF7"/>
<path d="M221.077 102.612C228.76 102.612 234.989 96.3836 234.989 88.7003C234.989 81.0171 228.76 74.7886 221.077 74.7886C213.394 74.7886 207.165 81.0171 207.165 88.7003C207.165 96.3836 213.394 102.612 221.077 102.612Z" fill="#0753AC"/>
<path d="M228.324 87.0178H222.695V81.4531H219.395V87.0178H213.83V90.3825H219.395V95.9472H222.695V90.3825H228.324V87.0178Z" fill="#E4EEF7"/>
<path d="M147.506 132.571C151.151 132.571 154.106 129.616 154.106 125.971C154.106 122.326 151.151 119.371 147.506 119.371C143.861 119.371 140.906 122.326 140.906 125.971C140.906 129.616 143.861 132.571 147.506 132.571Z" fill="#E4EEF7"/>
<path d="M203.801 179.224V132.701C201.342 131.277 198.43 130.63 195.648 130.824C191.442 131.148 187.43 133.154 184.454 136.13C182.189 138.33 180.442 140.983 178.436 143.442C176.43 145.901 174.101 148.165 171.577 150.106C170.283 151.142 168.86 152.048 167.242 152.501C165.56 152.954 163.748 152.759 162.001 152.371C158.248 151.53 154.689 149.848 151.001 148.683C147.313 147.454 143.301 146.742 139.613 147.842C135.083 149.201 131.913 153.018 129.26 157.03V179.224H203.801Z" fill="#E4EEF7"/>
<path d="M81.7664 61.1351H39.0605V221.476H81.7664V61.1351Z" fill="#74B2E8"/>
<path d="M76.7184 101.511H75.4243V101.123H76.3949V100.152H76.7184V101.511Z" fill="#E4EEF7"/>
<path d="M73.0961 101.511H70.7667V101.123H73.0961V101.511ZM68.3726 101.511H66.0431V101.123H68.3726V101.511ZM63.7137 101.511H61.3843V101.123H63.7137V101.511ZM58.9902 101.511H56.6608V101.123H58.9902V101.511ZM54.3314 101.511H52.002V101.123H54.3314V101.511ZM49.6079 101.511H47.2784V101.123H49.6079V101.511Z" fill="#E4EEF7"/>
<path d="M44.9479 101.511H43.5891V100.152H43.9773V101.123H44.9479V101.511Z" fill="#E4EEF7"/>
<path d="M43.9773 97.8226H43.5891V95.4932H43.9773V97.8226ZM43.9773 93.0991H43.5891V90.7697H43.9773V93.0991ZM43.9773 88.4403H43.5891V86.1109H43.9773V88.4403ZM43.9773 83.7168H43.5891V81.3874H43.9773V83.7168ZM43.9773 79.0579H43.5891V76.7285H43.9773V79.0579ZM43.9773 74.3991H43.5891V72.0697H43.9773V74.3991Z" fill="#E4EEF7"/>
<path d="M43.9773 69.6756H43.5891V68.3168H44.9479V68.705H43.9773V69.6756Z" fill="#E4EEF7"/>
<path d="M73.0961 68.7053H70.7667V68.317H73.0961V68.7053ZM68.3726 68.7053H66.0431V68.317H68.3726V68.7053ZM63.7137 68.7053H61.3843V68.317H63.7137V68.7053ZM58.9902 68.7053H56.6608V68.317H58.9902V68.7053ZM54.3314 68.7053H52.002V68.317H54.3314V68.7053ZM49.6079 68.7053H47.2784V68.317H49.6079V68.7053Z" fill="#E4EEF7"/>
<path d="M76.7184 69.6756H76.3949V68.705H75.4243V68.3168H76.7184V69.6756Z" fill="#E4EEF7"/>
<path d="M76.7184 97.8226H76.3949V95.4932H76.7831V97.8226H76.7184ZM76.7184 93.0991H76.3949V90.7697H76.7831V93.0991H76.7184ZM76.7184 88.4403H76.3949V86.1109H76.7831V88.4403H76.7184ZM76.7184 83.7168H76.3949V81.3874H76.7831V83.7168H76.7184ZM76.7184 79.0579H76.3949V76.7285H76.7831V79.0579H76.7184ZM76.7184 74.3991H76.3949V72.0697H76.7831V74.3991H76.7184Z" fill="#E4EEF7"/>
<path d="M56.402 79.3169C56.402 80.4169 55.4961 81.3228 54.3961 81.3228C53.2961 81.3228 52.3903 80.4169 52.3903 79.3169C52.3903 78.2169 53.2961 77.311 54.3961 77.311C55.4961 77.311 56.402 78.2169 56.402 79.3169Z" fill="#E4EEF7"/>
<path d="M71.5436 95.5582V81.3876C70.8318 80.9346 69.9259 80.7405 69.0847 80.8052C67.7906 80.8699 66.5612 81.517 65.6553 82.4229C64.9436 83.0699 64.4259 83.9111 63.8436 84.6229C63.1965 85.3993 62.5494 86.0464 61.773 86.6288C61.3847 86.9523 60.9318 87.2111 60.4141 87.3405C59.8965 87.4699 59.3141 87.4052 58.7965 87.2758C57.6318 87.017 56.5965 86.4993 55.4318 86.1758C54.3318 85.7876 53.1024 85.5935 51.9377 85.917C50.5789 86.3052 49.6083 87.5346 48.7671 88.6993V95.5582H71.5436Z" fill="#E4EEF7"/>
<path d="M76.721 155.411H75.4269V155.023H76.3975V154.052H76.721V155.411Z" fill="#E4EEF7"/>
<path d="M73.0979 155.411H70.7685V155.023H73.0979V155.411ZM68.3744 155.411H66.045V155.023H68.3744V155.411ZM63.7156 155.411H61.3862V155.023H63.7156V155.411ZM58.992 155.411H56.6626V155.023H58.992V155.411ZM54.3332 155.411H52.0038V155.023H54.3332V155.411ZM49.6097 155.411H47.2803V155.023H49.6097V155.411Z" fill="#E4EEF7"/>
<path d="M44.9506 155.411H43.5918V154.052H43.98V155.023H44.9506V155.411Z" fill="#E4EEF7"/>
<path d="M43.98 151.723H43.5918V149.393H43.98V151.723ZM43.98 147.064H43.5918V144.734H43.98V147.064ZM43.98 142.34H43.5918V140.011H43.98V142.34ZM43.98 137.681H43.5918V135.352H43.98V137.681ZM43.98 132.958H43.5918V130.629H43.98V132.958ZM43.98 128.299H43.5918V125.97H43.98V128.299Z" fill="#E4EEF7"/>
<path d="M43.98 123.64H43.5918V122.281H44.9506V122.669H43.98V123.64Z" fill="#E4EEF7"/>
<path d="M73.0979 122.67H70.7685V122.281H73.0979V122.67ZM68.3744 122.67H66.045V122.281H68.3744V122.67ZM63.7156 122.67H61.3862V122.281H63.7156V122.67ZM58.992 122.67H56.6626V122.281H58.992V122.67ZM54.3332 122.67H52.0038V122.281H54.3332V122.67ZM49.6097 122.67H47.2803V122.281H49.6097V122.67Z" fill="#E4EEF7"/>
<path d="M76.721 123.64H76.3975V122.669H75.4269V122.281H76.721V123.64Z" fill="#E4EEF7"/>
<path d="M76.7211 151.723H76.3976V149.393H76.7858V151.723H76.7211ZM76.7211 147.064H76.3976V144.734H76.7858V147.064H76.7211ZM76.7211 142.34H76.3976V140.011H76.7858V142.34H76.7211ZM76.7211 137.681H76.3976V135.352H76.7858V137.681H76.7211ZM76.7211 132.958H76.3976V130.629H76.7858V132.958H76.7211ZM76.7211 128.299H76.3976V125.97H76.7858V128.299H76.7211Z" fill="#E4EEF7"/>
<path d="M56.4022 133.281C56.4022 134.381 55.4963 135.287 54.3963 135.287C53.2963 135.287 52.3904 134.381 52.3904 133.281C52.3904 132.181 53.2963 131.275 54.3963 131.275C55.4963 131.275 56.4022 132.181 56.4022 133.281Z" fill="#E4EEF7"/>
<path d="M71.544 149.458V135.287C70.8323 134.835 69.9264 134.64 69.0852 134.705C67.7911 134.77 66.5617 135.417 65.6558 136.323C64.944 136.97 64.4264 137.811 63.844 138.523C63.197 139.299 62.5499 139.946 61.7735 140.529C61.3852 140.852 60.9323 141.111 60.4146 141.24C59.897 141.37 59.3146 141.305 58.797 141.176C57.6323 140.917 56.597 140.399 55.4323 140.076C54.3323 139.687 53.1029 139.493 51.9382 139.817C50.5793 140.205 49.6088 141.435 48.7676 142.599V149.393H71.544V149.458Z" fill="#E4EEF7"/>
<path d="M76.7184 209.311H75.4243V208.923H76.3949V208.017H76.7184V209.311Z" fill="#E4EEF7"/>
<path d="M73.0961 209.311H70.7667V208.923H73.0961V209.311ZM68.3726 209.311H66.0431V208.923H68.3726V209.311ZM63.7137 209.311H61.3843V208.923H63.7137V209.311ZM58.9902 209.311H56.6608V208.923H58.9902V209.311ZM54.3314 209.311H52.002V208.923H54.3314V209.311ZM49.6079 209.311H47.2784V208.923H49.6079V209.311Z" fill="#E4EEF7"/>
<path d="M44.9479 209.311H43.5891V208.017H43.9773V208.923H44.9479V209.311Z" fill="#E4EEF7"/>
<path d="M43.9773 205.623H43.5891V203.293H43.9773V205.623ZM43.9773 200.964H43.5891V198.635H43.9773V200.964ZM43.9773 196.305H43.5891V193.911H43.9773V196.305ZM43.9773 191.582H43.5891V189.252H43.9773V191.582ZM43.9773 186.923H43.5891V184.593H43.9773V186.923ZM43.9773 182.199H43.5891V179.87H43.9773V182.199Z" fill="#E4EEF7"/>
<path d="M43.9773 177.54H43.5891V176.182H44.9479V176.57H43.9773V177.54Z" fill="#E4EEF7"/>
<path d="M73.0961 176.57H70.7667V176.182H73.0961V176.57ZM68.3726 176.57H66.0431V176.182H68.3726V176.57ZM63.7137 176.57H61.3843V176.182H63.7137V176.57ZM58.9902 176.57H56.6608V176.182H58.9902V176.57ZM54.3314 176.57H52.002V176.182H54.3314V176.57ZM49.6079 176.57H47.2784V176.182H49.6079V176.57Z" fill="#E4EEF7"/>
<path d="M76.7184 177.54H76.3949V176.57H75.4243V176.182H76.7184V177.54Z" fill="#E4EEF7"/>
<path d="M76.7184 205.623H76.3949V203.294H76.7831V205.623H76.7184ZM76.7184 200.964H76.3949V198.635H76.7831V200.964H76.7184ZM76.7184 196.306H76.3949V193.911H76.7831V196.306H76.7184ZM76.7184 191.582H76.3949V189.253H76.7831V191.582H76.7184ZM76.7184 186.923H76.3949V184.594H76.7831V186.923H76.7184ZM76.7184 182.2H76.3949V179.87H76.7831V182.2H76.7184Z" fill="#E4EEF7"/>
<path d="M56.402 187.182C56.402 188.282 55.4961 189.188 54.3961 189.188C53.2961 189.188 52.3903 188.282 52.3903 187.182C52.3903 186.082 53.2961 185.176 54.3961 185.176C55.4961 185.176 56.402 186.082 56.402 187.182Z" fill="#E4EEF7"/>
<path d="M71.5436 203.423V189.253C70.8318 188.8 69.9259 188.606 69.0847 188.67C67.7906 188.735 66.5612 189.382 65.6553 190.288C64.9436 190.935 64.4259 191.776 63.8436 192.488C63.1965 193.264 62.5494 193.911 61.773 194.494C61.3847 194.817 60.9318 195.076 60.4141 195.206C59.8965 195.335 59.3141 195.27 58.7965 195.141C57.6318 194.882 56.5965 194.364 55.4318 194.041C54.3318 193.653 53.1024 193.458 51.9377 193.782C50.5789 194.17 49.6083 195.4 48.7671 196.564V203.358H71.5436V203.423Z" fill="#E4EEF7"/>
<path d="M80.8608 110.764H40.7432V111.411H80.8608V110.764Z" fill="#E4EEF7"/>
<path d="M80.8608 167.058H40.7432V167.705H80.8608V167.058Z" fill="#E4EEF7"/>
<path d="M301.073 231.313C301.073 231.313 300.729 236.825 299.663 236.893C299.526 236.905 294.266 236.905 294.266 236.905L287.551 236.87C287.551 236.87 287.597 235.255 289.556 234.911C291.516 234.567 294.805 233.192 295.996 230.591C297.234 227.863 301.073 231.313 301.073 231.313Z" fill="#163560"/>
<path d="M301.451 231.691C301.451 231.691 299.411 232.379 297.819 232.379C296.042 232.379 294.427 231.897 294.427 231.897C294.427 231.897 294.037 228.184 291.928 219.991C290.817 215.694 289.235 210.182 286.978 203.318C280.744 184.364 278.853 173.271 278.681 172.217C278.67 172.159 278.67 172.137 278.67 172.137L278.693 172.125L297.841 163.714C297.841 163.714 295.469 189.841 298.495 199.868C298.919 201.266 299.285 202.905 299.595 204.67C301.497 215.568 301.451 231.691 301.451 231.691Z" fill="#2B478B"/>
<path d="M299.595 204.67L291.929 219.98C290.817 215.682 289.236 210.17 286.978 203.306C280.744 184.352 278.854 173.26 278.682 172.205C278.682 172.171 278.682 172.148 278.693 172.114L297.842 163.703C297.842 163.703 295.47 189.83 298.495 199.857C298.919 201.267 299.286 202.905 299.595 204.67Z" fill="#233862"/>
<path d="M286.108 231.313C286.108 231.313 285.764 236.825 284.698 236.893C284.561 236.905 279.289 236.905 279.289 236.905L272.574 236.87C272.574 236.87 272.62 235.255 274.58 234.911C276.539 234.567 279.828 233.192 281.02 230.591C282.28 227.863 286.108 231.313 286.108 231.313Z" fill="#163560"/>
<path d="M275.255 164.333C275.255 164.333 275.003 181.259 277.937 202.046C280.871 222.833 279.874 231.657 279.874 231.657C279.874 231.657 281.89 232.31 282.704 232.379C284.778 232.551 286.898 231.898 286.898 231.898C286.898 231.898 291.092 211.099 289.889 200.694C288.686 190.289 295.63 164.986 295.63 164.986L275.255 164.333Z" fill="#2B478B"/>
<path d="M289.202 124.042L285.845 126.987L280.355 126.746C280.367 126.299 280.47 124.466 280.562 122.793C280.573 122.69 280.573 122.598 280.573 122.495C280.653 121.074 280.722 119.859 280.722 119.859L285.409 116.949L287.151 115.86C287.151 115.894 287.22 117.407 287.231 117.636C287.437 121.59 289.202 124.042 289.202 124.042Z" fill="#DCABB0"/>
<path d="M274.134 165.067C274.215 174.005 274.811 194.907 275.246 195.331C279.899 199.823 300.376 194.105 301.454 189.154C302.542 184.204 297.328 125.692 289.375 123.354C287.725 122.873 278.902 125.727 278.902 125.727C278.902 125.727 277.515 129.348 276.61 133.954C276.277 135.662 275.177 147.855 274.536 155.991C274.364 158.157 274.226 160.047 274.146 161.365C274.123 161.904 274.123 163.233 274.134 165.067Z" fill="#ABDDDA"/>
<path d="M286.877 117.773C286.04 119.79 282.178 121.967 280.562 122.804C280.574 122.701 280.574 122.609 280.574 122.506C280.654 121.085 280.723 119.87 280.723 119.87L285.41 116.959C286.51 116.788 287.22 116.948 286.877 117.773Z" fill="#CB7F83"/>
<path d="M278.992 120.077C278.992 120.077 287.472 120.867 287.873 115.573C288.285 110.29 289.649 106.83 284.252 106.096C278.854 105.363 277.651 107.311 277.078 109.041C276.528 110.772 276.803 119.733 278.992 120.077Z" fill="#DCABB0"/>
<path d="M277.306 108.491C277.306 108.491 279.048 114.175 280.194 113.671C281.34 113.167 282.383 112.743 282.578 114.53C282.772 116.318 281.546 118.679 285.293 118.209C289.052 117.727 292.33 107.093 290.931 105.5C286.898 100.917 271.726 103.059 277.306 108.491Z" fill="#163560"/>
<path d="M281.078 123.48C281.181 123.434 287.129 120.764 287.828 120.993C288.527 121.222 289.386 123.342 289.386 123.342L278.912 125.714C278.912 125.714 279.737 124.041 281.078 123.48Z" fill="#91CECF"/>
<path d="M274.132 171.461C290.06 159.944 291.298 141.678 291.298 141.678C283.723 145.952 276.527 153.023 274.189 160.792C274.017 162.958 274.235 166.43 274.155 167.748C274.12 168.309 274.12 169.639 274.132 171.461Z" fill="#91CECF"/>
<path d="M264.129 165.57C264.129 165.57 263.934 165.41 263.487 165.375C263.097 165.249 262.031 164.768 261.848 164.608C261.264 164.08 261.057 164.642 261.47 165.204C261.562 165.33 261.871 165.536 261.986 165.65C261.115 165.983 259.946 166.659 258.433 167.988C258.433 167.988 257.218 168.962 258.857 169.18C259.946 169.317 260.358 168.916 261.905 169.088C263.452 169.26 264.942 168.71 265.492 167.702L266.512 166.899L265.641 164.86L264.129 165.57Z" fill="#DCABB0"/>
<path d="M284.536 126.139C284.536 126.139 301.313 125.337 286.141 153.561C283.711 158.076 266.373 167.886 266.373 167.886C266.373 167.886 264.746 166.121 265.365 164.643C265.365 164.643 276.652 151.797 278.165 151.269C279.506 150.811 279.231 135.158 280.434 131.387C281.626 127.617 284.536 126.139 284.536 126.139Z" fill="#ABDDDA"/>
</svg>
