<svg width="513" height="345" viewBox="0 0 513 345" fill="none" xmlns="http://www.w3.org/2000/svg">
<g clip-path="url(#clip0_1302_1296)">
<g clip-path="url(#clip1_1302_1296)">
<path d="M31.6985 441.668C31.6985 441.668 -6.67258 394.615 12.2998 303.716C24.2374 246.542 74.333 218.225 141.502 220.929C164.582 221.856 202.159 194.158 256.15 160.124C371.612 87.3425 538.642 118.247 498.663 281.967C479.322 361.199 559.514 362.474 519.65 441.668H31.6985Z" fill="#EBF3FA"/>
<g clip-path="url(#clip2_1302_1296)">
<path d="M475.927 349.597C475.927 356.351 376.268 363.73 256.827 363.73C137.386 363.73 39.9805 357.601 39.9805 350.847C39.9805 344.094 475.927 342.843 475.927 349.597Z" fill="#D0DBFC"/>
<path d="M384.027 108.21C384.027 108.21 374.887 111.962 362.242 120.592C360.114 122.092 357.485 141.854 357.485 141.854C357.485 141.854 355.356 124.594 354.229 125.469C346.091 131.848 336.952 140.228 328.188 150.609C327.186 151.734 337.953 165.242 336.952 166.368C335.825 167.743 323.055 156.862 322.053 158.238C309.157 175.373 275.354 222.275 270.471 248.039L304.901 262.172C345.716 266.175 358.987 252.417 363.995 242.036C364.871 240.16 329.69 235.407 329.69 235.407C329.69 235.407 368.377 232.906 369.128 231.155C375.138 218.147 381.398 203.639 385.655 190.632C386.281 188.63 345.591 190.381 346.091 188.505C346.342 187.63 387.908 183.252 388.159 182.377C389.912 176.248 391.038 170.62 391.289 165.992C391.414 164.367 359.488 166.493 359.488 166.493C359.488 166.493 391.038 159.364 391.539 155.111C393.167 141.103 389.16 125.344 384.027 108.21Z" fill="#84C4E2"/>
<path d="M328.564 225.902L358.612 162.24C358.487 161.49 358.487 160.74 358.362 159.989C358.112 157.363 357.736 154.861 357.486 152.235C356.734 145.856 356.359 139.477 355.608 133.099C354.606 125.469 354.356 125.594 354.356 125.594C355.357 125.094 355.983 130.472 356.359 132.348C356.86 135.35 357.235 137.977 357.736 140.978C358.612 146.982 359.614 152.985 360.24 158.989L384.153 108.21C384.153 108.21 372.009 138.102 360.741 164.116C360.866 164.116 360.866 164.116 360.991 163.991C361.868 163.616 382.275 162.741 391.79 154.861L391.54 155.862C382.15 165.117 360.49 166.368 359.739 166.493C355.983 175.248 354.606 177.999 350.725 186.379C351.226 186.504 351.852 186.254 352.227 186.254C353.104 186.129 353.98 186.004 354.731 186.004C357.736 185.629 360.741 185.253 363.746 184.878C370.757 184.003 377.768 183.502 384.654 182.752C386.282 182.627 387.408 182.627 387.408 182.627C387.408 182.627 380.522 184.128 376.015 184.878C369.129 186.004 362.243 187.13 355.482 188.255C354.481 188.38 353.604 188.505 352.603 188.755C351.601 188.881 350.6 189.131 349.723 188.755C340.333 208.767 331.82 225.026 328.564 225.902Z" fill="#AEE4F4"/>
<path d="M369.254 231.155L325.809 233.656L325.309 235.907C325.309 236.032 359.238 233.281 369.254 231.155Z" fill="#4E9DC4"/>
<path d="M328.188 150.609L351.35 179.625L348.721 185.128C348.721 185.128 327.688 153.735 328.188 150.609Z" fill="#AEE4F4"/>
<path d="M82.6717 73.8149C82.6717 73.8149 94.0649 79.8184 109.339 92.2004C111.968 94.3266 107.586 138.602 107.586 138.602C107.586 138.602 117.602 98.2038 118.98 99.5796C129.121 109.085 140.264 121.467 150.53 136.351C151.156 137.351 142.517 150.359 143.268 151.359C159.67 175.873 182.832 194.884 186.337 231.53C186.337 231.53 188.716 253.918 186.337 252.417C183.833 250.916 122.485 300.194 122.485 300.194C122.485 300.194 114.222 286.936 104.456 269.802C103.204 267.55 128.119 256.044 126.742 253.667C125.74 252.041 98.5721 259.296 97.5705 257.67C87.6797 239.784 77.7889 220.023 73.7825 207.141C73.2817 205.515 99.6989 205.64 99.3233 203.889C98.8225 201.888 70.7777 195.884 70.7777 195.884C67.5225 181.876 65.3941 165.492 66.1453 147.107C66.2705 145.106 101.702 152.36 101.702 152.36C101.702 152.36 66.7713 135.725 67.1469 133.099C69.2753 114.963 74.0329 95.077 82.6717 73.8149Z" fill="#F7AB61"/>
<path d="M82.6719 73.8149C82.6719 73.8149 94.0651 79.8184 109.339 92.2004C111.969 94.3266 107.587 138.602 107.587 138.602C107.587 138.602 117.603 98.2038 118.98 99.5796C129.121 109.085 140.264 121.467 150.53 136.351C151.281 137.351 145.898 145.856 146.524 146.857C162.8 171.37 182.707 195.009 186.212 231.53C186.212 231.53 188.591 253.918 186.212 252.417C183.708 250.916 131.625 216.896 131.625 216.896L82.6719 73.8149Z" fill="#FFC68D"/>
<path d="M82.6711 73.8149C82.6711 73.8149 119.23 190.631 123.236 201.888C124.238 204.639 72.6551 196.51 70.9023 196.01C71.0275 196.135 122.485 212.769 124.238 204.764C133.878 231.905 136.006 230.154 140.263 231.655L82.6711 73.8149Z" fill="#FFE2CF"/>
<path d="M79.291 140.978C79.6666 140.978 108.838 154.986 108.838 154.986L110.215 158.113L79.291 140.978Z" fill="#FFE2CF"/>
<path d="M113.846 114.963L106.334 143.48L106.71 146.731L113.846 114.963Z" fill="#FFE2CF"/>
<path d="M182.707 338.966C174.694 346.595 147.776 342.718 127.368 334.714C122.611 332.837 116.726 330.211 110.091 326.584C114.348 326.334 141.015 323.332 134.63 283.684C134.38 281.934 112.845 304.321 109.59 326.334C100.826 321.456 91.9368 315.578 78.4152 302.82C75.2852 299.819 65.0188 288.062 59.1344 278.682C63.1408 276.681 81.1696 266.8 91.1856 240.16C91.8116 238.534 60.3864 248.665 58.3832 277.431C53.1248 268.801 48.3672 259.045 44.7364 247.914H44.8616C44.7364 247.664 44.6112 247.289 44.6112 247.039C44.6112 246.914 44.486 246.663 44.486 246.538C44.486 246.663 44.486 246.788 44.486 247.039C42.2324 240.16 40.4796 232.781 39.1024 224.901C40.8552 223.025 46.7396 214.52 41.1056 187.505C40.73 185.879 31.8408 200.012 37.4748 221.274C38.852 230.154 40.73 238.409 43.1088 246.038C17.9436 226.402 6.80078 246.288 6.80078 246.288C20.9484 251.916 41.1056 247.914 43.3592 246.538C47.1152 258.295 51.998 268.676 57.5068 277.806C57.5068 277.806 59.3848 280.808 59.7604 281.308C65.77 290.563 72.4056 298.443 79.2916 305.072C79.2916 305.072 79.2916 305.072 79.2916 305.197C79.2916 305.197 79.2916 305.197 79.4168 305.197C79.6672 305.447 79.9176 305.697 80.168 305.947C50.12 299.318 31.34 311.45 31.34 311.45C53.7508 325.833 77.5388 311.075 81.5452 307.198C89.0572 314.202 96.6944 319.705 103.956 324.208C105.458 324.833 106.71 325.708 107.962 326.584C115.224 330.836 121.985 333.838 127.118 335.839C142.142 341.718 155.914 344.344 166.306 344.344C174.569 344.344 180.704 342.718 183.583 339.967L182.707 338.966Z" fill="#689CDA"/>
<path d="M107.838 326.459C86.4286 317.329 65.0193 330.586 65.0193 330.586C86.0529 342.718 102.955 331.962 107.838 327.084C108.714 326.334 107.963 326.459 107.838 326.459Z" fill="#689CDA"/>
<path d="M72.4055 213.395C73.0315 211.769 47.8663 220.399 44.6111 246.663C44.7363 246.663 44.8615 247.414 44.9867 247.789C49.2435 245.913 63.0155 237.908 72.4055 213.395Z" fill="#689CDA"/>
<path d="M58.7578 279.807C33.843 259.045 17.0662 276.806 17.0662 276.806C31.4642 283.935 54.1254 282.684 59.6342 281.308C59.6342 281.183 58.7578 279.932 58.7578 279.807Z" fill="#689CDA"/>
<path d="M104.329 262.047C104.078 260.296 84.7976 283.559 80.5408 304.822C80.666 304.822 80.9164 305.072 81.1668 305.197C88.804 303.946 109.963 297.067 104.329 262.047Z" fill="#689CDA"/>
<path d="M304.526 275.305C311.037 281.433 332.822 278.056 349.223 271.552C353.104 270.052 357.862 267.8 363.12 264.799C359.74 264.674 338.08 262.297 343.088 230.154C343.338 228.778 360.866 246.788 363.621 264.548C370.632 260.546 377.894 255.793 388.786 245.287C391.29 242.911 399.553 233.281 404.311 225.651C401.056 224.15 386.407 216.146 378.144 194.759C377.643 193.383 403.184 201.387 404.937 224.776C409.194 217.772 412.95 209.767 415.829 200.762H415.704C415.829 200.512 415.829 200.262 415.954 200.012C415.954 199.887 416.08 199.762 416.08 199.511C416.08 199.637 416.08 199.762 416.08 199.887C417.832 194.258 419.335 188.38 420.336 182.001C418.959 180.501 414.076 173.622 418.458 151.734C418.709 150.358 426.096 161.865 421.588 179.125C420.587 186.379 419.084 193.008 417.206 199.261C437.489 183.252 446.628 199.261 446.628 199.261C435.235 203.889 418.959 200.762 417.081 199.762C414.076 209.267 410.195 217.772 405.813 225.151C405.813 225.151 404.311 227.652 404.06 228.028C399.303 235.532 393.919 241.911 388.285 247.414C388.285 247.414 388.285 247.414 388.16 247.414C387.91 247.664 387.784 247.789 387.534 248.039C411.823 242.536 427.097 252.291 427.097 252.291C409.068 264.048 389.662 252.291 386.407 249.165C380.398 254.793 374.138 259.421 368.378 263.048C367.252 263.548 366.125 264.173 365.123 265.049C359.239 268.551 353.855 270.927 349.598 272.678C337.454 277.556 326.311 279.682 317.923 279.807C311.287 279.807 306.279 278.556 303.9 276.305L304.526 275.305Z" fill="#F7AB61"/>
<path d="M365.624 264.924C366.125 264.673 366.751 264.298 367.377 264.298C367.877 264.298 367.877 263.798 367.627 263.548C367.877 263.298 368.253 263.173 368.503 262.922L368.629 262.797C390.789 259.545 399.803 267.8 399.803 267.8C382.901 277.806 369.129 269.051 365.123 265.299C365.248 265.174 365.499 265.049 365.624 264.924Z" fill="#FFCDA4"/>
<path d="M393.167 172.996C392.666 171.746 413.074 178.499 415.954 199.762C415.828 199.762 415.828 200.387 415.703 200.637C412.072 199.136 400.93 192.758 393.167 172.996Z" fill="#FFCDA4"/>
<path d="M404.562 226.527C424.594 209.517 438.24 223.775 438.24 223.775C426.597 229.654 408.318 228.778 403.81 227.652C403.936 227.778 404.562 226.652 404.562 226.527C404.562 226.652 404.562 226.652 404.562 226.527Z" fill="#FFCDA4"/>
<path d="M367.627 212.519C367.878 211.143 383.528 229.779 387.159 246.913C387.034 246.913 386.783 247.039 386.658 247.289C380.398 246.413 363.245 240.91 367.627 212.519Z" fill="#FFCDA4"/>
<path d="M447.002 350.473H318.296C310.409 350.473 304.024 344.094 304.024 336.214V266.675C304.024 258.795 310.409 252.417 318.296 252.417H447.002C454.89 252.417 461.275 258.795 461.275 266.675V336.089C461.4 344.094 454.89 350.473 447.002 350.473Z" fill="#0753AC"/>
<path d="M431.854 350.848H303.148C295.26 350.848 288.875 344.469 288.875 336.59V267.175C288.875 259.295 295.26 252.917 303.148 252.917H431.854C439.741 252.917 446.126 259.295 446.126 267.175V336.59C446.126 344.469 439.741 350.848 431.854 350.848Z" fill="#689CDA"/>
<path d="M375.263 280.808H351.1C335.575 280.808 323.055 268.176 323.055 252.792C323.055 237.283 335.7 224.776 351.1 224.776H375.263C390.788 224.776 403.308 237.408 403.308 252.792C403.308 268.301 390.788 280.808 375.263 280.808ZM351.1 236.658C342.211 236.658 334.949 243.912 334.949 252.792C334.949 261.672 342.211 268.926 351.1 268.926H375.263C384.153 268.926 391.414 261.672 391.414 252.792C391.414 243.912 384.153 236.658 375.263 236.658H351.1Z" fill="#689CDA"/>
<path d="M288.75 272.303C288.75 261.297 297.639 252.292 308.782 252.292H433.857C444.875 252.292 446.878 260.171 446.252 272.303H288.75Z" fill="#BDBDFF"/>
<path d="M389.159 301.695H372.508V287.687C372.508 284.935 370.254 282.684 367.5 282.684C364.745 282.684 362.492 284.935 362.492 287.687V301.695H345.84C343.086 301.695 340.832 303.946 340.832 306.698C340.832 309.449 343.086 311.701 345.84 311.701H362.492V331.087C362.492 333.838 364.745 336.089 367.5 336.089C370.254 336.089 372.508 333.838 372.508 331.087V311.701H389.159C391.914 311.701 394.167 309.449 394.167 306.698C394.167 303.821 391.914 301.695 389.159 301.695Z" fill="white"/>
<path d="M205.618 121.467C206.119 120.717 225.525 130.472 247.435 117.715C269.345 104.958 256.574 239.284 256.574 239.284L254.821 308.949L252.317 342.593H197.855L186.713 236.658C186.713 236.658 197.981 133.474 205.618 121.467Z" fill="#5DCEC1"/>
<path d="M304.024 141.228C295.134 133.599 254.194 118.09 254.194 118.09L247.558 129.972C247.558 129.972 249.687 277.931 248.56 308.448V342.593H298.515L298.765 265.549C313.163 261.922 324.306 255.794 330.441 249.165C337.327 241.535 339.08 237.283 339.08 227.277C339.08 217.272 312.913 148.858 304.024 141.228Z" fill="white"/>
<path d="M201.111 251.666C201.611 250.916 201.862 250.541 201.862 250.541V119.466C201.862 119.466 160.921 134.975 152.032 142.604C143.143 150.233 117.227 220.899 116.976 231.029C115.975 271.052 150.78 321.456 150.78 321.456C150.78 321.456 151.907 320.956 154.035 319.455C153.409 328.71 152.157 342.718 152.157 342.718H206.494C206.494 342.718 206.619 301.32 206.494 299.443C206.369 298.193 203.489 272.428 201.111 251.666Z" fill="white"/>
<path d="M288.25 216.021L279.111 221.399C278.86 221.524 278.61 221.524 278.485 221.399L268.844 216.021C268.594 215.896 268.469 215.646 268.469 215.396V195.134C268.469 194.759 268.719 194.509 269.095 194.509H287.875C288.25 194.509 288.501 194.759 288.501 195.134V215.396C288.626 215.646 288.501 215.896 288.25 216.021Z" fill="#D5E1ED"/>
<path d="M288.25 216.021L279.111 221.399C278.86 221.524 278.61 221.524 278.485 221.399L268.844 216.021C268.594 215.896 268.469 215.646 268.469 215.396V199.261C268.469 198.886 268.719 198.636 269.095 198.636H287.875C288.25 198.636 288.501 198.886 288.501 199.261V215.396C288.626 215.646 288.501 215.896 288.25 216.021Z" fill="#B8DDFF"/>
<g opacity="0.5">
<g opacity="0.5">
<path opacity="0.5" d="M248.562 309.824V245.788V106.709C248.562 106.709 250.315 109.836 256.575 116.214C264.463 124.219 271.224 136.226 271.224 136.226L257.076 133.474L275.48 151.985L261.583 233.531L251.818 235.032L258.078 254.793L248.562 309.824Z" fill="#8FA7D7"/>
</g>
</g>
<g opacity="0.5">
<path opacity="0.5" d="M195.602 116.089C187.715 124.094 180.954 136.1 180.954 136.1L195.102 133.349L176.697 151.859L206.495 305.572L203.615 106.584C203.615 106.584 201.862 109.71 195.602 116.089Z" fill="#8FA7D7"/>
</g>
<path d="M248.562 301.32L245.432 105.208C245.432 105.208 248.687 106.584 254.947 112.962C262.834 120.967 268.093 134.725 268.093 134.725L253.945 131.973L272.35 150.484L259.078 234.407L252.318 235.907L257.326 245.913L248.562 301.32Z" fill="white"/>
<path d="M206.494 299.318V105.083C206.494 105.083 203.239 106.459 196.979 112.837C189.091 120.842 183.833 134.6 183.833 134.6L197.98 131.848L179.576 150.359L206.494 299.318Z" fill="white"/>
<path d="M228.654 315.203C216.259 315.203 206.744 313.326 206.619 313.326V312.201C206.869 312.201 228.404 316.453 248.561 312.201V313.326C241.675 314.702 234.914 315.203 228.654 315.203Z" fill="#38A595"/>
<path d="M225.9 139.352C214.757 139.352 206.619 135.475 206.494 135.35V134.099C206.744 134.224 226.526 143.605 245.807 133.224V134.6C238.796 138.352 232.035 139.352 225.9 139.352Z" fill="#38A595"/>
<path opacity="0.5" d="M135.004 231.029C135.004 231.029 149.777 233.906 157.415 241.535C157.54 241.535 138.384 231.905 135.004 231.029Z" fill="#8FA7D7"/>
<path d="M174.193 296.817L177.323 300.569C177.323 300.569 171.063 315.828 164.177 323.832L158.543 316.078C158.543 316.078 167.182 309.449 174.193 296.817Z" fill="#FFCCA9"/>
<path opacity="0.5" d="M152.532 231.029C152.908 231.655 157.916 236.407 159.544 240.91L151.781 232.03L152.532 231.029Z" fill="#8FA7D7"/>
<path opacity="0.5" d="M168.308 179.75C168.308 179 163.801 238.534 161.797 246.288L176.696 291.939C176.696 291.939 168.809 309.824 154.035 319.33C154.035 319.33 163.55 317.954 178.449 297.317C178.449 297.317 170.937 318.579 160.42 327.584C160.42 327.584 176.947 317.829 181.829 288.062L166.179 246.288C166.305 246.288 168.934 193.008 168.308 179.75Z" fill="#8FA7D7"/>
<path opacity="0.5" d="M298.765 265.549L291.504 267.675L292.631 274.054L298.765 271.678V265.549Z" fill="#8FA7D7"/>
<path opacity="0.5" d="M297.012 220.899L291.503 176.123L293.256 222.275C274.852 229.279 255.07 237.533 255.07 237.533C255.07 237.533 265.587 234.782 278.483 231.405C291.378 228.028 315.417 214.52 315.417 214.52C310.534 216.021 303.898 218.272 297.012 220.899Z" fill="#8FA7D7"/>
<path opacity="0.1" d="M322.43 177.249C322.43 177.249 333.949 208.392 334.074 228.528C334.074 236.032 329.817 242.286 326.687 244.537C296.639 266.425 259.455 267.175 259.455 267.175C259.455 267.175 259.204 272.178 258.453 273.179C258.453 273.179 324.183 268.801 336.703 240.41C336.703 240.41 339.583 235.907 338.957 228.778C337.705 215.271 330.318 196.385 322.43 177.249Z" fill="#8FA7D7"/>
<path opacity="0.1" d="M139.388 165.867C139.889 164.617 120.608 213.52 120.859 231.03C121.234 267.926 148.528 314.452 154.037 319.455L150.781 321.456C150.781 321.456 114.599 267.8 116.977 231.03C117.478 223.65 118.355 220.524 139.388 165.867Z" fill="#8FA7D7"/>
<path d="M258.703 272.803C260.831 251.166 254.571 237.908 255.322 237.533C262.333 234.406 279.861 227.527 293.884 222.024L294.51 190.131L222.645 187.255L221.017 293.315L292.632 290.438L293.007 267.3C275.354 271.427 258.703 272.803 258.703 272.803Z" fill="#0753AC"/>
<path d="M270.347 189.256V187.88L250.816 186.754V188.38L270.347 189.256Z" fill="#A1B5BF"/>
<path d="M253.317 190.506C253.317 190.756 253.192 190.882 252.942 190.882C252.691 190.882 252.566 190.756 252.566 190.506C252.566 190.256 252.691 190.131 252.942 190.131C253.192 190.131 253.317 190.381 253.317 190.506Z" fill="#A1B5BF"/>
<path d="M268.718 191.257C268.718 191.382 268.592 191.507 268.467 191.507C268.342 191.507 268.217 191.382 268.217 191.257C268.217 191.132 268.342 191.007 268.467 191.007C268.718 191.007 268.718 191.132 268.718 191.257Z" fill="#A1B5BF"/>
<path d="M257.324 79.5686C255.321 86.9478 251.69 92.576 250.062 92.2008C250.062 92.2008 251.189 87.4481 252.692 79.9438C254.444 71.1888 254.695 65.0603 258.2 65.4355C259.828 65.5606 259.452 72.1894 257.324 79.5686Z" fill="#F0BA92"/>
<g opacity="0.6">
<g opacity="0.6">
<path opacity="0.6" d="M254.697 76.5668C252.819 83.946 251.817 92.576 250.189 92.2007C250.189 92.2007 251.692 85.4469 253.194 77.9426C254.947 69.1876 254.697 66.1859 258.327 66.5611C258.327 66.5611 256.95 67.5617 254.697 76.5668Z" fill="#D88D64"/>
</g>
</g>
<path d="M194.85 79.5685C196.854 86.9477 200.234 92.5759 201.862 92.2007C201.862 92.2007 200.234 86.0722 199.232 79.6936C197.855 70.9386 197.605 65.0602 193.974 65.4354C192.346 65.5605 192.722 72.1893 194.85 79.5685Z" fill="#F0BA92"/>
<g opacity="0.6">
<g opacity="0.6">
<path opacity="0.6" d="M196.477 75.6912C198.355 83.0704 200.233 92.5758 201.861 92.2006C201.861 92.2006 200.233 84.5712 198.731 77.0669C196.978 68.312 197.354 66.3108 193.723 66.686C193.723 66.686 194.224 66.686 196.477 75.6912Z" fill="#D88D64"/>
</g>
</g>
<path d="M245.682 122.468C245.682 122.468 242.927 129.597 225.9 129.597C208.873 129.597 206.494 122.968 206.494 122.968V101.331H245.431L245.682 122.468Z" fill="#F0BA92"/>
<g opacity="0.6">
<g opacity="0.6">
<path opacity="0.6" d="M245.431 106.709C241.926 114.088 228.154 119.841 225.9 119.841C223.646 119.841 212.003 115.464 206.494 106.834V95.5776H245.431V106.709Z" fill="#D88D64"/>
</g>
</g>
<path d="M250.188 92.2008C243.678 113.463 226.025 113.838 226.025 113.838C226.025 113.838 207.37 113.838 201.736 91.7005C198.105 77.0672 189.216 54.8045 199.858 38.2951C205.868 28.9147 249.688 25.1626 254.821 38.2951C259.829 51.3025 253.944 79.6936 250.188 92.2008Z" fill="#FFCCA9"/>
<path d="M235.538 91.3253C236.289 91.9506 234.036 99.58 226.023 99.705C219.262 99.8301 215.882 92.8261 216.383 91.7005C217.134 90.4498 219.888 91.3253 225.647 91.3253C231.532 91.4503 234.662 90.6999 235.538 91.3253Z" fill="white"/>
<path d="M225.899 100.205C221.517 100.205 218.387 97.3287 216.884 94.7022C216.258 93.7016 215.758 92.3259 216.133 91.7005C216.759 90.6999 218.262 90.6999 220.891 90.9501C222.143 91.0751 223.896 91.0752 225.774 91.0752C228.152 91.0752 230.03 90.9501 231.658 90.825C234.037 90.6999 235.289 90.5749 235.915 91.0752C236.416 91.5754 236.04 92.9512 235.79 93.4515C235.289 94.5771 232.91 100.08 225.899 100.205ZM218.512 91.4504C217.51 91.4504 217.01 91.5754 216.759 91.9506C216.634 92.0757 216.884 93.2013 217.761 94.5771C218.512 95.7028 221.141 99.2048 225.899 99.2048H226.024C230.656 99.2048 233.035 96.4532 234.037 94.8273C235.038 93.2014 235.289 91.8256 235.164 91.4504C234.788 91.2002 233.286 91.3253 231.533 91.3253C230.03 91.4504 228.027 91.5754 225.648 91.5754C223.645 91.5754 222.018 91.4504 220.64 91.4504C219.889 91.5754 219.138 91.4504 218.512 91.4504Z" fill="#D3976E"/>
<path d="M226.024 84.8217C225.022 84.1963 223.645 82.6955 224.521 80.1941C225.273 78.0678 225.398 73.9405 225.398 73.8154H226.149C226.149 73.9405 226.024 78.0679 225.273 80.4442C224.647 82.3203 225.648 83.571 226.525 84.1963L226.024 84.8217Z" fill="#D88D64"/>
<path d="M256.698 243.537L249.311 244.663C239.921 245.538 236.541 238.284 228.153 239.285C219.889 240.41 220.891 243.662 220.891 243.662C215.382 243.787 216.885 251.417 216.885 251.417C214.255 255.294 217.01 259.671 217.01 259.671C215.132 262.298 217.636 266.425 217.636 266.425C218.387 270.803 223.645 274.43 229.405 275.055C229.655 275.055 229.78 275.055 230.031 275.055C230.281 275.055 230.406 275.055 230.657 275.055C230.907 275.055 231.032 275.055 231.283 275.055C231.533 275.055 231.909 275.055 232.159 275.055C232.409 275.055 232.66 275.055 232.91 274.93C239.796 273.929 258.952 266.3 258.952 266.3C259.327 251.417 256.698 243.537 256.698 243.537Z" fill="#FFCCA9"/>
<path d="M221.015 243.662C221.015 243.662 225.773 244.538 228.277 244.788C230.906 244.913 236.79 245.913 238.168 246.289C238.168 246.289 230.405 245.663 228.152 245.538C226.524 245.413 220.264 243.662 221.015 243.662Z" fill="#D88D64"/>
<path d="M222.519 253.543C222.519 253.543 219.013 252.167 218.012 250.791C217.01 249.415 217.01 247.789 216.885 247.915C216.634 249.29 217.01 251.542 217.01 251.542L222.519 253.543Z" fill="#D88D64"/>
<path d="M222.645 261.797C222.645 261.797 219.39 260.297 218.013 259.296C216.51 258.045 216.01 256.169 216.01 256.294C216.135 258.17 217.136 259.671 217.136 259.671L222.645 261.797Z" fill="#D88D64"/>
<path d="M223.27 268.426C223.27 268.426 220.015 266.925 218.638 265.925C217.135 264.674 216.384 262.673 216.509 262.798C216.635 264.674 217.887 266.425 217.887 266.425L223.27 268.426Z" fill="#D88D64"/>
<path d="M221.644 241.661C221.644 241.661 220.767 243.537 222.27 243.912L222.52 244.287L220.893 243.662C221.018 243.662 220.893 242.536 221.644 241.661Z" fill="#D88D64"/>
<g opacity="0.1">
<g opacity="0.1">
<g opacity="0.1">
<path opacity="0.1" d="M195.352 153.611L195.727 132.349L193.975 132.724L193.599 153.736C183.959 155.362 182.081 172.496 181.705 194.259V195.509C181.705 200.012 184.084 201.013 187.089 201.513C188.215 201.638 189.342 201.763 190.469 201.763C190.719 202.388 191.345 202.889 192.097 202.889C193.098 202.889 193.975 202.138 193.975 201.013V199.512C193.975 198.511 193.223 197.636 192.097 197.636C191.22 197.636 190.469 198.261 190.344 199.262C187.965 199.137 184.96 198.636 183.959 196.885C182.957 195.134 183.583 191.507 183.708 189.006C184.334 169.995 186.463 155.487 195.227 155.487C204.116 155.487 208.247 169.87 208.873 188.881C208.999 191.257 209.374 194.759 208.498 196.51C207.747 198.136 205.493 198.886 203.365 199.137C203.114 198.261 202.363 197.761 201.361 197.761C200.36 197.886 199.609 198.761 199.734 199.762L199.859 201.263C199.984 202.263 200.861 203.014 201.862 202.889C202.613 202.764 203.239 202.263 203.365 201.513C206.87 201.013 210.751 199.512 210.626 195.009V193.258C210.626 193.258 210.626 193.258 210.626 193.133C210.376 170.87 205.994 153.861 195.352 153.611Z" fill="#0E3368"/>
</g>
</g>
<g opacity="0.1">
<g opacity="0.1">
<path opacity="0.1" d="M281.613 170.745C279.861 128.721 260.329 119.091 259.453 118.716C259.453 118.716 260.58 119.591 265.463 126.345C270.596 133.349 278.483 146.106 279.61 170.745C275.353 171.371 272.098 174.998 272.098 179.375C272.098 184.128 275.979 188.005 280.737 188.005C285.495 188.005 289.376 184.128 289.376 179.375C289.501 174.873 285.995 171.121 281.613 170.745Z" fill="#0E3368"/>
</g>
</g>
<path opacity="0.1" d="M292.882 267.3L292.506 290.563L227.652 293.065L227.527 301.195L297.013 298.318V266.175L292.882 267.3Z" fill="#0E3368"/>
</g>
<path d="M208.247 191.007C207.872 168.619 204.491 151.609 193.724 151.609C182.832 151.609 179.577 169.119 179.201 192.132V193.383C179.201 197.886 181.58 198.886 184.585 199.386C185.711 199.512 186.838 199.637 187.965 199.637C188.215 200.262 188.841 200.762 189.593 200.762C190.594 200.762 191.471 200.012 191.471 198.886V197.385C191.471 196.385 190.719 195.509 189.593 195.509C188.716 195.509 187.965 196.135 187.84 197.135C185.461 197.01 182.456 196.51 181.455 194.759C180.453 193.008 181.079 189.381 181.204 186.879C181.83 167.869 184.96 153.485 193.849 153.485C202.739 153.485 205.743 167.743 206.369 186.754C206.495 189.131 206.87 192.633 205.994 194.384C205.243 196.01 202.989 196.76 200.861 197.01C200.61 196.135 199.859 195.634 198.857 195.634C197.856 195.759 197.105 196.635 197.23 197.635L197.355 199.136C197.48 200.137 198.357 200.887 199.358 200.762C200.109 200.637 200.735 200.137 200.861 199.386C204.366 198.886 208.247 197.385 208.122 192.883V191.007C208.247 191.007 208.247 191.007 208.247 191.007Z" fill="#383F47"/>
<path d="M193.975 152.485H192.222V133.099L193.975 132.723V152.485Z" fill="#383F47"/>
<path d="M275.104 165.867C274.228 140.728 266.09 127.721 260.957 120.592C256.074 113.838 254.947 112.962 254.947 112.962C255.823 113.337 275.605 122.968 277.107 165.867H275.104Z" fill="#383F47"/>
<path d="M276.231 166.243C274.854 140.103 268.594 128.596 263.461 121.467C258.578 114.713 254.947 112.837 254.947 112.837C255.823 113.212 275.605 123.718 277.233 166.493L276.231 166.243Z" fill="#1A2026"/>
<path d="M284.996 173.497C284.996 178.25 281.115 182.127 276.357 182.127C271.6 182.127 267.719 178.25 267.719 173.497C267.719 168.744 271.6 164.867 276.357 164.867C281.115 164.867 284.996 168.744 284.996 173.497Z" fill="#BCBCBC"/>
<path d="M276.231 182.502C271.348 182.502 267.342 178.5 267.342 173.622C267.342 168.744 271.348 164.742 276.231 164.742C281.114 164.742 285.12 168.744 285.12 173.622C285.245 178.5 281.239 182.502 276.231 182.502ZM276.231 165.117C271.598 165.117 267.842 168.869 267.842 173.497C267.842 178.124 271.598 181.876 276.231 181.876C280.863 181.876 284.619 178.124 284.619 173.497C284.744 168.869 280.863 165.117 276.231 165.117Z" fill="#444444"/>
<g opacity="0.3">
<g opacity="0.3">
<path opacity="0.3" d="M280.613 181.376L278.359 176.749L279.862 172.496L284.619 170.495C284.744 170.495 287.499 176.624 280.613 181.376Z" fill="white"/>
</g>
</g>
<path d="M280.112 174.122C280.112 176.373 278.359 178.249 276.231 178.249C274.102 178.249 272.349 176.373 272.349 174.122C272.349 171.871 274.102 169.995 276.231 169.995C278.359 169.995 280.112 171.871 280.112 174.122Z" fill="#635B53"/>
<g opacity="0.4">
<g opacity="0.4">
<path opacity="0.4" d="M274.854 164.617L275.355 169.87L272.475 173.372L267.217 173.622C267.217 173.497 266.716 166.618 274.854 164.617Z" fill="white"/>
</g>
</g>
<path d="M279.736 173.497C279.736 175.373 278.233 176.999 276.23 176.999C274.227 176.999 272.724 175.498 272.724 173.497C272.724 171.495 274.227 169.995 276.23 169.995C278.233 169.995 279.736 171.621 279.736 173.497Z" fill="#D3D3D3"/>
<path d="M276.23 177.249C274.227 177.249 272.474 175.623 272.474 173.497C272.474 171.496 274.102 169.745 276.23 169.745C278.234 169.745 279.986 171.37 279.986 173.497C279.986 175.623 278.359 177.249 276.23 177.249ZM276.23 170.37C274.478 170.37 272.975 171.871 272.975 173.622C272.975 175.373 274.478 176.874 276.23 176.874C277.983 176.874 279.486 175.373 279.486 173.622C279.486 171.746 277.983 170.37 276.23 170.37Z" fill="#A8A6A0"/>
<path d="M277.608 173.997C277.608 174.747 276.982 175.373 276.231 175.373C275.479 175.373 274.853 174.747 274.853 173.997C274.853 173.247 275.479 172.621 276.231 172.621C276.982 172.621 277.608 173.247 277.608 173.997Z" fill="#BABABA"/>
<path d="M276.231 174.872C276.991 174.872 277.608 174.256 277.608 173.497C277.608 172.737 276.991 172.121 276.231 172.121C275.47 172.121 274.853 172.737 274.853 173.497C274.853 174.256 275.47 174.872 276.231 174.872Z" fill="white"/>
<path d="M189.468 199.762H189.092C188.842 199.762 188.592 199.512 188.592 199.261V196.885C188.592 196.635 188.842 196.385 189.092 196.385H189.468C189.718 196.385 189.969 196.635 189.969 196.885V199.261C189.969 199.512 189.718 199.762 189.468 199.762Z" fill="#AAA9A2"/>
<path d="M199.609 199.762H199.234C198.983 199.762 198.608 199.512 198.608 199.261L198.357 196.885C198.357 196.635 198.608 196.26 198.858 196.26H199.234C199.484 196.26 199.86 196.51 199.86 196.76L200.11 199.136C200.11 199.511 199.86 199.762 199.609 199.762Z" fill="#AAA9A2"/>
<g opacity="0.4">
<g opacity="0.4">
<path opacity="0.4" d="M275.355 170.62C273.352 171.245 273.226 173.121 273.226 173.121L275.23 173.246L275.73 172.746L275.355 170.62Z" fill="white"/>
</g>
</g>
<g opacity="0.4">
<g opacity="0.4">
<path opacity="0.4" d="M278.109 176.123C279.736 174.748 279.236 172.997 279.236 172.997L277.358 173.497L277.107 174.122L278.109 176.123Z" fill="white"/>
</g>
</g>
<path d="M197.732 77.3171C197.732 77.3171 193.976 62.5587 193.35 55.0544C192.724 47.5502 191.847 37.5445 200.361 34.1675C208.749 30.7906 206.245 41.1715 206.245 41.1715C206.245 41.1715 199.61 45.6741 198.232 56.9305C197.481 62.9339 197.732 77.3171 197.732 77.3171Z" fill="#2A445D"/>
<path d="M253.822 77.192C253.822 77.192 257.953 62.5586 258.579 55.1794C259.205 47.6752 260.082 37.6695 251.568 34.2925C243.18 30.9156 245.684 41.2965 245.684 41.2965C245.684 41.2965 252.319 45.7991 253.697 57.0555C254.573 62.9338 253.822 77.192 253.822 77.192Z" fill="#2A445D"/>
<path d="M246.935 44.7985C246.935 44.7985 236.668 46.4245 229.782 43.1726C227.779 42.172 218.013 46.4244 213.506 45.5489C204.867 43.923 201.111 36.919 200.986 36.1686C200.485 34.0424 198.482 31.0407 204.617 26.4131C213.256 19.9093 223.898 21.5353 225.651 19.6592C227.403 17.7831 229.156 16.6575 232.662 16.9076C241.927 17.7831 242.302 23.2863 247.561 24.0367C254.321 25.0373 256.575 27.7888 257.076 33.417C257.827 44.2982 246.935 44.7985 246.935 44.7985Z" fill="#2A445D"/>
<path d="M227.404 18.1582C227.404 18.1582 224.525 20.2844 217.263 28.6642C210.001 37.169 206.245 36.5437 205.369 36.7938C205.369 36.7938 211.629 37.9195 218.265 29.1645C224.9 20.4095 227.404 18.1582 227.404 18.1582Z" fill="#1F384C"/>
<path d="M238.797 44.4234C238.797 44.4234 250.941 45.7992 256.2 39.5457C256.2 39.5457 255.073 46.1744 239.047 44.5485L238.797 44.4234Z" fill="#1F384C"/>
<path d="M218.891 44.6734C204.618 46.6745 200.487 34.9179 200.612 35.168C202.866 42.2971 208.5 45.0486 212.756 46.1743C214.008 46.5495 215.26 46.6745 216.512 46.7996C217.138 46.7996 217.639 46.7996 217.639 46.7996C231.286 46.9247 242.304 32.5415 242.304 32.5415C232.914 40.421 224.65 43.5478 218.891 44.6734Z" fill="#1F384C"/>
<path d="M243.18 62.4339C241.427 61.1832 239.424 60.6829 237.295 61.0581C236.419 61.1832 235.668 60.3077 235.918 59.4322C236.043 58.9319 236.294 58.6818 236.794 58.4316C239.799 57.5561 242.679 58.0564 244.932 60.3077C245.183 60.5578 245.308 61.0581 245.183 61.4333V61.5584C245.058 62.559 243.931 63.0593 243.18 62.4339Z" fill="#2A445D"/>
<path d="M237.044 73.315C237.873 73.315 238.546 72.4191 238.546 71.3139C238.546 70.2087 237.873 69.3127 237.044 69.3127C236.214 69.3127 235.541 70.2087 235.541 71.3139C235.541 72.4191 236.214 73.315 237.044 73.315Z" fill="#210601"/>
<path d="M215.51 69.1875C214.634 69.1875 214.008 70.063 214.008 71.1886C214.008 72.3143 214.634 73.1898 215.51 73.1898C216.386 73.1898 217.012 72.3143 217.012 71.1886C217.012 70.063 216.261 69.1875 215.51 69.1875Z" fill="#210601"/>
<path d="M243.179 69.3127C242.302 66.6862 239.923 64.8101 237.044 64.8101C233.789 64.8101 231.159 67.1865 230.659 70.3133C229.532 69.0626 227.904 68.1871 226.026 68.1871C224.399 68.1871 222.896 68.8124 221.769 69.938C221.269 66.9363 218.639 64.6851 215.384 64.6851C212.505 64.6851 210.126 66.5611 209.249 69.1876C198.482 65.4355 195.853 64.9352 195.227 65.0603C194.977 65.0603 194.851 65.4355 194.851 65.5606L195.352 65.8107L195.477 65.6856C196.354 65.5606 203.115 67.6868 209.124 69.938C208.999 70.3133 208.999 70.8136 208.999 71.3138C208.999 74.8158 211.879 77.8175 215.509 77.8175C217.888 77.8175 220.017 76.4417 221.143 74.5657C221.394 74.5657 221.519 74.4406 221.644 74.4406C221.769 74.3155 222.02 74.1905 222.145 74.0654C222.395 73.8153 222.646 73.315 222.646 72.9398C222.771 71.9392 222.521 71.1888 222.27 70.8136C223.272 69.813 224.649 69.1876 226.151 69.1876C227.779 69.1876 229.281 69.938 230.283 71.0637C230.033 71.4389 229.907 72.1893 230.033 73.0648C230.033 73.44 230.283 73.8153 230.533 74.1905C230.659 74.3156 230.909 74.4406 231.034 74.5657C231.159 74.6907 231.41 74.6908 231.535 74.6908C232.662 76.5668 234.665 77.9426 237.169 77.9426C240.675 77.9426 243.679 75.066 243.679 71.4389C243.679 70.9386 243.679 70.5634 243.554 70.0631C249.689 67.9369 256.325 65.6856 257.076 65.8107L257.702 65.5606C257.326 65.0603 257.076 64.3098 243.179 69.3127ZM215.509 76.942C212.379 76.942 209.75 74.3155 209.75 71.1888C209.75 68.062 212.379 65.4355 215.509 65.4355C218.639 65.4355 221.269 68.062 221.269 71.1888C221.269 74.3155 218.639 76.942 215.509 76.942ZM221.895 72.9398C221.769 73.0648 221.769 73.1899 221.644 73.315L221.519 73.44C221.769 72.8147 221.895 72.0643 222.02 71.3138C222.02 71.4389 222.145 71.564 222.145 71.6891C222.145 72.0643 222.02 72.5646 221.895 72.9398ZM230.909 73.5651C230.784 73.4401 230.659 73.315 230.659 73.1899C230.533 72.8147 230.408 72.3144 230.533 71.9392C230.533 71.8141 230.659 71.689 230.659 71.564C230.659 72.3144 230.784 73.0648 231.159 73.6902C230.909 73.5651 230.909 73.5651 230.909 73.5651ZM237.044 77.0671C233.914 77.0671 231.285 74.4406 231.285 71.3138C231.285 68.1871 233.914 65.5606 237.044 65.5606C240.174 65.5606 242.803 68.1871 242.803 71.3138C242.803 74.4406 240.174 77.0671 237.044 77.0671Z" fill="#302420"/>
<path d="M209.249 62.3087C211.002 61.058 213.005 60.5577 215.134 60.9329C216.01 61.058 216.761 60.1825 216.511 59.307C216.386 58.8067 216.135 58.5565 215.635 58.3064C212.63 57.4309 209.75 57.9312 207.497 60.1825C207.246 60.4326 207.121 60.9329 207.246 61.3081V61.4332C207.497 62.4337 208.498 62.809 209.249 62.3087Z" fill="#2A445D"/>
<path d="M180.956 191.757C180.956 191.757 179.328 157.488 190.847 153.11C193.476 152.11 195.98 152.735 197.733 153.611C203.868 156.862 205.37 168.494 205.871 173.872C206.497 180.751 207.373 190.757 206.246 193.633C206.246 193.633 206.622 177.749 203.993 166.118C201.364 154.486 196.23 153.235 193.1 153.36C189.845 153.486 186.089 157.113 184.086 164.117C181.958 171.246 180.956 191.757 180.956 191.757Z" fill="#1A2026"/>
<path d="M179.328 194.259C179.328 194.134 180.079 197.26 183.209 198.011C186.339 198.761 187.842 197.01 187.842 197.01C187.842 197.01 187.591 199.011 187.967 199.512C187.967 199.512 179.579 200.512 179.328 194.259Z" fill="#1A2026"/>
<path d="M208.248 192.007C208.248 191.882 208.374 193.383 207.748 194.634C206.621 196.76 205.744 196.885 204.618 197.51C201.863 199.011 200.862 197.01 200.862 197.01C200.862 197.01 201.237 198.886 200.987 199.387C200.987 199.387 208.874 199.136 208.248 192.007Z" fill="#1A2026"/>
<path d="M192.225 133.099L193.978 132.724L193.852 133.599L192.225 133.974V133.099Z" fill="#1A2026"/>
</g>
</g>
<path d="M512.266 344.983H0.733662C0.338613 344.983 0 344.6 0 344.105V343.294C0 342.822 0.319801 342.416 0.733662 342.416H512.266C512.661 342.416 513 342.799 513 343.294V344.105C513 344.6 512.68 344.983 512.266 344.983Z" fill="#B8D7FC"/>
</g>
<defs>
<clipPath id="clip0_1302_1296">
<rect width="513" height="345" fill="white"/>
</clipPath>
<clipPath id="clip1_1302_1296">
<rect width="610" height="345" fill="white" transform="translate(-36.0742 -0.0168457)"/>
</clipPath>
<clipPath id="clip2_1302_1296">
<rect width="626" height="439" fill="white" transform="translate(-52.0742 -88.436)"/>
</clipPath>
</defs>
</svg>
