<svg width="328" height="188" viewBox="0 0 328 188" fill="none" xmlns="http://www.w3.org/2000/svg">
<path d="M274.619 187.081C259.002 187.081 60.2744 187.101 60.2744 187.081C60.185 186.882 15.7095 166.414 65.8513 107.753C82.7905 87.9407 60.4633 72.8803 77.3727 56.0902C96.7972 36.795 106.907 52.7302 128.519 43.9822C132.336 42.4414 136.163 39.9562 140 36.1389C148.957 27.2418 161.214 23.2058 173.7 22.2912C197.846 20.5416 225.015 30.3732 239.031 44.7377C241.854 47.6305 254.688 62.6015 244.568 83.1691C238.176 96.1618 264.947 108.568 274.45 123.4C298.637 161.106 274.838 186.594 274.619 187.081Z" fill="#E5F0FA"/>
<g opacity="0.5">
<g opacity="0.5">
<path opacity="0.5" d="M147.579 36.849C147.579 36.849 144.824 14.8261 133.449 1.74213C131.939 0.00731081 129.079 1.13296 129.132 3.43722C129.132 3.47695 129.132 3.51668 129.132 3.5564C129.304 7.4763 142.043 23.9902 147.579 36.849Z" fill="#AEC3FF"/>
</g>
<g opacity="0.5">
<path opacity="0.5" d="M148.983 43.1406C148.983 43.1406 137.567 15.6616 118.286 3.59735C117.107 2.85575 115.518 3.13385 114.75 4.28598C114.246 5.02758 114.021 6.19296 114.604 8.00723C116.153 12.8541 137.686 29.037 148.983 43.1406Z" fill="#AEC3FF"/>
</g>
</g>
<g opacity="0.3">
<path opacity="0.3" d="M105.705 87.8614C105.705 87.8614 123.291 99.5019 120.921 102.64C118.55 105.779 102.262 88.2587 102.262 88.2587C102.262 88.2587 82.1985 95.6217 77.4576 101.555C77.4576 101.555 100.302 107.077 97.2292 109.54C94.1569 112.003 70.1343 107.355 70.1343 107.355C70.1343 107.355 53.7528 118.982 59.9505 129.404C66.1349 139.826 73.9085 140.237 76.4644 138.635C79.0202 137.045 91.9321 123.405 93.3358 125.458C94.7396 127.511 88.714 139.323 82.2118 142.859C82.2118 142.859 101.467 150.672 107.89 142.647C114.326 134.622 111.982 127.934 116.047 123.048C120.113 118.161 124.563 116.029 123.583 119.485C122.603 122.942 114.299 129.841 113.862 136.555C113.425 143.256 112.525 148.196 120.484 142.634C142.268 127.431 133.78 108.997 133.78 108.997C133.78 108.997 139.169 88.7486 123.252 85.1863C123.252 85.1863 112.366 84.1401 105.705 87.8614Z" fill="#AEC3FF"/>
</g>
<g opacity="0.3">
<path opacity="0.3" d="M123.901 43.1384C123.901 43.1384 129.622 53.8916 127.556 54.8451C125.49 55.7853 122.047 42.3968 122.047 42.3968C122.047 42.3968 109.823 40.609 105.784 42.3173C105.784 42.3173 115.862 51.4152 113.624 51.8257C111.386 52.223 100.461 43.2443 100.461 43.2443C100.461 43.2443 88.9393 44.6348 89.2042 51.6271C89.4691 58.6326 93.3095 60.9766 95.0443 60.8706C96.7791 60.7647 107.095 57.401 107.254 58.8312C107.4 60.2614 101.083 64.5919 96.8056 64.6051C96.8056 64.6051 104.434 73.8884 109.916 71.5841C115.399 69.2799 116.048 65.2408 119.464 63.8767C122.881 62.5127 125.728 62.6584 124.271 64.1416C122.815 65.6248 116.696 66.8432 114.631 70.1274C112.565 73.4116 110.737 75.6629 116.312 75.0405C131.568 73.3322 132.336 61.6122 132.336 61.6122C132.336 61.6122 140.653 52.8057 133.555 46.6213C133.555 46.608 128.324 43.0854 123.901 43.1384Z" fill="#AEC3FF"/>
</g>
<g opacity="0.3">
<path opacity="0.3" d="M171.946 22.15C171.946 22.15 171.813 43.3784 175.773 43.1665C179.719 42.9414 174.21 19.4882 174.21 19.4882C174.21 19.4882 191.625 6.84123 199.239 6.19233C199.239 6.19233 191.055 28.4007 194.829 27.2088C198.604 26.0169 208.192 3.31862 208.192 3.31862C208.192 3.31862 227.102 -3.87227 232.347 7.15906C237.591 18.1771 233.578 24.9045 230.81 26.1494C228.043 27.4074 209.397 30.546 210.324 32.8768C211.251 35.2075 224.507 36.7834 231.115 33.3403C231.115 33.3403 226.864 53.827 216.535 54.7143C206.218 55.5883 201.928 49.8806 195.558 50.5428C189.188 51.2049 184.911 53.7343 188.354 54.8467C191.797 55.9724 202.219 52.9 208.086 56.2902C213.939 59.6804 218.574 61.6933 209.463 65.2291C184.526 74.9362 173.866 57.4821 173.866 57.4821C173.866 57.4821 153.909 50.6355 159.855 35.3267C159.868 35.3267 165.086 25.6461 171.946 22.15Z" fill="#AEC3FF"/>
</g>
<path d="M110.181 76.3589C110.168 76.094 109.969 73.2336 105.612 73.0879C105.612 73.0879 107.757 73.3395 108.128 74.2798C108.128 74.2798 106.671 73.1144 105.48 73.4852C104.288 73.856 103.599 75.9351 103.586 76.6237C103.573 77.3124 104.235 79.5107 104.99 79.6961C105.281 79.7623 105.599 79.7491 105.903 79.6961C105.705 80.0139 105.506 80.3582 105.321 80.7423C103.586 84.3046 105.374 87.8008 106.844 87.4035C107.784 87.1518 108.049 88.7675 108.049 88.7675L117.213 81.3515C117.226 81.3647 113.849 74.3989 110.181 76.3589Z" fill="#2C3A64"/>
<path d="M125.874 114.234C125.794 114.433 125.397 115.36 124.774 116.3C124.271 117.068 123.596 117.836 122.815 118.233C122.205 117.942 121.119 117.505 120.656 117.227C118.987 116.207 116.59 113.307 114.644 110.195C114.352 109.718 114.061 109.241 113.783 108.765C113.717 108.672 113.677 108.592 113.637 108.5C112.949 107.268 112.379 106.037 112.061 104.911L115.597 97.3359C115.61 97.3492 116.696 97.9981 117.663 100.753C119.093 104.858 121.411 110.685 123.013 112.473C123.384 112.883 124.483 113.519 125.807 114.181C125.834 114.207 125.86 114.234 125.874 114.234Z" fill="#ABDDDA"/>
<path d="M113.372 181.441L111.426 182.17C111.426 182.17 102.963 170.436 101.931 160.12C101.745 158.279 102.129 154.373 101.984 153.538C101.917 153.154 101.838 152.678 101.745 152.148C101.467 150.572 101.096 148.413 100.659 145.964C99.666 140.322 98.3815 133.091 97.375 127.794L97.9047 127.622L103.586 125.795L104.765 122.073L108.989 120.961C108.989 120.961 109.929 122.802 110.777 131.529C110.936 132.668 111.068 133.939 111.174 135.303C111.505 139.474 111.532 144.666 110.777 150.585C110.578 152.108 109.784 158.068 109.876 159.908C110.274 168.331 113.372 181.441 113.372 181.441Z" fill="#2B478B"/>
<path d="M111.161 135.29L101.984 153.538C101.917 153.154 101.838 152.678 101.745 152.148C101.467 150.572 101.096 148.413 100.659 145.964C99.666 140.322 98.3815 133.091 97.375 127.794L97.9047 127.622L103.586 125.795L104.765 122.073L108.989 120.961C108.989 120.961 109.929 122.802 110.777 131.529C110.909 132.654 111.055 133.912 111.161 135.29Z" fill="#233862"/>
<path d="M107.122 123.279L106.91 121.452C103.347 122.392 93.8389 118.816 93.8389 118.816C93.8389 118.816 90.3958 121.849 90.8461 129.119C91.0712 132.668 91.4685 147.739 91.8922 152.188C92.0512 153.804 90.9917 157.962 90.5679 159.088C86.4362 170.119 91.2036 183.693 91.2036 183.693L92.4484 183.19C92.4484 183.19 100.288 154.771 101.096 151.751C102.619 146.057 103.851 138.654 104.672 132.933C104.791 132.947 107.122 123.279 107.122 123.279Z" fill="#2B478B"/>
<path d="M109.823 102.145C103.705 102.476 105.043 93.3519 105.427 93.4049C106.182 93.0076 107.519 91.1138 108.3 87.9355L108.565 88.0547L112.975 90.1339C112.975 90.1339 112.512 91.5773 112.154 92.9414C111.889 94.014 111.691 95.0602 111.85 95.3516C112.194 95.4972 112.406 95.5767 112.406 95.5767C112.459 95.6959 111.452 102.052 109.823 102.145Z" fill="#FFB27D"/>
<path d="M112.975 90.1319C112.975 90.1319 112.512 91.5621 112.154 92.9393C109.572 92.2242 108.79 89.5095 108.552 88.0527L112.975 90.1319Z" fill="#ED985F"/>
<path d="M113.518 91.6557C113.518 91.6557 107.347 90.2254 108.287 86.3983C109.24 82.5711 109.082 79.8033 113.068 80.5581C117.054 81.313 117.451 82.9551 117.451 84.3191C117.438 85.6566 115.147 91.9205 113.518 91.6557Z" fill="#FFB27D"/>
<path d="M117.782 82.1338C117.12 80.7433 116.339 80.8228 115.849 81.0612C112.948 78.3729 110.101 80.5712 110.101 80.5712C109.002 83.2198 106.632 84.2924 106.632 84.2924C106.632 84.2924 107.585 85.2592 110.326 85.2459C111.161 85.2459 112.008 84.8486 112.776 84.3189C111.293 85.8154 109.558 86.7159 109.558 86.7159C113.001 86.0537 115.306 82.0676 115.544 81.6438C115.835 82.0809 116.392 82.9946 116.445 83.7627C116.511 84.8089 116.14 86.8616 116.749 86.9278C116.749 86.9543 118.775 84.213 117.782 82.1338Z" fill="#2C3A64"/>
<path d="M98.4079 184.712H88.6081C88.6081 184.712 88.3698 183.215 88.8862 182.09C89.3762 181.004 90.1443 180.5 89.9589 179.189C90.5813 179.825 91.601 180.553 93.018 180.355C93.1902 180.633 94.1437 182.143 94.7131 182.566C95.362 183.017 98.2092 182.844 98.4079 184.712Z" fill="#233862"/>
<path d="M119.464 184.712H109.664C109.664 184.712 109.294 183.15 109.942 182.09C110.512 181.15 110.3 180.607 109.876 179.839C110.326 180.024 110.896 180.183 111.532 180.143C112.022 180.117 112.538 179.892 112.988 179.627C113.412 180.104 115.213 182.156 115.783 182.567C116.405 183.017 119.265 182.845 119.464 184.712Z" fill="#233862"/>
<path d="M115.597 97.3218L113.995 118.921L113.015 132.137C111.505 132.614 110.062 132.972 108.698 133.263C108.605 132.151 108.247 130.826 108.247 130.826C108.261 131.528 107.453 132.852 106.963 133.581C94.4085 135.594 88.5154 130.111 88.5154 130.111C89.0054 125.264 91.1242 115.451 93.6536 107.227C94.1833 105.519 94.7263 103.877 95.2825 102.367C96.5406 98.9241 97.3351 97.1231 98.0105 95.7326C99.2951 93.084 105.056 93.2562 105.056 93.2562C106.168 97.2555 109.214 99.7452 109.214 99.7452C110.843 98.7917 112.048 95.4413 112.048 95.4413L115.597 97.3218Z" fill="#ABDDDA"/>
<path d="M106.327 92.5156C106.327 92.5156 105.281 92.5818 105.056 93.2572C105.056 93.2572 106.42 98.7398 109.214 99.7462L106.327 92.5156Z" fill="#6BB7BF"/>
<path d="M109.214 99.7469C109.214 99.7469 111.823 95.4165 111.809 94.7676C111.809 94.7676 112.882 95.1913 112.816 95.8535C112.816 95.8402 110.565 99.4423 109.214 99.7469Z" fill="#6BB7BF"/>
<path d="M102.063 97.7852C102.142 98.05 111.545 113.054 111.744 116.047C111.942 119.04 107.784 117.345 107.731 116.961C107.651 116.564 102.063 97.7852 102.063 97.7852Z" fill="#91CECF"/>
<path d="M113.995 118.923L113.015 132.139C99.5599 128.259 98.8315 99.8926 98.8315 99.8926L107.148 114.897L113.942 118.817C113.915 118.817 113.942 118.856 113.995 118.923Z" fill="#91CECF"/>
<path d="M122.815 114.209C122.815 114.223 122.801 114.236 122.801 114.236C122.801 114.223 122.801 114.209 122.815 114.209C122.815 114.183 122.815 114.183 122.815 114.209Z" fill="#ABDDDA"/>
<path d="M217.964 25.8613H119.874V160.012H217.964V25.8613Z" fill="#739AF0"/>
<path d="M213.78 29.4902H124.046V156.317H213.78V29.4902Z" fill="#F3FAFF"/>
<path d="M150.32 25.8613V30.4301C150.32 32.9595 152.359 34.9989 154.888 34.9989H179.414C181.93 34.9989 183.983 32.9595 183.983 30.4301V25.8613H150.32Z" fill="#80B4F1"/>
<path d="M145.566 143.936H134.468V145.061H145.566V143.936Z" fill="#AEC3FF"/>
<path d="M159.245 143.936H148.148V145.061H159.245V143.936Z" fill="#AEC3FF"/>
<path d="M149.869 146.424H134.468V147.549H149.869V146.424Z" fill="#AEC3FF"/>
<path d="M206.986 71.7227H131.621V73.3118H206.986V71.7227Z" fill="#AEC3FF"/>
<path d="M201.08 78.8066H131.621V80.3958H201.08V78.8066Z" fill="#AEC3FF"/>
<path d="M179.56 75.2695H159.021V76.8587H179.56V75.2695Z" fill="#AEC3FF"/>
<path d="M206.973 75.2695H183.123V76.8587H206.973V75.2695Z" fill="#AEC3FF"/>
<path d="M155.975 75.2695H131.621V76.8587H155.975V75.2695Z" fill="#AEC3FF"/>
<path d="M179.56 67.7227H159.021V69.3118H179.56V67.7227Z" fill="#AEC3FF"/>
<path d="M206.973 67.7227H183.123V69.3118H206.973V67.7227Z" fill="#AEC3FF"/>
<path d="M155.975 67.7227H131.621V69.3118H155.975V67.7227Z" fill="#AEC3FF"/>
<path d="M206.986 92.8984H131.621V94.4876H206.986V92.8984Z" fill="#AEC3FF"/>
<path d="M189.77 99.9707H131.621V101.56H189.77V99.9707Z" fill="#AEC3FF"/>
<path d="M179.56 88.8887H159.02V90.4778H179.56V88.8887Z" fill="#AEC3FF"/>
<path d="M206.973 88.8887H183.122V90.4778H206.973V88.8887Z" fill="#AEC3FF"/>
<path d="M155.975 88.8887H131.621V90.4778H155.975V88.8887Z" fill="#AEC3FF"/>
<path d="M202.775 45.5293H184.685V47.1184H202.775V45.5293Z" fill="#AEC3FF"/>
<path d="M175.706 48.8535H160.543V50.4427H175.706V48.8535Z" fill="#AEC3FF"/>
<path d="M198.815 48.8535H178.236V50.4427H198.815V48.8535Z" fill="#AEC3FF"/>
<path d="M179.044 52.6934H160.543V54.2825H179.044V52.6934Z" fill="#AEC3FF"/>
<path d="M192.154 52.6934H182.063V54.2825H192.154V52.6934Z" fill="#AEC3FF"/>
<path d="M181.983 45.5293H160.543V47.1184H181.983V45.5293Z" fill="#AEC3FF"/>
<path d="M168.251 114.645H151.22V115.664H168.251V114.645Z" fill="#AEC3FF"/>
<path d="M166.913 119.225H151.22V120.244H166.913V119.225Z" fill="#AEC3FF"/>
<path d="M168.264 116.936H163.616V117.955H168.264V116.936Z" fill="#AEC3FF"/>
<path d="M162.331 116.936H151.22V117.955H162.331V116.936Z" fill="#AEC3FF"/>
<path d="M208.31 114.645H191.28V115.664H208.31V114.645Z" fill="#AEC3FF"/>
<path d="M206.973 119.225H191.28V120.244H206.973V119.225Z" fill="#AEC3FF"/>
<path d="M208.324 116.936H203.676V117.955H208.324V116.936Z" fill="#AEC3FF"/>
<path d="M202.391 116.936H191.28V117.955H202.391V116.936Z" fill="#AEC3FF"/>
<path d="M175.521 147.525C172.263 147.525 169.429 145.208 168.78 142.029C168.727 141.778 168.886 141.526 169.151 141.473C169.403 141.42 169.654 141.579 169.707 141.844C170.264 144.598 172.714 146.585 175.521 146.585C178.302 146.585 180.752 144.612 181.335 141.897C181.388 141.645 181.639 141.486 181.891 141.539C182.142 141.592 182.301 141.844 182.248 142.095C181.573 145.234 178.752 147.525 175.521 147.525Z" fill="#AEC3FF"/>
<path d="M169.231 139.885C169.204 139.885 169.164 139.885 169.138 139.872C168.886 139.819 168.714 139.581 168.767 139.316C169.39 136.085 172.237 133.754 175.521 133.754C178.686 133.754 181.427 135.899 182.195 138.958C182.262 139.21 182.103 139.462 181.851 139.528C181.6 139.594 181.348 139.435 181.282 139.183C180.62 136.535 178.249 134.694 175.521 134.694C172.687 134.694 170.224 136.72 169.694 139.501C169.654 139.726 169.456 139.885 169.231 139.885Z" fill="#AEC3FF"/>
<path d="M175.521 150.425C170.131 150.425 165.735 146.041 165.735 140.638C165.735 135.248 170.118 130.852 175.521 130.852C180.911 130.852 185.308 135.235 185.308 140.638C185.308 146.028 180.924 150.425 175.521 150.425ZM175.521 132.189C170.86 132.189 167.072 135.977 167.072 140.638C167.072 145.3 170.86 149.087 175.521 149.087C180.183 149.087 183.97 145.3 183.97 140.638C183.97 135.977 180.183 132.189 175.521 132.189Z" fill="#AEC3FF"/>
<path d="M177.468 139.408H173.588V140.031H177.468V139.408Z" fill="#AEC3FF"/>
<path d="M177.468 141.949H173.588V142.572H177.468V141.949Z" fill="#AEC3FF"/>
<path d="M178.382 140.639H172.674V141.261H178.382V140.639Z" fill="#AEC3FF"/>
<path d="M147.578 124.285H135.925V112.631H147.578V124.285ZM136.481 123.728H147.035V113.174H136.481V123.728Z" fill="#AFCDFB"/>
<path d="M142.043 121.94C141.804 121.94 141.566 121.834 141.407 121.636L137.818 117.292C137.527 116.948 137.58 116.418 137.924 116.14C138.269 115.849 138.798 115.902 139.076 116.246L141.924 119.689L147.075 111.028C147.313 110.644 147.817 110.512 148.201 110.737C148.585 110.975 148.717 111.478 148.492 111.862L142.731 121.517C142.599 121.742 142.361 121.901 142.082 121.914C142.082 121.94 142.069 121.94 142.043 121.94Z" fill="#689CDA"/>
<path d="M188.42 124.285H176.766V112.631H188.42V124.285ZM177.322 123.728H187.877V113.174H177.322V123.728Z" fill="#AFCDFB"/>
<path d="M182.884 121.94C182.646 121.94 182.407 121.834 182.248 121.636L178.66 117.292C178.368 116.948 178.421 116.418 178.766 116.14C179.11 115.849 179.64 115.902 179.918 116.246L182.765 119.689L187.916 111.028C188.155 110.644 188.658 110.512 189.042 110.737C189.426 110.975 189.558 111.478 189.333 111.862L183.573 121.517C183.44 121.742 183.202 121.901 182.924 121.914C182.924 121.94 182.911 121.94 182.884 121.94Z" fill="#689CDA"/>
<path d="M155.008 50.3203C155.008 53.5648 153.71 56.518 151.591 58.6501C149.433 60.8351 146.44 62.1992 143.129 62.1992C139.818 62.1992 136.826 60.8484 134.667 58.6501C132.548 56.5047 131.25 53.5648 131.25 50.3203C131.25 43.7651 136.574 38.4414 143.129 38.4414C149.684 38.4414 155.008 43.7518 155.008 50.3203Z" fill="#80B4F1"/>
<path d="M143.156 41.1841C143.156 41.1841 138.693 40.8398 136.336 45.6073C134.23 49.8715 133.422 50.1628 134.336 51.5136C135.236 52.8644 143.95 55.3143 150.386 52.5333C150.386 52.5333 152.717 51.5136 151.83 49.7523C150.943 47.991 148.532 40.7339 143.156 41.1841Z" fill="#2B478B"/>
<path d="M147.939 49.1974C148.566 46.5425 146.922 43.882 144.267 43.2551C141.612 42.6282 138.952 44.2722 138.325 46.9272C137.698 49.5821 139.342 52.2426 141.997 52.8695C144.652 53.4964 147.312 51.8524 147.939 49.1974Z" fill="#FFC9A4"/>
<path d="M151.591 58.6499C149.433 60.835 146.44 62.199 143.129 62.199C139.818 62.199 136.826 60.8482 134.667 58.6499C135.356 55.6173 137.62 53.1806 140.573 52.2669C141.381 52.0152 142.242 51.8828 143.129 51.8828C144.016 51.8828 144.877 52.0152 145.685 52.2669C148.625 53.1806 150.903 55.6173 151.591 58.6499Z" fill="#FFC9A4"/>
<path d="M143.526 42.8674C143.526 42.8674 142.017 46.827 138.176 46.6814C138.19 46.6814 137.66 42.1126 143.526 42.8674Z" fill="#2B478B"/>
<path d="M142.705 42.8674C142.705 42.8674 144.215 46.827 148.055 46.6814C148.055 46.6814 148.572 42.1126 142.705 42.8674Z" fill="#2B478B"/>
<path d="M125.675 119.941C124.867 119.941 123.583 119.888 122.841 119.597C122.841 119.597 125.211 119.557 124.708 118.815C124.616 118.683 123.437 118.776 122.126 118.776C121.583 118.776 120.259 119.517 120.325 119.544C119.371 119.425 118.511 119.239 118.232 119.173C118.153 119.16 118.127 119.146 118.127 119.146L117.292 121.596C117.292 121.596 117.464 121.636 117.782 121.702C118.564 121.888 120.166 122.312 121.689 122.894C123.808 123.729 125.37 122.696 126.086 121.954C126.536 121.49 126.893 120.868 126.867 120.418C126.827 119.928 126.165 119.941 125.675 119.941Z" fill="#FFB27D"/>
<path d="M119.967 120.127L119.451 122.007C119.451 122.007 118.802 121.888 117.769 121.703C117.465 121.637 117.279 121.597 117.279 121.597C116.458 121.438 115.465 121.213 114.392 120.974H114.379C112.538 120.537 110.472 120.008 108.737 119.412C108.579 119.359 108.433 119.306 108.274 119.253C107.241 118.869 109.227 113.651 110.128 114.3C110.366 114.472 110.618 114.644 110.896 114.83C112.393 115.836 114.286 116.975 115.968 117.915C116.789 118.392 117.57 118.816 118.219 119.173C119.279 119.756 119.967 120.127 119.967 120.127Z" fill="#FFB27D"/>
<path d="M110.909 114.844C110.909 114.844 111.015 118.407 107.678 120.141C103.824 118.751 101.758 113.003 100.169 109.057C99.9442 108.514 99.7455 107.971 99.5337 107.441C98.7921 105.468 98.2094 103.522 97.8518 101.84C97.6267 100.833 97.481 99.9195 97.4545 99.1779C97.4413 98.913 97.428 98.6614 97.4413 98.423C97.4678 94.1455 100.487 93.7085 100.884 94.1985C101.388 94.8077 101.917 95.7877 102.46 96.9795C103.295 98.8733 104.182 101.336 105.003 103.786C105.466 105.124 105.903 106.475 106.341 107.706C106.592 108.461 106.844 109.163 107.082 109.812C107.546 111.057 107.956 112.05 108.314 112.686C108.552 113.096 109.227 113.679 110.128 114.328C110.38 114.487 110.644 114.659 110.909 114.844Z" fill="#ABDDDA"/>
<path d="M327.59 187.102H0.410531C0.185401 187.102 0 186.916 0 186.691V186.426C0 186.201 0.185401 186.016 0.410531 186.016H327.59C327.815 186.016 328 186.201 328 186.426V186.691C328 186.916 327.815 187.102 327.59 187.102Z" fill="#C5DCF9"/>
<path d="M282.134 163.184C282.134 163.184 278.4 158.827 281.909 156.073C281.909 156.073 284.465 154.523 286.544 154.656C286.544 154.656 283.591 159.608 284.545 160.098C285.498 160.588 287.431 154.338 287.431 154.338C287.431 154.338 293.245 153.768 295.126 154.669C295.126 154.669 290.146 158.734 291.206 158.986C292.252 159.224 297.629 155.238 297.629 155.238C297.629 155.238 303.045 156.165 302.754 159.463C302.462 162.76 300.595 163.78 299.774 163.7C298.953 163.608 294.159 161.78 294.053 162.456C293.947 163.131 296.834 165.329 298.86 165.422C298.86 165.422 295.046 169.633 292.503 168.415C289.961 167.197 289.749 165.276 288.173 164.548C286.597 163.82 285.246 163.833 285.895 164.561C286.544 165.303 289.405 166.018 290.318 167.607C291.219 169.21 292.04 170.282 289.405 169.885C286.783 169.488 282.518 167.567 282.32 165.369C282.134 163.184 282.134 163.184 282.134 163.184Z" fill="#BBD0FF"/>
<path d="M300.078 159.545C300.078 159.545 285.379 158.976 282.121 163.187C282.121 163.187 281.406 165.332 279.194 167.292L278.85 168.233C278.85 168.233 281.393 165.544 282.306 165.385C282.32 165.385 280.89 160.181 300.078 159.545Z" fill="#BBD0FF"/>
<path d="M279.194 167.293C279.194 167.293 276.043 169.623 275.817 173.795L276.387 173.848C276.387 173.848 277.393 169.531 279.221 167.849C281.048 166.167 279.194 167.293 279.194 167.293Z" fill="#BBD0FF"/>
<path d="M269.09 157.717C269.09 157.717 275.023 154.393 272.255 149.89C272.255 149.89 270.043 147.122 267.673 146.407C267.673 146.407 268.944 153.135 267.673 153.294C266.402 153.453 266.799 145.705 266.799 145.705C266.799 145.705 260.548 142.699 258.098 142.938C258.098 142.938 261.979 149.506 260.707 149.347C259.436 149.188 255.092 142.54 255.092 142.54C255.092 142.54 248.683 141.348 247.65 145.149C246.617 148.95 248.285 150.844 249.226 151.082C250.179 151.32 256.271 151.241 256.112 152.036C255.953 152.83 251.835 154.088 249.544 153.386C249.544 153.386 252.073 159.637 255.397 159.319C258.721 159.001 259.754 156.949 261.806 156.79C263.859 156.631 265.369 157.187 264.336 157.743C263.303 158.299 259.833 157.929 258.165 159.332C256.509 160.749 255.158 161.61 258.244 162.246C261.33 162.881 266.865 162.484 267.978 160.114C269.09 157.717 269.09 157.717 269.09 157.717Z" fill="#AEC3FF"/>
<path d="M250.576 146.328C250.576 146.328 267.183 151.705 269.09 157.717C269.09 157.717 269.011 160.405 270.666 163.491V164.683C270.666 164.683 268.931 160.644 267.978 160.101C267.978 160.087 271.699 154.87 250.576 146.328Z" fill="#AEC3FF"/>
<path d="M270.666 163.492C270.666 163.492 273.222 167.386 271.765 172.113L271.103 171.941C271.103 171.941 271.738 166.723 270.401 164.101C269.063 161.479 270.666 163.492 270.666 163.492Z" fill="#AEC3FF"/>
<path d="M278.532 153.135C278.532 153.135 270.706 148.752 274.361 142.806C274.361 142.806 277.274 139.15 280.413 138.223C280.413 138.223 278.744 147.083 280.413 147.295C282.081 147.507 281.565 137.283 281.565 137.283C281.565 137.283 289.802 133.324 293.033 133.628C293.033 133.628 287.922 142.289 289.59 142.077C291.259 141.865 296.993 133.112 296.993 133.112C296.993 133.112 305.442 131.549 306.793 136.555C308.143 141.561 305.958 144.064 304.714 144.381C303.469 144.699 295.43 144.593 295.642 145.626C295.854 146.672 301.27 148.341 304.303 147.401C304.303 147.401 300.966 155.638 296.582 155.227C292.199 154.817 290.848 152.102 288.133 151.89C285.419 151.678 283.445 152.407 284.796 153.135C286.147 153.863 290.742 153.373 292.927 155.241C295.112 157.108 296.887 158.247 292.821 159.081C288.756 159.915 281.459 159.399 279.989 156.26C278.532 153.135 278.532 153.135 278.532 153.135Z" fill="#D2E0FF"/>
<path d="M302.926 138.115C302.926 138.115 281.022 145.2 278.519 153.133C278.519 153.133 278.625 156.682 276.44 160.747V162.31C276.44 162.31 278.731 156.986 279.989 156.258C279.989 156.258 275.089 149.372 302.926 138.115Z" fill="#D2E0FF"/>
<path d="M276.44 160.747C276.44 160.747 273.063 165.872 274.983 172.123L275.857 171.884C275.857 171.884 275.01 165.011 276.784 161.555C278.545 158.085 276.44 160.747 276.44 160.747Z" fill="#D2E0FF"/>
<path d="M278.267 185.646C286.73 185.646 293.589 178.786 293.589 170.324H262.945C262.945 178.786 269.805 185.646 278.267 185.646Z" fill="#C0D4FF"/>
<path d="M293.788 186.427H262.72C262.72 185.381 263.568 184.533 264.614 184.533H291.894C292.954 184.546 293.788 185.381 293.788 186.427Z" fill="#C0D4FF"/>
<path d="M293.934 170.336H262.442V170.799H293.934V170.336Z" fill="#86A2E2"/>
</svg>
