<svg width="400" height="248" viewBox="0 0 400 248" fill="none" xmlns="http://www.w3.org/2000/svg">
<path d="M349.869 246.857C349.869 246.857 379.345 253.839 393.865 222.175C412.693 181.08 386.275 142.035 340.681 139.238C274.939 135.191 311.362 30.2128 207.617 58.698C178.437 66.7052 114.988 25.3669 77.6445 95.4162C71.2874 107.331 52.3031 106.741 27.0137 127.063C-17.6073 162.912 -1.54094 247.256 36.0456 247.638C73.6322 248.003 349.869 246.857 349.869 246.857Z" fill="#E4EEF7"/>
<path d="M251.147 73.5845C251.147 73.5845 244.564 61.1657 254.429 56.4413C254.429 56.4413 261.377 54.1138 266.293 55.5381C266.293 55.5381 256.566 65.8032 258.581 67.488C260.595 69.1728 268.603 55.2776 268.603 55.2776C268.603 55.2776 282.828 57.0666 286.805 60.2104C286.805 60.2104 272.719 67.2622 275.099 68.4085C277.478 69.5549 292.468 62.8852 292.468 62.8852C292.468 62.8852 304.921 68.0091 302.455 75.7556C299.988 83.5022 294.969 84.9439 293.058 84.2838C291.148 83.6238 280.657 76.6762 280.049 78.222C279.441 79.7679 285.155 86.5765 289.949 87.914C289.949 87.914 278.555 95.9211 273.136 91.6657C267.717 87.3929 268.238 82.6685 264.851 80.0979C261.464 77.5273 258.233 76.7978 259.397 78.9168C260.561 81.0358 267.022 84.2838 268.325 88.5914C269.627 92.8989 270.982 95.9211 264.92 93.5589C258.859 91.1967 249.688 84.3186 250.417 78.9515C251.147 73.5845 251.147 73.5845 251.147 73.5845Z" fill="#599DAD"/>
<path d="M296.046 74.5403C296.046 74.5403 261.169 65.2653 251.147 73.585C251.147 73.585 248.264 78.3441 241.924 81.8353L240.587 83.9022C240.587 83.9022 248.125 78.8478 250.4 78.9521C250.418 78.9521 249.81 65.7169 296.046 74.5403Z" fill="#599DAD"/>
<path d="M241.942 81.8521C241.942 81.8521 233.135 85.7427 230.374 95.591L231.711 96.0252C231.711 96.0252 236.436 86.2464 241.716 83.1895C246.961 80.1325 241.942 81.8521 241.942 81.8521Z" fill="#599DAD"/>
<path d="M207.827 51.1984C207.827 51.1984 188.339 41.0375 196.85 26.2044C196.85 26.2044 203.745 17.0509 211.336 14.515C211.336 14.515 207.896 36.3653 211.996 36.7474C216.095 37.1295 214.08 12.1355 214.08 12.1355C214.08 12.1355 233.985 1.81828 241.922 2.35672C241.922 2.35672 230.025 23.9464 234.106 23.3038C238.188 22.6785 251.597 0.793506 251.597 0.793506C251.597 0.793506 272.179 -3.65297 275.861 8.50535C279.544 20.681 274.368 26.9686 271.328 27.8197C268.289 28.6708 248.592 29.0008 249.183 31.5541C249.773 34.0899 263.182 37.7895 270.529 35.271C270.529 35.271 262.956 55.697 252.187 55.0023C241.419 54.3075 237.91 47.7594 231.24 47.4467C224.588 47.1341 219.777 49.062 223.146 50.7642C226.516 52.4664 237.736 50.9205 243.225 55.3149C248.731 59.7093 253.16 62.4015 243.242 64.7463C233.342 67.0911 215.417 66.3442 211.596 58.7887C207.827 51.1984 207.827 51.1984 207.827 51.1984Z" fill="#86D1CD"/>
<path d="M266.534 12.6235C266.534 12.6235 213.385 31.6079 207.827 51.2002C207.827 51.2002 208.348 59.8847 203.276 70.0108L203.398 73.8494C203.398 73.8494 208.626 60.6489 211.648 58.773C211.631 58.7557 199.125 42.2551 266.534 12.6235Z" fill="#6BB7BF"/>
<path d="M203.276 70.0099C203.276 70.0099 195.373 82.8282 200.549 97.974L202.668 97.3314C202.668 97.3314 200.098 80.5355 204.179 71.9378C208.244 63.3402 203.276 70.0099 203.276 70.0099Z" fill="#6BB7BF"/>
<path d="M256.146 55.3154H125.686V245.65H256.146V55.3154Z" fill="#575BA1"/>
<path d="M247.849 64.2117H133.994V234.532H247.849V64.2117Z" fill="#DCE1F1"/>
<path d="M222.228 55.3154H159.616V66.5893H222.228V55.3154Z" fill="#80B4F1"/>
<path d="M161.319 142.757H142.686V124.112H161.319V142.757ZM144.247 141.184H159.747V125.684H144.247V141.184Z" fill="#CBD0E6"/>
<path d="M238.556 130.607H175.031C174.407 130.607 173.891 130.09 173.891 129.466C173.891 128.842 174.407 128.326 175.031 128.326H238.556C239.181 128.326 239.697 128.842 239.697 129.466C239.697 130.09 239.181 130.607 238.556 130.607Z" fill="#CBD0E6"/>
<path d="M238.556 134.581H175.031C174.407 134.581 173.891 134.064 173.891 133.44C173.891 132.816 174.407 132.3 175.031 132.3H238.556C239.181 132.3 239.697 132.816 239.697 133.44C239.697 134.064 239.181 134.581 238.556 134.581Z" fill="#CBD0E6"/>
<path d="M217.113 138.542H175.031C174.407 138.542 173.891 138.026 173.891 137.402C173.891 136.777 174.407 136.261 175.031 136.261H217.113C217.738 136.261 218.254 136.777 218.254 137.402C218.254 138.026 217.738 138.542 217.113 138.542Z" fill="#CBD0E6"/>
<path d="M146.888 127.677C146.888 127.677 149.926 134.341 151.163 138.543C151.163 138.543 156.301 123.739 161.332 119.933C161.332 119.933 152.735 126.609 150.887 131.087L146.888 127.677Z" fill="#80B4F1"/>
<path d="M161.319 103.328H142.686V84.6824H161.319V103.328ZM144.247 101.755H159.747V86.2552H144.247V101.755Z" fill="#CBD0E6"/>
<path d="M238.556 91.1777H175.031C174.407 91.1777 173.891 90.6614 173.891 90.0371C173.891 89.4128 174.407 88.8965 175.031 88.8965H238.556C239.181 88.8965 239.697 89.4128 239.697 90.0371C239.697 90.6614 239.181 91.1777 238.556 91.1777Z" fill="#CBD0E6"/>
<path d="M238.556 95.1517H175.031C174.407 95.1517 173.891 94.6354 173.891 94.0111C173.891 93.3868 174.407 92.8705 175.031 92.8705H238.556C239.181 92.8705 239.697 93.3868 239.697 94.0111C239.697 94.6354 239.181 95.1517 238.556 95.1517Z" fill="#CBD0E6"/>
<path d="M217.113 99.1142H175.031C174.407 99.1142 173.891 98.5979 173.891 97.9736C173.891 97.3493 174.407 96.833 175.031 96.833H217.113C217.738 96.833 218.254 97.3493 218.254 97.9736C218.254 98.6099 217.738 99.1142 217.113 99.1142Z" fill="#CBD0E6"/>
<path d="M146.888 88.2479C146.888 88.2479 149.926 94.9114 151.163 99.1136C151.163 99.1136 156.301 84.3099 161.332 80.5039C161.332 80.5039 152.735 87.1794 150.887 91.6577L146.888 88.2479Z" fill="#80B4F1"/>
<path d="M238.556 167.19H175.031C174.407 167.19 173.891 166.674 173.891 166.049C173.891 165.425 174.407 164.909 175.031 164.909H238.556C239.181 164.909 239.697 165.425 239.697 166.049C239.697 166.674 239.181 167.19 238.556 167.19Z" fill="#CBD0E6"/>
<path d="M238.556 171.151H175.031C174.407 171.151 173.891 170.635 173.891 170.011C173.891 169.387 174.407 168.87 175.031 168.87H238.556C239.181 168.87 239.697 169.387 239.697 170.011C239.697 170.647 239.181 171.151 238.556 171.151Z" fill="#CBD0E6"/>
<path d="M217.113 175.126H175.031C174.407 175.126 173.891 174.61 173.891 173.986C173.891 173.361 174.407 172.845 175.031 172.845H217.113C217.738 172.845 218.254 173.361 218.254 173.986C218.254 174.61 217.738 175.126 217.113 175.126Z" fill="#CBD0E6"/>
<path d="M161.319 181.981H142.685V163.347H161.319V181.981ZM144.246 180.408H159.746V164.908H144.246V180.408Z" fill="#CBD0E6"/>
<path d="M146.888 167.31C146.888 167.31 149.926 173.973 151.162 178.175C151.162 178.175 156.301 163.372 161.331 159.566C161.331 159.566 152.735 166.241 150.886 170.719L146.888 167.31Z" fill="#80B4F1"/>
<path d="M161.321 221.41H142.687V202.764H161.321V221.41ZM144.248 219.837H159.748V204.337H144.248V219.837Z" fill="#CBD0E6"/>
<path d="M238.557 206.618H175.032C174.407 206.618 173.891 206.102 173.891 205.478C173.891 204.853 174.407 204.337 175.032 204.337H238.557C239.181 204.337 239.697 204.853 239.697 205.478C239.697 206.102 239.181 206.618 238.557 206.618Z" fill="#CBD0E6"/>
<path d="M238.557 210.581H175.032C174.407 210.581 173.891 210.065 173.891 209.44C173.891 208.816 174.407 208.3 175.032 208.3H238.557C239.181 208.3 239.697 208.816 239.697 209.44C239.697 210.077 239.181 210.581 238.557 210.581Z" fill="#CBD0E6"/>
<path d="M217.114 214.555H175.032C174.407 214.555 173.891 214.039 173.891 213.414C173.891 212.79 174.407 212.274 175.032 212.274H217.114C217.738 212.274 218.254 212.79 218.254 213.414C218.254 214.039 217.738 214.555 217.114 214.555Z" fill="#CBD0E6"/>
<path d="M146.889 206.738C146.889 206.738 149.927 213.402 151.163 217.604C151.163 217.604 156.302 202.8 161.333 198.994C161.333 198.994 152.736 205.67 150.887 210.148L146.889 206.738Z" fill="#80B4F1"/>
<path d="M87.1583 241.868L88.2029 245.662H98.5762C98.5762 245.662 95.9229 240.548 87.1583 241.868Z" fill="#272253"/>
<path d="M65.2828 241.868L66.3273 245.662H76.7007C76.7007 245.662 74.0473 240.548 65.2828 241.868Z" fill="#272253"/>
<path d="M69.3409 173.817C69.3409 173.817 62.3893 223.222 64.5745 242.732H73.6992L83.2442 178.355L69.3409 173.817Z" fill="#2F2C60"/>
<path d="M87.7703 177.983L96.3547 242.732H86.6777C86.6777 242.732 64.9104 182.749 69.3407 173.817L87.7703 177.983Z" fill="#373482"/>
<path opacity="0.2" d="M155.87 108.022C136.984 113.317 125.974 132.911 131.257 151.785C133.574 160.069 138.653 166.829 145.208 171.379L186.57 113.665C178.057 107.386 166.844 104.948 155.87 108.022Z" fill="#CDD2EA"/>
<path d="M202.778 132.299C197.136 112.176 176.257 100.434 156.134 106.065C136.912 111.444 125.338 130.738 129.252 149.996L57.7432 170.034C57.1069 170.215 56.7467 170.875 56.9148 171.499L57.5511 173.768C57.7312 174.405 58.3915 174.765 59.0158 174.597L130.477 154.582C136.852 173.552 157.059 184.406 176.545 178.943C196.667 173.3 208.409 152.421 202.778 132.299ZM175.668 175.413C157.479 180.504 138.593 169.89 133.503 151.701C128.4 133.511 139.025 114.638 157.215 109.535C175.404 104.444 194.29 115.058 199.381 133.247C204.471 151.437 193.858 170.323 175.668 175.413Z" fill="#373482"/>
<path d="M79.3662 182.521C84.0607 182.521 85.8976 178.955 85.8976 178.955C85.8736 178.991 83.8566 182.353 79.1982 182.269V182.521C79.2462 182.521 79.3062 182.521 79.3662 182.521Z" fill="#272253"/>
<path d="M91.7327 240.872C89.7397 235.373 87.7346 228.818 86.0297 221.95C85.7656 220.893 85.5135 219.813 85.2613 218.732C84.9852 217.532 84.7091 216.331 84.4449 215.13C84.3609 214.722 84.3969 214.23 84.4449 213.762C84.4809 213.317 84.529 212.873 84.4449 212.513C83.4844 207.975 82.8361 203.785 82.2598 200.099C82.1037 199.126 81.9596 198.19 81.8156 197.253C80.4709 188.873 79.6664 184.118 79.6544 184.07C79.6664 184.118 80.759 188.813 82.1157 197.205C82.2598 198.13 82.4159 199.078 82.5599 200.051C83.1362 203.737 83.7846 207.915 84.7451 212.453C84.8291 212.849 84.7811 213.33 84.7451 213.786C84.7091 214.242 84.661 214.698 84.7451 215.07C85.0092 216.259 85.2854 217.472 85.5615 218.672C85.8136 219.753 86.0778 220.833 86.3299 221.89C88.0348 228.758 89.8357 235.397 91.8288 240.872H91.7327Z" fill="#2F2C60"/>
<path d="M93.4015 128.589C93.4015 128.589 93.3415 131.759 92.2489 134.076C92.2489 134.076 88.1428 132.983 86.9181 132.455C86.3298 132.203 84.9731 130.942 84.9731 130.942C84.9731 130.942 86.7501 128.145 87.2783 124.507C87.8066 120.869 93.4015 128.589 93.4015 128.589Z" fill="#CB7F83"/>
<path d="M95.4185 129.274C95.4185 129.274 86.8941 129.658 86.726 124.351C86.5699 119.032 85.3573 115.502 90.7961 115.034C96.235 114.566 97.3515 116.559 97.8438 118.312C98.324 120.077 97.6277 129.033 95.4185 129.274Z" fill="#DCABB0"/>
<path d="M80.2667 130.582C80.2667 130.582 69.0649 142.276 64.5626 151.437C64.5626 151.437 66.8078 158.605 76.941 169.422C76.941 169.422 77.0851 168.51 77.5053 165.941C77.5894 165.436 73.7354 156.6 70.3016 151.677C70.3016 151.677 78.2857 146.635 80.3868 142.504C82.4999 138.374 80.2667 130.582 80.2667 130.582Z" fill="#DCABB0"/>
<path d="M86.8939 125.408C86.8939 125.408 90.928 118.204 97.6635 117.76C97.6635 117.76 100.629 116.571 100.629 114.974C100.629 114.974 91.0481 112.153 87.5662 114.974C82.3315 119.201 86.8939 125.408 86.8939 125.408Z" fill="#373482"/>
<path d="M119.527 157.452C118.242 157.704 118.747 157.788 116.934 158.1C115.121 158.424 113.524 159.517 113.14 160.777L99.7168 161.15C100.773 156.371 100.689 138.386 99.9569 136.921C99.2246 135.468 92.2489 134.064 92.2489 134.064L90.532 142.492C90.532 142.492 92.6692 163.755 94.6862 165.76C96.7153 167.765 115.205 162.614 115.205 162.614C115.205 162.614 119.095 162.987 120.404 158.904C120.404 158.904 120.812 157.2 119.527 157.452Z" fill="#DCABB0"/>
<path d="M77.2768 130.582C77.2768 130.582 64.7183 147.199 63.7458 151.389C63.7458 151.389 64.166 152.53 66.8914 156.24L71.6099 153.67C71.6099 153.67 70.8295 152.073 70.6614 151.821C70.6614 151.821 70.5653 151.725 71.1056 151.437C71.6339 151.149 74.2753 149.36 74.2753 149.36L77.2768 130.582Z" fill="#ABDDDA"/>
<path opacity="0.2" d="M77.2768 130.582C77.2768 130.582 64.7183 147.199 63.7458 151.389C63.7458 151.389 64.5742 153.13 66.8914 156.24L71.6099 153.67C71.6099 153.67 70.8295 152.073 70.6614 151.821C70.6614 151.821 70.5653 151.725 71.1056 151.437C71.6339 151.149 74.2753 149.36 74.2753 149.36L77.2768 130.582Z" fill="#3F8A8B"/>
<path d="M69.3408 173.817C70.9377 177.034 88.4187 178.487 89.5113 177.887C90.6039 177.274 89.8355 173.216 89.9915 171.511C90.3397 167.754 92.2007 163.419 92.6449 162.027C92.693 161.858 92.729 161.762 92.729 161.762C92.765 163.527 94.9501 166.541 94.9501 166.541C99.1163 166.949 106.68 165.004 106.68 165.004C106.656 164.836 106.632 164.668 106.62 164.512C106.452 162.507 107.064 160.874 107.064 160.874C106.416 160.826 102.022 160.862 100.833 160.874C100.677 160.874 100.545 160.742 100.545 160.574L101.229 153.982C102.706 140.752 100.125 136.009 100.125 136.009C98.0958 134.388 92.5489 133.14 92.5489 133.14C87.9745 132.839 84.9729 130.954 84.9729 130.954C84.9729 130.954 78.4055 130.222 77.2769 130.594C76.1484 130.966 74.0113 144.233 73.519 149.444C73.0267 154.655 70.0132 167.525 69.3408 169.422C68.2843 172.364 69.0887 173.324 69.3408 173.817Z" fill="#ABDDDA"/>
<path opacity="0.2" d="M92.7291 161.75C92.7651 163.515 94.9502 166.529 94.9502 166.529C99.1164 166.937 106.68 164.992 106.68 164.992C106.656 164.824 106.632 164.656 106.62 164.5C105.228 164.656 96.9432 165.52 95.9707 164.932C95.9707 164.932 92.645 161.894 92.2368 145.434L92.7291 161.75Z" fill="#54938F"/>
<path d="M369.377 245.662H363.65H363.373H31.149H26.1424H21.8681C21.3639 245.662 20.9437 246.083 20.9437 246.599C20.9437 247.115 21.3639 247.535 21.8681 247.535H26.1424H31.149H363.361H363.638H369.365C369.869 247.535 370.289 247.115 370.289 246.599C370.289 246.095 369.881 245.662 369.377 245.662Z" fill="#B8D7FC"/>
<path d="M218.938 83.8181C218.938 83.8181 271.081 74.4892 308.841 83.9261C308.841 83.9261 319.034 168.486 263.962 191.85C263.962 191.85 209.873 171.86 218.938 83.8181Z" fill="white"/>
<path d="M224.941 89.2213C224.941 89.2213 272.762 83.0861 301.961 89.2213C301.961 89.2213 311.71 157.897 264.502 183.29C264.502 183.278 221.255 171.032 224.941 89.2213Z" fill="#80B4F1"/>
<path d="M284.288 118.852H269.965V104.877H256.842V118.852H243.215V131.975H256.842V145.95H269.965V131.975H284.288V118.852Z" fill="white"/>
<path d="M314.941 148.184C317.222 145.914 316.934 128.301 316.958 127.221C317.03 124.111 318.206 122.814 318.206 122.814C322.144 120.485 328.628 120.329 331.101 126.62C332.686 130.655 336.72 138.495 336.72 138.495C353.241 161.426 346.673 172.736 346.673 172.736L345.965 172.664C346.205 171.908 346.397 170.851 346.157 170.407L345.484 172.652L333.274 171.079C333.178 168.738 332.242 165.076 332.242 165.076L332.182 171.284L330.549 171.368C331.197 158.281 328.412 151.846 327.595 150.249C328.304 157.524 324.774 169.399 324.774 169.399L324.269 169.291L325.41 163.359L323.945 169.219L322.529 168.894C322.757 168.102 322.961 167.334 323.153 166.577C322.757 168.03 322.529 168.894 322.529 168.894C319.491 165.581 313.92 165.881 313.92 165.881C310.895 161.607 314.941 148.184 314.941 148.184Z" fill="#2C3A64"/>
<path d="M313.608 236.538L310.042 243.645L307.148 242.517L307.809 235.265L313.608 236.538Z" fill="#DCABB0"/>
<path d="M311.303 242.433L310.33 245.639H300.701C300.701 245.651 303.162 241.316 311.303 242.433Z" fill="#80B4F1"/>
<path d="M313.92 174.682L306.308 236.994H314.376C314.376 236.994 324.906 210.04 326.418 181.958C326.995 171.236 313.92 174.682 313.92 174.682Z" fill="#373482"/>
<path d="M333.358 237.09L331.701 242.889L328.616 242.516L327.931 233.656L333.358 237.09Z" fill="#DCABB0"/>
<path d="M331.99 242.433L331.017 245.639H321.388C321.388 245.651 323.849 241.316 331.99 242.433Z" fill="#80B4F1"/>
<path d="M324.341 175.522H330.321L336.732 174.621C336.732 174.621 340.838 183.578 338.725 210.136C337.656 223.631 333.658 237.978 333.658 237.978L325.386 237.81L321.82 188.285C321.712 186.928 320.139 186.436 320.139 186.436L320.367 175.354L324.341 175.522Z" fill="#575BA3"/>
<path d="M330.645 236.802C331.761 230.811 332.734 223.715 333.37 216.307C333.466 215.178 333.562 214.014 333.646 212.849C333.742 211.565 333.826 210.256 333.898 208.983C333.922 208.539 333.814 208.035 333.706 207.543C333.598 207.086 333.502 206.618 333.514 206.234C333.766 201.359 333.778 196.893 333.79 192.955C333.79 191.922 333.802 190.914 333.802 189.917C333.862 180.961 333.934 175.894 333.934 175.846C333.934 175.894 333.562 180.949 333.502 189.905C333.49 190.902 333.49 191.91 333.49 192.943C333.478 196.881 333.466 201.335 333.214 206.198C333.19 206.618 333.298 207.122 333.406 207.591C333.514 208.059 333.622 208.539 333.598 208.935C333.526 210.22 333.43 211.517 333.346 212.801C333.262 213.966 333.166 215.13 333.07 216.259C332.446 223.655 331.677 230.823 330.561 236.802H330.645Z" fill="#373482"/>
<path d="M321.952 134.676C321.952 134.676 322.901 140.175 319.479 142.781C319.479 142.781 320.956 145.974 321.94 146.478C323.045 147.031 325.95 147.043 326.887 146.238C327.859 145.41 328.736 141.46 328.736 141.46C328.736 141.46 327.991 138.038 328.135 132.803L321.952 134.676Z" fill="#CB7F83"/>
<path d="M320.752 136.25C320.752 136.25 328.304 136.598 328.448 131.891C328.592 127.185 329.66 124.063 324.846 123.643C320.031 123.223 319.047 124.988 318.615 126.549C318.17 128.109 318.783 136.045 320.752 136.25Z" fill="#DCABB0"/>
<path d="M313.92 174.681C313.92 174.681 314.917 175.51 324.918 176.002C325.566 176.038 326.19 176.05 326.767 176.074C330.357 176.158 332.77 175.906 334.355 175.594C336.504 175.173 337.14 174.633 337.14 174.633C337.14 174.633 334.018 167.105 334.018 163.527C334.018 161.054 328.436 141.016 328.436 141.016C327.775 142.817 326.022 144.353 324.077 144.377C319.011 144.414 320.992 141.016 320.992 141.016L315.289 143.309C315.289 143.309 315.997 145.422 315.733 147.475C315.661 148.003 315.529 148.532 315.301 149.012C315.253 149.12 315.193 149.228 315.133 149.324C313.752 151.677 314.7 155.771 315.709 160.502C316.742 165.232 313.92 174.681 313.92 174.681Z" fill="#575BA3"/>
<path d="M315.301 143.285C315.301 143.285 309.286 153.407 306.308 161.043C306.308 161.043 299.032 158.017 294.878 156.276C294.662 156.18 294.446 156.096 294.242 156.012L292.885 155.436C292.885 155.436 292.573 152.278 289.115 151.882C289.115 151.882 287.686 151.822 288.095 152.806C288.503 153.791 288.479 153.371 289.019 154.763C289.559 156.168 290.676 157.261 291.745 157.369C291.745 157.369 292.213 157.729 292.981 158.305C293.209 158.473 293.461 158.665 293.75 158.869C297.207 161.427 304.147 166.301 306.308 166.061C309.238 165.737 317.534 153.827 317.534 153.827L315.301 143.285Z" fill="#DCABB0"/>
<path d="M301.242 164.248C301.242 164.248 305.192 166.229 305.972 166.229C306.752 166.229 308.877 165.197 311.123 162.531C312.095 161.367 313.524 159.542 314.821 157.849C316.501 155.652 317.966 153.683 317.942 153.623C317.906 153.515 317.126 142.553 317.126 142.553C317.126 142.553 315.253 143.069 315.121 143.189C314.989 143.321 307.641 156.492 306.332 160.382L301.95 159.073L301.242 164.248Z" fill="#DCE1F1"/>
<path d="M322.144 158.425L321.208 200.567H310.45C310.45 200.567 312.803 176.651 313.932 169.171C315.217 160.598 315.133 143.189 315.133 143.189C315.133 143.189 319.551 141.388 319.887 141.448C320.223 141.508 322.144 158.425 322.144 158.425Z" fill="#DCE1F1"/>
<path d="M321.016 140.992C321.016 140.992 322.805 154.967 322.156 158.425L319.335 149L319.971 147.872L318.807 147.511L319.539 141.58C319.527 141.58 320.007 140.992 321.016 140.992Z" fill="#CDD2EA"/>
<path d="M323.189 158.869V200.579C323.189 200.579 330.032 200.459 335.315 200.279C338.641 200.17 341.354 200.05 341.354 199.918C341.354 199.618 339.481 182.557 336.047 170.215C335.279 167.465 335.015 164.608 335.267 161.775C335.519 158.989 335.879 155.723 336.311 154.211C336.311 154.199 336.323 154.187 336.323 154.175C336.323 154.175 342.795 159.385 342.627 159.637C342.459 159.878 340.862 164.224 340.862 164.224C340.862 164.224 343.899 166.421 344.524 166.733C344.524 166.733 350.167 159.133 349.386 157.921C349.386 157.921 339.553 141.208 337.32 141.904C336.684 142.108 330.08 141.46 330.08 141.46L323.189 158.869Z" fill="#DCE1F1"/>
<path d="M328.736 141.448C328.459 141.724 323.189 158.857 323.189 158.857C323.189 158.857 328.027 150.597 328.387 150.417L327.847 149.396L329.012 148.808L330.068 141.436C330.068 141.448 329.18 141.004 328.736 141.448Z" fill="#CDD2EA"/>
<path d="M318.675 124.771C318.675 124.771 327.931 131.903 327.115 137.174C326.347 142.12 327.799 142.565 328.892 143.033C331.689 144.246 336.252 141.832 337.705 141.904C338.737 141.952 335.183 140.896 333.502 138.651C329.012 132.648 329.444 124.543 328.556 123.967C322.433 119.993 318.675 124.771 318.675 124.771Z" fill="#2C3A64"/>
<path d="M301.133 158.485C301.133 158.485 300.353 163.504 299.969 164.32L301.338 165.016C301.338 165.016 302.154 159.83 301.938 158.881L301.133 158.485Z" fill="#CDD2EA"/>
<path d="M332.254 176.362C332.974 179.1 334.619 193.831 335.315 200.279C338.641 200.171 341.354 200.051 341.354 199.919C341.354 199.618 339.481 182.558 336.048 170.215C335.279 167.466 335.015 164.608 335.267 161.775C335.519 158.989 335.88 155.724 336.312 154.211C335.844 153.803 335.291 153.551 334.979 153.815C334.283 154.403 331.317 172.833 332.254 176.362Z" fill="#CDD2EA"/>
<path d="M340.85 164.212C340.754 164.752 337.824 169.951 337.284 170.923C337.224 171.019 337.2 171.079 337.2 171.079L336.684 171.476C336.684 171.476 334.295 169.387 331.497 171.464C331.497 171.464 330.417 172.4 331.389 172.844C332.362 173.289 332.061 172.988 333.406 173.637C334.763 174.285 336.324 174.321 337.176 173.673L338.125 172.94C338.293 172.82 338.581 172.544 338.965 172.196C340.79 170.491 344.512 166.721 344.512 166.721L340.85 164.212Z" fill="#DCABB0"/>
<path d="M301.242 164.248C301.242 164.248 305.192 166.229 305.972 166.229C306.752 166.229 308.877 165.196 311.123 162.531C312.095 161.366 313.524 159.541 314.821 157.849C315.001 156.948 315.073 155.964 314.46 155.904C313.368 155.796 307.473 164.752 305.996 164.692C304.531 164.644 301.242 164.248 301.242 164.248Z" fill="#CDD2EA"/>
<path d="M340.946 163.972L345.136 166.59C345.136 166.59 344.584 167.19 344.572 167.154C344.548 167.118 340.79 164.404 340.79 164.404L340.946 163.972Z" fill="#CDD2EA"/>
</svg>
