<svg width="400" height="282" viewBox="0 0 400 282" fill="none" xmlns="http://www.w3.org/2000/svg">
<path d="M382.737 280.482C357.504 280.482 16.3818 279.75 16.3818 279.699C16.2455 279.375 -26.9162 226.475 27.4318 171.156C54.3675 143.744 2.70963 108.244 27.4318 77.7669C69.7933 25.5472 111.712 54.9516 146.633 40.275C152.797 37.687 158.994 33.5155 165.192 27.1136C168.682 23.5211 172.496 20.3712 176.599 17.647C177.229 17.2213 177.859 16.8127 178.506 16.4211C180.958 14.9058 183.495 13.5266 186.117 12.2837C187.871 11.4494 189.659 10.6832 191.497 9.98516C194.392 8.86142 197.371 7.90795 200.402 7.09069C204.71 5.9329 209.154 5.06455 213.683 4.48566C215.658 4.23027 217.65 4.02595 219.659 3.87271C258.683 0.944189 302.577 17.4427 325.239 41.5519C329.802 46.4044 350.54 71.5353 334.195 106.065C323.877 127.875 367.124 148.699 382.499 173.591C421.557 236.878 383.094 279.648 382.737 280.482Z" fill="#CEE5F8"/>
<path d="M27.6533 279.835H44.952C45.8714 279.052 44.305 277.264 42.6705 277.145C41.9554 277.094 41.053 277.247 40.0314 277.451C39.793 274.284 38.4309 260.084 33.306 260.646C27.5511 261.293 33.306 266.912 34.9405 270.232C36.1494 272.701 37.4264 276.225 38.0053 277.894C37.5455 277.996 37.0518 278.098 36.558 278.183C35.7918 275.834 32.9485 267.951 29.3389 268.41C25.0993 268.955 26.8019 272.105 29.8156 273.995C32.029 275.374 34.7362 277.332 36.0132 278.286C34.9235 278.456 33.7827 278.592 32.6249 278.558C29.6624 278.507 28.2151 279.375 27.6533 279.835Z" fill="#ABDDDA"/>
<path d="M302.952 279.835H286.879C286.011 279.103 287.475 277.451 288.99 277.332C289.654 277.281 290.488 277.417 291.442 277.622C291.663 274.693 292.923 261.481 297.691 262.009C303.037 262.604 297.691 267.815 296.175 270.913C295.051 273.195 293.877 276.481 293.332 278.03C293.775 278.132 294.217 278.218 294.677 278.303C295.392 276.123 298.031 268.802 301.385 269.228C305.318 269.721 303.735 272.667 300.943 274.404C298.899 275.681 296.38 277.502 295.188 278.388C296.192 278.558 297.265 278.66 298.338 278.643C301.079 278.592 302.424 279.409 302.952 279.835Z" fill="#ABDDDA"/>
<path d="M397.652 281.112H2.91393C2.64151 281.112 2.42017 280.891 2.42017 280.618V280.329C2.42017 280.056 2.64151 279.835 2.91393 279.835H397.635C397.907 279.835 398.129 280.056 398.129 280.329V280.618C398.146 280.891 397.924 281.112 397.652 281.112Z" fill="#B8D7FC"/>
<path d="M34.8774 133.066L35.6627 129.014L32.5635 128.406C32.5739 127.747 32.5321 127.108 32.4274 126.469L35.4114 125.443L34.0712 121.538L31.0872 122.564C30.7731 121.999 30.4066 121.465 29.9983 120.952L32.0714 118.564L28.9513 115.853L26.8781 118.24C26.3232 117.915 25.7474 117.633 25.1296 117.392L25.7369 114.293L21.6849 113.507L21.0777 116.607C20.418 116.596 19.7793 116.638 19.1407 116.743L18.1146 113.759L14.2092 115.099L15.2353 118.083C14.6699 118.397 14.1359 118.763 13.6228 119.172L11.2356 117.099L8.52386 120.219L10.9111 122.292C10.5865 122.847 10.3038 123.423 10.063 124.04L6.96379 123.433L6.17853 127.485L9.27771 128.092C9.26724 128.752 9.30913 129.391 9.41383 130.029L6.42982 131.055L7.77 134.961L10.754 133.935C11.0681 134.5 11.4346 135.034 11.8429 135.547L9.76982 137.934L12.8899 140.646L14.963 138.259C15.518 138.583 16.0938 138.866 16.7116 139.107L16.1043 142.206L20.1563 142.991L20.7635 139.892C21.4232 139.903 22.0619 139.861 22.7005 139.756L23.7266 142.74L27.632 141.4L26.6059 138.416C27.1713 138.102 27.7053 137.735 28.2183 137.327L30.6055 139.4L33.3173 136.28L30.9301 134.207C31.2547 133.652 31.5374 133.076 31.7782 132.458L34.8774 133.066ZM19.8107 133.966C12.3245 132.375 14.5024 121.213 22.0304 122.543C29.5166 124.135 27.3493 135.296 19.8107 133.966Z" fill="#B8D7FC"/>
<path d="M71.719 35.3454L73.0953 28.2434L67.6633 27.179C67.6817 26.0229 67.6083 24.9035 67.4248 23.784L72.6549 21.9856L70.3059 15.1405L65.0758 16.939C64.5253 15.948 63.883 15.0121 63.1673 14.1129L66.8008 9.92876L61.3321 5.17576L57.6986 9.35987C56.7259 8.79098 55.7166 8.29549 54.6339 7.87341L55.6983 2.44141L48.5963 1.06506L47.5319 6.49706C46.3758 6.47871 45.2564 6.55211 44.1369 6.73563L42.3385 1.50549L35.4934 3.85447L37.2919 9.0846C36.3009 9.63514 35.365 10.2774 34.4658 10.9931L30.2817 7.35957L25.5287 12.8283L29.7128 16.4618C29.1439 17.4345 28.6484 18.4438 28.2263 19.5265L22.7943 18.4621L21.418 25.5641L26.85 26.6285C26.8316 27.7846 26.905 28.904 27.0885 30.0235L21.8584 31.8219L24.2074 38.667L29.4375 36.8685C29.988 37.8595 30.6303 38.7954 31.346 39.6946L27.7125 43.8787L33.1812 48.6317L36.8147 44.4476C37.7874 45.0165 38.7967 45.512 39.8794 45.9341L38.8151 51.3661L45.917 52.7424L46.9814 47.3104C48.1375 47.3288 49.257 47.2554 50.3764 47.0719L52.1748 52.302L59.0199 49.953L57.2214 44.7229C58.2124 44.1724 59.1483 43.5301 60.0475 42.8144L64.2317 46.4479L68.9846 40.9792L64.8005 37.3457C65.3694 36.373 65.8649 35.3637 66.287 34.281L71.719 35.3454ZM45.3114 36.9236C32.1902 34.1342 36.0073 14.5716 49.2019 16.9023C62.3231 19.6917 58.5244 39.2542 45.3114 36.9236Z" fill="#B8D7FC"/>
<path d="M278.064 137.01C278.064 139.676 277.931 142.341 277.664 144.94C274.132 178.795 248.274 205.919 215.086 211.517C211.021 212.183 206.822 212.583 202.491 212.583C184.297 212.583 167.636 206.185 154.641 195.456C137.78 181.594 126.984 160.601 126.984 137.01C126.984 130.879 127.717 124.947 129.117 119.216C132.182 106.487 138.447 95.0246 147.044 85.7612C160.839 70.8332 180.565 61.4365 202.557 61.4365C215.486 61.4365 227.682 64.702 238.345 70.4333C252.606 78.0973 264.135 90.2263 271 104.954C273.932 111.152 275.998 117.817 277.131 124.814C277.731 128.813 278.064 132.878 278.064 137.01Z" fill="#80B4F1"/>
<path d="M239.144 78.23C238.944 82.7617 237.211 87.4267 233.546 90.0924C227.815 94.2243 219.284 91.8252 214.353 86.6937C211.62 83.828 209.421 80.1626 205.689 78.8298C200.091 76.8971 194.16 81.5621 191.827 87.0269C188.629 94.4909 189.562 103.688 184.563 110.085C181.098 114.484 175.1 116.55 169.569 115.75C164.037 114.884 159.106 111.285 156.24 106.487C153.574 101.955 152.708 96.6235 150.642 91.7585C149.776 89.6259 148.576 87.56 146.977 85.8273C160.772 70.8992 180.498 61.5026 202.49 61.5026C215.419 61.5026 227.615 64.7681 238.278 70.4994C238.877 73.0318 239.211 75.6309 239.144 78.23Z" fill="#689CDA"/>
<path d="M154.641 145.74C155.507 141.675 159.039 138.276 163.171 137.543C170.235 136.277 177.699 142.208 184.163 139.276C189.028 137.076 190.694 131.012 194.626 127.347C200.291 122.015 210.421 123.348 215.352 129.346C220.284 135.344 220.017 144.674 215.686 151.138C212.087 156.47 206.222 159.868 201.557 164.333C198.692 167.066 196.159 170.331 192.96 172.73C189.761 175.13 185.496 176.662 181.698 175.33C177.099 173.73 174.767 168.799 172.234 164.733C167.303 156.803 152.041 157.802 154.641 145.74Z" fill="#689CDA"/>
<path d="M277.664 144.941C274.132 178.796 248.274 205.92 215.086 211.518C214.42 205.72 212.087 199.988 210.221 194.39C207.755 186.793 206.356 177.796 210.954 171.265C215.219 165.134 224.416 163.068 230.88 166.867C234.013 168.666 236.412 171.599 239.477 173.465C242.61 175.331 247.141 175.73 249.407 172.931C251.007 170.932 250.873 168.066 250.207 165.601C249.541 163.135 248.474 160.736 248.474 158.137C248.474 153.272 252.939 148.873 257.804 149.007C260.203 149.073 262.469 150.073 264.868 150.273C269.667 150.606 273.932 148.207 277.664 144.941Z" fill="#689CDA"/>
<path d="M247.075 118.816C246.408 116.217 246.741 113.218 248.541 111.286C250.207 109.486 252.673 108.887 255.072 108.42C260.403 107.287 265.668 106.088 271 104.955C273.932 111.152 275.998 117.817 277.131 124.814C272.666 127.88 267.667 130.012 262.336 129.879C255.538 129.679 248.741 125.347 247.075 118.816Z" fill="#689CDA"/>
<path d="M168.769 189.258C167.436 190.991 165.037 191.39 162.904 191.924C159.972 192.657 157.24 193.856 154.641 195.389C137.78 181.527 126.984 160.535 126.984 136.943C126.984 130.812 127.717 124.881 129.116 119.149C135.248 120.482 140.512 125.614 141.379 131.878C142.178 137.943 139.246 143.874 138.18 149.872C136.914 156.669 137.98 163.8 141.179 169.931C143.178 173.797 146.31 177.462 150.509 178.728C153.241 179.595 156.173 179.395 159.039 179.395C161.905 179.461 164.97 179.794 167.236 181.527C169.435 183.46 170.502 186.992 168.769 189.258Z" fill="#689CDA"/>
<path d="M202.623 250.704C202.157 250.704 201.757 250.704 201.29 250.704C201.157 250.704 201.024 250.571 201.024 250.438C201.024 250.304 201.157 250.171 201.29 250.171C201.757 250.171 202.157 250.171 202.623 250.171C203.356 250.171 204.156 250.171 204.889 250.171C205.022 250.171 205.156 250.304 205.156 250.438C205.156 250.571 205.022 250.704 204.889 250.704C204.156 250.704 203.356 250.704 202.623 250.704ZM195.626 250.504C194.426 250.438 193.226 250.371 192.027 250.238C191.894 250.238 191.76 250.105 191.76 249.971C191.76 249.838 191.894 249.705 192.027 249.705C193.226 249.838 194.359 249.905 195.559 249.971C195.692 249.971 195.826 250.105 195.826 250.238C195.892 250.438 195.759 250.504 195.626 250.504ZM210.554 250.438C210.42 250.438 210.287 250.304 210.287 250.171C210.287 250.038 210.354 249.905 210.554 249.905C211.753 249.838 212.953 249.705 214.086 249.571C214.219 249.571 214.352 249.638 214.352 249.838C214.352 249.971 214.286 250.105 214.086 250.105C212.953 250.238 211.753 250.371 210.554 250.438ZM186.429 249.571C186.362 249.571 186.362 249.571 186.429 249.571C185.229 249.371 184.03 249.238 182.83 249.038C182.697 249.038 182.564 248.905 182.63 248.705C182.63 248.572 182.764 248.438 182.963 248.505C184.096 248.705 185.296 248.905 186.496 249.038C186.629 249.038 186.762 249.172 186.695 249.371C186.629 249.505 186.562 249.571 186.429 249.571ZM219.75 249.438C219.617 249.438 219.484 249.371 219.484 249.238C219.484 249.105 219.55 248.972 219.684 248.905C220.217 248.838 220.75 248.705 221.35 248.638C221.95 248.505 222.616 248.438 223.216 248.305C223.349 248.305 223.482 248.372 223.549 248.505C223.549 248.638 223.482 248.772 223.349 248.838C222.749 248.972 222.083 249.038 221.483 249.172C220.883 249.238 220.35 249.305 219.75 249.438C219.75 249.438 219.817 249.438 219.75 249.438ZM177.299 247.905C177.299 247.905 177.232 247.905 177.299 247.905C176.099 247.639 174.9 247.372 173.767 247.039C173.633 246.972 173.567 246.839 173.567 246.706C173.633 246.572 173.767 246.506 173.9 246.506C175.033 246.772 176.232 247.106 177.365 247.372C177.499 247.372 177.565 247.572 177.565 247.705C177.499 247.839 177.432 247.905 177.299 247.905ZM228.881 247.639C228.747 247.639 228.681 247.572 228.614 247.439C228.547 247.306 228.681 247.172 228.814 247.106C229.947 246.839 231.08 246.572 232.279 246.239C232.413 246.173 232.546 246.306 232.613 246.439C232.679 246.572 232.546 246.706 232.413 246.772C231.213 247.106 230.08 247.372 228.881 247.639ZM168.369 245.506H168.302C167.169 245.173 166.036 244.773 164.903 244.373C164.77 244.307 164.703 244.173 164.77 244.04C164.837 243.907 164.97 243.84 165.103 243.907C166.236 244.307 167.369 244.64 168.502 245.04C168.635 245.106 168.702 245.24 168.702 245.373C168.569 245.44 168.502 245.506 168.369 245.506ZM237.744 245.173C237.611 245.173 237.544 245.106 237.477 244.973C237.411 244.84 237.477 244.706 237.677 244.64C238.81 244.307 239.943 243.907 241.01 243.507C241.143 243.44 241.276 243.507 241.343 243.64C241.409 243.773 241.343 243.907 241.209 243.973C240.077 244.373 238.944 244.773 237.877 245.106C237.811 245.173 237.811 245.173 237.744 245.173ZM159.638 242.374C159.572 242.374 159.572 242.374 159.505 242.374C158.372 241.907 157.306 241.441 156.24 240.974C156.106 240.908 156.04 240.774 156.106 240.641C156.173 240.508 156.306 240.441 156.439 240.508C157.506 240.974 158.639 241.441 159.705 241.907C159.838 241.974 159.905 242.107 159.838 242.241C159.838 242.307 159.772 242.374 159.638 242.374ZM246.408 241.907C246.274 241.907 246.208 241.841 246.141 241.774C246.074 241.641 246.141 241.508 246.274 241.441C247.341 240.974 248.474 240.508 249.54 240.041C249.673 239.975 249.806 240.041 249.873 240.175C249.94 240.308 249.873 240.441 249.74 240.508C248.674 240.974 247.541 241.508 246.474 241.907C246.474 241.907 246.474 241.907 246.408 241.907ZM151.241 238.509C151.175 238.509 151.175 238.509 151.108 238.509C150.042 237.975 148.975 237.376 147.976 236.843C147.843 236.776 147.776 236.643 147.843 236.509C147.909 236.376 148.042 236.309 148.176 236.376C149.175 236.909 150.242 237.509 151.308 238.042C151.441 238.109 151.508 238.242 151.441 238.375C151.441 238.442 151.308 238.509 151.241 238.509ZM254.805 237.975C254.738 237.975 254.605 237.909 254.538 237.842C254.471 237.709 254.538 237.576 254.671 237.509C255.738 236.976 256.804 236.376 257.804 235.843C257.937 235.776 258.07 235.843 258.137 235.976C258.203 236.109 258.137 236.243 258.004 236.309C257.004 236.909 255.938 237.442 254.871 237.975H254.805ZM143.178 233.977C143.111 233.977 143.111 233.977 143.044 233.91C142.045 233.31 141.045 232.644 140.045 231.978C139.912 231.911 139.912 231.711 139.979 231.578C140.045 231.444 140.245 231.444 140.378 231.511C141.378 232.178 142.378 232.777 143.377 233.444C143.511 233.51 143.511 233.71 143.444 233.777C143.311 233.91 143.244 233.977 143.178 233.977ZM262.802 233.377C262.735 233.377 262.602 233.31 262.602 233.244C262.535 233.111 262.535 232.977 262.669 232.911C263.668 232.311 264.668 231.644 265.668 230.978C265.801 230.911 265.934 230.911 266.067 231.045C266.134 231.178 266.134 231.311 266.001 231.444C265.001 232.111 264.001 232.777 263.002 233.377C262.935 233.377 262.868 233.377 262.802 233.377ZM135.447 228.779C135.38 228.779 135.314 228.779 135.314 228.712C134.381 227.979 133.381 227.313 132.448 226.58C132.315 226.513 132.315 226.313 132.381 226.18C132.448 226.046 132.648 226.046 132.781 226.113C133.714 226.846 134.647 227.579 135.58 228.246C135.713 228.312 135.713 228.512 135.647 228.645C135.647 228.779 135.58 228.779 135.447 228.779ZM270.466 228.179C270.399 228.179 270.333 228.112 270.266 228.046C270.199 227.912 270.199 227.779 270.333 227.646C271.266 226.913 272.199 226.246 273.132 225.447C273.265 225.38 273.398 225.38 273.531 225.513C273.598 225.647 273.598 225.78 273.465 225.913C272.532 226.646 271.599 227.379 270.666 228.112C270.532 228.179 270.466 228.179 270.466 228.179ZM128.249 223.047C128.183 223.047 128.116 223.047 128.05 222.981C127.183 222.181 126.25 221.381 125.384 220.582C125.251 220.515 125.251 220.315 125.384 220.182C125.45 220.048 125.65 220.048 125.784 220.182C126.65 220.981 127.516 221.781 128.449 222.581C128.583 222.648 128.583 222.848 128.449 222.981C128.383 222.981 128.316 223.047 128.249 223.047ZM277.597 222.314C277.53 222.314 277.463 222.314 277.397 222.248C277.33 222.114 277.33 221.981 277.397 221.848C278.263 221.048 279.129 220.248 279.996 219.449C280.129 219.382 280.262 219.382 280.396 219.449C280.529 219.582 280.462 219.715 280.396 219.849C279.529 220.648 278.663 221.448 277.73 222.248C277.73 222.314 277.663 222.314 277.597 222.314ZM121.519 216.65C121.452 216.65 121.385 216.65 121.319 216.583C120.519 215.717 119.653 214.85 118.853 213.984C118.786 213.851 118.786 213.717 118.853 213.584C118.919 213.451 119.119 213.517 119.253 213.584C120.052 214.45 120.852 215.317 121.718 216.183C121.852 216.316 121.852 216.45 121.718 216.583C121.652 216.65 121.585 216.65 121.519 216.65ZM284.261 215.917C284.194 215.917 284.128 215.917 284.061 215.85C283.928 215.717 283.928 215.583 284.061 215.45C284.861 214.584 285.727 213.717 286.46 212.851C286.527 212.718 286.727 212.718 286.86 212.851C286.993 212.918 286.993 213.118 286.86 213.251C286.06 214.117 285.261 214.984 284.394 215.85C284.461 215.917 284.394 215.917 284.261 215.917ZM115.321 209.785C115.254 209.785 115.187 209.785 115.121 209.719C114.388 208.786 113.588 207.853 112.855 206.92C112.788 206.787 112.788 206.653 112.922 206.52C113.055 206.453 113.188 206.453 113.321 206.587C114.054 207.52 114.788 208.453 115.521 209.319C115.587 209.452 115.587 209.586 115.454 209.719C115.387 209.785 115.321 209.785 115.321 209.785ZM290.459 208.986C290.392 208.986 290.325 208.986 290.259 208.919C290.126 208.852 290.126 208.653 290.192 208.519C290.925 207.586 291.658 206.653 292.391 205.72C292.458 205.587 292.658 205.587 292.791 205.654C292.925 205.72 292.925 205.92 292.858 206.053C292.125 206.986 291.392 207.919 290.659 208.852C290.592 208.986 290.525 208.986 290.459 208.986ZM109.656 202.455C109.589 202.455 109.523 202.388 109.456 202.321C108.79 201.322 108.123 200.322 107.457 199.389C107.39 199.256 107.39 199.123 107.523 198.989C107.657 198.923 107.79 198.923 107.923 199.056C108.59 200.056 109.256 200.989 109.923 201.988C109.989 202.122 109.989 202.255 109.856 202.388C109.789 202.455 109.723 202.455 109.656 202.455ZM295.99 201.588C295.923 201.588 295.857 201.588 295.857 201.522C295.724 201.455 295.724 201.255 295.79 201.122C296.457 200.189 297.123 199.189 297.789 198.19C297.856 198.056 298.056 198.056 298.189 198.123C298.323 198.19 298.323 198.389 298.256 198.523C297.59 199.522 296.923 200.522 296.257 201.522C296.19 201.588 296.057 201.588 295.99 201.588ZM104.658 194.657C104.591 194.657 104.458 194.591 104.458 194.524C103.858 193.525 103.258 192.458 102.725 191.392C102.659 191.259 102.725 191.125 102.858 191.059C102.992 190.992 103.125 191.059 103.192 191.192C103.725 192.192 104.325 193.258 104.924 194.258C104.991 194.391 104.924 194.524 104.858 194.591C104.724 194.657 104.724 194.657 104.658 194.657ZM300.922 193.791C300.855 193.791 300.855 193.791 300.788 193.724C300.655 193.658 300.588 193.458 300.722 193.391C301.322 192.392 301.855 191.325 302.454 190.259C302.521 190.126 302.654 190.059 302.788 190.126C302.921 190.192 302.988 190.326 302.921 190.459C302.388 191.525 301.788 192.592 301.188 193.591C301.122 193.724 301.055 193.791 300.922 193.791ZM100.326 186.527C100.259 186.527 100.126 186.46 100.059 186.394C99.5263 185.327 99.0598 184.261 98.5266 183.128C98.46 182.995 98.5266 182.862 98.6599 182.795C98.7932 182.728 98.9265 182.795 98.9931 182.928C99.4596 183.995 99.9928 185.061 100.459 186.127C100.526 186.26 100.459 186.394 100.326 186.46C100.393 186.527 100.326 186.527 100.326 186.527ZM305.253 185.594C305.187 185.594 305.187 185.594 305.12 185.594C304.987 185.527 304.92 185.394 304.987 185.261C305.52 184.195 305.987 183.062 306.453 181.995C306.52 181.862 306.653 181.795 306.786 181.862C306.92 181.929 306.986 182.062 306.92 182.195C306.453 183.262 305.987 184.394 305.453 185.461C305.453 185.527 305.32 185.594 305.253 185.594ZM96.594 178.063C96.4607 178.063 96.3941 177.997 96.3274 177.863C95.9276 176.73 95.4611 175.664 95.1278 174.531C95.0612 174.398 95.1278 174.265 95.2611 174.198C95.3944 174.131 95.5277 174.198 95.5943 174.331C95.9942 175.464 96.3941 176.597 96.7939 177.663C96.8606 177.797 96.7939 177.93 96.6606 177.997C96.6606 178.063 96.6606 178.063 96.594 178.063ZM308.852 176.997H308.786C308.652 176.93 308.586 176.797 308.652 176.664C309.052 175.531 309.452 174.398 309.852 173.332C309.919 173.198 310.052 173.132 310.185 173.132C310.318 173.198 310.385 173.332 310.385 173.465C309.985 174.598 309.585 175.731 309.185 176.864C309.052 176.93 308.919 176.997 308.852 176.997ZM93.6617 169.266C93.5284 169.266 93.4618 169.2 93.3951 169.067C93.0619 167.934 92.7287 166.801 92.4621 165.601C92.3955 165.468 92.5288 165.335 92.662 165.268C92.7953 165.201 92.9286 165.335 92.9953 165.468C93.2618 166.601 93.5951 167.734 93.9283 168.867C93.9949 169 93.8616 169.133 93.7283 169.2C93.7283 169.266 93.6617 169.266 93.6617 169.266ZM311.718 168.2H311.651C311.518 168.134 311.451 168 311.451 167.867C311.785 166.734 312.051 165.601 312.384 164.402C312.451 164.268 312.584 164.202 312.718 164.202C312.851 164.268 312.917 164.402 312.917 164.535C312.651 165.668 312.318 166.867 311.984 168C311.918 168.134 311.851 168.2 311.718 168.2ZM91.3958 160.336C91.2625 160.336 91.1293 160.27 91.1293 160.136C90.8627 159.003 90.6628 157.804 90.4628 156.604C90.4628 156.471 90.5295 156.338 90.6628 156.271C90.796 156.271 90.9293 156.338 90.996 156.471C91.1959 157.604 91.3958 158.803 91.6624 159.936C91.729 160.136 91.5958 160.27 91.3958 160.336C91.3958 160.336 91.4625 160.27 91.3958 160.336ZM313.85 159.203C313.651 159.203 313.584 159.003 313.584 158.87C313.784 157.737 314.05 156.538 314.184 155.405C314.184 155.271 314.317 155.138 314.517 155.205C314.65 155.205 314.783 155.338 314.717 155.538C314.517 156.738 314.317 157.871 314.117 159.07C314.117 159.137 313.984 159.203 313.85 159.203ZM89.9297 151.206C89.7964 151.206 89.6631 151.14 89.6631 151.006C89.5298 149.807 89.3965 148.607 89.2633 147.474C89.2633 147.341 89.3299 147.208 89.5298 147.208C89.6631 147.208 89.7964 147.274 89.7964 147.474C89.9297 148.674 89.9963 149.807 90.1963 151.006C90.1963 151.006 90.063 151.14 89.9297 151.206ZM315.317 150.073C315.25 150.073 315.25 150.073 315.317 150.073C315.117 150.073 315.05 149.94 315.05 149.807C315.05 149.54 315.117 149.207 315.117 148.94C315.183 148.074 315.317 147.141 315.383 146.275C315.383 146.141 315.517 146.008 315.65 146.008C315.783 146.008 315.916 146.141 315.916 146.275C315.85 147.141 315.783 148.074 315.65 148.94C315.65 149.207 315.583 149.54 315.583 149.807C315.517 149.94 315.45 150.073 315.317 150.073ZM89.13 141.943C88.9967 141.943 88.8634 141.81 88.8634 141.676C88.7968 140.477 88.7968 139.277 88.7968 138.144C88.7968 138.011 88.93 137.878 89.0633 137.878C89.1966 137.878 89.3299 138.011 89.3299 138.144C89.3299 139.344 89.3965 140.543 89.3965 141.676C89.4632 141.81 89.3299 141.943 89.13 141.943C89.1966 141.943 89.1966 141.943 89.13 141.943ZM315.916 140.81C315.783 140.81 315.65 140.677 315.65 140.543C315.716 139.344 315.716 138.144 315.716 137.011V136.878C315.716 136.745 315.85 136.611 315.983 136.611C316.116 136.611 316.25 136.745 316.25 136.878V137.011C316.25 138.211 316.25 139.41 316.183 140.61C316.183 140.677 316.116 140.81 315.916 140.81ZM89.13 132.679C88.9967 132.679 88.8634 132.546 88.8634 132.413C88.93 131.213 88.9967 130.014 89.0633 128.881C89.0633 128.747 89.1966 128.614 89.3299 128.614C89.4632 128.614 89.5965 128.747 89.5965 128.881C89.5298 130.08 89.4632 131.213 89.3965 132.413C89.3965 132.613 89.3299 132.679 89.13 132.679ZM315.85 131.413C315.716 131.413 315.583 131.28 315.583 131.147C315.517 129.947 315.45 128.747 315.317 127.615C315.317 127.481 315.383 127.348 315.583 127.348C315.716 127.348 315.85 127.415 315.85 127.615C315.916 128.814 316.05 130.014 316.116 131.147C316.116 131.28 315.983 131.413 315.85 131.413ZM89.9297 123.483C89.863 123.483 89.863 123.483 89.9297 123.483C89.7298 123.483 89.6631 123.349 89.6631 123.216C89.7964 122.017 89.9963 120.817 90.1296 119.684C90.1296 119.551 90.2629 119.417 90.4628 119.484C90.5961 119.484 90.7294 119.617 90.6628 119.817C90.4628 120.95 90.3295 122.15 90.1963 123.349C90.1296 123.349 90.063 123.483 89.9297 123.483ZM314.983 122.216C314.85 122.216 314.717 122.15 314.717 122.017C314.584 120.95 314.384 119.884 314.25 118.818L314.184 118.551C314.184 118.418 314.25 118.285 314.384 118.218C314.517 118.218 314.65 118.284 314.717 118.418L314.783 118.684C314.983 119.751 315.117 120.817 315.25 121.95C315.317 122.083 315.183 122.216 314.983 122.216C315.05 122.216 315.05 122.216 314.983 122.216ZM91.3958 114.353C91.3958 114.353 91.3292 114.353 91.3958 114.353C91.1959 114.286 91.1293 114.153 91.1293 114.019C91.3958 112.886 91.5958 111.687 91.929 110.554C91.9956 110.421 92.1289 110.354 92.2622 110.354C92.3955 110.421 92.4621 110.554 92.4621 110.687C92.1956 111.82 91.929 113.02 91.6624 114.153C91.5958 114.286 91.5291 114.353 91.3958 114.353ZM313.451 113.086C313.317 113.086 313.251 113.02 313.184 112.886C312.917 111.753 312.651 110.554 312.384 109.421C312.318 109.288 312.451 109.154 312.584 109.088C312.718 109.021 312.851 109.154 312.917 109.288C313.184 110.421 313.451 111.62 313.717 112.753C313.717 112.886 313.651 113.086 313.451 113.086ZM93.5951 105.356H93.5284C93.3951 105.289 93.3285 105.156 93.3285 105.023C93.6617 103.89 93.9949 102.757 94.3948 101.624C94.4614 101.49 94.5947 101.424 94.728 101.424C94.8613 101.49 94.9279 101.624 94.9279 101.757C94.5947 102.89 94.1948 104.023 93.8616 105.156C93.8616 105.289 93.7283 105.356 93.5951 105.356ZM311.118 104.156C310.985 104.156 310.918 104.09 310.852 103.956C310.518 102.823 310.118 101.69 309.785 100.557C309.719 100.424 309.785 100.291 309.919 100.224C310.052 100.158 310.185 100.224 310.252 100.358C310.652 101.49 310.985 102.623 311.318 103.756C311.385 103.89 311.251 104.023 311.118 104.09C311.118 104.156 311.118 104.156 311.118 104.156ZM96.594 96.5589H96.5274C96.3941 96.4922 96.3274 96.3589 96.3941 96.2256C96.7939 95.0927 97.2604 94.0264 97.7269 92.8935C97.7936 92.7602 97.9269 92.6936 98.0601 92.7602C98.1934 92.8268 98.2601 92.9601 98.1934 93.0934C97.7269 94.1597 97.2604 95.2926 96.8606 96.3589C96.7939 96.4922 96.6606 96.5589 96.594 96.5589ZM308.053 95.4259C307.919 95.4259 307.853 95.3593 307.786 95.226C307.319 94.1597 306.92 93.0268 306.453 91.9605C306.386 91.8272 306.453 91.6939 306.586 91.6273C306.72 91.5606 306.853 91.6273 306.92 91.7606C307.386 92.8268 307.853 93.9598 308.319 95.0261C308.386 95.1594 308.319 95.2926 308.186 95.3593C308.119 95.4259 308.053 95.4259 308.053 95.4259ZM100.259 88.0952C100.193 88.0952 100.193 88.0952 100.126 88.0952C99.9928 88.0285 99.9261 87.8953 99.9928 87.762C100.526 86.6957 101.059 85.6294 101.592 84.5631C101.659 84.4298 101.792 84.3632 101.925 84.4298C102.059 84.4965 102.125 84.6297 102.059 84.763C101.526 85.8293 100.992 86.8956 100.459 87.9619C100.459 88.0285 100.326 88.0952 100.259 88.0952ZM304.254 86.9623C304.187 86.9623 304.054 86.8956 303.987 86.829C303.454 85.7627 302.921 84.6964 302.388 83.6967C302.321 83.5635 302.388 83.4302 302.521 83.3635C302.654 83.2969 302.788 83.3635 302.854 83.4968C303.388 84.5631 303.987 85.6294 304.52 86.6957C304.587 86.829 304.52 86.9623 304.387 87.0289C304.321 86.9623 304.32 86.9623 304.254 86.9623ZM104.591 79.8981C104.525 79.8981 104.525 79.8981 104.458 79.8314C104.325 79.7648 104.258 79.5649 104.391 79.4982C104.991 78.4986 105.591 77.4323 106.257 76.4326C106.324 76.2994 106.524 76.2994 106.657 76.366C106.79 76.4326 106.79 76.6326 106.724 76.7659C106.124 77.7655 105.458 78.7652 104.858 79.8314C104.791 79.8981 104.724 79.8981 104.591 79.8981ZM299.789 78.8318C299.722 78.8318 299.589 78.7652 299.589 78.6985C298.989 77.6989 298.323 76.6992 297.723 75.6996C297.656 75.5663 297.656 75.433 297.789 75.2997C297.923 75.2331 298.056 75.2331 298.189 75.3664C298.856 76.366 299.456 77.3657 300.055 78.3653C300.122 78.4986 300.122 78.6319 299.989 78.6985C299.922 78.8318 299.855 78.8318 299.789 78.8318ZM109.589 72.1008C109.523 72.1008 109.456 72.1008 109.456 72.0342C109.323 71.9676 109.323 71.7676 109.389 71.6343C110.056 70.6347 110.789 69.7017 111.455 68.7687C111.522 68.6354 111.722 68.6354 111.855 68.702C111.989 68.7687 111.989 68.9686 111.922 69.1019C111.189 70.0349 110.522 71.0346 109.856 71.9676C109.789 72.1008 109.723 72.1008 109.589 72.1008ZM294.724 71.1012C294.657 71.1012 294.591 71.0346 294.524 70.9679C293.858 70.0349 293.124 69.0353 292.391 68.1023C292.325 67.969 292.325 67.8357 292.458 67.7024C292.591 67.6358 292.725 67.6358 292.858 67.769C293.591 68.702 294.324 69.7017 294.99 70.6347C295.057 70.768 295.057 70.9013 294.924 71.0346C294.857 71.1012 294.791 71.1012 294.724 71.1012ZM115.254 64.7701C115.187 64.7701 115.121 64.7701 115.054 64.7035C114.921 64.6368 114.921 64.4369 114.987 64.3036C115.721 63.3706 116.52 62.5042 117.32 61.5712C117.387 61.438 117.587 61.438 117.72 61.5712C117.853 61.6379 117.853 61.8378 117.72 61.9711C116.92 62.8375 116.187 63.7705 115.387 64.6368C115.387 64.7701 115.321 64.7701 115.254 64.7701ZM288.993 63.8371C288.926 63.8371 288.859 63.8371 288.793 63.7705C287.993 62.8375 287.26 61.9711 286.46 61.1047C286.393 60.9714 286.393 60.8382 286.46 60.7049C286.593 60.6382 286.727 60.6382 286.86 60.7049C287.66 61.5712 288.459 62.5042 289.193 63.3706C289.259 63.5039 289.259 63.6372 289.193 63.7705C289.126 63.7705 289.059 63.8371 288.993 63.8371ZM121.452 57.9059C121.385 57.9059 121.319 57.9059 121.252 57.8392C121.119 57.7059 121.119 57.5726 121.252 57.4394C122.118 56.573 122.918 55.7733 123.784 54.9069C123.918 54.7736 124.051 54.8403 124.184 54.9069C124.318 55.0402 124.251 55.1735 124.184 55.3068C123.318 56.1065 122.518 56.9729 121.652 57.8392C121.585 57.9059 121.519 57.9059 121.452 57.9059ZM282.728 57.0395C282.661 57.0395 282.595 57.0395 282.528 56.9729C281.662 56.1065 280.862 55.3068 279.996 54.5071C279.863 54.3738 279.863 54.2405 279.996 54.1072C280.129 53.9739 280.262 53.9739 280.396 54.1072C281.262 54.9069 282.128 55.7733 282.928 56.573C283.061 56.7063 283.061 56.8396 282.928 56.9729C282.861 56.9729 282.795 57.0395 282.728 57.0395ZM128.183 51.5748C128.116 51.5748 128.05 51.5748 127.983 51.5081C127.916 51.3748 127.916 51.2416 127.983 51.1083C128.849 50.3086 129.782 49.5755 130.715 48.8424C130.849 48.7758 130.982 48.7758 131.115 48.9091C131.182 49.0423 131.182 49.1756 131.048 49.3089C130.115 50.042 129.249 50.8417 128.316 51.5748C128.316 51.5081 128.249 51.5748 128.183 51.5748ZM275.931 50.7084C275.864 50.7084 275.797 50.7084 275.731 50.6418C274.864 49.9087 273.931 49.109 272.998 48.3759C272.865 48.3093 272.865 48.1093 272.932 47.976C272.998 47.8428 273.198 47.8428 273.331 47.9094C274.264 48.6425 275.197 49.4422 276.064 50.1753C276.197 50.2419 276.197 50.4418 276.064 50.5751C276.064 50.7084 275.997 50.7084 275.931 50.7084ZM135.38 45.7768C135.314 45.7768 135.247 45.7102 135.18 45.6435C135.114 45.5103 135.114 45.377 135.247 45.2437C136.18 44.5106 137.18 43.8442 138.179 43.1777C138.313 43.1111 138.446 43.1111 138.579 43.2444C138.646 43.3777 138.646 43.511 138.512 43.6442C137.513 44.3107 136.58 44.9771 135.647 45.7102C135.514 45.7768 135.447 45.7768 135.38 45.7768ZM268.666 45.0438C268.6 45.0438 268.533 45.0438 268.533 44.9771C267.6 44.3107 266.601 43.5776 265.601 42.9778C265.468 42.9112 265.468 42.7112 265.534 42.578C265.601 42.4447 265.801 42.4447 265.934 42.5113C266.934 43.1777 267.933 43.8442 268.866 44.5773C269 44.6439 269 44.8438 268.933 44.9771C268.8 44.9771 268.733 45.0438 268.666 45.0438ZM143.111 40.5787C143.044 40.5787 142.911 40.512 142.911 40.4454C142.844 40.3121 142.844 40.1788 142.978 40.1122C143.977 39.5124 145.044 38.8459 146.043 38.3128C146.176 38.2462 146.31 38.3128 146.376 38.3794C146.443 38.5127 146.376 38.646 146.31 38.7127C145.31 39.3124 144.244 39.9122 143.244 40.512C143.178 40.5787 143.111 40.5787 143.111 40.5787ZM260.936 39.9789C260.869 39.9789 260.869 39.9789 260.803 39.9122C259.803 39.3124 258.737 38.7127 257.737 38.1129C257.604 38.0462 257.537 37.8463 257.604 37.7797C257.67 37.713 257.87 37.5797 257.937 37.6464C258.937 38.2462 260.003 38.8459 261.003 39.4457C261.136 39.5124 261.136 39.7123 261.069 39.7789C261.069 39.9122 261.002 39.9789 260.936 39.9789ZM151.175 36.0469C151.108 36.0469 150.975 35.9803 150.908 35.9137C150.841 35.7804 150.908 35.6471 151.041 35.5804C152.108 35.0473 153.174 34.5141 154.24 33.981C154.374 33.9144 154.507 33.981 154.573 34.1143C154.64 34.2476 154.573 34.3809 154.44 34.4475C153.374 34.914 152.308 35.4471 151.241 35.9803C151.241 36.0469 151.175 36.0469 151.175 36.0469ZM252.805 35.5138C252.739 35.5138 252.739 35.5138 252.672 35.5138C251.606 34.9806 250.54 34.4475 249.473 33.981C249.34 33.9144 249.273 33.7811 249.34 33.6478C249.407 33.5145 249.54 33.4479 249.673 33.5145C250.739 33.981 251.806 34.5141 252.872 35.0473C253.005 35.1139 253.072 35.2472 253.005 35.3805C253.005 35.4471 252.872 35.5138 252.805 35.5138ZM159.572 32.2483C159.438 32.2483 159.372 32.1816 159.305 32.115C159.239 31.9817 159.305 31.8484 159.438 31.7818C160.505 31.3153 161.638 30.9154 162.771 30.5156C162.904 30.4489 163.037 30.5156 163.104 30.6488C163.17 30.7821 163.104 30.9154 162.971 30.9821C161.838 31.3819 160.771 31.8484 159.638 32.2483C159.638 32.1816 159.572 32.2483 159.572 32.2483ZM244.342 31.7151H244.275C243.209 31.2486 242.076 30.8488 240.943 30.4489C240.81 30.3823 240.743 30.249 240.81 30.1157C240.876 29.9824 241.01 29.9158 241.143 29.9824C242.276 30.3823 243.409 30.7821 244.475 31.2486C244.608 31.3153 244.675 31.4486 244.608 31.5819C244.542 31.6485 244.408 31.7151 244.342 31.7151ZM168.235 29.0494C168.102 29.0494 168.035 28.9828 167.969 28.8495C167.902 28.7162 167.969 28.5829 168.169 28.5163C169.302 28.1831 170.435 27.8498 171.567 27.5166C171.701 27.45 171.834 27.5833 171.901 27.7165C171.967 27.8498 171.834 27.9831 171.701 28.0498C170.568 28.383 169.435 28.7162 168.302 29.0494C168.302 29.0494 168.302 29.0494 168.235 29.0494ZM235.611 28.7162H235.545C234.412 28.383 233.279 28.0498 232.146 27.7165C232.013 27.6499 231.946 27.5166 231.946 27.3833C232.013 27.25 232.146 27.1834 232.279 27.1834C233.412 27.5166 234.545 27.8498 235.678 28.1831C235.811 28.2497 235.878 28.383 235.878 28.5163C235.811 28.5829 235.678 28.7162 235.611 28.7162ZM177.165 26.6503C177.032 26.6503 176.966 26.5836 176.899 26.4503C176.899 26.317 176.966 26.1838 177.099 26.1171C178.232 25.8505 179.431 25.584 180.564 25.384C180.698 25.384 180.831 25.4507 180.897 25.584C180.897 25.7173 180.831 25.8505 180.698 25.9172C179.565 26.1171 178.365 26.3837 177.165 26.6503C177.232 26.6503 177.232 26.6503 177.165 26.6503ZM226.615 26.3837C225.415 26.1171 224.215 25.9172 223.083 25.6506C222.949 25.6506 222.816 25.5173 222.883 25.3174C222.883 25.1841 223.083 25.0508 223.216 25.1175C224.349 25.3174 225.548 25.584 226.748 25.7839C226.881 25.7839 227.015 25.9838 226.948 26.1171C226.881 26.2504 226.748 26.3837 226.615 26.3837ZM186.296 24.9842C186.162 24.9842 186.029 24.9175 186.029 24.7843C186.029 24.651 186.096 24.5177 186.229 24.451C187.362 24.2511 188.561 24.1178 189.761 23.9845C189.894 23.9845 190.028 24.0512 190.028 24.2511C190.028 24.3844 189.961 24.5177 189.761 24.5177C188.628 24.651 187.495 24.7843 186.296 24.9842C186.296 24.9842 186.296 24.9175 186.296 24.9842ZM217.485 24.7843C216.285 24.651 215.085 24.5177 213.952 24.3844C213.819 24.3844 213.686 24.2511 213.686 24.1178C213.686 23.9845 213.819 23.8513 213.952 23.8513C215.152 23.9845 216.352 24.1178 217.485 24.2511C217.618 24.2511 217.751 24.3844 217.684 24.5177C217.751 24.651 217.618 24.7843 217.485 24.7843ZM195.492 23.9845C195.359 23.9845 195.226 23.8513 195.226 23.718C195.226 23.5847 195.359 23.4514 195.492 23.4514C196.692 23.3848 197.891 23.3181 199.024 23.3181C199.158 23.3181 199.291 23.4514 199.291 23.5847C199.291 23.718 199.158 23.8513 199.024 23.8513C197.891 23.8513 196.692 23.9179 195.492 23.9845ZM208.288 23.9179C207.088 23.8513 205.889 23.7846 204.756 23.7846C204.622 23.7846 204.489 23.6513 204.489 23.518C204.489 23.3847 204.622 23.2515 204.756 23.2515C205.955 23.2515 207.155 23.3181 208.354 23.3847C208.488 23.3847 208.621 23.518 208.621 23.6513C208.554 23.8513 208.421 23.9179 208.288 23.9179Z" fill="#0753AC"/>
<path d="M101.125 86.3634C101.059 86.3634 101.059 86.3634 100.992 86.3634C100.859 86.2967 100.792 86.1635 100.859 86.0302C101.125 85.497 101.459 84.9639 101.792 84.4974C101.858 84.3641 102.058 84.3641 102.192 84.4307C102.325 84.4974 102.325 84.6973 102.258 84.8306C101.925 85.2971 101.592 85.7636 101.325 86.2967C101.325 86.2967 101.192 86.3634 101.125 86.3634Z" fill="#0753AC"/>
<path d="M303.52 183.995C303.387 183.995 303.254 183.862 303.254 183.729C303.12 182.663 302.92 181.463 302.521 180.33C302.454 180.197 302.587 180.063 302.721 179.997C302.854 179.93 302.987 180.063 303.054 180.197C303.387 181.396 303.654 182.596 303.787 183.729C303.787 183.795 303.72 183.929 303.52 183.995ZM300.721 175.265C300.655 175.265 300.521 175.199 300.455 175.132C299.988 174.132 299.388 173.066 298.722 172.066C298.655 171.933 298.655 171.8 298.789 171.733C298.922 171.666 299.055 171.666 299.122 171.8C299.788 172.866 300.321 173.932 300.855 174.932C300.921 175.065 300.855 175.199 300.721 175.265C300.788 175.265 300.721 175.265 300.721 175.265ZM295.856 167.401C295.79 167.401 295.723 167.335 295.656 167.268C294.99 166.335 294.257 165.402 293.524 164.469C293.457 164.336 293.457 164.202 293.59 164.069C293.724 164.002 293.857 164.002 293.99 164.136C294.723 165.069 295.456 166.068 296.19 166.935C296.256 167.068 296.256 167.201 296.123 167.335C295.923 167.401 295.856 167.401 295.856 167.401ZM289.992 160.27C289.925 160.27 289.858 160.27 289.792 160.204C288.992 159.337 288.192 158.471 287.393 157.605C287.259 157.471 287.326 157.338 287.393 157.205C287.526 157.072 287.659 157.138 287.792 157.205C288.592 158.071 289.459 158.938 290.192 159.804C290.258 159.937 290.258 160.071 290.192 160.204C290.125 160.204 290.058 160.27 289.992 160.27ZM283.594 153.606C283.527 153.606 283.461 153.606 283.394 153.54C282.528 152.74 281.728 151.94 280.795 151.074C280.662 151.007 280.662 150.807 280.795 150.674C280.862 150.541 281.062 150.541 281.195 150.674C282.061 151.474 282.928 152.34 283.794 153.14C283.927 153.273 283.927 153.406 283.794 153.54C283.727 153.606 283.661 153.606 283.594 153.606ZM276.796 147.342C276.73 147.342 276.663 147.342 276.596 147.275C275.73 146.475 274.797 145.742 273.931 144.943C273.797 144.876 273.797 144.676 273.931 144.543C273.997 144.409 274.197 144.409 274.331 144.543C275.264 145.342 276.13 146.075 277.063 146.875C277.196 146.942 277.196 147.142 277.063 147.275C276.93 147.342 276.863 147.342 276.796 147.342ZM269.666 141.41C269.599 141.41 269.532 141.41 269.532 141.344C268.599 140.611 267.666 139.878 266.733 139.145C266.6 139.078 266.6 138.878 266.667 138.745C266.733 138.611 266.933 138.611 267.066 138.678C267.999 139.411 268.932 140.144 269.865 140.877C269.999 140.944 269.999 141.144 269.932 141.277C269.865 141.41 269.732 141.41 269.666 141.41ZM262.335 135.812C262.268 135.812 262.202 135.812 262.202 135.746C261.269 135.079 260.336 134.346 259.336 133.68C259.203 133.613 259.203 133.413 259.269 133.28C259.336 133.147 259.536 133.147 259.669 133.213C260.669 133.946 261.602 134.613 262.535 135.346C262.668 135.413 262.668 135.613 262.601 135.746C262.535 135.746 262.468 135.812 262.335 135.812ZM254.871 130.414C254.804 130.414 254.737 130.414 254.737 130.348C253.804 129.681 252.805 129.015 251.805 128.348C251.672 128.282 251.672 128.082 251.739 127.949C251.805 127.815 252.005 127.815 252.138 127.882C253.138 128.548 254.138 129.215 255.071 129.881C255.204 129.948 255.204 130.148 255.137 130.281C255.004 130.348 254.937 130.414 254.871 130.414ZM247.207 125.283C247.14 125.283 247.14 125.283 247.074 125.216C246.074 124.55 245.074 123.95 244.075 123.284C243.941 123.217 243.941 123.017 244.008 122.95C244.075 122.817 244.275 122.817 244.408 122.884C245.407 123.55 246.407 124.15 247.407 124.816C247.54 124.883 247.54 125.083 247.473 125.216C247.34 125.216 247.273 125.283 247.207 125.283ZM239.343 120.351C239.276 120.351 239.276 120.351 239.21 120.285C238.21 119.685 237.21 119.085 236.144 118.419C236.011 118.352 235.944 118.152 236.077 118.085C236.144 117.952 236.344 117.885 236.411 118.019C237.41 118.619 238.477 119.218 239.476 119.885C239.61 119.951 239.61 120.151 239.543 120.218C239.543 120.285 239.476 120.351 239.343 120.351ZM231.412 115.62C231.346 115.62 231.346 115.62 231.279 115.553C230.28 114.953 229.213 114.353 228.214 113.82C228.08 113.754 228.014 113.554 228.08 113.487C228.147 113.354 228.347 113.287 228.413 113.354C229.48 113.954 230.479 114.553 231.479 115.086C231.612 115.153 231.679 115.353 231.546 115.42C231.612 115.553 231.479 115.62 231.412 115.62ZM223.349 111.088C223.282 111.088 223.282 111.088 223.215 111.088C222.149 110.555 221.149 109.955 220.083 109.422C219.95 109.355 219.883 109.222 219.95 109.089C220.016 108.955 220.15 108.889 220.283 108.955C221.349 109.488 222.349 110.088 223.415 110.621C223.549 110.688 223.615 110.821 223.549 110.955C223.549 111.088 223.415 111.088 223.349 111.088ZM215.152 106.823C215.085 106.823 215.085 106.823 215.018 106.823C213.952 106.29 212.886 105.756 211.819 105.223C211.686 105.157 211.619 105.023 211.686 104.89C211.753 104.757 211.886 104.69 212.019 104.757C213.086 105.29 214.152 105.823 215.218 106.356C215.351 106.423 215.418 106.556 215.351 106.689C215.351 106.756 215.285 106.823 215.152 106.823ZM206.888 102.691C206.821 102.691 206.821 102.691 206.754 102.691C205.688 102.158 204.622 101.691 203.556 101.158C203.422 101.091 203.356 100.958 203.422 100.825C203.489 100.692 203.622 100.625 203.756 100.692C204.822 101.225 205.888 101.691 206.954 102.224C207.088 102.291 207.154 102.424 207.088 102.558C207.088 102.624 207.021 102.691 206.888 102.691ZM198.557 98.8256C198.491 98.8256 198.491 98.8256 198.424 98.8256C197.358 98.3591 196.225 97.8259 195.159 97.3594C195.025 97.2928 194.959 97.1595 195.025 97.0262C195.092 96.8929 195.225 96.8263 195.359 96.8929C196.425 97.3594 197.491 97.8259 198.624 98.3591C198.757 98.4257 198.824 98.559 198.757 98.6923C198.757 98.7589 198.624 98.8256 198.557 98.8256ZM190.027 95.1602C189.96 95.1602 189.96 95.1602 189.894 95.1602C188.827 94.6937 187.695 94.2272 186.628 93.8273C186.495 93.7607 186.428 93.6274 186.495 93.4941C186.562 93.3608 186.695 93.2942 186.828 93.3608C187.894 93.8273 189.027 94.2272 190.094 94.6937C190.227 94.7603 190.294 94.8936 190.227 95.0269C190.227 95.0935 190.16 95.1602 190.027 95.1602ZM181.497 91.6947H181.43C180.297 91.2949 179.231 90.8284 178.098 90.4285C177.965 90.3619 177.898 90.2286 177.965 90.0953C178.031 89.962 178.165 89.8954 178.298 89.962C179.431 90.3619 180.497 90.7617 181.63 91.2282C181.763 91.2949 181.83 91.4282 181.763 91.5615C181.697 91.6281 181.563 91.6947 181.497 91.6947ZM172.833 88.4959H172.767C171.634 88.096 170.501 87.6962 169.434 87.3629C169.301 87.2963 169.234 87.163 169.234 87.0297C169.301 86.8964 169.434 86.8298 169.568 86.8298C170.701 87.2297 171.834 87.5629 172.966 87.9627C173.1 88.0294 173.166 88.1627 173.1 88.2959C173.033 88.4292 172.9 88.4959 172.833 88.4959ZM164.036 85.6302H163.97C162.837 85.297 161.704 84.9638 160.571 84.6306C160.438 84.5639 160.371 84.4306 160.371 84.2974C160.438 84.1641 160.571 84.0974 160.704 84.0974C161.837 84.4306 162.97 84.7639 164.103 85.0971C164.236 85.1637 164.303 85.297 164.303 85.4303C164.236 85.5636 164.17 85.6302 164.036 85.6302ZM155.173 83.0311H155.106C153.973 82.6979 152.774 82.4314 151.641 82.1648C151.507 82.0981 151.441 81.9649 151.441 81.8316C151.507 81.6983 151.641 81.6316 151.774 81.6316C152.907 81.8982 154.04 82.2314 155.239 82.498C155.373 82.5646 155.439 82.6979 155.439 82.8312C155.373 82.9645 155.306 83.0311 155.173 83.0311ZM106.39 81.2318C106.323 81.2318 106.19 81.1651 106.123 81.0985C106.057 80.9652 106.123 80.8319 106.257 80.7653C107.256 80.2321 108.323 79.7656 109.589 79.3658C109.722 79.2991 109.855 79.3658 109.922 79.5657C109.989 79.699 109.922 79.8323 109.722 79.8989C108.523 80.2988 107.456 80.7653 106.523 81.2984C106.457 81.2318 106.39 81.2318 106.39 81.2318ZM146.176 80.8986C144.976 80.632 143.777 80.4321 142.644 80.1655C142.511 80.1655 142.377 79.9656 142.444 79.8323C142.444 79.699 142.644 79.5657 142.777 79.6323C143.91 79.8323 145.11 80.0989 146.243 80.3654C146.376 80.3654 146.509 80.5654 146.442 80.6986C146.442 80.8319 146.309 80.8986 146.176 80.8986ZM137.112 79.2325C137.112 79.2325 137.046 79.2325 137.112 79.2325C135.913 79.0326 134.713 78.8993 133.58 78.766C133.447 78.766 133.314 78.6327 133.38 78.4994C133.38 78.3661 133.514 78.2328 133.647 78.2995C134.78 78.4328 135.98 78.6327 137.179 78.766C137.312 78.766 137.446 78.8993 137.379 79.0992C137.312 79.0992 137.246 79.2325 137.112 79.2325ZM115.187 78.5661C115.054 78.5661 114.92 78.4994 114.92 78.3661C114.92 78.2328 114.987 78.0996 115.12 78.0329C116.253 77.8996 117.453 77.7663 118.652 77.6331C118.786 77.6331 118.919 77.7663 118.919 77.8996C118.919 78.0329 118.786 78.1662 118.652 78.1662C117.519 78.2995 116.32 78.3661 115.187 78.5661ZM127.916 78.2328C126.716 78.1662 125.517 78.0996 124.384 78.0996C124.25 78.0996 124.117 77.9663 124.117 77.833C124.117 77.6997 124.184 77.5664 124.384 77.5664C125.517 77.5664 126.716 77.6331 127.916 77.6997C128.049 77.6997 128.182 77.833 128.182 77.9663C128.182 78.0996 128.049 78.2328 127.916 78.2328Z" fill="#0753AC"/>
<path d="M302.321 191.26C302.254 191.26 302.254 191.26 302.188 191.26C302.054 191.194 301.988 191.06 302.054 190.927C302.321 190.394 302.521 189.861 302.721 189.328C302.787 189.194 302.921 189.128 303.054 189.128C303.187 189.194 303.254 189.327 303.254 189.461C303.054 190.061 302.854 190.594 302.521 191.127C302.521 191.193 302.454 191.26 302.321 191.26Z" fill="#0753AC"/>
<path d="M307.786 95.1595C307.653 95.1595 307.586 95.0928 307.519 94.9595C307.386 94.4264 307.253 93.8266 306.986 93.2934C306.92 93.1602 306.986 93.0269 307.12 92.9602C307.253 92.8936 307.386 92.9602 307.453 93.0935C307.653 93.6267 307.853 94.2264 307.986 94.8262C308.053 94.9595 307.986 95.0928 307.786 95.1595Z" fill="#0753AC"/>
<path d="M127.716 187.793C127.583 187.793 127.45 187.66 127.45 187.527C127.45 187.393 127.583 187.26 127.716 187.26C128.849 187.26 130.049 187.193 131.248 187.127C131.382 187.127 131.515 187.26 131.515 187.393C131.515 187.527 131.382 187.66 131.248 187.66C130.049 187.727 128.849 187.727 127.716 187.793ZM122.051 187.727C120.852 187.66 119.652 187.593 118.453 187.527C118.319 187.527 118.186 187.393 118.186 187.26C118.186 187.127 118.319 186.994 118.453 186.994C119.586 187.06 120.785 187.193 121.985 187.193C122.118 187.193 122.251 187.327 122.251 187.46C122.318 187.593 122.185 187.727 122.051 187.727ZM136.913 187.26C136.78 187.26 136.646 187.127 136.646 186.994C136.646 186.86 136.713 186.727 136.913 186.727C138.046 186.66 139.245 186.527 140.445 186.394C140.578 186.394 140.712 186.46 140.712 186.66C140.712 186.794 140.645 186.927 140.445 186.927C139.312 187.06 138.112 187.193 136.913 187.26C136.913 187.26 136.98 187.26 136.913 187.26ZM112.855 186.794C112.855 186.794 112.788 186.794 112.855 186.794C111.589 186.594 110.389 186.327 109.323 186.061C109.189 185.994 109.123 185.861 109.123 185.727C109.189 185.594 109.323 185.527 109.456 185.527C110.522 185.794 111.722 186.061 112.921 186.26C113.055 186.26 113.188 186.394 113.121 186.594C113.055 186.66 112.988 186.794 112.855 186.794ZM146.11 186.26C145.976 186.26 145.843 186.194 145.843 186.061C145.843 185.927 145.91 185.794 146.043 185.794C147.176 185.661 148.376 185.461 149.575 185.261C149.708 185.261 149.842 185.327 149.908 185.461C149.908 185.594 149.842 185.727 149.708 185.794C148.509 185.927 147.309 186.061 146.11 186.26ZM155.24 184.728C155.106 184.728 154.973 184.661 154.973 184.528C154.973 184.394 155.04 184.261 155.173 184.195C156.306 183.995 157.506 183.728 158.639 183.528C158.772 183.528 158.905 183.595 158.972 183.728C158.972 183.861 158.905 183.995 158.772 184.061C157.572 184.328 156.439 184.528 155.24 184.728ZM103.991 184.195C103.925 184.195 103.925 184.195 103.858 184.195C102.725 183.661 101.659 183.062 100.726 182.462C100.592 182.395 100.592 182.195 100.659 182.062C100.726 181.929 100.926 181.929 101.059 181.995C101.992 182.595 102.992 183.195 104.125 183.728C104.258 183.795 104.324 183.928 104.258 184.061C104.191 184.128 104.125 184.195 103.991 184.195ZM164.303 182.928C164.17 182.928 164.103 182.862 164.037 182.728C164.037 182.595 164.103 182.462 164.237 182.395C165.37 182.129 166.502 181.862 167.702 181.595C167.835 181.529 167.969 181.662 168.035 181.795C168.102 181.929 167.969 182.062 167.835 182.129C166.636 182.395 165.503 182.662 164.303 182.928ZM173.3 180.796C173.167 180.796 173.1 180.729 173.033 180.596C172.967 180.463 173.1 180.329 173.233 180.263C174.366 179.996 175.499 179.663 176.699 179.33C176.832 179.263 176.965 179.396 177.032 179.53C177.099 179.663 176.965 179.796 176.832 179.863C175.633 180.196 174.5 180.463 173.3 180.796ZM182.164 178.33C182.03 178.33 181.964 178.263 181.897 178.13C181.83 177.997 181.964 177.863 182.097 177.797C183.23 177.464 184.363 177.13 185.496 176.797C185.629 176.731 185.762 176.864 185.829 176.997C185.896 177.13 185.762 177.264 185.629 177.33C184.496 177.664 183.363 177.997 182.23 178.33C182.23 178.33 182.23 178.33 182.164 178.33ZM191.027 175.664C190.894 175.664 190.827 175.598 190.761 175.464C190.694 175.331 190.761 175.198 190.96 175.131C192.093 174.798 193.226 174.398 194.359 174.065C194.493 173.998 194.626 174.065 194.692 174.265C194.759 174.398 194.692 174.531 194.493 174.598C193.36 174.998 192.227 175.331 191.094 175.664C191.094 175.664 191.027 175.664 191.027 175.664ZM199.757 172.732C199.624 172.732 199.557 172.665 199.491 172.532C199.424 172.399 199.491 172.265 199.624 172.199C200.757 171.799 201.823 171.399 202.956 170.999C203.089 170.933 203.223 170.999 203.289 171.132C203.356 171.266 203.289 171.399 203.156 171.466C202.023 171.866 200.89 172.265 199.824 172.665C199.824 172.732 199.824 172.732 199.757 172.732ZM208.488 169.6C208.354 169.6 208.288 169.533 208.221 169.4C208.154 169.266 208.221 169.133 208.354 169.067C209.487 168.667 210.554 168.2 211.686 167.8C211.82 167.734 211.953 167.8 212.02 167.934C212.086 168.067 212.02 168.2 211.886 168.267C210.753 168.667 209.687 169.133 208.554 169.533C208.554 169.6 208.488 169.6 208.488 169.6ZM217.085 166.268C216.951 166.268 216.885 166.201 216.818 166.134C216.751 166.001 216.818 165.868 216.951 165.801C218.084 165.335 219.15 164.935 220.217 164.468C220.35 164.402 220.483 164.468 220.55 164.601C220.617 164.735 220.55 164.868 220.417 164.935C219.35 165.401 218.217 165.868 217.151 166.268C217.151 166.268 217.085 166.268 217.085 166.268ZM225.615 162.669C225.482 162.669 225.415 162.602 225.348 162.536C225.282 162.402 225.348 162.269 225.482 162.202C226.548 161.736 227.681 161.269 228.747 160.803C228.88 160.736 229.014 160.803 229.08 160.936C229.147 161.069 229.08 161.203 228.947 161.269C227.881 161.736 226.814 162.202 225.682 162.669C225.682 162.669 225.615 162.669 225.615 162.669ZM234.012 158.937C233.879 158.937 233.812 158.87 233.745 158.804C233.679 158.67 233.745 158.537 233.879 158.47C234.945 158.004 236.011 157.471 237.077 156.938C237.211 156.871 237.344 156.938 237.411 157.071C237.477 157.204 237.411 157.337 237.277 157.404C236.211 157.937 235.145 158.404 234.079 158.937C234.079 158.87 234.079 158.937 234.012 158.937ZM242.342 154.938C242.276 154.938 242.142 154.872 242.076 154.805C242.009 154.672 242.076 154.538 242.209 154.472C243.275 153.939 244.342 153.405 245.408 152.872C245.541 152.806 245.674 152.872 245.741 153.006C245.808 153.139 245.741 153.272 245.608 153.339C244.541 153.872 243.475 154.405 242.409 154.938C242.409 154.938 242.409 154.938 242.342 154.938ZM250.606 150.673C250.539 150.673 250.406 150.606 250.339 150.54C250.273 150.406 250.339 150.273 250.473 150.207C251.539 149.673 252.539 149.074 253.605 148.54C253.738 148.474 253.872 148.54 253.938 148.674C254.005 148.807 253.938 148.94 253.805 149.007C252.805 149.54 251.739 150.14 250.673 150.673C250.673 150.673 250.606 150.673 250.606 150.673ZM258.67 146.208C258.603 146.208 258.47 146.141 258.47 146.075C258.403 145.941 258.47 145.808 258.537 145.741C259.603 145.142 260.602 144.542 261.602 143.942C261.735 143.875 261.869 143.942 261.935 144.009C262.002 144.142 261.935 144.275 261.869 144.342C260.869 144.942 259.803 145.542 258.803 146.141C258.736 146.208 258.67 146.208 258.67 146.208ZM266.6 141.476C266.534 141.476 266.4 141.41 266.4 141.343C266.334 141.21 266.334 141.076 266.467 141.01C267.467 140.41 268.466 139.744 269.466 139.144C269.599 139.077 269.733 139.077 269.866 139.21C269.932 139.344 269.932 139.477 269.799 139.61C268.8 140.277 267.8 140.877 266.8 141.476C266.667 141.476 266.667 141.476 266.6 141.476ZM274.331 136.478C274.264 136.478 274.131 136.411 274.131 136.345C274.064 136.212 274.064 136.078 274.198 135.945C275.197 135.279 276.13 134.612 277.13 133.946C277.263 133.879 277.397 133.879 277.53 134.012C277.596 134.146 277.596 134.279 277.463 134.412C276.53 135.079 275.531 135.745 274.531 136.411C274.464 136.478 274.398 136.478 274.331 136.478ZM281.862 131.08C281.795 131.08 281.728 131.013 281.662 130.947C281.595 130.813 281.595 130.68 281.728 130.547C282.661 129.814 283.594 129.081 284.527 128.414C284.661 128.348 284.794 128.348 284.927 128.481C284.994 128.614 284.994 128.747 284.861 128.881C283.928 129.614 282.995 130.347 282.062 131.08C281.995 131.08 281.928 131.08 281.862 131.08ZM289.059 125.349C288.992 125.349 288.926 125.349 288.859 125.282C288.793 125.149 288.793 125.015 288.859 124.882C289.792 124.082 290.659 123.283 291.525 122.55C291.658 122.483 291.791 122.483 291.925 122.55C291.991 122.683 291.991 122.816 291.925 122.95C291.058 123.749 290.192 124.482 289.259 125.282C289.192 125.282 289.126 125.349 289.059 125.349ZM295.857 119.084C295.79 119.084 295.723 119.084 295.657 119.018C295.523 118.884 295.523 118.751 295.657 118.618C296.523 117.751 297.323 116.885 298.123 116.019C298.189 115.885 298.389 115.885 298.522 116.019C298.656 116.085 298.656 116.285 298.522 116.419C297.723 117.285 296.923 118.151 296.057 119.018C295.99 119.018 295.923 119.084 295.857 119.084ZM301.921 112.087C301.855 112.087 301.788 112.087 301.788 112.02C301.655 111.953 301.655 111.754 301.721 111.62C302.454 110.621 303.121 109.688 303.721 108.755C303.787 108.621 303.987 108.621 304.12 108.688C304.254 108.755 304.254 108.954 304.187 109.088C303.587 110.021 302.921 111.02 302.121 112.02C302.054 112.087 301.988 112.087 301.921 112.087ZM306.586 104.156C306.52 104.156 306.52 104.156 306.453 104.156C306.32 104.09 306.253 103.956 306.32 103.823C306.786 102.69 307.119 101.557 307.386 100.491C307.386 100.358 307.586 100.291 307.719 100.291C307.852 100.291 307.986 100.491 307.919 100.624C307.652 101.757 307.319 102.89 306.853 104.023C306.786 104.09 306.719 104.156 306.586 104.156Z" fill="#0753AC"/>
<path d="M96.9938 178.396C96.9272 178.396 96.7939 178.329 96.7939 178.263C96.4607 177.729 96.1941 177.196 95.9942 176.663C95.9275 176.53 95.9942 176.397 96.1275 176.33C96.2607 176.263 96.394 176.33 96.4607 176.463C96.6606 176.996 96.9272 177.53 97.1937 177.996C97.2604 178.129 97.2604 178.263 97.1271 178.329C97.0605 178.396 96.9938 178.396 96.9938 178.396Z" fill="#0753AC"/>
<path d="M177.298 248.372C176.632 248.239 176.099 248.039 175.499 247.772C175.366 247.706 175.299 247.572 175.366 247.439C175.432 247.306 175.566 247.239 175.699 247.306C176.232 247.506 176.765 247.706 177.298 247.839C177.432 247.905 177.498 248.039 177.498 248.172C177.565 248.305 177.432 248.372 177.298 248.372Z" fill="#0753AC"/>
<path d="M171.101 244.44C171.034 244.44 170.967 244.44 170.901 244.373C170.168 243.507 169.435 242.574 168.768 241.508C168.702 241.375 168.702 241.241 168.835 241.175C168.968 241.108 169.101 241.108 169.168 241.241C169.835 242.308 170.501 243.241 171.234 244.04C171.301 244.174 171.301 244.307 171.234 244.44C171.234 244.44 171.167 244.44 171.101 244.44ZM166.502 236.51C166.369 236.51 166.302 236.443 166.236 236.31C165.836 235.243 165.436 234.11 165.036 232.911C164.97 232.778 165.103 232.644 165.236 232.578C165.369 232.511 165.503 232.644 165.569 232.778C165.903 233.977 166.302 235.043 166.769 236.11C166.836 236.243 166.769 236.376 166.636 236.443C166.569 236.51 166.502 236.51 166.502 236.51ZM163.903 227.646C163.77 227.646 163.703 227.579 163.637 227.446C163.37 226.313 163.17 225.114 162.97 223.914C162.97 223.781 163.037 223.647 163.17 223.581C163.303 223.581 163.437 223.647 163.503 223.781C163.703 224.98 163.903 226.113 164.17 227.246C164.17 227.446 164.103 227.646 163.903 227.646ZM162.437 218.516C162.304 218.516 162.171 218.383 162.171 218.249L162.104 217.783C161.971 216.783 161.904 215.717 161.837 214.651C161.837 214.517 161.904 214.384 162.104 214.384C162.237 214.384 162.37 214.451 162.37 214.651C162.437 215.717 162.57 216.717 162.637 217.716L162.704 218.183C162.704 218.383 162.637 218.516 162.437 218.516ZM161.771 209.319C161.637 209.319 161.504 209.186 161.504 209.053C161.437 207.92 161.437 206.72 161.371 205.521C161.371 205.387 161.504 205.254 161.637 205.254C161.771 205.254 161.904 205.387 161.904 205.521C161.904 206.72 161.971 207.92 162.037 209.053C162.037 209.186 161.904 209.319 161.771 209.319ZM161.637 200.122C161.504 200.122 161.371 199.989 161.371 199.856C161.371 198.656 161.437 197.523 161.437 196.324C161.437 196.191 161.504 196.057 161.704 196.057C161.837 196.057 161.971 196.191 161.971 196.324C161.904 197.523 161.904 198.723 161.904 199.856C161.904 199.989 161.771 200.122 161.637 200.122ZM161.904 190.859C161.771 190.859 161.637 190.726 161.637 190.592C161.704 189.393 161.771 188.26 161.837 187.06C161.837 186.927 161.971 186.794 162.104 186.794C162.237 186.794 162.37 186.927 162.37 187.06C162.304 188.26 162.237 189.46 162.171 190.592C162.171 190.726 162.104 190.859 161.904 190.859ZM162.637 181.662C162.57 181.662 162.57 181.662 162.637 181.662C162.437 181.662 162.37 181.529 162.37 181.396C162.504 180.196 162.57 179.063 162.704 177.864C162.704 177.73 162.837 177.597 162.97 177.597C163.104 177.597 163.237 177.73 163.237 177.864C163.104 179.063 162.97 180.196 162.904 181.396C162.837 181.529 162.77 181.662 162.637 181.662ZM163.637 172.466C163.57 172.466 163.57 172.466 163.637 172.466C163.437 172.466 163.37 172.332 163.37 172.199C163.503 170.999 163.637 169.866 163.837 168.667C163.837 168.534 163.97 168.4 164.103 168.467C164.237 168.467 164.37 168.6 164.303 168.734C164.17 169.933 163.97 171.066 163.837 172.266C163.837 172.332 163.703 172.466 163.637 172.466ZM164.903 163.335C164.836 163.335 164.836 163.335 164.903 163.335C164.703 163.335 164.636 163.202 164.636 163.002C164.836 161.869 165.036 160.67 165.17 159.47C165.17 159.337 165.303 159.204 165.503 159.27C165.636 159.27 165.769 159.404 165.703 159.603C165.503 160.803 165.303 161.936 165.17 163.136C165.103 163.202 165.036 163.335 164.903 163.335ZM166.436 154.205C166.369 154.205 166.369 154.205 166.436 154.205C166.236 154.205 166.169 154.005 166.169 153.872C166.369 152.739 166.569 151.54 166.836 150.407C166.836 150.273 167.036 150.14 167.169 150.207C167.302 150.207 167.435 150.407 167.369 150.54C167.169 151.74 166.902 152.873 166.702 154.005C166.636 154.139 166.569 154.205 166.436 154.205ZM168.168 145.142C167.969 145.075 167.902 144.942 167.902 144.809C168.168 143.676 168.368 142.476 168.635 141.343C168.635 141.21 168.835 141.143 168.968 141.143C169.101 141.143 169.235 141.343 169.168 141.477C168.902 142.609 168.635 143.809 168.435 144.942C168.435 145.075 168.302 145.142 168.168 145.142ZM170.234 136.145C170.168 136.145 170.168 136.145 170.234 136.145C170.034 136.078 169.968 135.945 169.968 135.812C170.234 134.679 170.501 133.479 170.768 132.346C170.834 132.213 170.967 132.147 171.101 132.147C171.234 132.213 171.301 132.346 171.301 132.48C171.034 133.613 170.768 134.812 170.501 135.945C170.434 136.012 170.301 136.145 170.234 136.145ZM172.434 127.148H172.367C172.234 127.082 172.167 126.948 172.167 126.815C172.5 125.682 172.767 124.549 173.1 123.35C173.167 123.216 173.3 123.15 173.433 123.15C173.567 123.216 173.633 123.35 173.633 123.483C173.3 124.616 173.033 125.749 172.7 126.882C172.7 127.082 172.567 127.148 172.434 127.148ZM174.899 118.285H174.833C174.699 118.218 174.633 118.085 174.633 117.952C174.966 116.819 175.299 115.686 175.632 114.553C175.699 114.419 175.832 114.353 175.966 114.353C176.099 114.419 176.166 114.553 176.166 114.686C175.832 115.819 175.499 116.952 175.166 118.085C175.099 118.151 175.033 118.285 174.899 118.285ZM177.565 109.421H177.498C177.365 109.355 177.299 109.221 177.299 109.088C177.632 107.955 178.032 106.822 178.365 105.689C178.431 105.556 178.565 105.489 178.698 105.489C178.831 105.556 178.898 105.689 178.898 105.822C178.498 106.955 178.165 108.088 177.832 109.221C177.765 109.355 177.698 109.421 177.565 109.421ZM180.497 100.624H180.431C180.297 100.558 180.231 100.424 180.297 100.291C180.697 99.1582 181.097 98.0252 181.497 96.9589C181.564 96.8257 181.697 96.759 181.83 96.8257C181.964 96.8923 182.03 97.0256 181.964 97.1589C181.564 98.2918 181.164 99.3581 180.764 100.491C180.697 100.558 180.564 100.624 180.497 100.624ZM183.63 91.9607H183.563C183.43 91.8941 183.363 91.7608 183.43 91.6275C183.83 90.4946 184.296 89.4283 184.696 88.2953C184.763 88.1621 184.896 88.0954 185.029 88.1621C185.162 88.2287 185.229 88.362 185.162 88.4953C184.763 89.5616 184.296 90.6945 183.896 91.8274C183.83 91.8941 183.763 91.9607 183.63 91.9607ZM187.028 83.3638C186.962 83.3638 186.962 83.3638 186.895 83.3638C186.762 83.2971 186.695 83.1638 186.762 83.0305C187.228 81.8976 187.695 80.8313 188.161 79.765C188.228 79.6317 188.361 79.5651 188.495 79.6317C188.628 79.6984 188.695 79.8317 188.628 79.965C188.161 81.0312 187.695 82.1642 187.228 83.2305C187.228 83.2971 187.162 83.3638 187.028 83.3638ZM190.694 74.9001C190.627 74.9001 190.627 74.9001 190.561 74.9001C190.427 74.8334 190.361 74.7002 190.427 74.5669C190.894 73.5006 191.427 72.4343 191.96 71.368C192.027 71.2347 192.16 71.1681 192.293 71.2347C192.427 71.3014 192.493 71.4346 192.427 71.5679C191.893 72.6342 191.427 73.7005 190.96 74.7668C190.894 74.8334 190.827 74.9001 190.694 74.9001ZM194.692 66.5697C194.626 66.5697 194.626 66.5697 194.559 66.5697C194.426 66.5031 194.359 66.3698 194.426 66.2365C194.959 65.1702 195.492 64.1039 196.092 63.1043C196.159 62.971 196.292 62.9043 196.425 62.971C196.558 63.0376 196.625 63.1709 196.558 63.3042C196.025 64.3038 195.492 65.3701 194.959 66.4364C194.892 66.5031 194.826 66.5697 194.692 66.5697ZM199.091 58.4392C199.024 58.4392 199.024 58.4392 198.958 58.3726C198.824 58.306 198.758 58.106 198.891 58.0394L199.424 57.173C199.824 56.4399 200.29 55.7069 200.69 54.9738C200.757 54.8405 200.957 54.7739 201.023 54.9072C201.157 54.9738 201.223 55.1737 201.09 55.2404C200.69 55.9734 200.224 56.7065 199.824 57.4396L199.291 58.306C199.291 58.3726 199.157 58.4392 199.091 58.4392ZM203.889 50.5754C203.822 50.5754 203.756 50.5754 203.756 50.5087C203.623 50.4421 203.623 50.2421 203.689 50.1089C204.356 49.1092 205.022 48.1096 205.689 47.1766C205.755 47.0433 205.955 47.0433 206.088 47.1099C206.222 47.1766 206.222 47.3765 206.155 47.5098C205.489 48.4428 204.822 49.4424 204.156 50.4421C204.089 50.5087 203.956 50.5754 203.889 50.5754ZM209.221 43.0447C209.154 43.0447 209.087 43.0447 209.087 42.978C208.954 42.9114 208.954 42.7115 209.021 42.5782C209.754 41.6452 210.553 40.7122 211.287 39.8458C211.353 39.7125 211.553 39.7125 211.686 39.8458C211.82 39.9125 211.82 40.1124 211.686 40.2457C210.953 41.112 210.22 42.045 209.421 42.978C209.421 42.978 209.354 43.0447 209.221 43.0447ZM215.352 36.1138C215.285 36.1138 215.218 36.1138 215.152 36.0472C215.019 35.9139 215.019 35.7806 215.152 35.6473C216.018 34.7809 216.951 33.9812 217.818 33.2482C217.951 33.1815 218.084 33.1815 218.217 33.3148C218.284 33.4481 218.284 33.5814 218.151 33.7147C217.284 34.4477 216.418 35.2474 215.552 36.1138C215.485 36.1138 215.418 36.1138 215.352 36.1138ZM222.683 30.4491C222.616 30.4491 222.483 30.3825 222.483 30.3159C222.416 30.1826 222.483 30.0493 222.549 29.9826C223.682 29.3829 224.748 28.8497 225.815 28.4499C225.948 28.3832 226.081 28.4499 226.148 28.5831C226.215 28.7164 226.148 28.8497 226.015 28.9164C225.015 29.3162 223.949 29.7827 222.816 30.3825C222.749 30.4491 222.683 30.4491 222.683 30.4491Z" fill="#0753AC"/>
<path d="M233.212 28.4501C233.212 28.4501 233.145 28.4501 233.212 28.4501C232.612 28.3168 232.012 28.1835 231.413 28.1835C231.279 28.1835 231.146 28.0503 231.146 27.917C231.146 27.7837 231.279 27.6504 231.413 27.6504C232.012 27.717 232.612 27.7837 233.212 27.9836C233.345 28.0502 233.412 28.1835 233.412 28.3168C233.479 28.3835 233.345 28.4501 233.212 28.4501Z" fill="#0753AC"/>
<path d="M166.103 183.062C166.103 185.061 164.504 186.66 162.504 186.66C160.505 186.66 158.906 185.061 158.906 183.062C158.906 181.062 160.505 179.463 162.504 179.463C164.437 179.463 166.103 181.062 166.103 183.062Z" fill="#FF9852"/>
<path d="M268.6 143.942C270.588 143.942 272.199 142.331 272.199 140.343C272.199 138.356 270.588 136.745 268.6 136.745C266.613 136.745 265.002 138.356 265.002 140.343C265.002 142.331 266.613 143.942 268.6 143.942Z" fill="#FFB265"/>
<path d="M308.053 103.09C310.04 103.09 311.652 101.478 311.652 99.4909C311.652 97.5034 310.04 95.8922 308.053 95.8922C306.065 95.8922 304.454 97.5034 304.454 99.4909C304.454 101.478 306.065 103.09 308.053 103.09Z" fill="#FF9852"/>
<path d="M108.323 81.3647C108.323 83.364 106.724 84.9634 104.725 84.9634C102.725 84.9634 101.126 83.364 101.126 81.3647C101.126 79.3654 102.725 77.766 104.725 77.766C106.724 77.766 108.323 79.3654 108.323 81.3647Z" fill="#FF9852"/>
<path d="M185.163 92.8268C185.163 93.8931 184.297 94.7595 183.23 94.7595C182.164 94.7595 181.298 93.8931 181.298 92.8268C181.298 91.7605 182.164 90.8942 183.23 90.8942C184.297 90.8942 185.163 91.7605 185.163 92.8268Z" fill="#FFB265"/>
<path d="M304.321 187.327C305.388 187.327 306.254 186.462 306.254 185.394C306.254 184.327 305.388 183.462 304.321 183.462C303.254 183.462 302.388 184.327 302.388 185.394C302.388 186.462 303.254 187.327 304.321 187.327Z" fill="#FF9852"/>
<path d="M179.232 248.105C179.232 249.171 178.366 250.038 177.299 250.038C176.233 250.038 175.367 249.171 175.367 248.105C175.367 247.039 176.233 246.172 177.299 246.172C178.366 246.239 179.232 247.039 179.232 248.105Z" fill="#FFB265"/>
<path d="M98.7271 178.529C98.7271 179.595 97.8607 180.462 96.7944 180.462C95.7281 180.462 94.8618 179.595 94.8618 178.529C94.8618 177.463 95.7281 176.596 96.7944 176.596C97.8607 176.663 98.7271 177.529 98.7271 178.529Z" fill="#FFB265"/>
<path d="M235.145 28.1826C235.145 29.2489 234.279 30.1153 233.213 30.1153C232.146 30.1153 231.28 29.2489 231.28 28.1826C231.28 27.1164 232.146 26.25 233.213 26.25C234.279 26.25 235.145 27.1164 235.145 28.1826Z" fill="#FF9852"/>
<path d="M265.536 212.917C261.67 212.917 261.67 218.982 265.536 218.982C269.401 218.915 269.401 212.917 265.536 212.917Z" fill="#689CDA"/>
<path d="M274.866 208.119C272.4 205.453 268.735 203.787 265.069 203.921C261.404 203.987 257.805 205.653 255.473 208.519C254.606 209.519 254.473 210.985 255.473 211.918C256.339 212.784 258.072 212.917 258.871 211.918C259.271 211.385 259.738 210.918 260.271 210.518C260.338 210.452 260.404 210.452 260.404 210.385C260.604 210.252 260.737 210.118 260.937 210.052C261.204 209.852 261.537 209.718 261.804 209.585C262.137 209.385 262.67 209.185 263.336 209.052C263.67 208.985 264.003 208.919 264.336 208.852C264.336 208.852 264.403 208.852 264.469 208.852C264.669 208.852 264.869 208.852 265.069 208.785C265.402 208.785 265.736 208.785 266.069 208.785C266.135 208.785 266.202 208.785 266.269 208.785C266.402 208.785 266.535 208.852 266.669 208.852C267.268 208.985 267.935 209.185 268.535 209.385C268.601 209.385 268.668 209.452 268.735 209.452C268.868 209.519 269.068 209.585 269.201 209.652C269.534 209.852 269.867 210.052 270.134 210.252C270.134 210.252 270.334 210.385 270.401 210.452C270.467 210.518 270.601 210.651 270.667 210.651C270.934 210.918 271.2 211.185 271.467 211.451C272.333 212.384 273.999 212.318 274.866 211.451C275.865 210.585 275.799 209.119 274.866 208.119Z" fill="#689CDA"/>
<path d="M280.064 200.855C275.799 197.39 270.467 195.324 264.869 195.457C259.338 195.59 254.073 197.789 249.941 201.455C247.609 203.521 251.074 206.92 253.34 204.854C259.804 199.056 269.867 198.722 276.598 204.254C277.598 205.053 278.998 205.253 279.997 204.254C280.93 203.454 281.13 201.721 280.064 200.855Z" fill="#689CDA"/>
<path d="M258.471 169.999L229.415 155.337L238.012 186.726L243.543 176.596L251.407 186.126L255.206 182.994L247.408 173.464L258.471 169.999Z" fill="#FFFFFE"/>
<path d="M106.058 109.153C101.726 111.419 105.192 118.15 109.524 115.951C113.922 113.685 110.39 106.887 106.058 109.153Z" fill="#689CDA"/>
<path d="M113.122 95.7576C108.791 98.0234 112.256 104.754 116.588 102.555C120.986 100.289 117.521 93.4917 113.122 95.7576Z" fill="#689CDA"/>
<path d="M108.19 113.352C107.924 113.485 107.591 113.485 107.324 113.352C106.858 113.085 106.724 112.552 106.924 112.085L114.055 98.6901C114.322 98.2236 114.855 98.0904 115.321 98.2903C115.788 98.5569 115.921 99.09 115.721 99.5565L108.59 112.952C108.524 113.152 108.39 113.218 108.19 113.352Z" fill="#689CDA"/>
<path d="M124.585 117.884C120.253 120.15 116.721 113.352 121.119 111.086C125.451 108.887 128.917 115.618 124.585 117.884Z" fill="#689CDA"/>
<path d="M123.252 115.284C123.119 115.351 122.919 115.417 122.719 115.351L107.658 113.351C107.124 113.285 106.791 112.818 106.858 112.352C106.925 111.818 107.391 111.485 107.858 111.552L122.919 113.551C123.452 113.618 123.785 114.084 123.719 114.551C123.719 114.951 123.519 115.151 123.252 115.284Z" fill="#689CDA"/>
<path d="M308.054 234.177C305.188 234.177 302.456 233.31 300.057 231.577C297.124 229.445 295.125 226.246 294.592 222.647C293.392 215.183 298.457 208.186 305.921 206.986C313.385 205.787 320.383 210.851 321.582 218.315C322.182 221.914 321.316 225.513 319.183 228.512C317.051 231.444 313.852 233.443 310.253 233.977C309.52 234.11 308.787 234.177 308.054 234.177ZM308.054 208.852C307.454 208.852 306.854 208.919 306.188 208.985C299.857 209.985 295.525 215.983 296.524 222.381C296.991 225.446 298.657 228.179 301.189 229.978C303.722 231.777 306.787 232.51 309.853 232.044C316.184 231.044 320.516 225.046 319.516 218.649C318.65 212.917 313.718 208.852 308.054 208.852Z" fill="#80B4F1"/>
<path d="M309.786 234.043C308.187 234.043 306.587 232.777 305.254 230.378C303.922 228.045 302.855 224.846 302.322 221.381C301.256 214.85 302.189 207.586 305.921 206.986C307.654 206.72 309.453 207.986 310.919 210.585C312.252 212.917 313.318 216.116 313.851 219.515C314.385 222.98 314.385 226.313 313.851 228.978C313.252 231.911 311.919 233.71 310.253 233.977C310.053 234.043 309.919 234.043 309.786 234.043ZM306.387 208.985C306.321 208.985 306.321 208.985 306.254 208.985C304.655 209.252 303.122 213.984 304.255 221.114C304.788 224.313 305.721 227.246 306.987 229.378C307.987 231.111 309.12 232.177 309.919 232.044C310.719 231.911 311.519 230.578 311.919 228.645C312.452 226.246 312.385 223.18 311.919 219.915C311.386 216.716 310.453 213.784 309.186 211.651C308.253 209.985 307.187 208.985 306.387 208.985Z" fill="#80B4F1"/>
<path d="M303.989 226.712C299.19 226.712 294.992 225.513 294.525 222.647C294.259 220.914 295.525 219.115 298.124 217.649C300.456 216.316 303.655 215.25 307.054 214.717C313.585 213.65 320.849 214.583 321.449 218.315C321.716 220.048 320.449 221.847 317.85 223.313C315.518 224.646 312.319 225.713 308.92 226.246C307.321 226.579 305.655 226.712 303.989 226.712ZM312.186 216.316C310.786 216.316 309.187 216.449 307.454 216.716C304.255 217.249 301.323 218.182 299.19 219.448C297.457 220.448 296.458 221.581 296.524 222.38C296.791 223.98 301.523 225.513 308.654 224.38C311.852 223.847 314.785 222.914 316.917 221.647C318.65 220.648 319.65 219.515 319.583 218.715C319.383 217.449 316.651 216.316 312.186 216.316Z" fill="#80B4F1"/>
<path d="M120.587 212.184C120.587 211.984 120.653 211.717 120.653 211.517C120.653 204.92 115.322 199.588 108.724 199.588C103.526 199.588 99.061 202.921 97.4615 207.652C96.5285 206.852 95.3289 206.319 93.9961 206.319C91.1304 206.319 88.7313 208.652 88.7313 211.584V211.651C84.4661 212.117 81.134 215.716 81.134 220.181C81.134 224.913 84.9326 228.711 89.6643 228.711H117.255C121.986 228.711 125.785 224.913 125.785 220.181C125.785 216.516 123.652 213.45 120.587 212.184Z" fill="#FFFFFE"/>
<path d="M108.658 218.583V209.786H99.861V218.583H97.995L104.259 225.447L110.591 218.583H108.658Z" fill="#FFB265"/>
<path d="M178.033 139.744C173.701 132.946 165.104 128.548 154.441 127.681C148.776 127.215 143.045 127.681 137.447 128.081C133.915 128.348 130.316 128.614 126.718 128.681C115.255 128.814 106.391 126.282 100.46 121.017C96.6616 117.685 93.7959 113.086 92.1298 107.622C90.9969 103.89 90.7303 100.691 91.2635 97.7585C91.5967 96.0258 92.2631 94.3597 93.1961 92.9602C92.9962 92.4271 92.8629 91.8939 92.663 91.4274C88.4645 77.6323 91.8633 61.7046 101.46 50.9084L101.926 51.3749C92.5297 62.0378 89.1309 77.6323 93.2628 91.2275C93.3961 91.5607 93.4627 91.8939 93.596 92.2938C94.4623 91.1609 95.5286 90.2279 96.6616 89.6281C99.7938 87.8954 103.859 88.2952 106.192 90.6277C107.458 91.8939 108.124 93.7599 108.058 95.626C107.991 97.3587 107.258 98.8248 106.058 99.8245C103.459 101.957 99.5939 101.157 97.2613 99.2913C95.3953 97.7585 94.1958 95.6926 93.4627 93.7599C92.7296 94.9595 92.1965 96.359 91.8633 97.8918C91.3301 100.691 91.5967 103.823 92.7296 107.422C94.3291 112.753 97.1947 117.218 100.86 120.484C106.725 125.615 115.388 128.148 126.718 128.014C130.25 127.948 133.915 127.681 137.38 127.415C142.979 127.015 148.776 126.548 154.441 127.015C165.371 127.881 174.101 132.413 178.499 139.41L178.033 139.744ZM93.9292 93.0935C94.6623 95.0928 95.8618 97.292 97.7278 98.8248C99.7938 100.491 103.326 101.291 105.658 99.358C106.725 98.4916 107.324 97.1587 107.458 95.626C107.524 93.8932 106.925 92.2272 105.792 91.1609C103.659 89.0949 99.9271 88.6951 97.0614 90.2279C95.7952 90.9609 94.7289 91.8939 93.9292 93.0935Z" fill="#0753AC"/>
<path d="M104.925 27.7832C111.723 20.0526 120.453 18.9864 125.851 23.7847C131.249 28.583 131.316 37.3132 124.452 45.0438C123.985 45.5769 122.052 47.7095 120.586 49.309C120.32 49.6422 119.986 49.9087 119.787 50.1753C119.453 50.5085 119.253 50.7751 119.053 50.9084C112.589 56.773 106.858 55.84 101.86 52.3745C101.593 52.1746 101.326 51.9747 101.126 51.7747C100.86 51.5748 100.66 51.3082 100.46 51.1083C96.3948 46.5099 94.7287 40.9786 99.7936 33.8478C99.9269 33.7145 100.127 33.3813 100.393 33.048C100.593 32.7815 100.86 32.4483 101.126 32.115C102.526 30.5156 104.459 28.3164 104.925 27.7832Z" fill="#80B4F1"/>
<path d="M110.916 39.8794L100.728 51.4207L101.577 52.1704L111.765 40.6291L110.916 39.8794Z" fill="#0753AC"/>
<path d="M108.591 41.9116L109.99 43.1778C110.323 43.4444 110.39 43.9775 110.057 44.3107L106.991 47.7762C106.725 48.1094 106.191 48.176 105.858 47.8428L104.459 46.5766C104.126 46.31 104.059 45.7769 104.392 45.4437L107.458 41.9782C107.791 41.645 108.257 41.5784 108.591 41.9116Z" fill="#FFB265"/>
<path d="M101.193 32.182C104.992 34.3812 108.524 36.9803 111.723 39.846C114.988 42.7116 117.921 45.9105 120.586 49.3759C120.32 49.7091 119.986 49.9757 119.787 50.2423C114.455 43.2448 107.991 37.5134 100.393 33.115C100.66 32.7818 100.927 32.5152 101.193 32.182Z" fill="#0753AC"/>
<path d="M301.722 19.4934L282.307 0.0786133L271.374 11.0112L290.789 30.426L301.722 19.4934Z" fill="#FFFFFE"/>
<path d="M289.636 10.1887L282.662 3.21448L274.415 11.4611L281.389 18.4353L289.636 10.1887Z" fill="#FFB265"/>
<path d="M298.474 18.9404L291.5 11.9662L283.253 20.2128L290.227 27.187L298.474 18.9404Z" fill="#FFB265"/>
<path d="M297.788 37.4722L317.203 56.887L328.135 45.9544L308.72 26.5396L297.788 37.4722Z" fill="#FFFFFE"/>
<path d="M309.828 46.8264L316.802 53.8007L325.049 45.5541L318.075 38.5798L309.828 46.8264Z" fill="#FFB265"/>
<path d="M301.036 38.0445L308.01 45.0188L316.256 36.7722L309.282 29.798L301.036 38.0445Z" fill="#FFB265"/>
<path d="M307.32 38.0456C304.254 41.1112 299.522 38.1789 294.791 33.4472C290.059 28.7156 287.127 23.9839 290.192 20.9183C293.258 17.8527 301.122 17.6528 305.853 22.3845C310.585 27.1161 310.385 34.98 307.32 38.0456Z" fill="#0753AC"/>
<path d="M306.432 45.4914C309.998 41.926 307.593 33.74 301.06 27.2076C294.528 20.6752 286.342 18.27 282.776 21.8355C279.211 25.401 281.616 33.587 288.149 40.1194C294.681 46.6518 302.867 49.0569 306.432 45.4914Z" fill="#FFFFFE"/>
<path d="M305.491 44.549C308.536 41.504 306.13 34.162 300.119 28.1501C294.107 22.1382 286.765 19.733 283.72 22.778C280.675 25.823 283.08 33.165 289.092 39.1769C295.104 45.1888 302.446 47.594 305.491 44.549Z" fill="#80B4F1"/>
<path d="M285.726 44.9772C287.088 44.9772 288.192 43.8733 288.192 42.5115C288.192 41.1496 287.088 40.0457 285.726 40.0457C284.365 40.0457 283.261 41.1496 283.261 42.5115C283.261 43.8733 284.365 44.9772 285.726 44.9772Z" fill="#0753AC"/>
<path d="M285.393 42.1775L294.057 32.7142C294.457 32.3143 295.123 32.2477 295.523 32.6476C295.923 33.0474 295.99 33.7138 295.59 34.1137L295.523 34.1803L286.06 42.8439C285.86 43.0439 285.593 42.9772 285.393 42.8439C285.26 42.644 285.26 42.3774 285.393 42.1775Z" fill="#0753AC"/>
<path d="M301.322 84.8284C306.72 79.4303 298.257 62.0365 282.329 46.1754C266.468 30.3143 249.141 21.784 243.676 27.1821C242.743 28.1151 242.21 29.448 242.076 31.0474C231.68 25.6493 223.15 24.3165 219.151 28.2484C216.752 30.6476 216.219 34.6461 217.485 39.9776C203.957 32.9134 192.894 31.1141 187.762 36.2456C183.097 40.9106 184.23 50.5738 189.762 62.503C189.895 62.503 190.095 62.4363 190.228 62.4363C184.697 50.7071 183.497 41.2438 188.096 36.6454C190.028 34.7128 192.827 33.8464 196.226 33.8464C201.824 33.8464 209.221 36.2456 217.552 40.644C218.285 43.443 219.484 46.5753 221.217 50.0407C224.016 55.6387 227.881 61.7032 232.68 67.7678C233.013 67.901 233.346 68.101 233.746 68.2343C228.748 61.9032 224.616 55.6387 221.75 49.7741C220.151 46.5753 219.018 43.643 218.285 40.9772C230.214 47.375 244.076 57.8379 257.338 71.1666C270.6 84.4285 281.063 98.2903 287.527 110.219C284.861 109.486 281.929 108.353 278.73 106.754C275.598 105.221 272.266 103.289 268.934 101.023C269.134 101.356 269.267 101.622 269.467 101.956C276.264 106.354 282.595 109.42 287.86 110.819C294.991 124.281 296.924 135.344 291.859 140.409C288.993 143.274 284.195 143.941 277.864 142.541C277.864 142.741 277.864 142.875 277.797 143.074C279.93 143.541 281.929 143.808 283.662 143.808C287.327 143.808 290.193 142.808 292.192 140.809C297.324 135.677 295.458 124.548 288.393 111.019C290.259 111.486 291.992 111.686 293.592 111.686C296.391 111.686 298.59 110.952 300.189 109.42C304.188 105.421 302.788 96.8908 297.39 86.4945C299.056 86.2945 300.389 85.7614 301.322 84.8284ZM244.076 27.582C245.142 26.5157 246.608 26.0492 248.474 26.0492C256.005 26.0492 269.4 33.9797 281.929 46.5753C297.59 62.2364 306.12 79.2304 300.922 84.4952C299.989 85.4282 298.723 85.8947 297.19 86.028C292.192 76.5647 283.995 65.6352 273.465 55.1056C262.936 44.576 252.006 36.3789 242.543 31.3806C242.676 29.7146 243.209 28.4483 244.076 27.582ZM273.132 55.3721C283.528 65.7685 291.726 76.6313 296.657 85.9613C289.193 86.0946 275.665 78.0974 263.069 65.4352C255.472 57.8379 249.274 49.6408 245.675 42.4434C243.543 38.1782 242.543 34.5795 242.543 31.8471C251.873 36.8454 262.736 44.9758 273.132 55.3721ZM299.856 108.953C297.523 111.286 293.525 111.752 288.193 110.353C281.796 98.2237 271.199 84.2286 257.804 70.7667C244.342 57.3048 230.347 46.7752 218.218 40.3108C216.885 34.9794 217.285 30.9808 219.618 28.6483C221.084 27.1821 223.216 26.449 225.882 26.449C230.147 26.449 235.745 28.2484 242.076 31.5806C241.943 34.4462 243.009 38.2449 245.275 42.71C248.874 49.9741 255.072 58.1712 262.736 65.8351C275.398 78.4973 288.927 86.4278 296.657 86.4278C296.724 86.4278 296.857 86.4278 296.924 86.4278C302.322 96.6909 303.721 105.088 299.856 108.953Z" fill="#FFFFFE"/>
<path d="M295.324 141.076C294.591 141.076 293.858 140.809 293.325 140.276L261.203 108.154C260.07 107.021 260.07 105.288 261.203 104.155C262.336 103.022 264.069 103.022 265.201 104.155L297.323 136.277C298.456 137.41 298.456 139.143 297.323 140.276C296.79 140.742 296.057 141.076 295.324 141.076Z" fill="#0753AC"/>
<path d="M295.324 142.608C294.192 142.608 293.059 142.208 292.192 141.342L274.598 123.748C272.866 122.016 272.866 119.217 274.598 117.551C276.331 115.818 279.13 115.818 280.796 117.551L298.39 135.144C300.123 136.877 300.123 139.676 298.39 141.342C297.59 142.208 296.457 142.608 295.324 142.608Z" fill="#FFB265"/>
<path opacity="0.3" d="M270.066 89.6273C270.066 102.489 259.67 112.886 246.808 112.886C245.941 112.886 245.075 112.819 244.209 112.752C242.409 112.553 240.677 112.153 239.077 111.553C237.344 110.953 235.745 110.153 234.212 109.154C231.613 107.488 229.414 105.355 227.614 102.756C225.015 99.024 223.483 94.4256 223.483 89.5607C223.483 76.8985 233.612 66.5688 246.208 66.3022C246.408 66.3022 246.541 66.3022 246.741 66.3022C249.74 66.3022 252.606 66.8354 255.205 67.9017C256.871 68.5681 258.47 69.4345 259.936 70.4341C261.403 71.4338 262.735 72.6333 263.935 73.8996C267.734 78.0981 270.066 83.5628 270.066 89.6273Z" fill="#80B4F1"/>
<g opacity="0.5">
<path d="M255.271 67.9683L234.212 109.22C231.613 107.554 229.414 105.422 227.614 102.823L246.274 66.3689C246.474 66.3689 246.608 66.3689 246.807 66.3689C249.74 66.3689 252.605 66.902 255.271 67.9683Z" fill="white"/>
<path d="M264.001 73.9656L244.208 112.752C242.409 112.552 240.676 112.152 239.077 111.552L260.069 70.4335C261.469 71.4998 262.802 72.6327 264.001 73.9656Z" fill="white"/>
</g>
<path d="M246.741 115.752C232.346 115.752 220.617 104.022 220.617 89.6275C220.617 75.2326 232.346 63.5034 246.741 63.5034C261.136 63.5034 272.865 75.2326 272.865 89.6275C272.865 104.022 261.136 115.752 246.741 115.752ZM246.741 69.1681C235.478 69.1681 226.281 78.3648 226.281 89.6275C226.281 100.89 235.478 110.087 246.741 110.087C258.004 110.087 267.2 100.89 267.2 89.6275C267.2 78.3648 258.07 69.1681 246.741 69.1681Z" fill="#0753AC"/>
<path d="M238.928 198.797L180.798 185.153L171.631 224.209L229.761 237.853L238.928 198.797Z" fill="white"/>
<path d="M235.079 200.905L183.307 188.753L175.51 221.97L227.282 234.122L235.079 200.905Z" fill="#80B4F1"/>
<path d="M229.414 225.179L220.818 211.251L209.622 218.182L197.559 198.722L178.166 210.784L175.5 222.047L227.282 234.176L229.414 225.179Z" fill="#689CDA"/>
<path d="M217.219 205.119C216.552 207.985 213.687 209.718 210.821 209.051C207.955 208.385 206.223 205.519 206.889 202.653C207.555 199.788 210.421 198.055 213.287 198.722C216.152 199.455 217.885 202.254 217.219 205.119Z" fill="#FFB265"/>
<path d="M322.068 173.547C322.068 173.547 322.443 169.75 320.468 169.869C318.476 170.005 317.948 170.908 318.169 171.64C318.391 172.372 320.332 174.79 320.332 174.79L322.068 173.547Z" fill="#FFB27D"/>
<path d="M353.056 181.156C353.056 181.156 350.86 183.744 346.126 186.724C345.684 187.013 345.207 187.286 344.713 187.575C342.874 188.648 340.712 189.738 338.226 190.759C337.954 190.878 337.63 190.998 337.273 191.134C334.429 192.155 329.219 193.62 325.984 193.739C325.695 193.756 325.44 193.756 325.184 193.739C320.264 193.534 319.668 174.431 319.668 174.431C319.668 174.431 320.212 172.524 322.749 173.001C322.749 173.001 326.597 183.795 327.976 184.681C329.202 185.464 336.234 174.805 342.279 174.056C346.314 173.563 353.056 181.156 353.056 181.156Z" fill="#ABDDDA"/>
<path d="M339.827 274.359C339.827 274.359 340.184 278.565 339.299 279.008L327.908 278.991C327.908 278.991 327.908 277.68 329.73 277.39C331.552 277.101 334.77 276.028 335.315 273.644C335.877 271.261 339.827 274.359 339.827 274.359Z" fill="#1C3154"/>
<path d="M331.467 223.45C331.518 226.208 331.654 229.035 331.909 231.589C333.135 243.694 333.578 258.32 333.748 261.129C334.055 266.016 335.025 273.848 335.025 273.848C335.025 273.848 336.949 275.67 340.678 274.801C340.678 274.801 343.777 263.547 344.475 251.68C344.492 251.492 344.492 251.288 344.509 251.101C344.594 249.534 344.679 247.747 344.764 245.806C345.326 232.866 345.956 213.626 345.956 213.626L331.671 210.272C331.654 210.272 331.331 216.588 331.467 223.45Z" fill="#2A4E96"/>
<path d="M331.467 223.45C335.093 229.699 341.989 241.209 344.747 245.806C345.309 232.866 345.939 213.626 345.939 213.626L331.654 210.272C331.654 210.272 331.331 216.588 331.467 223.45Z" fill="#233862"/>
<path d="M337.256 191.151C334.412 192.172 329.202 193.637 325.967 193.756C326.461 193.671 330.071 192.956 331.399 191.338C332.829 189.601 335.247 184.919 337.154 186.826C338.056 187.728 337.783 189.516 337.256 191.151Z" fill="#91CECF"/>
<path d="M361.263 221.407C361.263 221.407 362.148 224.881 362.012 225.664C361.859 226.43 361.008 229.052 360.463 229.699C359.918 230.346 359.901 226.873 359.543 226.328C359.186 225.783 359.373 227.622 359.084 227.775C358.794 227.928 358.317 226.379 358.096 225.834C357.875 225.289 358.862 223.382 358.947 222.02C359.032 220.658 361.263 221.407 361.263 221.407Z" fill="#FFB27D"/>
<path d="M368.176 269.591C368.176 269.591 370.202 271.447 369.81 272.758C369.419 274.069 367.58 274.955 367.341 276.555C367.103 278.156 366.098 279.041 365.213 279.041C364.328 279.041 360.974 279.041 360.974 279.041C360.974 279.041 360.327 277.917 361.893 277.577C363.476 277.236 364.072 275.346 363.97 273.593C363.868 271.839 364.123 269.506 364.123 269.506L367.478 268.723L368.176 269.591Z" fill="#1C3154"/>
<path d="M333.902 213.916C333.902 213.916 347.267 242.52 354.384 255.068C361.501 267.617 363.715 271.124 363.715 271.124C363.715 271.124 367.784 269.524 368.159 268.417C368.159 268.417 365.435 244.188 360.667 238.28C357.977 234.943 354.81 224.932 354.657 221.424C354.504 217.917 351.388 209.557 351.388 209.557L333.902 213.916Z" fill="#2A4E96"/>
<path d="M331.416 212.417C331.416 212.417 335.775 217.099 343.164 218.512C346.416 219.142 353.005 219.738 354.64 217.423C355.031 216.878 355.031 216.077 354.946 214.818C354.725 211.548 353.908 205.249 357.602 192.581C357.943 191.406 358.181 190.266 358.317 189.193C359.118 182.706 359.033 177.819 353.414 175.197C344.986 171.281 341.53 174.499 341.53 174.499C341.53 174.499 337.052 176.593 335.008 182.689C330.905 194.931 331.416 212.417 331.416 212.417Z" fill="#ABDDDA"/>
<path d="M348.357 174.143C346.944 175.147 344.441 175.743 342.057 174.551C341.87 174.466 341.904 173.206 341.938 171.963C341.989 170.754 342.091 169.563 342.091 169.563L345.088 167.587L347.948 165.715C347.625 172.185 349.004 173.683 348.357 174.143Z" fill="#FFB27D"/>
<path d="M347.472 168.387C347.472 168.387 345.531 171.298 341.955 171.962C342.006 170.753 342.125 169.408 342.125 169.408L345.105 167.586L347.472 168.387Z" fill="#ED985F"/>
<path d="M339.418 168.813C339.418 168.813 346.671 171.52 348.289 167.059C349.906 162.598 351.933 159.925 347.369 158.018C342.806 156.094 341.291 157.491 340.372 158.853C339.469 160.198 337.579 167.996 339.418 168.813Z" fill="#FFB27D"/>
<path d="M352.818 158.511C352.903 158.443 353.073 158.409 353.431 158.46C353.431 158.46 353.192 158.239 352.818 158.154C352.835 157.66 352.75 156.74 351.95 156.366C351.95 156.366 352.358 156.689 352.307 157.217C351.541 156.025 349.6 154.902 343.777 154.221C336.081 153.318 337.63 158.664 338.499 159.431C339.367 160.197 342.142 159.107 343.947 159.618C345.752 160.129 345.565 162.836 346.127 163.313C346.671 163.789 346.552 163.108 347.472 162.887C348.391 162.666 348.187 164.079 347.778 164.93C347.352 165.781 348.272 167.212 348.272 167.212C348.272 167.212 348.272 167.212 349.685 166.19C351.098 165.168 353.244 160.078 352.937 158.835C352.869 158.733 352.835 158.613 352.818 158.511Z" fill="#2C3A64"/>
<path d="M354.946 214.835C354.725 211.566 353.908 205.266 357.603 192.599C357.943 191.424 358.181 190.283 358.318 189.21C355.559 188.308 350.554 190.317 350.554 190.317C350.554 190.317 349.379 207.071 354.946 214.835Z" fill="#91CECF"/>
<path d="M354.929 176.066C354.929 176.066 358.317 177.292 360.48 186.264C361.91 192.19 364.532 200.89 364.821 203.631C365.111 206.373 361.825 222.377 361.825 222.377C361.825 222.377 361.365 222.718 360.224 222.496C359.135 222.275 358.624 221.543 358.624 221.543C358.624 221.543 357.841 210.867 358.045 205.828C358.13 203.733 348.357 190.487 343.079 188.784C340.985 188.103 354.929 176.066 354.929 176.066Z" fill="#ABDDDA"/>
<path d="M307.579 164.47C307.579 164.47 317.369 164.198 328.658 166.275L329.833 163.295L331.127 160.043C331.127 160.043 319.787 155.157 312.976 148.363L307.579 164.47Z" fill="#AEC3FF"/>
<path d="M313.13 148.211L307.511 164.795C306.694 164.556 306.234 163.671 306.523 162.854L311.461 148.926C311.716 148.245 312.483 147.922 313.13 148.211Z" fill="#ABDDDA"/>
<path d="M318.493 176.815C319.583 177.037 320.655 176.322 320.877 175.232L322.818 165.561C323.039 164.471 322.324 163.399 321.234 163.177C320.145 162.956 319.072 163.671 318.851 164.761L316.91 174.432C316.688 175.521 317.403 176.594 318.493 176.815Z" fill="#ABDDDA"/>
<path d="M307.579 164.47C307.579 164.47 317.369 164.198 328.658 166.275L329.833 163.295C319.225 161.133 307.579 164.47 307.579 164.47Z" fill="#739AF0"/>
<path d="M325.525 165.663L328.59 166.207C328.538 166.207 331.433 166.769 332.369 164.215C332.455 164.045 332.506 163.875 332.557 163.67C333.289 160.487 331.535 159.891 331.535 159.891L327.602 158.358L326.359 162.785C326.359 162.785 326.359 162.785 326.359 162.802L325.525 165.663Z" fill="#ABDDDA"/>
<path d="M325.525 165.662L328.59 166.207C328.538 166.207 331.433 166.769 332.369 164.215C330.633 162.955 326.342 162.785 326.342 162.785C326.342 162.785 326.342 162.785 326.342 162.802L325.525 165.662Z" fill="#91CECF"/>
<path d="M318.748 167.434C318.748 167.434 320.246 168.03 319.974 168.694C319.702 169.358 317.795 170.26 317.505 169.733C317.199 169.222 317.812 166.889 318.748 167.434Z" fill="#FFB27D"/>
<path d="M322.086 172.934C322.086 172.934 322.375 171.401 322.392 170.703C322.409 170.005 322.494 169.426 322.324 169.409C322.154 169.392 322.034 169.511 321.966 169.75C321.898 169.971 321.643 171.384 321.643 171.384L321.779 172.729L322.086 172.934Z" fill="#FFB27D"/>
<path d="M104.084 180.113C104.084 180.113 104.527 179.108 104.833 178.614C105.123 178.138 106.366 176.724 106.587 177.048C106.791 177.371 107.643 179.5 107.2 180.096C106.757 180.692 107.234 181.73 104.987 182.36L104.084 180.113Z" fill="#FFB27D"/>
<path d="M79.226 173.728C79.226 173.728 90.6847 183.297 95.1456 182.411C98.636 181.713 104.17 179.96 104.17 179.96C104.17 179.96 105.634 181.339 105.208 183.007C105.208 183.007 98.1763 189.631 93.1535 189.665C85.3214 189.733 81.6267 185.783 81.6267 185.783L79.226 173.728Z" fill="#91CECF"/>
<path d="M59.135 274.591C59.135 274.591 59.4755 279.954 60.4971 280.04C60.6333 280.057 65.7582 280.057 65.7582 280.057L72.2963 280.023C72.2963 280.023 72.2453 278.439 70.3383 278.116C68.4314 277.775 65.2304 276.43 64.0726 273.91C62.8638 271.237 59.135 274.591 59.135 274.591Z" fill="#113C68"/>
<path d="M58.7603 274.966C58.7603 274.966 60.7523 275.63 62.3017 275.63C64.0384 275.63 65.6048 275.154 65.6048 275.154C65.6048 275.154 65.9794 271.527 68.0396 263.559C69.1123 259.37 70.6617 253.99 72.8581 247.316C78.9364 228.842 80.7753 218.047 80.9456 217.026C80.9626 216.975 80.9626 216.941 80.9626 216.941L80.9456 216.924L62.2847 208.734C62.2847 208.734 64.5833 234.188 61.6547 243.961C61.2461 245.324 60.8886 246.924 60.5821 248.644C58.7092 259.251 58.7603 274.966 58.7603 274.966Z" fill="#2A4E96"/>
<path d="M68.0396 263.558C69.1123 259.37 70.6617 253.99 72.8581 247.315C78.9365 228.842 80.7753 218.047 80.9456 217.026C80.9456 216.991 80.9456 216.974 80.9456 216.94L62.2847 208.751C62.2847 208.751 64.5833 234.205 61.6548 243.978C61.2291 245.323 68.0396 263.558 68.0396 263.558Z" fill="#233862"/>
<path d="M73.7095 274.591C73.7095 274.591 74.0501 279.954 75.0716 280.04C75.2078 280.057 80.3328 280.057 80.3328 280.057L86.8709 280.023C86.8709 280.023 86.8198 278.439 84.9128 278.116C83.0059 277.775 79.805 276.43 78.6472 273.91C77.4383 271.237 73.7095 274.591 73.7095 274.591Z" fill="#15447C"/>
<path d="M84.2826 209.33C84.2826 209.33 84.5209 225.828 81.6775 246.072C78.8341 266.317 79.7876 274.932 79.7876 274.932C79.7876 274.932 77.8296 275.562 77.0293 275.63C75.0202 275.8 72.943 275.153 72.943 275.153C72.943 275.153 68.8567 254.892 70.0315 244.761C71.2063 234.631 64.4299 209.977 64.4299 209.977L84.2826 209.33Z" fill="#2A4E96"/>
<path d="M71.0533 170.732L74.6969 173.116L78.017 172.179C78.63 171.311 78.7832 169.642 78.8003 168.195C78.8173 166.765 78.664 165.539 78.664 165.539L73.7434 163.377L71.9046 162.576C71.9046 162.61 72.0408 164.075 72.0749 164.296C72.4154 168.127 71.0533 170.732 71.0533 170.732Z" fill="#FFB27D"/>
<path d="M84.3678 213.911C79.8388 218.286 62.6763 217.554 61.6206 212.736C60.565 207.917 62.7784 171.668 70.5254 169.404C72.1259 168.927 80.7242 171.702 80.7242 171.702C80.7242 171.702 82.0692 175.227 82.9546 179.722C83.1249 180.59 83.6186 189.852 84.0102 198.519C84.1805 202.571 84.3337 206.487 84.4018 209.365C84.4699 212.055 84.4699 213.825 84.3678 213.911Z" fill="#ABDDDA"/>
<path d="M72.4494 164.364C73.454 166.049 76.9444 167.531 78.8002 168.195C78.8173 166.764 78.664 165.539 78.664 165.539L73.7434 163.376C72.6537 163.376 71.9897 163.615 72.4494 164.364Z" fill="#FCA56B"/>
<path d="M80.5198 165.248C80.5198 165.248 72.6026 167.717 71.1383 162.762C69.674 157.807 67.6649 154.794 72.6707 153.006C77.6594 151.218 79.2088 152.819 80.0941 154.351C80.9795 155.883 82.5289 164.482 80.5198 165.248Z" fill="#FFB27D"/>
<path d="M79.7709 153.875C79.7709 153.875 79.2601 159.647 78.0683 159.392C76.8764 159.136 75.5654 158.608 75.7357 160.345C75.9059 162.082 74.5779 165.061 72.8582 165.061C69.1635 165.044 65.1623 155.578 66.1669 153.79C69.0954 148.614 83.9934 147.558 79.7709 153.875Z" fill="#163560"/>
<path d="M78.6131 169.522C78.5109 169.471 72.722 166.883 72.0409 167.104C71.3599 167.325 70.5256 169.403 70.5256 169.403L80.7243 171.701C80.7243 171.701 79.9071 170.067 78.6131 169.522Z" fill="#91CECF"/>
<path d="M84.4018 209.364C66.5071 196.611 67.9884 179.602 67.9884 179.602C74.5265 183.297 81.0136 191.452 83.9932 198.518C84.1634 202.571 84.3167 206.487 84.4018 209.364Z" fill="#91CECF"/>
<path d="M102.058 203.558C103.318 203.268 104.169 202.315 104.34 202.145C104.34 202.145 104.885 202.179 104.255 203.336C104.203 203.439 104.084 203.677 103.999 203.847C103.965 203.915 104.016 204.001 104.084 204.001C104.816 204.052 105.549 203.762 106.945 204.069C107.132 204.103 107.2 204.579 107.183 204.767C107.166 205.107 107.2 205.482 106.808 205.993C106.587 206.299 105.957 206.606 104.544 207.184C104.016 207.406 102.484 207.236 101.054 206.742L99.9128 206.214L100.27 204.086L100.56 204.154C101.02 204.239 101.581 203.677 102.058 203.558Z" fill="#FFB27D"/>
<path d="M73.5389 171.702C73.5389 171.702 57.4661 174.767 78.2723 198.042C81.5924 201.771 99.5722 206.606 99.5722 206.606C99.5722 206.606 101.394 205.057 100.475 203.797C100.475 203.797 88.0964 194.807 85.3722 193.377C84.1463 192.73 80.6219 179.024 78.6128 175.72C76.6377 172.451 73.5389 171.702 73.5389 171.702Z" fill="#ABDDDA"/>
<path d="M104.527 180.384C104.527 180.384 105.055 179.379 105.157 178.852C105.259 178.324 105.923 176.774 106.196 176.502C106.298 176.4 106.672 176.536 106.706 176.996C106.723 177.2 106.621 177.575 106.451 178.017C106.162 178.732 106.213 179.72 106.111 180.043C105.855 180.861 104.527 180.384 104.527 180.384Z" fill="#FFB27D"/>
</svg>
