<svg width="282" height="156" viewBox="0 0 282 156" fill="none" xmlns="http://www.w3.org/2000/svg">
<path d="M271.007 155.533C282.015 129.604 286.743 91.3682 271.034 66.5954C260.447 49.8875 244.094 44.8174 226.23 39.9968C211.046 35.8987 202.876 23.3678 190.765 14.541C173.598 1.99701 151.045 0.039879 130.462 0.000473728C105.518 -0.0389315 76.7 2.35165 55.9991 17.8117C44.23 26.599 34.4969 39.4714 35.088 54.8132C35.6003 68.2767 41.9839 79.9932 28.5599 89.0958C17.4082 96.6616 7.33356 102.875 2.9333 116.588C-1.20425 129.499 0.582117 146.168 11.3923 155.415L271.007 155.533Z" fill="#E5F0FA"/>
<path d="M177.722 15.7757H118.654V98.7106H177.722V15.7757Z" fill="white"/>
<path d="M174.898 18.7968H121.596V95.7684H174.898V18.7968Z" fill="white"/>
<path d="M139.394 58.5042H127.52V93.1414H139.394V58.5042Z" fill="white"/>
<path d="M171.172 24.9965H125.491C125.143 24.9965 124.844 24.8389 124.844 24.655V24.5631C124.844 24.3792 125.143 24.2216 125.491 24.2216H171.172C171.52 24.2216 171.819 24.3792 171.819 24.5631V24.655C171.819 24.852 171.545 24.9965 171.172 24.9965Z" fill="#B8D7FC"/>
<path d="M171.097 27.3871H125.566C125.168 27.3871 124.844 27.2164 124.844 27.0062C124.844 26.7961 125.168 26.6253 125.566 26.6253H171.097C171.495 26.6253 171.819 26.7961 171.819 27.0062C171.819 27.2164 171.495 27.3871 171.097 27.3871Z" fill="#B8D7FC"/>
<path d="M171.097 29.7777H125.566C125.168 29.7777 124.844 29.607 124.844 29.3968C124.844 29.1866 125.168 29.0159 125.566 29.0159H171.097C171.495 29.0159 171.819 29.1866 171.819 29.3968C171.819 29.607 171.495 29.7777 171.097 29.7777Z" fill="#B8D7FC"/>
<path d="M171.097 32.1683H125.566C125.168 32.1683 124.844 31.9976 124.844 31.7874C124.844 31.5773 125.168 31.4065 125.566 31.4065H171.097C171.495 31.4065 171.819 31.5773 171.819 31.7874C171.819 31.9976 171.495 32.1683 171.097 32.1683Z" fill="#B8D7FC"/>
<path d="M171.097 34.5588H125.566C125.168 34.5588 124.844 34.3881 124.844 34.1779C124.844 33.9678 125.168 33.797 125.566 33.797H171.097C171.495 33.797 171.819 33.9678 171.819 34.1779C171.819 34.3881 171.495 34.5588 171.097 34.5588Z" fill="#B8D7FC"/>
<path d="M171.097 42.7453H125.566C125.168 42.7453 124.844 42.5745 124.844 42.3644C124.844 42.1542 125.168 41.9835 125.566 41.9835H171.097C171.495 41.9835 171.819 42.1542 171.819 42.3644C171.819 42.5745 171.495 42.7453 171.097 42.7453Z" fill="#B8D7FC"/>
<path d="M171.097 45.1359H125.566C125.168 45.1359 124.844 44.9652 124.844 44.755C124.844 44.5448 125.168 44.3741 125.566 44.3741H171.097C171.495 44.3741 171.819 44.5448 171.819 44.755C171.819 44.9652 171.495 45.1359 171.097 45.1359Z" fill="#B8D7FC"/>
<path d="M171.097 47.5265H125.566C125.168 47.5265 124.844 47.3557 124.844 47.1456C124.844 46.9354 125.168 46.7646 125.566 46.7646H171.097C171.495 46.7646 171.819 46.9354 171.819 47.1456C171.819 47.3557 171.495 47.5265 171.097 47.5265Z" fill="#B8D7FC"/>
<path d="M171.097 49.9171H125.566C125.168 49.9171 124.844 49.7464 124.844 49.5362C124.844 49.326 125.168 49.1553 125.566 49.1553H171.097C171.495 49.1553 171.819 49.326 171.819 49.5362C171.819 49.7464 171.495 49.9171 171.097 49.9171Z" fill="#B8D7FC"/>
<path d="M171.097 52.3076H125.566C125.168 52.3076 124.844 52.1369 124.844 51.9267C124.844 51.7165 125.168 51.5458 125.566 51.5458H171.097C171.495 51.5458 171.819 51.7165 171.819 51.9267C171.819 52.1369 171.495 52.3076 171.097 52.3076Z" fill="#B8D7FC"/>
<path d="M171.219 78.6665H125.568C125.169 78.6665 124.844 78.4958 124.844 78.2856C124.844 78.0755 125.169 77.9047 125.568 77.9047H171.219C171.619 77.9047 171.943 78.0755 171.943 78.2856C171.943 78.4958 171.619 78.6665 171.219 78.6665Z" fill="#B8D7FC"/>
<path d="M171.219 81.0571H125.568C125.168 81.0571 124.844 80.8864 124.844 80.6762C124.844 80.466 125.168 80.2953 125.568 80.2953H171.219C171.618 80.2953 171.943 80.466 171.943 80.6762C171.943 80.8864 171.618 81.0571 171.219 81.0571Z" fill="#B8D7FC"/>
<path d="M171.294 83.4477H125.493C125.144 83.4477 124.844 83.2901 124.844 83.1062V83.0142C124.844 82.8303 125.144 82.6727 125.493 82.6727H171.294C171.643 82.6727 171.943 82.8303 171.943 83.0142V83.1062C171.943 83.2901 171.643 83.4477 171.294 83.4477Z" fill="#B8D7FC"/>
<path d="M171.219 85.8382H125.568C125.168 85.8382 124.844 85.6675 124.844 85.4573C124.844 85.2472 125.168 85.0764 125.568 85.0764H171.219C171.618 85.0764 171.943 85.2472 171.943 85.4573C171.943 85.6675 171.618 85.8382 171.219 85.8382Z" fill="#B8D7FC"/>
<path d="M171.219 88.2289H125.568C125.168 88.2289 124.844 88.0581 124.844 87.848C124.844 87.6378 125.168 87.467 125.568 87.467H171.219C171.618 87.467 171.943 87.6378 171.943 87.848C171.943 88.045 171.618 88.2289 171.219 88.2289Z" fill="#B8D7FC"/>
<path d="M153.463 61.8287H125.29C125.044 61.8287 124.844 61.658 124.844 61.4478C124.844 61.2377 125.044 61.0669 125.29 61.0669H153.463C153.709 61.0669 153.909 61.2377 153.909 61.4478C153.909 61.658 153.709 61.8287 153.463 61.8287Z" fill="#B8D7FC"/>
<path d="M153.463 64.2194H125.29C125.044 64.2194 124.844 64.0486 124.844 63.8384C124.844 63.6283 125.044 63.4575 125.29 63.4575H153.463C153.709 63.4575 153.909 63.6283 153.909 63.8384C153.909 64.0486 153.709 64.2194 153.463 64.2194Z" fill="#B8D7FC"/>
<path d="M153.463 66.6099H125.29C125.044 66.6099 124.844 66.4391 124.844 66.2289C124.844 66.0188 125.044 65.848 125.29 65.848H153.463C153.709 65.848 153.909 66.0188 153.909 66.2289C153.909 66.4391 153.709 66.6099 153.463 66.6099Z" fill="#B8D7FC"/>
<path d="M153.463 69.0005H125.29C125.044 69.0005 124.844 68.8297 124.844 68.6196C124.844 68.4094 125.044 68.2386 125.29 68.2386H153.463C153.709 68.2386 153.909 68.4094 153.909 68.6196C153.909 68.8297 153.709 69.0005 153.463 69.0005Z" fill="#B8D7FC"/>
<path d="M153.463 71.3911H125.29C125.044 71.3911 124.844 71.2204 124.844 71.0102C124.844 70.8 125.044 70.6293 125.29 70.6293H153.463C153.709 70.6293 153.909 70.8 153.909 71.0102C153.909 71.2204 153.709 71.3911 153.463 71.3911Z" fill="#B8D7FC"/>
<path d="M157.432 66.2191C157.432 62.5544 160.401 59.599 164.052 59.599C167.717 59.599 170.672 62.5675 170.672 66.2191C170.672 69.8838 167.704 72.8392 164.052 72.8392C160.401 72.8392 157.432 69.8838 157.432 66.2191Z" fill="#ABDDDA"/>
<path d="M168.545 65.0894H165.195V61.74H162.923V65.0894H159.573V67.3487H162.923V70.7112H165.195V67.3487H168.545V65.0894Z" fill="white"/>
<path d="M85.7498 79.8747C85.7498 79.8878 85.7498 79.9008 85.7368 79.9008C85.7498 79.9008 85.7498 79.8878 85.7498 79.8747C85.7628 79.8487 85.7498 79.8487 85.7498 79.8747Z" fill="#6D89CF"/>
<path d="M71.9059 109.087C71.6169 102.494 70.9996 96.7536 70.2509 92.7605C69.0687 86.3768 68.0048 82.7121 67.9916 82.6727C67.834 82.1079 65.5748 79.8487 60.5703 79.9144C55.5527 79.98 56.0256 82.9617 56.0256 82.9617C56.0256 83.0668 56.0387 83.1587 56.065 83.2244C56.1175 83.382 60.7148 98.9077 60.5178 118.965C60.5178 119.241 60.4784 119.727 60.5046 120.055C60.5046 120.055 72.1292 120.331 72.1292 120.055C72.5232 118.308 72.3262 113.448 71.9059 109.087Z" fill="#93B3F4"/>
<path d="M73.3637 118.86C73.3637 119.136 73.2061 119.359 73.0091 119.359C72.8121 119.359 72.6676 119.136 72.6545 118.86H62.6981C62.6981 119.136 62.5404 119.359 62.3434 119.359C62.1464 119.359 61.9888 119.123 61.9888 118.847C62.0413 113.107 61.6998 107.748 61.1612 103.019C59.8346 91.2237 57.3915 83.3295 57.3521 83.2244C57.3258 83.1587 57.3127 83.0668 57.3127 82.9617C57.3127 82.9617 56.8398 79.98 61.8574 79.9144C66.875 79.8487 69.1343 82.1079 69.2787 82.6727C69.2919 82.699 69.8961 84.7744 70.6973 88.5179C70.96 89.7525 71.249 91.1711 71.5511 92.7605C72.2998 96.7667 72.9172 102.494 73.2061 109.087C73.6133 113.448 73.7709 117.113 73.3637 118.86Z" fill="#BED2FA"/>
<path d="M61.24 119.372H100.291C100.291 119.372 99.3843 115.944 76.7657 116.456C60.7671 116.811 61.24 119.372 61.24 119.372Z" fill="#BED2FA"/>
<path d="M58.0615 155.139C62.5931 133.808 61.4241 120.725 61.4241 120.554C61.411 120.226 62.0677 119.924 62.4092 119.911C62.7639 119.911 64.327 119.819 64.5108 120.095C64.7473 120.462 65.6536 136.592 58.9153 155.126H58.0615V155.139Z" fill="#93B3F4"/>
<path d="M94.5244 155.139C89.9927 133.808 91.1618 120.725 91.1618 120.554C91.1749 120.226 90.5182 119.924 90.1766 119.911C89.822 119.911 88.2589 119.819 88.075 120.095C87.8386 120.462 86.9323 136.592 93.6706 155.126H94.5244V155.139Z" fill="#93B3F4"/>
<path d="M101.749 155.139C97.2176 133.808 98.3866 120.725 98.3866 120.554C98.3998 120.226 97.743 119.924 97.4015 119.911C97.0468 119.911 95.4838 119.819 95.2999 120.095C95.0634 120.462 94.1571 136.592 100.895 155.126H101.749V155.139Z" fill="#93B3F4"/>
<path d="M65.3384 155.139C69.87 133.808 68.701 120.725 68.701 120.554C68.6878 120.226 69.3446 119.924 69.6861 119.911C70.0407 119.911 71.6038 119.819 71.7877 120.095C72.0241 120.462 72.9305 136.592 66.1922 155.126H65.3384V155.139Z" fill="#93B3F4"/>
<path d="M100.238 120.462H61.3454C60.8594 120.462 60.4653 120.068 60.4653 119.582V119.359C60.4653 118.873 60.8594 118.479 61.3454 118.479H100.238C100.724 118.479 101.118 118.873 101.118 119.359V119.582C101.118 120.068 100.724 120.462 100.238 120.462Z" fill="#93B3F4"/>
<path d="M75.3738 50.2685C75.2556 50.0058 73.9421 47.1686 69.4499 48.7185C69.4499 48.7185 71.7223 48.1406 72.471 48.9549C72.471 48.9549 70.5401 48.3376 69.4762 49.1782C68.4122 50.0189 68.5173 52.4095 68.7669 53.1056C69.0296 53.8018 70.5532 55.7983 71.3939 55.6932C71.7091 55.6538 72.0375 55.5093 72.3265 55.3386C72.2477 55.7326 72.182 56.1661 72.1426 56.6258C71.7617 60.9341 74.9404 63.7845 76.2933 62.8125C77.1602 62.1951 78.0534 63.7319 78.0534 63.7319L84.4896 52.6065C84.4896 52.6196 78.3424 46.8402 75.3738 50.2685Z" fill="#0B0754"/>
<path d="M87.4449 76.4598C81.3502 79.1788 76.766 69.5639 77.1601 69.472C77.7643 68.7758 78.3948 66.3195 77.9482 62.7862L78.2634 62.8125L83.57 63.2065C83.57 63.2065 83.6488 64.8484 83.8327 66.3852C83.9509 67.3966 84.1217 68.3555 84.3318 68.7758C84.3975 68.894 85.5403 69.0648 85.5534 69.0648C85.6454 69.1567 89.0736 75.7374 87.4449 76.4598Z" fill="#DCABB0"/>
<path d="M126.364 155.231H115.672C115.672 155.231 115.41 153.602 115.974 152.367C116.513 151.185 116.854 150.857 116.263 149.491C116.946 150.187 118.93 150.699 120.467 150.489C120.651 150.791 121.688 152.433 122.319 152.893C123.041 153.379 126.154 153.208 126.364 155.231Z" fill="#233862"/>
<path d="M107.555 155.139H96.8628C96.8628 155.139 96.6001 153.51 97.1649 152.276C97.7034 151.093 98.7411 150.292 99.0432 148.926C99.7262 149.622 100.12 150.594 101.657 150.384C101.841 150.686 102.879 152.328 103.509 152.788C104.232 153.287 107.345 153.116 107.555 155.139Z" fill="#233862"/>
<path d="M120.02 71.2715L121.268 73.0053C121.268 73.0053 120.729 73.4782 119.849 74.2138C119.587 74.4371 119.429 74.5553 119.429 74.5553C118.733 75.1464 117.866 75.8294 116.933 76.5781L116.92 76.5912C115.278 77.8522 113.426 79.2314 111.732 80.3085C111.574 80.4004 111.43 80.4923 111.285 80.5843C110.261 81.2016 109.315 81.6745 108.54 81.9372C108.448 81.9635 108.369 81.9897 108.277 82.016C106.031 82.6202 101.513 81.8321 97.073 80.4792C96.4556 80.2953 95.8514 80.0983 95.2603 79.9013C93.0799 79.1788 91.0308 78.3382 89.3627 77.4975C88.3644 76.9984 87.4843 76.4993 86.8276 76.0133C86.5911 75.8425 86.3679 75.6849 86.184 75.5141C82.5849 72.5588 84.2794 69.6953 84.9624 69.6953C85.8162 69.6822 87.0115 69.9055 88.4038 70.2601C90.5842 70.8512 93.2769 71.7838 95.9171 72.7558C97.3619 73.2812 98.8068 73.8329 100.16 74.3057C100.974 74.6078 101.736 74.8837 102.445 75.1201C103.811 75.5798 104.941 75.9213 105.729 76.0396C106.241 76.1184 107.187 75.9476 108.356 75.6192C108.671 75.5404 108.986 75.4353 109.328 75.3434C111.206 74.7786 113.466 73.9379 115.423 73.163C116.382 72.782 117.288 72.4143 118.023 72.1122C119.232 71.5999 120.02 71.2715 120.02 71.2715Z" fill="#DCABB0"/>
<path d="M70.619 104.95C70.619 104.95 68.2153 112.424 73.5744 115.97C80.7462 120.725 100.62 116.666 102.892 119.096C103.47 119.714 101.723 120.016 100.751 128.803C99.3455 141.439 98.2027 148.493 98.2027 148.493C98.2027 148.493 98.4523 149.938 99.9497 150.686C100.935 151.172 102.183 150.87 102.183 150.87C102.183 150.87 116.776 118.82 115.331 114.368C112.809 106.671 98.8726 107.419 82.7033 102.874C72.8389 100.103 70.619 104.95 70.619 104.95Z" fill="#233862"/>
<path d="M78.1844 104.792C85.2774 104.135 104.652 103.807 108.842 106.684C113.991 110.23 121.005 150.726 121.005 150.726C121.005 150.726 120.466 151.159 119.297 151.264C118.207 151.369 115.843 150.673 115.843 150.673C115.843 150.673 104.323 132.428 103.64 127.871C102.944 123.313 103.299 119.254 101.355 119.109C99.4107 118.965 72.6414 122.052 70.3559 114.735C68.5695 109.009 70.7106 103.479 70.7106 103.479C70.7106 103.479 71.6432 105.396 78.1844 104.792Z" fill="#2B478B"/>
<path d="M92.9485 81.3461C93.3819 82.9486 93.7497 84.3935 93.9205 85.3655C94.7348 89.8445 95.4573 103.492 95.4573 103.492C88.2067 114.683 68.0312 111.32 68.0312 111.32C67.5846 107.078 69.2922 97.6468 70.3299 89.2534C70.5794 87.1912 70.8027 85.2078 70.9341 83.3689C71.0523 81.7664 71.2362 80.3347 71.4857 79.0737C73.2064 70.1025 77.633 69.1174 77.633 69.1174C79.6952 73.1367 86.2233 74.2138 86.2233 74.2138C86.3021 71.9545 85.5666 69.0779 85.5666 69.0779C86.3941 69.183 89.1524 69.5902 89.9274 69.8792C90.86 70.2207 98.5834 73.7409 98.5834 73.7409C98.5834 73.7409 98.833 79.4153 92.9485 81.3461Z" fill="#6D89CF"/>
<path d="M83.5698 63.2066C83.5698 63.2066 83.6486 64.8484 83.8325 66.3852C80.9296 66.6611 79.0644 64.2048 78.2632 62.8125L83.5698 63.2066Z" fill="#CB7F83"/>
<path d="M84.7262 64.5332C84.7262 64.5332 77.8828 65.4789 77.3574 61.21C76.832 56.9411 75.5973 54.1827 79.945 53.3946C84.2927 52.6065 85.3436 54.1302 85.869 55.5093C86.3812 56.9148 86.4863 64.1785 84.7262 64.5332Z" fill="#DCABB0"/>
<path d="M85.3562 53.1845C84.1347 52.0286 83.3728 52.4095 82.9656 52.8561C78.9726 51.2536 76.9235 54.5899 76.9235 54.5899C76.8447 57.7161 74.8481 59.7389 74.8481 59.7389C74.8481 59.7389 76.1879 60.3562 78.9857 59.266C79.8395 58.9376 80.5488 58.2152 81.1267 57.3746C80.1941 59.4762 78.7887 61.0787 78.7887 61.0787C82.033 59.069 82.8343 54.1171 82.9131 53.5917C83.3728 53.92 84.3054 54.6293 84.6469 55.4043C85.1198 56.4551 85.5532 58.6749 86.1969 58.5173C86.1837 58.4911 87.182 54.9052 85.3562 53.1845Z" fill="#0B0754"/>
<path d="M120.02 71.2715C120.02 71.2715 120.611 70.7461 120.966 70.2207C121.32 69.6953 121.452 69.1699 122.122 68.7233C122.778 68.2636 123.514 67.0814 123.619 67.2916C123.724 67.5017 123.264 68.789 123.304 68.9335C123.343 69.0779 125.182 69.472 125.878 69.275C126.574 69.0779 128.321 68.5131 128.282 68.8678C128.243 69.2224 126.404 71.1664 125.813 71.5211C125.222 71.8757 123.448 71.7706 122.752 72.0071C122.056 72.2566 121.281 73.0053 121.281 73.0053L120.02 71.2715Z" fill="#DCABB0"/>
<path d="M124.591 69.5113C124.591 69.5113 126.403 68.0533 127.192 68.2372L125.891 69.5113H124.591Z" fill="#DCABB0"/>
<path d="M126.167 71.0482L128.913 69.2093C128.913 69.2093 128.414 69.0122 127.849 69.2093C127.284 69.4063 126.167 71.0482 126.167 71.0482Z" fill="#DCABB0"/>
<path d="M86.0527 103.61C85.9345 103.544 72.0376 105.068 70.3169 89.2534C70.5665 87.1912 70.7898 85.2078 70.9211 83.3689C71.0393 81.7664 71.2232 80.3347 71.4728 79.0737C72.7206 78.8767 74.2312 80.2296 74.901 82.2261C76.2802 86.3243 86.0133 103.439 86.0527 103.61Z" fill="#3663BF"/>
<path d="M94.7346 104.227L93.9597 106.211C93.9597 106.211 93.2635 106.014 92.1733 105.685C91.8449 105.58 91.661 105.515 91.661 105.515C90.781 105.252 89.7433 104.897 88.6006 104.516H88.5874C86.6434 103.833 84.463 103.032 82.6504 102.191C82.4927 102.113 82.322 102.034 82.1775 101.968C81.1004 101.443 80.181 100.904 79.5505 100.405C79.4717 100.353 79.4191 100.3 79.3403 100.221C77.6065 98.6713 75.807 94.4549 74.5197 89.989C74.3359 89.3716 74.1782 88.7543 74.0206 88.1632C73.4427 85.9434 73.0223 83.763 72.8253 81.9109C72.694 80.7944 72.6414 79.7962 72.694 78.9818C72.7071 78.6928 72.7202 78.417 72.7596 78.1674C73.2719 73.5439 76.5951 73.3994 76.9629 73.9642C77.4357 74.6735 77.9086 75.8031 78.3552 77.156C79.0513 79.3102 79.7344 82.0817 80.3517 84.8138C80.6932 86.3243 81.0216 87.8217 81.3631 89.214C81.547 90.0547 81.744 90.8559 81.9279 91.5783C82.2826 92.9707 82.6241 94.1003 82.9525 94.8358C83.1626 95.3087 83.8325 96.0049 84.7388 96.8061C84.9753 97.0163 85.238 97.2396 85.5007 97.476C86.9981 98.737 88.9289 100.169 90.6496 101.39C91.4903 101.994 92.2915 102.546 92.9483 103.006C94.0253 103.755 94.7346 104.227 94.7346 104.227Z" fill="#DCABB0"/>
<path d="M94.5509 104.293C94.5509 104.293 98.0185 103.308 98.846 103.544C99.6735 103.768 102.498 105.646 102.104 106.158C101.709 106.671 99.2138 105.856 98.0711 106.014C96.9283 106.171 96.0351 106.736 95.2076 106.605C94.3801 106.487 93.5132 106.158 93.5132 106.158L94.5509 104.293Z" fill="#DCABB0"/>
<path d="M94.551 104.293C94.551 104.293 96.2454 103.426 96.7314 102.927C96.7971 102.861 96.8891 102.875 96.9416 102.953C97.073 103.163 97.1912 103.558 96.6001 103.938C95.7463 104.503 94.551 104.293 94.551 104.293Z" fill="#DCABB0"/>
<path d="M76.5427 72.4799C76.5427 72.4799 73.3115 74.0561 72.1819 76.1971C71.0523 78.3382 70.9209 85.2078 72.6679 94.1265C72.6679 94.1265 77.9351 93.785 81.3764 89.214C81.3633 89.2271 80.0892 71.1927 76.5427 72.4799Z" fill="#6D89CF"/>
<path d="M77.8694 67.6987C77.8694 67.6987 76.6873 68.4343 76.6873 69.5245C76.6873 69.5245 78.0796 73.3337 86.2102 74.2137C86.2102 74.2006 78.7232 70.5228 77.8694 67.6987Z" fill="#3663BF"/>
<path d="M84.2137 68.605C84.2137 68.605 86.2627 72.3748 86.2102 74.2137C86.2102 74.2137 86.3547 70.0368 86.0526 69.0779C85.7636 68.1059 84.0298 67.7119 84.0298 67.7119L84.2137 68.605Z" fill="#3663BF"/>
<path d="M82.7031 62.2607C82.7688 62.2607 83.4256 62.8387 84.2793 62.6811C85.1331 62.5235 85.1331 61.8404 85.1331 61.8404C85.1331 61.8404 84.5421 61.7485 84.0298 61.8404C83.5175 61.9324 82.7031 62.2607 82.7031 62.2607Z" fill="white"/>
<path d="M98.3473 37.5011H83.0186C82.0466 37.5011 81.2454 36.6999 81.2454 35.7279V20.964C81.2454 19.992 82.0466 19.1908 83.0186 19.1908H98.3473C99.3193 19.1908 100.12 19.992 100.12 20.964V35.7279C100.12 36.6999 99.3193 37.5011 98.3473 37.5011Z" fill="#BED2FA"/>
<path d="M97.6904 36.6999H83.6884C82.7952 36.6999 82.0728 35.9774 82.0728 35.0842V21.5945C82.0728 20.7013 82.7952 19.9789 83.6884 19.9789H97.6904C98.5836 19.9789 99.306 20.7013 99.306 21.5945V35.0842C99.2928 35.9774 98.5704 36.6999 97.6904 36.6999Z" fill="#DDE8FD"/>
<path d="M90.2954 21.6602C90.2954 21.45 90.4662 21.2661 90.6895 21.2661C90.8996 21.2661 91.0835 21.4369 91.0835 21.6602C91.0835 21.8703 90.9128 22.0542 90.6895 22.0542C90.4662 22.0542 90.2954 21.8703 90.2954 21.6602Z" fill="#BED2FA"/>
<path d="M93.4482 22.2118C93.5532 22.0279 93.7897 21.9491 93.9736 22.0542C94.1574 22.1593 94.2363 22.3957 94.1312 22.5796C94.0261 22.7635 93.7897 22.8423 93.6058 22.7372C93.4087 22.6322 93.3431 22.3957 93.4482 22.2118Z" fill="#BED2FA"/>
<path d="M96.1538 24.3529C96.3376 24.2347 96.5741 24.2872 96.6923 24.4711C96.8105 24.655 96.758 24.8915 96.5741 25.0097C96.3902 25.1279 96.1537 25.0754 96.0355 24.8915C95.9173 24.7207 95.9699 24.4711 96.1538 24.3529Z" fill="#BED2FA"/>
<path d="M97.4805 27.676C97.6906 27.676 97.8745 27.8468 97.8745 28.0701C97.8745 28.2802 97.7038 28.4641 97.4805 28.4641C97.2703 28.4641 97.0864 28.2934 97.0864 28.0701C97.0996 27.8468 97.2703 27.676 97.4805 27.676Z" fill="#BED2FA"/>
<path d="M96.7973 31.5378C96.9549 31.6954 96.9549 31.9318 96.7973 32.0894C96.6397 32.2471 96.4033 32.2471 96.2457 32.0894C96.088 31.9318 96.088 31.6954 96.2457 31.5378C96.4033 31.3802 96.6528 31.3802 96.7973 31.5378Z" fill="#BED2FA"/>
<path d="M94.354 33.994C94.5116 34.1516 94.5116 34.3881 94.354 34.5457C94.1964 34.7033 93.9599 34.7033 93.8023 34.5457C93.6447 34.3881 93.6447 34.1516 93.8023 33.994C93.9468 33.8364 94.1964 33.8364 94.354 33.994Z" fill="#BED2FA"/>
<path d="M90.2954 35.2681C90.2954 35.058 90.4662 34.8741 90.6895 34.8741C90.8996 34.8741 91.0835 35.0448 91.0835 35.2681C91.0835 35.4783 90.9128 35.6622 90.6895 35.6622C90.4662 35.6491 90.2954 35.4783 90.2954 35.2681Z" fill="#BED2FA"/>
<path d="M87.9054 22.2119C87.8003 22.028 87.5639 21.9492 87.38 22.0543C87.1961 22.1593 87.1173 22.3958 87.2224 22.5797C87.3274 22.7636 87.5639 22.8424 87.7478 22.7373C87.9448 22.6322 88.0105 22.3958 87.9054 22.2119Z" fill="#BED2FA"/>
<path d="M85.2123 24.3529C85.0284 24.2347 84.7919 24.2872 84.6737 24.4711C84.5555 24.655 84.608 24.8915 84.7919 25.0097C84.9758 25.1279 85.2123 25.0754 85.3305 24.8915C85.4356 24.7207 85.383 24.4711 85.2123 24.3529Z" fill="#BED2FA"/>
<path d="M83.8726 27.6761C83.6624 27.6761 83.4785 27.8468 83.4785 28.0701C83.4785 28.2803 83.6493 28.4642 83.8726 28.4642C84.0827 28.4642 84.2666 28.2934 84.2666 28.0701C84.2535 27.8468 84.0827 27.6761 83.8726 27.6761Z" fill="#BED2FA"/>
<path d="M84.5555 31.5378C84.3979 31.6955 84.3979 31.9319 84.5555 32.0895C84.7131 32.2471 84.9495 32.2471 85.1071 32.0895C85.2648 31.9319 85.2648 31.6955 85.1071 31.5378C84.9495 31.3802 84.7 31.3802 84.5555 31.5378Z" fill="#BED2FA"/>
<path d="M87.0118 33.9941C86.8541 34.1517 86.8541 34.3881 87.0118 34.5457C87.1694 34.7034 87.4058 34.7034 87.5634 34.5457C87.7211 34.3881 87.7211 34.1517 87.5634 33.9941C87.4058 33.8364 87.1563 33.8364 87.0118 33.9941Z" fill="#BED2FA"/>
<path d="M90.9651 28.4641C91.1827 28.4641 91.3592 28.2877 91.3592 28.0701C91.3592 27.8524 91.1827 27.676 90.9651 27.676C90.7475 27.676 90.571 27.8524 90.571 28.0701C90.571 28.2877 90.7475 28.4641 90.9651 28.4641Z" fill="#BED2FA"/>
<path d="M91.0174 23.1838H90.9124V28.0701H91.0174V23.1838Z" fill="#BED2FA"/>
<path d="M93.4239 25.905L90.8306 27.9408L91.0252 28.1888L93.6186 26.1529L93.4239 25.905Z" fill="#BED2FA"/>
<path d="M266.516 123.772H172.705C171.51 123.772 170.538 122.8 170.538 121.605V120.436C170.538 119.241 171.51 118.269 172.705 118.269H266.516C267.711 118.269 268.683 119.241 268.683 120.436V121.605C268.683 122.8 267.711 123.772 266.516 123.772Z" fill="#93B3F4"/>
<path d="M263.889 155.113H263.193L257.768 134.569L256.534 129.893L254.931 123.838L258.123 123.786L259.213 129.696L260.028 134.123C260.028 134.149 260.041 134.162 260.041 134.189L263.889 155.113Z" fill="#688CD5"/>
<path d="M259.213 129.696C258.622 130.55 257.808 132.166 257.768 134.569L256.534 129.893L254.931 123.838L258.123 123.786L259.213 129.696Z" fill="#93B3F4"/>
<path d="M174.045 155.113H174.742L180.166 134.569L181.401 129.893L183.004 123.838L179.812 123.785L178.721 129.696L177.907 134.123C177.907 134.149 177.894 134.162 177.894 134.188L174.045 155.113Z" fill="#688CD5"/>
<path d="M178.722 129.696C179.313 130.55 180.127 132.166 180.167 134.569L181.401 129.893L183.004 123.838L179.812 123.785L178.722 129.696Z" fill="#93B3F4"/>
<path d="M211.44 92.813C211.44 92.813 210.35 90.8953 209.89 90.4487C209.431 90.0021 208.761 88.6623 208.459 88.9381C208.156 89.214 208.748 90.1466 208.524 90.5143C208.288 90.8821 205.319 90.1991 205.135 90.6194C204.952 91.0397 205.083 92.327 206.16 92.7079C207.237 93.0888 210.114 93.7324 210.521 94.2578C210.902 94.7832 211.44 92.813 211.44 92.813Z" fill="#DCABB0"/>
<path d="M241.112 77.5631C241.112 77.5631 239.352 76.7619 233.862 81.7269C228.371 86.692 224.615 91.8803 221.672 92.1036C218.73 92.3269 211.164 92.3401 211.164 92.3401L210.324 94.1133C210.324 94.1133 210.179 94.7963 214.829 96.2806C218.809 97.5416 223.827 97.9487 224.208 97.8962C227.964 97.4496 236.988 91.4206 238.354 89.6211C239.733 87.8085 241.112 77.5631 241.112 77.5631Z" fill="#F9DDBF"/>
<path d="M201.352 132.153C201.444 132.993 201.365 134.254 201.181 135.752C200.446 141.676 198.029 151.146 198.029 151.146L195.008 151.514C195.231 149.846 194.601 143.423 193.76 136.316C192.499 125.598 190.765 113.291 190.765 113.291C190.765 113.291 197.359 107.84 201.234 109.35C205.109 110.874 200.892 127.989 201.352 132.153Z" fill="#D09497"/>
<path d="M201.181 135.752C200.446 141.676 198.029 151.146 198.029 151.146L195.008 151.514C195.231 149.846 194.6 143.422 193.76 136.316C194.837 136.5 197.766 136.881 200.209 135.962C200.564 135.83 200.892 135.765 201.181 135.752Z" fill="#CFDDFB"/>
<path d="M198.41 69.3012C198.41 69.3012 196.82 68.5394 195.021 69.3012C193.234 70.0631 191.921 73.3337 192.722 76.3679C193.523 79.4152 190.817 79.4678 192.065 81.9109C192.512 82.7778 198.396 83.5134 198.593 80.1377C198.712 78.0492 196.82 77.9441 197.372 75.6718C197.937 73.3994 198.41 69.3012 198.41 69.3012Z" fill="#0B0754"/>
<path d="M206.856 131.496C207.04 132.52 206.987 134.241 206.817 136.238C206.304 142.28 204.662 150.923 204.662 150.923L201.668 151.619C201.786 149.964 200.801 143.751 199.566 136.789C197.648 125.966 195.113 113.343 195.113 113.343C195.113 113.343 201.352 107.498 205.319 108.759C209.286 110.033 206.147 127.385 206.856 131.496Z" fill="#DCABB0"/>
<path d="M195.034 150.923C195.034 150.923 194.312 152.249 192.946 152.551C192.079 152.748 191.343 153.195 190.883 153.826C190.503 154.364 190.883 155.113 191.54 155.1L198.502 155.06C199.093 155.06 199.553 154.548 199.487 153.957C199.434 153.445 199.369 152.84 199.342 152.381C199.29 151.369 198.2 150.476 198.2 150.476C198.2 150.476 197.241 151.028 196.873 151.093C196.085 151.225 195.034 150.923 195.034 150.923Z" fill="#233862"/>
<path d="M193.707 83.8418C193.707 83.8418 189.163 91.5127 188.243 97.765C188.243 97.765 190.45 100.747 191.356 98.6582C192.262 96.5697 198.712 85.3392 193.707 83.8418Z" fill="#DCABB0"/>
<path d="M194.574 70.2207C194.627 70.1419 196.663 66.9238 200.459 66.2801C203.545 65.7547 206.422 67.9352 206.908 71.035C207.381 74.1349 206.895 78.1674 201.838 79.6123L194.574 70.2207Z" fill="#0B0754"/>
<path d="M195.507 84.065L201.247 87.467L202.692 83.4346C202.692 83.4346 202.022 81.9634 201.838 79.6122C201.759 78.6271 201.759 77.4712 201.93 76.2234L196.939 78.3907C196.939 78.3907 197.031 78.8504 197.057 79.5072C197.096 80.2296 197.07 81.1884 196.807 82.0816C196.584 82.8435 196.19 83.579 195.507 84.065Z" fill="#DCABB0"/>
<path d="M196.808 82.0817C199.553 82.1868 201.825 79.6123 201.825 79.6123L197.057 79.5072C197.097 80.2165 197.07 81.1754 196.808 82.0817Z" fill="#CB7F83"/>
<path d="M195.572 80.4661C195.572 80.4661 200.958 82.2656 203.125 78.0229C205.463 73.4519 203.44 69.8792 201.601 69.5377C197.924 68.8415 195.678 70.1156 194.929 71.5736C194.18 73.0185 192.604 79.4941 195.572 80.4661Z" fill="#DCABB0"/>
<path d="M197.898 78.1412C197.898 78.1412 197.635 78.6928 196.203 78.2857C196.203 78.2857 195.008 77.9442 195.179 77.3137C195.192 77.3137 196.466 77.1166 197.898 78.1412Z" fill="white"/>
<path d="M209.22 127.752C207.67 129.237 196.164 132.31 189.688 130.103C188.532 129.709 190.384 93.8901 191.487 86.9679C191.79 85.0764 193.3 83.5921 195.205 83.3426C195.52 83.3032 195.875 83.2506 196.256 83.2244C196.177 84.0781 196.466 84.8794 197.95 85.1683C199.92 85.5493 201.785 84.3146 202.744 83.4477C204.294 83.7629 205.187 83.8942 206.409 84.3934C207.749 84.9582 208.55 86.3505 208.366 87.7954L207.998 90.5275L206.816 99.2229C206.672 100.313 206.672 101.43 206.842 102.52C207.342 105.83 208.143 113.882 208.681 120.016C209.062 124.324 209.299 127.674 209.22 127.752Z" fill="#ABDDDA"/>
<path d="M208.682 120.003C208.511 119.806 197.609 107.091 197.215 100.326C196.821 93.5091 202.679 88.5309 202.679 88.5309C205.017 88.3733 206.738 89.1483 207.985 90.5275L206.803 99.2229C206.659 100.313 206.659 101.43 206.829 102.52C207.342 105.83 208.143 113.882 208.682 120.003Z" fill="#95CCCA"/>
<path d="M199.342 70.0368C199.342 70.0368 198.83 75.0938 203.625 76.8802C205.529 77.5895 206.527 69.8792 202.534 68.3292C198.554 66.7924 194.627 68.6182 194.154 71.3109C193.681 74.0036 194.036 74.5684 194.036 74.5684C194.036 74.5684 195.914 69.4457 199.342 70.0368Z" fill="#0B0754"/>
<path d="M202.258 86.5607C202.258 86.5607 200.065 95.2561 199.973 98.7107C199.973 98.7107 195.152 107.13 194.863 107.734C194.574 108.339 196.61 109.153 196.61 109.153C196.61 109.153 202.666 102.704 203.835 99.9848C205.004 97.279 209.141 88.4522 207.486 85.8251C205.818 83.1981 202.258 86.5607 202.258 86.5607Z" fill="#DCABB0"/>
<path d="M188.243 97.765C188.243 97.765 187.81 103.689 192.026 108.352C192.026 108.352 193.182 106.973 193.038 106.539C192.893 106.106 191.238 99.512 190.043 98.5662C188.848 97.6205 188.243 97.765 188.243 97.765Z" fill="#DCABB0"/>
<path d="M194.863 107.735C194.863 107.735 192.171 107.721 192.013 108.352C191.868 108.982 192.709 110.966 194.679 110.283C196.65 109.587 196.597 109.153 196.597 109.153L194.863 107.735Z" fill="#DCABB0"/>
<path d="M193.024 106.539C193.024 106.539 195.192 107.537 194.456 108.601C193.721 109.665 192.249 109.035 192.026 108.352C191.79 107.669 193.024 106.539 193.024 106.539Z" fill="#DCABB0"/>
<path d="M200.669 91.1449C200.669 91.1449 203.493 93.7719 207.854 93.3647C207.854 93.3647 210.008 85.7464 206.554 84.8138C203.112 83.8812 200.275 88.3996 200.669 91.1449Z" fill="#ABDDDA"/>
<path d="M192.223 85.1815L189.728 89.4504C189.728 89.4504 190.043 91.4338 191.908 91.6309C193.773 91.8148 192.223 85.1815 192.223 85.1815Z" fill="#ABDDDA"/>
<path d="M205.293 69.3406C205.293 69.3406 206.882 68.4737 208.682 69.3406C210.468 70.2075 211.781 73.8722 210.98 77.3005C210.179 80.7287 212.885 80.7813 211.637 83.5396C211.19 84.5116 205.306 85.3392 205.109 81.5431C204.991 79.1919 206.882 79.0737 206.33 76.5124C205.779 73.951 205.293 69.3406 205.293 69.3406Z" fill="#0B0754"/>
<path d="M206.817 136.251C206.304 142.293 204.662 150.936 204.662 150.936L201.668 151.632C201.786 149.977 200.801 143.764 199.566 136.802C201.168 136.96 204.111 137.078 206.817 136.251Z" fill="white"/>
<path d="M201.575 150.923C201.575 150.923 200.853 152.249 199.487 152.551C198.62 152.748 197.884 153.195 197.425 153.826C197.044 154.364 197.425 155.113 198.081 155.1L205.043 155.06C205.634 155.06 206.094 154.548 206.028 153.957C205.976 153.445 205.91 152.84 205.884 152.381C205.831 151.369 204.741 150.476 204.741 150.476C204.741 150.476 203.782 151.028 203.414 151.093C202.626 151.225 201.575 150.923 201.575 150.923Z" fill="#233862"/>
<path d="M240.049 60.9079C240.049 60.9079 239.943 57.3351 244.672 56.6258C249.388 55.9297 250.688 57.033 251.502 58.2283C252.304 59.4367 253.814 64.3492 253.656 66.3064C253.512 68.2635 248.127 70.6804 248.205 71.8231C248.284 72.9659 240.049 60.9079 240.049 60.9079Z" fill="#0B0754"/>
<path d="M219.032 152.525C219.124 153.72 217.469 153.983 215.538 154.062C213.621 154.128 214.185 154.535 211.545 154.981C208.905 155.428 207.854 154.692 207.67 154.325C207.5 154.009 208.734 153.523 210.048 152.985C210.219 152.919 210.376 152.853 210.547 152.775C212.031 152.144 212.872 150.844 214.028 149.635C215.131 148.493 216.208 144.802 216.208 144.802L219.794 144.079C219.794 144.079 218.743 147.402 218.376 148.821C218.165 149.662 218.454 150.594 218.704 151.317C218.848 151.698 218.993 152.105 219.032 152.525Z" fill="#DCABB0"/>
<path d="M215.538 154.062C213.621 154.128 214.185 154.535 211.545 154.981C208.905 155.428 207.854 154.692 207.67 154.325C207.5 154.009 208.734 153.523 210.048 152.985L210.074 153.011C210.074 153.011 211.913 153.668 214.067 153.116C215.814 152.67 217.522 151.645 218.717 151.33C218.861 151.724 218.993 152.118 219.032 152.538C219.124 153.72 217.456 153.983 215.538 154.062Z" fill="#2B478B"/>
<path d="M246.668 107.761C246.668 107.761 222.841 109.009 218.756 112.384C214.671 115.76 213.739 149.018 213.739 149.018C214.317 149.675 214.763 149.675 215.735 149.649C216.668 149.622 218.586 148.939 218.586 148.939C218.586 148.939 224.47 132.875 224.72 129.105C224.969 125.335 226.086 118.965 227.714 118.663C229.343 118.361 248.442 121.421 250.832 115.563C253.236 109.705 249.978 104.635 249.978 104.635L246.668 107.761Z" fill="#233862"/>
<path d="M257.859 113.671C256.835 114.355 254.182 114.735 251.108 114.841C245.604 115.038 238.748 114.381 237.395 113.107C237.04 112.778 236.87 112.227 236.83 111.544C236.686 109.429 237.684 105.961 238.367 103.085C238.8 101.219 239.103 99.6038 238.866 98.7763C238.117 96.2675 235.806 91.1579 235.595 89.4767C235.398 87.7954 237.395 78.7978 240.166 77.6813C242.938 76.5649 253.643 77.6813 253.643 77.6813C257.82 78.5351 258.004 87.4407 256.612 95.0328C256.572 95.2298 256.546 95.4268 256.506 95.6107C254.996 103.321 260.723 111.754 257.859 113.671Z" fill="#F9DDBF"/>
<path d="M242.018 78.4564C242.097 78.9424 243.437 79.7437 246.287 78.9818C249.033 78.2594 249.361 77.3662 249.361 76.7751C249.361 76.079 248.166 75.1332 248.179 70.8512L247.85 70.9169L242.321 72.0071C242.321 72.0071 242.452 73.7409 242.452 75.3828C242.465 76.762 241.887 77.642 242.018 78.4564Z" fill="#DCABB0"/>
<path d="M242.333 72.007C242.333 72.007 242.465 73.7409 242.465 75.3827C245.552 75.2908 247.193 72.4799 247.863 70.9168L242.333 72.007Z" fill="#CB7F83"/>
<path d="M241.296 73.5701C241.296 73.5701 248.612 73.6884 248.612 69.1305C248.612 64.5726 249.571 61.5253 244.895 61.2494C240.219 60.9736 239.313 62.7206 238.945 64.2442C238.577 65.7548 239.392 73.4125 241.296 73.5701Z" fill="#DCABB0"/>
<path d="M241.572 61.1312C241.572 61.1312 243.568 66.4772 246.655 67.2653C249.729 68.0534 251.068 67.2258 251.068 67.2258C251.068 67.2258 248.704 65.3475 248.218 62.0769C248.205 62.1032 243.082 58.5961 241.572 61.1312Z" fill="#0B0754"/>
<path d="M242.058 61.5647C242.058 61.5647 240.56 62.76 240.193 63.9159C239.825 65.0717 239.667 67.4623 238.971 67.3835C238.971 67.3835 237.461 63.7451 239.155 61.696C240.968 59.5287 242.058 61.5647 242.058 61.5647Z" fill="#0B0754"/>
<path d="M242.925 70.7986C242.925 70.7986 242.794 71.3766 241.349 71.2846C241.349 71.2846 240.14 71.2058 240.18 70.5753C240.18 70.5753 241.349 70.1287 242.925 70.7986Z" fill="white"/>
<path d="M234.768 153.825C234.729 155.021 233.048 155.1 231.13 154.955C229.212 154.811 229.737 155.27 227.058 155.415C224.378 155.559 223.433 154.706 223.288 154.325C223.157 153.996 224.431 153.655 225.797 153.261C225.968 153.208 226.138 153.156 226.309 153.116C227.846 152.656 228.831 151.461 230.118 150.384C231.34 149.373 229.015 144.079 229.015 144.079L232.483 142.595C232.483 142.595 232.942 146.312 233.612 149.583C233.783 150.423 234.414 151.842 234.584 152.578C234.689 152.998 234.781 153.405 234.768 153.825Z" fill="#DCABB0"/>
<path d="M257.859 113.672C256.835 114.355 254.181 114.735 251.108 114.841C246.038 113.685 240.258 112.345 236.83 111.544C236.686 109.429 237.684 105.961 238.367 103.085C242.373 104.306 248.336 100.142 250.333 98.4874C252.434 96.7535 252.369 90.9872 252.369 90.9872L256.611 95.0197C256.572 95.2167 256.546 95.4138 256.506 95.5977C254.996 103.321 260.723 111.754 257.859 113.672Z" fill="#F2CCAA"/>
<path d="M231.13 154.955C229.212 154.811 229.737 155.27 227.058 155.415C224.378 155.559 223.433 154.706 223.288 154.325C223.157 153.996 224.431 153.655 225.797 153.261L225.81 153.287C225.81 153.287 227.57 154.141 229.764 153.839C231.55 153.589 233.363 152.775 234.584 152.591C234.676 152.998 234.768 153.405 234.755 153.826C234.729 155.021 233.048 155.1 231.13 154.955Z" fill="#2B478B"/>
<path d="M251.712 109.429C245.696 108.969 227.648 109.495 224.063 111.885C219.662 114.827 230.276 148.519 230.276 148.519H233.691C233.691 148.519 235.674 128.961 234.439 125.047C233.297 121.434 232.561 120.147 234.216 120.016C235.871 119.884 256.244 123.47 258.253 117.468C259.829 112.778 258.069 108.286 258.069 108.286C258.069 108.286 257.255 109.862 251.712 109.429Z" fill="#2B478B"/>
<path d="M253.643 77.6814C253.643 77.6814 257.833 78.036 258.162 81.346C258.411 83.8548 260.237 101.679 258.924 103.229C255.233 107.59 242.925 108.523 241.112 109.179L240.613 107.117C240.613 107.117 253.748 100.497 253.551 98.9996C253.341 97.5022 249.637 77.0903 253.643 77.6814Z" fill="#F9DDBF"/>
<path d="M249.216 58.4253C249.216 58.4253 248.914 56.5207 251.568 56.0216C254.221 55.5224 254.26 61.1574 254.549 62.5103C254.838 63.8632 254.129 64.6776 253.118 64.7564C252.093 64.8483 249.216 58.4253 249.216 58.4253Z" fill="#0B0754"/>
<path d="M240.469 107.038C240.469 107.038 236.725 105.974 235.832 106.224C234.939 106.473 231.892 108.496 232.312 109.048C232.745 109.6 235.425 108.72 236.673 108.89C237.921 109.061 238.866 109.665 239.76 109.534C240.653 109.403 241.585 109.048 241.585 109.048L240.469 107.038Z" fill="#DCABB0"/>
<path d="M240.469 107.038C240.469 107.038 238.643 106.093 238.118 105.567C238.052 105.502 237.947 105.515 237.895 105.593C237.75 105.817 237.619 106.237 238.262 106.657C239.182 107.262 240.469 107.038 240.469 107.038Z" fill="#DCABB0"/>
<path d="M53.7533 115.156V116.167C53.7533 116.522 53.6351 116.811 53.5037 116.811H16.4759C16.3314 116.811 16.2263 116.522 16.2263 116.167V115.156C16.2263 114.801 16.3445 114.512 16.4759 114.512H53.5037C53.6482 114.512 53.7533 114.801 53.7533 115.156Z" fill="#93B3F4"/>
<path d="M53.753 115.156V116.167C53.753 116.522 53.6479 116.811 53.5166 116.811H24.1202C23.9889 116.811 23.8838 116.522 23.8838 116.167V115.156C23.8838 114.801 23.9889 114.512 24.1202 114.512H53.5166C53.6479 114.512 53.753 114.801 53.753 115.156Z" fill="#BED2FA"/>
<path d="M44.3878 116.811H18.0913V155.126H44.3878V116.811Z" fill="#BED2FA"/>
<path d="M51.7438 116.811H25.4604V155.126H51.7438V116.811Z" fill="white"/>
<path d="M50.3382 153.011H26.8789V117.888H50.3382V153.011ZM27.1285 152.761H50.0886V118.151H27.1285V152.761Z" fill="#BED2FA"/>
<path d="M50.2197 129.512H27.01V129.762H50.2197V129.512Z" fill="#BED2FA"/>
<path d="M50.2197 141.36H27.01V141.61H50.2197V141.36Z" fill="#BED2FA"/>
<path d="M40.9859 120.16H36.6776C36.4674 120.16 36.2966 119.989 36.2966 119.779C36.2966 119.569 36.4674 119.398 36.6776 119.398H40.9859C41.196 119.398 41.3668 119.569 41.3668 119.779C41.3668 119.989 41.196 120.16 40.9859 120.16Z" fill="#BED2FA"/>
<path d="M40.9859 131.745H36.6776C36.4674 131.745 36.2966 131.575 36.2966 131.365C36.2966 131.154 36.4674 130.984 36.6776 130.984H40.9859C41.196 130.984 41.3668 131.154 41.3668 131.365C41.3668 131.575 41.196 131.745 40.9859 131.745Z" fill="#BED2FA"/>
<path d="M40.9859 143.817H36.6776C36.4674 143.817 36.2966 143.646 36.2966 143.436C36.2966 143.225 36.4674 143.055 36.6776 143.055H40.9859C41.196 143.055 41.3668 143.225 41.3668 143.436C41.3668 143.646 41.196 143.817 40.9859 143.817Z" fill="#BED2FA"/>
<path d="M39.4225 107.918V114.512H32.7761V107.905C32.7761 107.839 32.7761 107.774 32.7893 107.721C32.8549 106.959 33.3409 106.329 34.0108 106.04C34.4837 105.843 34.8252 105.396 34.8515 104.884L34.904 103.938H37.3471L37.3603 104.884C37.3734 105.396 37.7018 105.843 38.1746 106.053C38.8445 106.342 39.3437 106.973 39.4093 107.734C39.4093 107.774 39.4225 107.853 39.4225 107.918Z" fill="white"/>
<path d="M37.5183 104.332H34.668L34.7468 103.597H37.4395L37.5183 104.332Z" fill="#BED2FA"/>
<path d="M39.4225 107.918V112.174H32.7761V107.905C32.7761 107.839 32.7761 107.774 32.7893 107.721H39.4093C39.4093 107.774 39.4225 107.853 39.4225 107.918Z" fill="white"/>
<path d="M44.874 110.821V114.512H41.1567V110.808C41.1567 110.769 41.1567 110.742 41.1567 110.703C41.1961 110.283 41.472 109.928 41.8398 109.77C42.1025 109.652 42.2995 109.416 42.3126 109.127L42.3389 108.588H43.7049L43.7181 109.114C43.7181 109.403 43.902 109.652 44.1778 109.77C44.5587 109.928 44.8346 110.283 44.874 110.703C44.874 110.742 44.874 110.782 44.874 110.821Z" fill="white"/>
<path d="M43.81 108.825H42.2207L42.2601 108.404H43.7707L43.81 108.825Z" fill="#BED2FA"/>
<path d="M44.874 110.821V113.199H41.1567V110.808C41.1567 110.769 41.1567 110.742 41.1567 110.703H44.8608C44.874 110.742 44.874 110.782 44.874 110.821Z" fill="white"/>
<path d="M146.824 134.626C146.824 134.626 143.584 130.858 146.628 128.447C146.628 128.447 148.844 127.105 150.653 127.211C150.653 127.211 148.09 131.506 148.919 131.928C149.748 132.35 151.437 126.939 151.437 126.939C151.437 126.939 156.486 126.457 158.114 127.226C158.114 127.226 153.803 130.753 154.707 130.964C155.612 131.175 160.284 127.708 160.284 127.708C160.284 127.708 164.987 128.507 164.731 131.371C164.474 134.235 162.862 135.124 162.153 135.048C161.445 134.973 157.285 133.39 157.194 133.963C157.104 134.551 159.606 136.45 161.369 136.541C161.369 136.541 158.053 140.188 155.853 139.133C153.652 138.078 153.456 136.405 152.085 135.787C150.713 135.154 149.537 135.169 150.11 135.802C150.683 136.435 153.155 137.068 153.939 138.455C154.722 139.842 155.431 140.776 153.155 140.429C150.879 140.083 147.171 138.425 147.02 136.51C146.824 134.626 146.824 134.626 146.824 134.626Z" fill="#C8DBF4"/>
<path d="M162.394 131.461C162.394 131.461 149.628 130.964 146.809 134.611C146.809 134.611 146.191 136.48 144.262 138.184L143.961 138.997C143.961 138.997 146.176 136.661 146.96 136.526C146.99 136.526 145.754 132.004 162.394 131.461Z" fill="#C8DBF4"/>
<path d="M144.277 138.184C144.277 138.184 141.534 140.203 141.353 143.821L141.85 143.866C141.85 143.866 142.725 140.128 144.307 138.666C145.89 137.204 144.277 138.184 144.277 138.184Z" fill="#C8DBF4"/>
<path d="M135.504 129.878C135.504 129.878 140.659 127 138.247 123.081C138.247 123.081 136.318 120.684 134.268 120.066C134.268 120.066 135.368 125.899 134.268 126.035C133.168 126.171 133.514 119.448 133.514 119.448C133.514 119.448 128.088 116.841 125.963 117.052C125.963 117.052 129.324 122.749 128.224 122.613C127.124 122.478 123.355 116.705 123.355 116.705C123.355 116.705 117.794 115.68 116.904 118.966C116.015 122.267 117.447 123.91 118.276 124.121C119.105 124.332 124.38 124.256 124.245 124.95C124.109 125.643 120.537 126.728 118.547 126.11C118.547 126.11 120.748 131.536 123.627 131.265C126.506 130.994 127.395 129.2 129.189 129.065C130.967 128.929 132.278 129.411 131.389 129.894C130.5 130.376 127.47 130.044 126.038 131.28C124.591 132.501 123.431 133.255 126.114 133.812C128.797 134.355 133.59 134.023 134.554 131.958C135.504 129.878 135.504 129.878 135.504 129.878Z" fill="#C8DBF4"/>
<path d="M119.452 119.991C119.452 119.991 133.861 124.663 135.519 129.879C135.519 129.879 135.444 132.215 136.891 134.883V135.908C136.891 135.908 135.383 132.411 134.554 131.928C134.539 131.928 137.765 127.407 119.452 119.991Z" fill="#C8DBF4"/>
<path d="M136.876 134.883C136.876 134.883 139.091 138.259 137.825 142.374L137.253 142.223C137.253 142.223 137.81 137.701 136.65 135.425C135.489 133.134 136.876 134.883 136.876 134.883Z" fill="#C8DBF4"/>
<path d="M143.704 125.899C143.704 125.899 136.921 122.101 140.087 116.946C140.087 116.946 142.619 113.781 145.332 112.967C145.332 112.967 143.885 120.654 145.332 120.835C146.779 121.016 146.327 112.153 146.327 112.153C146.327 112.153 153.471 108.717 156.275 108.988C156.275 108.988 151.843 116.494 153.29 116.313C154.737 116.132 159.711 108.536 159.711 108.536C159.711 108.536 167.037 107.179 168.212 111.52C169.388 115.861 167.489 118.031 166.404 118.303C165.318 118.574 158.355 118.484 158.536 119.388C158.716 120.292 163.419 121.739 166.042 120.925C166.042 120.925 163.148 128.07 159.35 127.708C155.551 127.346 154.376 124.995 152.024 124.814C149.673 124.633 147.955 125.266 149.13 125.899C150.306 126.532 154.285 126.11 156.184 127.723C158.083 129.336 159.621 130.331 156.094 131.054C152.567 131.778 146.236 131.326 144.97 128.612C143.704 125.899 143.704 125.899 143.704 125.899Z" fill="#D4E4F8"/>
<path d="M164.867 112.862C164.867 112.862 145.86 119.011 143.69 125.884C143.69 125.884 143.78 128.959 141.881 132.486V133.843C141.881 133.843 143.87 129.23 144.956 128.597C144.971 128.612 140.705 122.644 164.867 112.862Z" fill="#D4E4F8"/>
<path d="M141.881 132.501C141.881 132.501 138.957 136.948 140.615 142.374L141.368 142.178C141.368 142.178 140.63 136.209 142.167 133.21C143.72 130.195 141.881 132.501 141.881 132.501Z" fill="#D4E4F8"/>
<path d="M143.463 154.115C150.803 154.115 156.757 148.162 156.757 140.821H130.168C130.168 148.162 136.122 154.115 143.463 154.115Z" fill="#D4E4F8"/>
<path d="M156.938 154.794H129.988C129.988 153.889 130.726 153.151 131.631 153.151H155.31C156.214 153.151 156.938 153.889 156.938 154.794Z" fill="#D4E4F8"/>
<path d="M157.058 140.821H129.732V141.228H157.058V140.821Z" fill="#9FC1F4"/>
</svg>
