<svg width="200" height="154" viewBox="0 0 200 154" fill="none" xmlns="http://www.w3.org/2000/svg">
<g clip-path="url(#clip0_1596_777)">
<path d="M9.41081 165.083C9.41081 165.083 -5.2283 147.157 2.00993 112.525C6.56431 90.7415 25.6765 79.953 51.3023 80.9833C60.1079 81.3365 74.4439 70.7835 95.0422 57.8167C139.093 30.0875 202.817 41.8621 187.564 104.238C180.186 134.425 210.78 134.911 195.571 165.083H9.41081Z" fill="#EBF3FA"/>
<path d="M146.631 49.5023C146.403 45.4713 139.717 45.3033 139.717 45.3033C139.717 45.3033 133.938 51.0539 132.633 50.9441C131.329 50.8343 136.614 45.0628 136.614 45.0628C134.202 44.304 127.288 45.9973 127.288 45.9973C127.288 45.9973 126.041 53.8672 124.803 53.439C123.566 53.0118 126.264 46.5277 126.264 46.5277C123.729 46.7396 120.917 49.0499 120.917 49.0499C117.18 52.9909 122.433 57.5864 122.433 57.5864C122.433 57.5864 121.943 60.3041 119.619 63.0504C119.619 63.0504 119.122 63.5435 118.534 64.434L119.184 64.5713C119.274 64.4088 119.368 64.2517 119.468 64.1046C119.468 64.1035 119.469 64.1024 119.47 64.1024C119.471 64.1002 119.473 64.098 119.474 64.0958C119.54 64.0047 119.634 63.8751 119.751 63.7181C119.751 63.7181 119.751 63.7181 119.751 63.717C119.751 63.717 119.751 63.717 119.752 63.7159C120.032 63.3689 120.227 63.1108 120.356 62.9209C120.356 62.9198 120.357 62.9198 120.357 62.9187C121.209 61.825 122.402 60.4161 123.044 60.2031C123.044 60.2031 122.993 60.0867 122.968 59.8759C122.992 59.9802 123.018 60.0889 123.044 60.2031C123.652 62.8209 129.13 64.3934 132.362 64.412C135.595 64.4307 134.429 63.2722 133.061 61.501C131.692 59.7298 128.117 59.3653 127.202 58.5911C126.287 57.817 127.914 57.5798 129.946 58.175C131.978 58.7701 132.575 61.0541 135.844 62.0764C139.113 63.0987 142.982 57.3602 142.982 57.3602C140.526 57.5886 136.665 55.4451 136.673 54.6172C136.682 53.7892 142.783 55.1607 143.787 55.1234C144.787 55.0883 146.858 53.5334 146.631 49.5023Z" fill="#DFEBFD"/>
<path opacity="0.5" d="M124.759 40.4221C124.759 40.4221 128.785 25.9769 137.679 18.3573C138.861 17.3449 140.665 18.3837 140.396 19.9166C140.392 19.9419 140.387 19.9682 140.382 19.9946C139.88 22.6036 129.729 32.3754 124.759 40.4221Z" fill="#AFCDFB"/>
<path opacity="0.5" d="M123.193 44.4928C123.193 44.4928 133.542 27.2573 147.632 21.1004C148.49 20.7249 149.523 21.0686 149.93 21.913C150.195 22.4631 150.229 23.2636 149.659 24.4177C148.137 27.4956 132.143 36.1792 123.193 44.4928Z" fill="#AFCDFB"/>
<path opacity="0.5" d="M121.56 117.414C121.56 117.414 137.269 109.541 140.112 112.283C142.954 115.026 121.56 117.414 121.56 117.414Z" fill="#AFCDFB"/>
<path opacity="0.5" d="M119.004 118.359C119.004 118.359 140.038 116.512 140.369 120.895C140.698 125.278 119.004 118.359 119.004 118.359Z" fill="#AFCDFB"/>
<path d="M46.5103 25.7288C49.1929 17.457 63.211 20.771 63.211 20.771C63.211 20.771 72.0966 35.9135 74.8737 36.4C77.6507 36.8864 69.8049 21.9701 69.8049 21.9701C75.2448 21.7121 88.7171 29.0264 88.7171 29.0264C88.7171 29.0264 87.003 46.0993 89.8152 45.8874C92.6263 45.6754 90.5619 30.6921 90.5619 30.6921C95.724 32.5215 100.314 38.8739 100.314 38.8739C105.938 49.1289 92.4791 55.8217 92.4791 55.8217C92.4791 55.8217 92.0125 61.7513 95.3462 68.7428C95.3462 68.7428 96.1127 70.0407 96.8484 72.2204L95.4198 72.1501C95.3221 71.7614 95.2112 71.3847 95.0871 71.0224C95.0871 71.0191 95.086 71.018 95.0849 71.0158C95.0827 71.0103 95.0816 71.0059 95.0794 71.0004C94.9926 70.7753 94.8675 70.4536 94.7104 70.0626C94.7104 70.0626 94.7104 70.0615 94.7093 70.0615C94.7093 70.0605 94.7082 70.0604 94.7082 70.0594C94.314 69.1831 94.0494 68.5385 93.8858 68.0729C93.8847 68.0718 93.8847 68.0696 93.8847 68.0685C92.7086 65.3222 90.9967 61.7359 89.7757 60.9409C89.7757 60.9409 89.9448 60.7268 90.1139 60.3007C90.0063 60.505 89.8943 60.718 89.7757 60.9409C87.0733 66.0601 74.8045 66.3336 68.0612 64.6019C61.3179 62.8702 64.3815 61.0946 68.2028 58.1573C72.0241 55.2188 79.6679 56.419 81.9991 55.3078C84.3292 54.1965 81.0712 52.8107 76.5131 52.937C71.955 53.0633 69.4612 57.4929 62.092 57.8312C54.7217 58.1694 49.8111 44.0975 49.8111 44.0975C54.7986 45.9181 64.0181 43.5693 64.4529 41.8398C64.8877 40.1104 51.4308 39.625 49.3609 38.998C47.291 38.371 43.8288 34.0018 46.5103 25.7288Z" fill="#DFEBFD"/>
<path d="M142.685 88.145C141.35 83.2146 133.03 84.7552 133.03 84.7552C133.03 84.7552 127.38 93.3839 125.736 93.5893C124.092 93.7946 129.126 85.2691 129.126 85.2691C125.941 84.9606 117.827 88.8642 117.827 88.8642C117.827 88.8642 118.341 98.9314 116.697 98.725C115.053 98.5196 116.697 89.7877 116.697 89.7877C113.616 90.7123 110.739 94.3074 110.739 94.3074C107.143 100.162 114.848 104.477 114.848 104.477C114.848 104.477 114.95 107.97 112.793 111.975C112.793 111.975 112.307 112.716 111.811 113.973H112.651C112.721 113.748 112.795 113.529 112.88 113.321C112.88 113.32 112.88 113.318 112.881 113.317C112.882 113.314 112.883 113.312 112.884 113.309C112.941 113.179 113.025 112.994 113.128 112.769C113.128 112.769 113.128 112.769 113.128 112.768C113.128 112.768 113.128 112.768 113.128 112.767C113.385 112.264 113.558 111.893 113.668 111.625C113.668 111.624 113.669 111.623 113.669 111.623C114.438 110.046 115.546 107.991 116.285 107.56C116.285 107.56 116.192 107.429 116.105 107.175C116.162 107.298 116.222 107.426 116.285 107.56C117.723 110.641 124.914 111.155 128.919 110.334C132.925 109.512 131.179 108.383 129.022 106.549C126.865 104.715 122.344 105.198 121.009 104.479C119.674 103.76 121.625 103.04 124.297 103.246C126.968 103.451 128.302 106.122 132.617 106.533C136.931 106.944 140.219 98.8293 140.219 98.8293C137.24 99.7539 131.899 98.11 131.693 97.0833C131.488 96.0555 139.397 96.1588 140.63 95.8502C141.863 95.5405 144.02 93.0754 142.685 88.145Z" fill="#DFEBFD"/>
<path d="M56.4536 82.3769C59.4118 76.7712 69.0661 80.9011 69.0661 80.9011C69.0661 80.9011 73.5573 92.8844 75.491 93.5806C77.4247 94.2768 73.6517 82.5845 73.6517 82.5845C77.5905 83.0786 86.3532 90.0119 86.3532 90.0119C86.3532 90.0119 82.9919 102.059 85.0377 102.258C87.0834 102.456 87.4699 91.4383 87.4699 91.4383C90.9486 93.3961 93.4522 98.5318 93.4522 98.5318C96.2117 106.598 85.7108 109.726 85.7108 109.726C85.7108 109.726 84.6358 113.926 86.1577 119.362C86.1577 119.362 86.5453 120.39 86.8023 122.047L85.7855 121.819C85.7635 121.528 85.7317 121.243 85.6866 120.968C85.6866 120.966 85.6866 120.964 85.6855 120.962C85.6844 120.958 85.6844 120.955 85.6833 120.95C85.6493 120.778 85.5988 120.531 85.5351 120.231V120.23C85.5351 120.229 85.5351 120.229 85.5351 120.229C85.3616 119.55 85.2518 119.054 85.1925 118.7C85.1925 118.699 85.1925 118.698 85.1925 118.697C84.6907 116.578 83.9088 113.789 83.1314 113.066C83.1314 113.066 83.2796 112.933 83.4542 112.649C83.351 112.782 83.2445 112.921 83.1314 113.066C80.552 116.405 71.707 115.07 67.0808 112.985C62.4546 110.9 64.8759 110.007 67.9867 108.374C71.0976 106.741 76.4375 108.556 78.2494 108.049C80.0612 107.542 77.8947 106.14 74.6048 105.662C71.3161 105.184 68.9717 108.053 63.6372 107.377C58.3028 106.7 56.5316 95.981 56.5316 95.981C59.8862 97.9114 66.8008 97.3745 67.329 96.1874C67.8571 94.9993 58.2534 92.9712 56.8456 92.2629C55.4357 91.5547 53.4954 87.9826 56.4536 82.3769Z" fill="#CDE0FB"/>
<path d="M53.7474 128.124C52.1826 124.732 57.572 121.692 57.572 121.692C57.572 121.692 64.7885 123.881 65.8065 123.225C66.8244 122.57 60.002 120.15 60.002 120.15C61.6436 118.483 68.0257 116.864 68.0257 116.864C68.0257 116.864 72.4608 122.751 73.2855 121.864C74.1112 120.978 69.093 116.852 69.093 116.852C71.2551 115.924 74.5549 116.592 74.5549 116.592C79.3183 118.188 77.0222 124.222 77.0222 124.222C77.0222 124.222 78.6035 126.23 81.6924 127.464C81.6924 127.464 82.3128 127.651 83.1803 128.123L82.7092 128.517C82.5653 128.422 82.4204 128.336 82.2754 128.258C82.2743 128.257 82.2743 128.257 82.2732 128.257C82.271 128.256 82.2689 128.254 82.2667 128.253C82.1733 128.207 82.0404 128.142 81.8768 128.065C81.8768 128.065 81.8768 128.065 81.8757 128.065C81.8757 128.065 81.8757 128.065 81.8746 128.065C81.4947 127.903 81.2235 127.777 81.0368 127.678C81.0357 127.678 81.0357 127.677 81.0346 127.677C79.863 127.153 78.2773 126.521 77.6613 126.625C77.6613 126.625 77.6525 126.507 77.5812 126.324C77.6064 126.42 77.6328 126.52 77.6613 126.625C78.3004 129.028 74.5087 132.69 71.8766 134.108C69.2445 135.527 69.6937 134.074 70.0428 132.034C70.392 129.994 73.1537 128.145 73.5655 127.115C73.9773 126.085 72.5454 126.597 71.1442 127.966C69.7431 129.334 70.2471 131.459 68.0202 133.713C65.7933 135.967 60.1426 132.959 60.1426 132.959C62.2465 132.079 64.4712 128.652 64.1044 127.979C63.7377 127.307 59.3498 131.075 58.5141 131.481C57.6774 131.886 55.311 131.515 53.7474 128.124Z" fill="#D9E8FA"/>
<path d="M36.7952 107.109C36.7952 107.109 38.5719 107.314 39.9478 107.231C41.6684 107.128 43.7888 107.085 44.183 107.543C44.5762 108.001 44.5762 108.001 43.813 108.405C43.2178 108.719 40.9229 109.73 39.3735 109.252C37.823 108.772 35.8442 108.87 35.8442 108.87L36.7952 107.109Z" fill="#FFB27D"/>
<path d="M17.8247 90.1838C17.8247 90.1838 21.1354 106.582 25.0764 107.834C27.0211 108.452 35.5213 109.609 38.0162 109.627C38.0162 109.627 38.5959 109.097 38.328 107.096C38.328 107.096 29.3337 104.389 27.9786 102.705C25.9615 100.2 28.498 91.9517 26.0164 89.6336C23.5336 87.3156 19.5377 86.4931 17.8247 90.1838Z" fill="#7AA9E2"/>
<path d="M19.399 151.291H19.8766C20.3554 151.291 20.7463 150.899 20.7463 150.421V123.952C20.7463 123.473 20.3543 123.082 19.8766 123.082H19.399C18.9202 123.082 18.5293 123.474 18.5293 123.952V150.421C18.5282 150.899 18.9202 151.291 19.399 151.291Z" fill="#96C1ED"/>
<path d="M9.69043 153.146C10.7336 150.989 14.791 149.379 19.6379 149.379C24.4848 149.379 28.5422 150.989 29.5854 153.146H9.69043Z" fill="#96C1ED"/>
<path d="M12.339 145.828H26.9357C27.0894 145.828 27.2146 145.703 27.2146 145.549V144.97C27.2146 144.817 27.0894 144.691 26.9357 144.691H12.339C12.1852 144.691 12.0601 144.817 12.0601 144.97V145.549C12.0601 145.703 12.1852 145.828 12.339 145.828Z" fill="#96C1ED"/>
<path d="M18.3449 120.512C19.0246 121.665 19.8108 122.746 20.6223 123.77C23.127 126.932 25.8546 129.54 26.329 132.004C26.4234 132.495 26.5739 133.024 26.7693 133.582C26.9681 134.147 27.2129 134.741 27.4962 135.354C28.5592 137.664 30.1492 140.251 31.7359 142.603C34.48 146.669 37.0605 150.061 37.0605 150.061L41.7921 149.859C41.6021 149.385 39.5389 143.771 36.7783 136.91C35.6572 134.126 34.4646 131.163 33.315 128.306C33.1612 127.925 33.0086 127.545 32.8571 127.168C32.5057 126.294 32.1598 125.433 31.8216 124.595C29.229 118.153 27.1646 113.024 27.1646 113.024C27.1646 113.024 16.8032 109.099 15.7281 111.643C14.8398 113.739 15.5623 115.793 18.3449 120.512Z" fill="#163560"/>
<path d="M37.2085 149.201C37.2085 149.201 37.4501 153.106 38.2056 153.162C38.3055 153.17 42.0367 153.17 42.0367 153.17L46.7991 153.142C46.7991 153.142 46.7684 151.995 45.376 151.752C43.9836 151.509 41.6535 150.531 40.8102 148.691C39.924 146.755 37.2085 149.201 37.2085 149.201Z" fill="#163560"/>
<path d="M26.2525 138.047C26.2525 138.047 22.9616 140.162 23.2811 140.848C23.324 140.939 25.1424 144.197 25.1424 144.197L27.4879 148.342C27.4879 148.342 28.475 147.756 28.0084 146.422C27.5417 145.088 27.2595 142.576 28.4553 140.944C29.7115 139.225 26.2525 138.047 26.2525 138.047Z" fill="#163560"/>
<path d="M30.8864 111.275C30.8864 111.275 44.9111 121.349 46.4418 124.514C47.6376 126.986 28.5804 142.696 28.5804 142.696C28.5804 142.696 25.8045 139.946 25.4421 138.615C25.4421 138.615 32.0064 129.182 37.208 126.119C38.7563 125.208 18.6395 122.981 16.4621 119.593C14.2846 116.206 15.4848 111.72 15.4848 111.72L30.8864 111.275Z" fill="#1C468A"/>
<path d="M8.29999 126.113H30.8227C32.4808 126.113 33.8369 124.757 33.8369 123.097V122.611C33.8369 120.953 32.4808 119.596 30.8227 119.596H8.29999C6.64189 119.596 5.28467 120.952 5.28467 122.611V123.097C5.28577 124.756 6.64189 126.113 8.29999 126.113Z" fill="#86D1CD"/>
<path d="M24.6908 82.7687C25.9679 83.5604 26.6717 84.5641 26.6717 84.5641C23.5565 85.3701 18.3911 82.4832 18.3911 82.4832C18.3911 82.4832 20.3962 81.1359 21.1396 78.1755C21.1769 78.0261 21.211 77.8724 21.2417 77.7165C21.3395 77.2179 21.3998 76.6777 21.4108 76.0957L22.8416 77.3783L25.2212 79.5107C25.2212 79.5107 25.1674 80.3958 24.8698 81.9177C24.8182 82.1802 24.7589 82.4657 24.6908 82.7687Z" fill="#FFB27D"/>
<path d="M31.0989 110.728C31.0923 110.76 31.0824 110.792 31.0714 110.825C30.7716 111.667 26.2366 114.526 23.174 115.662C21.2623 116.371 14.6299 117.955 14.1929 116.591C13.6866 115.009 15.5402 103.483 15.0933 97.4808C14.5673 90.1435 16.5988 83.465 19.423 81.2853C19.636 81.1283 20.0588 81.5455 21.2821 82.1264C22.412 82.6623 23.6605 82.8149 24.7179 82.5832L25.6645 83.3969C26.9745 84.574 28.413 86.1816 29.0652 88.6446C29.4638 90.1556 29.7658 92.5483 29.9898 95.2364C30.0755 96.2785 30.1512 97.3655 30.216 98.4625C30.3159 100.211 30.4049 101.974 30.4477 103.65C30.4488 103.682 30.4499 103.714 30.4499 103.746L30.451 103.807C30.4686 103.976 30.4719 104.16 30.473 104.33C30.4785 104.499 30.4829 104.668 30.4872 104.835C30.518 106.147 30.5158 107.365 30.5619 108.418C30.585 108.946 30.6915 109.325 30.8046 109.626C30.9199 109.933 31.0429 110.158 31.0934 110.374C31.1197 110.491 31.1263 110.606 31.0989 110.728Z" fill="#B0D4FF"/>
<path d="M25.223 79.5094C25.223 79.5094 25.1692 80.3945 24.8716 81.9164C22.548 81.1653 21.4939 79.0669 21.1414 78.1764C21.0415 77.9249 20.9976 77.769 20.9976 77.769C20.9976 77.769 21.0876 77.7492 21.2435 77.7163C21.5697 77.6471 22.1857 77.5164 22.8434 77.377L25.223 79.5094Z" fill="#ED975D"/>
<path d="M25.9314 80.2606C25.9314 80.2606 20.7946 80.1299 20.9253 76.9323C21.056 73.7347 20.4806 71.5649 23.766 71.5133C27.0515 71.4617 27.6379 72.708 27.8542 73.7852C28.0694 74.8624 27.2711 80.2122 25.9314 80.2606Z" fill="#FFB27D"/>
<path d="M44.3167 107.781L44.7637 107.926L48.5656 96.2235L48.1186 96.0783L44.3167 107.781Z" fill="#1C468A"/>
<path d="M31.8583 107.648L44.7681 107.924L44.7846 107.152L31.8749 106.876L31.8583 107.648Z" fill="#1C468A"/>
<path d="M20.2865 70.9888C20.2547 70.935 20.1668 70.8812 19.9615 70.8329C19.9615 70.8329 20.146 70.7582 20.37 70.7923C20.4644 70.5101 20.7093 70.0258 21.2298 69.9896C21.2298 69.9896 20.9366 70.0851 20.8477 70.386C21.5296 69.8962 22.8418 69.6843 26.2173 70.5606C30.6645 71.7169 28.666 74.3413 28.0214 74.5817C27.3757 74.8222 26.0734 73.6176 24.9698 73.5111C23.8663 73.4046 23.3809 74.9397 22.9735 75.0902C22.5661 75.2406 22.7792 74.8848 22.3191 74.5708C21.8601 74.2567 21.6657 75.0759 21.714 75.6392C21.7624 76.2025 20.9509 76.7911 20.9509 76.7911C20.9509 76.7911 20.9509 76.7911 20.3898 75.9214C19.8286 75.0517 19.7364 71.7729 20.1712 71.1535C20.2097 71.0997 20.2481 71.0437 20.2865 70.9888Z" fill="#2C3A64"/>
<path d="M30.803 109.625C29.5556 109.423 26.4755 108.806 24.2387 107.406C20.2022 104.879 17.8237 92.0547 17.8237 92.0547L24.1465 100.152L30.478 104.786L30.4868 104.833C30.5175 106.145 30.5153 107.363 30.5614 108.416C30.5834 108.945 30.6899 109.324 30.803 109.625Z" fill="#91B8EF"/>
<path d="M36.8139 103.679C36.8139 103.679 37.2619 103.829 37.7857 103.679C38.3084 103.53 40.1026 103.082 40.4013 103.231C40.7 103.381 41.6345 104.128 41.8585 104.278C42.0825 104.427 42.4185 105.063 42.4185 105.063C42.212 105.213 41.6542 104.7 41.3731 104.663C41.0931 104.626 38.8497 105.417 38.2326 105.343C37.6166 105.268 36.6821 104.988 36.6821 104.988L36.8139 103.679Z" fill="#FFB27D"/>
<path d="M40.5337 104.375C40.5337 104.409 41.1464 105.364 41.7591 105.192L41.2343 104.474L40.5337 104.375Z" fill="#FFB27D"/>
<path d="M37.7861 103.68C37.7861 103.68 38.5581 103.167 38.8282 102.904C38.8282 102.904 38.9523 102.987 38.9391 103.101C38.9172 103.292 38.6767 103.608 38.6767 103.608L37.7861 103.68Z" fill="#FFB27D"/>
<path d="M24.247 85.6656C20.9232 82.8227 15.9357 86.0401 17.1315 90.2479C18.5184 95.1256 21.1955 103.172 23.9495 103.954C25.9117 104.511 34.4438 105.404 36.9386 105.344C36.9386 105.344 37.4009 105.521 37.0715 103.528C37.0715 103.528 27.7159 100.638 26.6903 98.7361C26.1412 97.717 26.8758 87.9705 24.3239 85.7315C24.2986 85.7096 24.2734 85.6876 24.247 85.6656Z" fill="#B0D4FF"/>
<path d="M166.967 79.75C166.967 79.75 173.413 86.4329 173.717 88.9486C174.021 91.4643 170.629 95.391 170.629 95.391L166.967 79.75Z" fill="#71BDB9"/>
<path d="M164.055 149.011C164.055 149.011 163.828 152.555 163.142 152.605C163.051 152.611 159.663 152.604 159.663 152.604L155.339 152.57C155.339 152.57 155.37 151.528 156.634 151.31C157.898 151.093 160.016 150.209 160.785 148.54C161.595 146.784 164.055 149.011 164.055 149.011Z" fill="#163560"/>
<path d="M173.688 149.032C173.688 149.032 173.461 152.577 172.775 152.626C172.683 152.633 169.296 152.625 169.296 152.625L164.972 152.591C164.972 152.591 165.002 151.549 166.266 151.332C167.531 151.114 169.648 150.23 170.418 148.561C171.227 146.805 173.688 149.032 173.688 149.032Z" fill="#163560"/>
<path d="M159.35 110.897C159.35 110.897 160.466 118.133 164.657 130.983C168.848 143.833 169.412 149.394 169.412 149.394L173.938 149.277C173.938 149.277 174.007 135.243 172.077 128.782C170.146 122.321 171.708 105.502 171.708 105.502L159.35 110.897Z" fill="#163560"/>
<path d="M157.159 105.867C157.159 105.867 156.975 116.768 158.832 130.156C160.689 143.543 160.038 149.224 160.038 149.224L164.554 149.384C164.554 149.384 167.283 136.001 166.523 129.3C165.763 122.6 170.27 106.321 170.27 106.321L157.159 105.867Z" fill="#1C468A"/>
<path d="M165.957 80.3779L163.546 81.9503L160.07 81.2948C160.118 81.0137 160.351 79.8508 160.562 78.7967C160.575 78.7341 160.587 78.6726 160.599 78.6111C160.78 77.7151 160.936 76.9442 160.936 76.9442L164.188 75.5178L165.4 74.9863C165.397 75.005 165.303 75.9812 165.291 76.1239C165.058 78.6561 165.957 80.3779 165.957 80.3779Z" fill="#FFB27D"/>
<path d="M160.965 79.5724C161.033 79.5438 165.156 78.337 165.603 78.4853C166.05 78.6346 166.314 79.501 166.314 79.501L159.569 81.0108C159.57 81.0108 160.103 79.9325 160.965 79.5724Z" fill="#71BDB9"/>
<path d="M172.002 107.247C171.297 110.432 159.671 110.785 156.679 107.886C156.339 107.555 156.326 106.021 156.459 103.953C156.719 99.9136 157.539 93.8358 157.578 90.7304C157.596 89.2304 157.806 87.6975 158.083 86.3051C158.674 83.3381 159.568 81.0102 159.568 81.0102C159.568 81.0102 165.251 79.1863 166.313 79.5014C171.429 81.0157 172.707 104.061 172.002 107.247Z" fill="#86D1CD"/>
<path d="M156.459 103.952C156.72 99.9126 157.54 93.8348 157.578 90.7294C157.597 89.2294 157.807 87.6965 158.084 86.3041L161.501 85.709C161.501 85.709 164.811 99.357 156.459 103.952Z" fill="#71BDB9"/>
<path d="M158.321 98.3245C158.321 98.3245 158.553 98.8812 158.063 99.2546C157.573 99.6268 157.255 100.232 157.366 100.674C157.477 101.117 158.547 101.842 158.92 101.725C159.292 101.61 160.05 101.029 159.968 100.795C159.887 100.561 160.482 98.7484 159.576 98.0478C158.673 97.3472 158.321 98.3245 158.321 98.3245Z" fill="#FFB27D"/>
<path d="M162.18 80.1973C162.18 80.1973 158.847 80.8133 156.185 84.7191C153.522 88.625 151.769 91.5294 152.255 92.9405C152.74 94.3515 157.187 99.2511 157.956 99.2522C158.724 99.2544 159.965 98.6977 160.038 97.4404C160.038 97.4404 156.91 92.7307 157.53 92.028C157.794 91.7271 161.611 88.6426 162.152 90.0415C163.046 92.3541 162.18 80.1973 162.18 80.1973Z" fill="#86D1CD"/>
<path d="M165.049 76.1709C164.333 77.3777 161.672 78.4175 160.563 78.7986C160.576 78.736 160.588 78.6745 160.6 78.613C160.782 77.717 160.937 76.9461 160.937 76.9461L164.189 75.5197C164.908 75.5131 165.344 75.6746 165.049 76.1709Z" fill="#FCA56B"/>
<path d="M159.713 76.7478C159.713 76.7478 164.942 78.3916 165.916 75.1193C166.89 71.8471 168.22 69.8551 164.922 68.667C161.625 67.4789 160.601 68.5342 160.01 69.5477C159.42 70.5601 158.378 76.2361 159.713 76.7478Z" fill="#FFB27D"/>
<path d="M160.218 69.2309C160.218 69.2309 160.543 73.0423 161.331 72.8787C162.12 72.7151 162.835 72.5943 162.717 73.7418C162.6 74.8904 161.504 76.2146 163.932 76.4222C166.359 76.6308 169.864 70.3751 169.2 69.188C167.282 65.762 157.444 65.0505 160.218 69.2309Z" fill="#163560"/>
<path d="M104.299 92.6183C104.202 92.7556 103.791 93.4122 104.319 94.1523C104.353 94.1985 104.375 94.2369 104.389 94.2687C110.715 98.0692 129.688 113.444 129.688 124.281V146.732H72.4263V124.273C72.4263 113.367 91.658 97.7475 97.8446 94.1523C97.8457 94.1523 97.8457 94.1523 97.8457 94.1523C98.0444 93.8745 98.1092 93.6088 98.1092 93.3771C98.1092 92.9148 97.8457 92.5909 97.8457 92.5909C91.6437 88.9156 72.4263 73.4119 72.4263 62.5057V40.0566H129.688V62.5156C129.688 73.4042 110.519 88.9914 104.299 92.6183Z" fill="#B0D4FF"/>
<path d="M132.973 152.515H68.6875V149.748C68.6875 148.082 70.037 146.732 71.7028 146.732H130.082C131.679 146.732 132.973 148.027 132.973 149.624V152.515V152.515Z" fill="#86D1CD"/>
<path d="M88.8173 125.662C88.5241 130.686 89.4794 141.526 89.3927 146.732H72.4263V124.273C72.4263 113.367 91.658 97.7475 97.8446 94.1523C97.8457 94.1523 97.8457 94.1523 97.8457 94.1523C98.0444 93.8745 98.1092 93.6088 98.1092 93.3771C98.1092 92.9148 97.8457 92.5909 97.8457 92.5909C91.6437 88.9156 72.4263 73.4119 72.4263 62.5057V40.0566H83.7771L91.8798 42.2737V60.0274C91.8798 60.0274 91.0771 65.1411 93.0866 70.1637C95.0961 75.1863 99.4093 91.3006 99.3424 93.3936C99.2743 95.4876 89.3191 117.048 88.8173 125.662Z" fill="#A4C8FC"/>
<path d="M122.27 54.9809C118.799 55.0336 112.831 55.6595 103.176 58.0951C96.5656 59.762 85.1686 58.5069 79.1402 57.6427C77.0253 57.3396 75.1333 58.979 75.1333 61.1159V63.703C75.1333 70.8328 94.3167 86.2773 99.3898 90.2358C100.158 90.8354 100.608 91.7556 100.608 92.7307V132.378C100.608 133.732 99.94 134.992 98.8309 135.769C94.8416 138.561 88.1192 146.732 88.1192 146.732H113.544C113.544 146.732 106.726 138.847 102.899 135.919C102.025 135.252 101.51 134.217 101.51 133.118V92.7197C101.51 91.7501 101.951 90.8332 102.708 90.227C107.681 86.2443 126.445 70.7427 126.445 63.6184V59.0921C126.445 56.7972 124.565 54.9469 122.27 54.9809Z" fill="#739AF0"/>
<path d="M129.975 42.2727H71.5787C69.9821 42.2727 68.6875 40.9781 68.6875 39.3815V36.4902H132.973V39.2739C132.973 40.9298 131.63 42.2727 129.975 42.2727Z" fill="#86D1CD"/>
<path d="M96.8682 33.7319C95.5275 36.0653 93.8408 36.9668 93.8408 36.9668H86.8252C86.8241 36.9657 97.8905 31.9519 96.8682 33.7319Z" fill="#233862"/>
<path d="M91.4778 51.7886C91.2944 51.9983 91.2713 52.2322 91.3625 52.4825C91.3625 52.4836 91.3636 52.4847 91.3647 52.4858C91.5316 52.9481 92.085 53.4642 92.7274 53.9803C92.8097 54.0462 92.8822 54.1066 92.9459 54.1626C92.9624 54.1769 92.9788 54.1923 92.9953 54.2065C93.0085 54.2175 93.0206 54.2296 93.0326 54.2406C93.6311 54.7929 93.406 54.9192 94.4821 56.0392C95.7087 57.3152 96.5531 57.3383 96.7936 57.2219C96.9967 57.123 96.5838 56.4455 96.1259 55.6845C96.104 55.6483 96.082 55.611 96.059 55.5736C95.9986 55.4726 95.9371 55.3694 95.8767 55.2684C95.3408 54.3526 95.4781 53.9232 95.6054 52.5605C95.7087 51.4537 97.3283 46.3739 97.3283 46.3739L94.9774 45.9688C94.9774 45.9688 94.2691 50.013 93.4895 50.6367C93.0722 50.9683 92.6055 50.9727 92.2047 51.2187C92.1762 51.2362 92.1487 51.2538 92.1212 51.2714C91.8939 51.4229 91.6612 51.5788 91.4778 51.7886Z" fill="#FFB27D"/>
<path d="M91.4778 51.7867C91.2944 51.9964 91.2713 52.2303 91.3625 52.4807C91.3625 52.4818 91.3636 52.4829 91.3647 52.484C91.57 52.9463 92.1081 53.4602 92.7296 53.9741C92.8108 54.0411 92.8822 54.1036 92.9459 54.1607C92.9624 54.175 92.9788 54.1904 92.9953 54.2047C93.0085 54.2157 93.0206 54.2277 93.0326 54.2387C93.6311 54.791 93.406 54.9173 94.4821 56.0374C95.7087 57.3133 96.5531 57.3364 96.7936 57.22C96.9967 57.1212 96.5838 56.4437 96.1259 55.6827C95.8877 55.5948 94.7775 55.1446 93.9397 54.0718C93.2007 53.1296 92.7087 51.9185 92.2058 51.2168C92.1773 51.2344 92.1498 51.2519 92.1223 51.2695C91.8939 51.421 91.6612 51.577 91.4778 51.7867Z" fill="#233862"/>
<path d="M110.434 50.3196C110.579 51.0454 111.613 50.9246 112.769 50.6413C113.924 50.3591 113.65 50.6951 115.295 50.5128C116.94 50.3306 117.438 49.7178 117.488 49.473C117.533 49.2555 116.72 49.1798 115.848 49.0788C115.738 49.0667 115.629 49.0524 115.519 49.0392C114.535 48.9162 113.813 48.2804 112.92 47.7589C112.073 47.2647 110.809 45.252 110.809 45.252L108.554 45.4309C108.554 45.4309 109.737 47.2285 110.195 48.0103C110.464 48.4704 110.45 49.0777 110.417 49.5476C110.398 49.8035 110.382 50.0637 110.434 50.3196Z" fill="#FFB27D"/>
<path d="M112.769 50.6426C113.924 50.3604 113.649 50.6964 115.294 50.5142C116.939 50.3319 117.438 49.7192 117.487 49.4743C117.532 49.2569 116.72 49.1811 115.848 49.0801L115.84 49.0966C115.84 49.0966 114.854 49.796 113.485 49.829C112.369 49.8564 111.187 49.5369 110.417 49.549C110.399 49.8037 110.383 50.0651 110.434 50.3209C110.579 51.0467 111.613 50.9259 112.769 50.6426Z" fill="#233862"/>
<path d="M101.79 35.8988L99.6816 41.5726L96.9287 48.9813C96.9287 48.9813 96.182 49.0538 95.4661 48.8474C94.8072 48.6574 94.0518 48.1589 94.0518 48.1589C94.0518 48.1589 94.816 40.2044 96.2424 35.6386C96.6081 34.4669 97.0177 33.5182 97.469 32.9845C99.6794 30.3722 101.79 35.8988 101.79 35.8988Z" fill="#233862"/>
<path d="M99.6463 26.8871C98.2649 26.4413 94.325 27.0134 90.3675 27.7886L89.5385 26.4215L80.99 25.7539C80.99 25.7539 78.169 32.0097 79.7129 35.9957C79.9402 36.581 80.5013 36.8291 81.2711 36.8412L81.2722 36.8423C81.2722 36.8423 86.3727 36.9664 88.0254 36.9664C92.2771 36.9664 97.023 34.0444 97.6368 33.9214C98.6416 33.7205 99.0435 35.7299 100.048 37.8405C101.053 39.951 109.494 47.1862 109.494 47.1862C109.494 47.1862 110.791 47.1994 111.328 46.9984C111.904 46.7821 112.115 46.501 112.115 46.501C112.115 46.501 102.762 27.8919 99.6463 26.8871Z" fill="#2B478B"/>
<path d="M88.6314 1.31756C87.9901 0.93653 87.3664 0.880529 86.9876 0.892608C86.7142 0.901392 86.4419 0.87504 86.1706 0.838803C82.9313 0.403964 80.9822 5.11032 80.8669 6.53673C80.6561 9.16553 79.2648 9.56633 77.3069 11.2123C73.3824 14.5132 74.5332 18.3499 76.6788 19.7752C77.9669 20.6306 80.2366 19.7752 80.2366 19.7752C80.2685 19.7971 86.4441 16.3228 89.4879 14.6471C94.0526 13.9993 90.4652 2.40905 88.6314 1.31756Z" fill="#233862"/>
<path d="M86.9372 13.2232C86.9503 13.232 85.4394 13.748 84.4291 13.3C83.4782 12.8795 82.759 11.3158 82.7722 11.3147C83.2048 11.2949 83.6792 10.9172 84.0448 8.43555L84.2293 8.50143L87.3248 9.61488C87.3248 9.61488 87.1008 10.6086 86.9558 11.5541C86.8328 12.3502 86.768 13.1101 86.9372 13.2232Z" fill="#FFB27D"/>
<path d="M87.325 9.61455C87.325 9.61455 87.101 10.6083 86.956 11.5538C85.1782 11.2331 84.4799 9.46192 84.2295 8.5L87.325 9.61455Z" fill="#ED975D"/>
<path d="M87.787 10.6009C87.787 10.6009 83.5507 10.0321 83.946 7.39997C84.3402 4.76788 84.0602 2.92091 86.7812 3.17347C89.5022 3.42603 89.8756 4.50873 89.9579 5.41904C90.0392 6.32935 88.8994 10.681 87.787 10.6009Z" fill="#FFB27D"/>
<path d="M89.8012 3.97658C89.8012 3.97658 87.0901 6.31329 85.2453 6.50216C83.4005 6.69103 82.7021 6.09806 82.7021 6.09806C82.7021 6.09806 83.7892 5.19544 84.4437 3.73829C84.637 3.30895 85.0443 3.01466 85.5132 2.97403C86.8298 2.85983 89.3269 2.80822 89.8012 3.97658Z" fill="#233862"/>
<path d="M88.1074 3.76679C88.1074 3.76679 89.0144 4.64415 89.2999 5.29421C89.5756 5.92231 89.6579 7.42338 89.4383 8.01964C89.4383 8.01964 90.8515 5.27115 90.051 3.93589C89.2044 2.52047 88.1074 3.76679 88.1074 3.76679Z" fill="#233862"/>
<path d="M90.5044 19.4623C90.3759 28.0371 90.4692 26.2451 89.5315 27.0588C89.3053 27.2542 88.6706 27.3717 87.8339 27.4266C85.2051 27.6012 80.5833 27.1675 80.4076 26.6821C79.8014 25.001 80.2297 24.4783 79.7235 21.9044C79.6707 21.631 79.606 21.3345 79.5291 21.0116C79.1074 19.2437 78.6968 18.642 80.1934 15.8024C81.5507 13.2296 82.9606 11.1421 83.088 11.2168C86.6688 13.3427 86.9576 11.5561 86.9576 11.5561C86.9576 11.5561 90.567 15.2797 90.5044 19.4623Z" fill="white"/>
<path d="M99.6816 41.5707L96.9287 48.9795C96.9287 48.9795 96.182 49.0519 95.4661 48.8455C94.8072 48.6555 94.0518 48.157 94.0518 48.157C94.0518 48.157 94.816 40.2025 96.2424 35.6367L99.6816 41.5707Z" fill="#2B478B"/>
<path d="M86.9565 11.5547C86.9565 11.5547 90.6417 12.1795 91.0743 13.7662C91.507 15.3529 94.0534 24.6789 94.0534 24.6789C94.0534 24.6789 92.1801 25.0149 91.3148 24.1496C90.4495 23.2844 88.3039 16.1216 88.3039 16.1216L86.9565 11.5547Z" fill="white"/>
<path d="M87.834 27.4252C85.2052 27.5998 80.5834 27.1661 80.4077 26.6807C79.8016 24.9996 80.2298 24.4769 79.7236 21.903L80.9919 18.332C80.9919 18.332 80.7822 22.3082 81.9549 23.3546C83.1266 24.4 86.7568 25.374 87.3267 26.247C87.6001 26.6664 87.7813 27.0881 87.834 27.4252Z" fill="#EBF3FF"/>
<path d="M84.8203 25.7529C84.8203 25.7529 87.414 25.1753 87.8323 25.4059C88.2507 25.6365 89.2741 26.4744 89.4015 26.7664C89.53 27.0585 88.4692 26.5446 88.1244 26.4524C87.9015 26.392 87.3129 26.5962 87.0231 26.694C85.7987 27.1025 85.0487 26.8916 85.0487 26.8916L84.8203 25.7529Z" fill="#FFB27D"/>
<path d="M83.0843 11.2148C83.0843 11.2148 79.6012 11.429 78.3955 13.1112C76.6979 15.4787 73.3312 25.5667 75.2605 26.913C77.4336 28.4283 85.1509 27.3094 85.1509 27.3094C85.1509 27.3094 85.4078 26.1092 85.0499 25.5283C84.693 24.9474 78.8863 24.0097 78.6184 23.7417C78.3505 23.4738 81.9686 18.516 81.9686 17.7122C81.9686 16.9073 83.0843 11.2148 83.0843 11.2148Z" fill="white"/>
<path d="M87.959 26.1289C87.959 26.1289 88.5025 26.8295 88.6804 26.914C88.8583 26.9975 88.9736 26.9766 88.9736 26.9766L88.608 26.3178L87.959 26.1289Z" fill="#FFB27D"/>
<path d="M87.8335 25.4062L89.4136 26.1738C89.4136 26.1738 89.3466 26.2836 89.1523 26.2748C88.9579 26.266 88.4671 26.086 88.4671 26.086L87.8335 25.4062Z" fill="#FFB27D"/>
<path d="M88.6812 27.9888H101.182L104.941 18.6387H92.4607L88.6812 27.9888Z" fill="#689CDA"/>
<path d="M101.327 27.623H84.8208V27.9867H101.181L101.327 27.623Z" fill="#3270BB"/>
<path d="M98.0256 23.312C98.12 22.9836 97.9301 22.7168 97.6006 22.7168C97.2712 22.7168 96.9286 22.9836 96.8353 23.312C96.7408 23.6403 96.9308 23.9071 97.2602 23.9071C97.5885 23.9071 97.9312 23.6414 98.0256 23.312Z" fill="white"/>
<path d="M199.78 153.19H6.34259C6.22212 153.19 6.12256 153.06 6.12256 152.9V152.8C6.12256 152.641 6.22128 152.51 6.34259 152.51H199.78C199.901 152.51 200 152.64 200 152.8V152.9C200 153.06 199.901 153.19 199.78 153.19Z" fill="#C5DCF9"/>
</g>
<defs>
<clipPath id="clip0_1596_777">
<rect width="200" height="152.381" fill="white" transform="translate(0 0.808594)"/>
</clipPath>
</defs>
</svg>
