<svg width="278" height="180" viewBox="0 0 278 180" fill="none" xmlns="http://www.w3.org/2000/svg">
<path d="M3.06674 179.621L95.6268 179.132L120.304 179.122H128.482L153.203 179.111L266.138 179.078C266.138 179.078 291.967 145.647 264.379 113.899C235.77 80.9788 221.857 107.785 213.07 61.4502C190.935 -55.1893 -27.9097 12.6938 29.4923 111.955C50.1396 147.7 -11.2159 128.703 3.06674 179.621Z" fill="#EBF3FA"/>
<path d="M75.7158 173.83L75.0078 168.782L77.9579 166.304L78.8888 173.004L75.7158 173.83Z" fill="#FFB27D"/>
<path d="M85.5112 178.353H73.4879C73.4879 178.353 73.1994 176.517 73.8288 175.127C74.4319 173.79 75.3628 172.964 75.4546 171.941C76.2151 172.728 77.1591 173.239 78.9029 173.003C79.1127 173.344 80.2796 175.193 80.9877 175.704C81.7613 176.281 85.2752 176.071 85.5112 178.353Z" fill="#233862"/>
<path d="M83.0986 105.518C82.3119 111.851 81.6695 117.817 81.145 123.376C78.3391 153.008 78.8898 171.115 78.8898 171.115C78.8898 171.115 78.6931 171.653 76.9493 171.653C75.9659 171.653 75.0088 171.443 75.0088 171.443C75.0088 171.443 68.7415 152.09 69.2266 141.09C69.279 139.765 69.4364 138.559 69.7117 137.523C71.2196 131.885 64.1524 110.343 71.8358 102.332C79.5192 94.3076 83.4526 102.62 83.0986 105.518Z" fill="#86D1CD"/>
<path d="M83.0986 105.518C82.3119 111.851 81.6695 117.817 81.145 123.376L69.2266 141.09C69.279 139.765 69.4364 138.559 69.7117 137.523C71.2196 131.885 64.1524 110.343 71.8358 102.332C79.5192 94.3076 83.4526 102.62 83.0986 105.518Z" fill="#7FBFBC"/>
<path d="M92.5657 45.1525C92.5657 45.1525 92.2772 43.7102 91.9494 42.6088C91.8052 42.1237 92.8148 38.9114 93.5097 38.518C94.2046 38.1247 96.0271 40.2881 95.5027 41.9401C95.2404 42.7924 94.8078 45.5589 94.8078 45.5589L92.5657 45.1525Z" fill="#FFB27D"/>
<path d="M92.565 45.1523C92.565 45.1523 92.1848 44.3132 91.8439 44.1821C91.503 44.051 91.1358 42.6742 90.8867 42.1367C90.8867 42.1367 91.1227 41.7827 91.5554 42.2416C91.8176 42.5169 92.3945 43.3429 92.3945 43.3429L92.565 45.1523Z" fill="#FFB27D"/>
<path d="M42.9111 50.0169C42.8325 50.1743 42.7407 50.4365 42.6489 50.6987C42.6489 50.6332 42.6489 50.5545 42.6489 50.4889C42.6489 49.9776 40.7477 47.211 39.961 47.0406C39.1743 46.8701 38.073 49.4662 39.0563 50.8954C39.5546 51.6296 40.7871 54.1602 40.7871 54.1602L42.8194 53.1112C42.8194 53.1112 42.9374 52.1934 43.2258 51.9705C43.5143 51.7345 43.4618 50.3185 43.5405 49.7285C43.5143 49.7285 43.1734 49.4531 42.9111 50.0169Z" fill="#FFB27D"/>
<path d="M55.5379 172.322C55.3675 170.696 55.3281 166.434 55.3281 166.434C55.3281 166.434 59.6812 165.045 59.5107 166.002C58.724 170.696 58.9338 173.016 58.9338 173.016L57.1769 174.065L55.5379 172.322Z" fill="#FFB27D"/>
<path d="M79.4668 105.217C79.4668 105.217 62.6709 151.251 59.3668 171.22C59.3668 171.22 58.6063 171.745 57.1772 171.574C55.5513 171.378 55.1186 170.25 55.1186 170.25C55.1186 170.25 52.0767 146.321 58.1081 138.009C62.2513 132.305 56.3249 107.223 65.975 105.217C75.612 103.211 79.4668 105.217 79.4668 105.217Z" fill="#86D1CD"/>
<path d="M76.4755 60.9388C76.4755 60.9257 76.4755 60.9257 76.4755 60.9388C76.4755 60.9126 76.4624 60.8995 76.4624 60.8732C76.3706 60.4668 76.2526 60.0734 76.1477 59.667C75.7937 58.4607 75.3742 57.3069 74.9284 56.2842C74.6661 55.7073 74.4039 55.1566 74.1286 54.6846C74.0892 54.6059 74.0499 54.5404 74.0106 54.4748C73.3681 53.3865 72.6994 52.6261 72.0963 52.4032C70.9949 51.9836 69.7755 52.1016 68.9364 52.2721C69.1199 52.0098 69.5395 51.8656 69.5395 51.8656C69.0019 51.8656 67.9006 52.5605 67.9006 52.5605C60.1648 50.8298 60.6237 61.7779 61.1481 64.256C61.6726 66.7341 59.1814 67.9404 55.6675 70.484C48.9675 75.3222 49.0724 80.4619 49.0724 80.4619C49.1379 80.4881 49.2035 80.5144 49.269 80.5537C49.5444 79.885 50.1082 78.6263 50.7113 78.3641C50.6982 78.4296 50.2131 80.0555 50.0688 80.9602C51.0915 81.524 52.5076 82.3893 54.0416 83.3727C56.1002 84.6838 58.3554 86.2048 60.1779 87.4242C60.0861 86.9259 60.0074 86.2179 60.1385 85.8114L60.7154 87.6077L60.7941 87.8437C61.9479 88.6304 62.8657 89.2598 63.3378 89.5745C63.3902 89.6007 63.4295 89.64 63.4689 89.6662C63.6 89.758 63.6787 89.8105 63.6787 89.8105C63.5213 89.1811 64.2031 87.5291 65.3307 85.4443C65.4094 85.3001 65.488 85.1559 65.5798 84.9985C65.947 84.3429 66.3534 83.648 66.7992 82.9269C66.9565 82.6647 67.1139 82.4156 67.2843 82.1533C67.4154 81.9435 67.5466 81.7337 67.6908 81.5108C68.0186 80.9995 68.3595 80.4882 68.7135 79.9768C69.6182 78.6525 70.5622 77.3283 71.5063 76.122C72.8699 74.365 74.2072 72.831 75.3348 71.8345C75.3742 71.7558 75.4004 71.6772 75.4397 71.5985C75.6102 71.192 75.7544 70.7331 75.8593 70.2742C75.8855 70.13 75.9248 69.9989 75.9511 69.8547C76.2264 68.3862 76.2395 66.9177 76.2264 66.5768C76.3182 67.9928 76.2789 69.068 76.1871 69.8809C76.1609 70.0644 76.1478 70.2218 76.1215 70.3791C76.056 70.72 75.9904 71.0085 75.9249 71.2445C76.1084 71.0216 76.2657 70.7725 76.41 70.4971C76.5018 70.3136 76.5935 70.13 76.6591 69.9333C77.5114 67.6126 77.2622 64.1642 76.4755 60.9388Z" fill="#163560"/>
<path d="M75.0357 72.0182C75.0619 72.0313 72.8723 73.6178 71.0104 73.3949C69.2666 73.1851 67.8374 71.166 67.8636 71.166C68.5585 70.9168 68.611 69.9072 67.9685 65.7115L68.2963 65.7247L73.8687 65.9869C73.8687 65.9869 73.9998 67.7045 74.2359 69.3172C74.4325 70.6546 74.6948 71.9264 75.0357 72.0182Z" fill="#FFB27D"/>
<path d="M73.8673 65.9866C73.8673 65.9866 73.9985 67.7042 74.2345 69.3169C71.1926 69.6841 69.1865 67.1535 68.2949 65.7244L73.8673 65.9866Z" fill="#ED975D"/>
<path d="M67.6517 65.2133C67.6517 65.2133 65.6981 62.945 64.9901 60.8603C64.4918 59.3655 64.4263 53.5833 70.2478 53.5571C70.2478 53.5571 71.9261 53.4785 73.6437 54.2914C75.0073 54.947 77.0658 56.481 75.794 61.7256L75.5186 63.4695L67.6517 65.2133Z" fill="#163560"/>
<path d="M83.7925 104.338C83.7925 104.338 76.5418 108.638 67.4555 106.436C67.3506 106.41 59.9688 105.229 59.9688 105.229C60.0999 104.889 61.0439 99.1719 61.175 98.8573C62.7877 94.6878 65.7378 72.0834 68.2028 70.9689C68.8322 71.6507 70.6285 72.1228 72.1756 71.9916C73.9457 71.8343 74.5357 71.0738 74.3915 70.2478C76.3582 71.1787 77.866 72.031 77.866 72.031C79.6492 74.7189 83.7925 104.338 83.7925 104.338Z" fill="white"/>
<path d="M75.0991 67.3502C75.0991 67.3502 67.9533 68.5302 67.2846 64.0723C66.6159 59.6143 65.2392 56.756 69.7758 55.812C74.3124 54.8679 75.4531 56.4413 76.0431 57.8705C76.6331 59.3128 76.9478 66.9306 75.0991 67.3502Z" fill="#FFB27D"/>
<path d="M73.0281 55.2219C73.0281 55.2219 71.8481 60.7419 68.9504 61.9744C66.0528 63.1938 64.6367 62.5775 64.6367 62.5775C64.6367 62.5775 66.669 60.401 66.669 57.1231C66.669 57.1362 71.1794 52.9536 73.0281 55.2219Z" fill="#163560"/>
<path d="M72.6094 55.7205C72.6094 55.7205 74.2483 56.6645 74.7728 57.7528C75.2972 58.841 75.8086 61.1487 76.4773 60.9651C76.4773 60.9651 77.4213 57.189 75.4677 55.4189C73.383 53.5571 72.6094 55.7205 72.6094 55.7205Z" fill="#163560"/>
<path d="M94.8597 45.2572C94.5713 45.1523 94.1386 44.9163 93.5879 44.8639C93.0897 44.8245 92.4603 44.9819 92.4603 44.9819C92.4603 44.9819 90.4411 57.5165 90.2969 58.1721C90.1527 58.8408 81.6564 68.3991 79.3619 68.3729C77.2902 68.3336 74.8384 69.9332 74.3926 70.2478C74.3926 70.2478 79.2045 80.4355 79.4536 82.3498C79.7159 84.4346 82.2071 116.492 82.2071 116.492C82.2071 116.492 82.0628 117.987 84.8425 117.187C87.6353 116.387 88.3302 115.719 88.3302 115.719C88.3302 115.719 85.7734 90.479 85.2358 82.6383C85.1703 81.5894 84.9867 80.606 84.7507 79.7144C84.5147 78.849 84.6983 77.9181 85.2358 77.197C88.7629 72.3588 94.3222 64.5312 94.6368 62.866C95.0564 60.3748 94.8597 45.2572 94.8597 45.2572Z" fill="#2B478B"/>
<path d="M65.5678 178.353H53.5445C53.5445 178.353 53.256 176.517 53.8854 175.127C54.4885 173.79 55.4195 172.964 55.5112 171.941C56.2717 172.728 57.2157 173.239 58.9596 173.003C59.1694 173.344 60.3363 175.193 61.0443 175.704C61.8179 176.281 65.3187 176.071 65.5678 178.353Z" fill="#233862"/>
<path d="M73.8277 83.3203C73.4212 80.8291 68.2422 70.8118 68.2422 70.8118C68.2422 70.8118 64.9643 69.8285 62.814 70.6152C60.6637 71.4018 49.5189 65.1083 49.1648 64.5183C48.8108 63.9414 42.8451 52.8228 42.8451 52.8228C42.8451 52.8228 42.3468 52.5343 41.5601 52.9539C40.7734 53.3603 40.7734 54.1601 40.7734 54.1601C40.7734 54.1601 45.3756 68.1633 46.6081 70.3267C47.3423 71.6379 53.5572 76.1745 58.3823 79.5835C59.3001 80.239 59.7852 81.3404 59.6279 82.4549C58.9854 87.2406 58.815 89.9416 58.0676 98.1494C57.4514 104.967 57.2153 118.158 57.2153 118.158C57.2153 118.158 62.6042 120.02 66.3279 120.269C70.0516 120.518 70.8645 116.597 70.8645 116.597C70.8645 116.597 74.2473 85.8901 73.8277 83.3203Z" fill="#2B478B"/>
<path d="M72.7656 65.1474C72.7656 65.1474 73.631 65.6587 74.6537 65.5014C75.3617 65.3965 75.5191 64.5574 75.5191 64.5574C75.5191 64.5574 75.0339 64.4 74.2472 64.5574C73.4736 64.7278 72.7656 65.1474 72.7656 65.1474Z" fill="white"/>
<path d="M131.546 64.2168C131.546 64.2168 133.762 67.875 129.593 70.1826C129.593 70.1826 132.805 71.3364 133.919 70.9037C133.919 70.9037 133.644 71.1922 133.434 71.2971C133.434 71.2971 136.45 72.2542 137.945 71.7298C139.452 71.2053 142.678 56.6121 133.788 55.8386C133.788 55.8386 126.774 53.3211 125.292 61.1618C123.81 69.0026 121.109 68.229 121.109 68.229C121.109 68.229 121.765 68.7797 122.132 68.8846C122.132 68.8846 122.709 68.8452 122.893 68.6092C122.893 68.6092 122.67 69.0026 122.499 69.1075C122.499 69.1075 125.344 70.1826 127.088 69.5795C128.832 68.9763 131.52 65.9082 131.546 64.2168Z" fill="#163560"/>
<path d="M122.604 179.415H133.958C133.958 179.415 134.233 177.684 133.643 176.373C133.08 175.114 132.188 174.341 132.109 173.37C131.388 174.118 130.497 174.59 128.858 174.367C128.661 174.695 127.56 176.439 126.891 176.924C126.144 177.461 122.84 177.278 122.604 179.415Z" fill="#233862"/>
<path d="M131.993 175.088C131.993 175.088 131.022 175.403 130.013 175.495C128.23 175.652 127.967 175.128 127.967 175.128C127.967 175.128 126.197 159.315 120.441 129.08C119.615 124.714 119.288 122.301 118.986 118.42C118.894 117.253 118.802 115.968 118.711 114.447C118.448 110.37 119.065 103.512 122.12 101.716C123.509 100.89 125.397 101.126 127.954 103.132C128.151 103.289 128.361 103.46 128.57 103.643C136.018 110.094 132.963 128.595 133.264 137.301C133.317 138.743 133.461 139.923 133.75 140.723C134.13 141.759 134.956 143.201 135.152 144.565C136.713 155.827 131.993 175.088 131.993 175.088Z" fill="#2B478B"/>
<path d="M133.264 137.288L118.986 118.407C118.894 117.24 118.802 115.955 118.711 114.434C118.448 110.357 119.065 103.499 122.12 101.703L127.954 103.119C128.151 103.276 128.361 103.447 128.571 103.63C136.018 110.068 132.963 128.582 133.264 137.288Z" fill="#233862"/>
<path d="M173.636 155.539L168.916 145.22C168.916 145.22 167.224 145.692 166.28 146.78C165.376 147.816 164.72 147.632 162.648 146.203C163.422 147.41 163.527 148.118 164.012 149.704C164.392 149.757 166.556 151.841 168.772 152.418C169.663 152.641 171.591 156.221 173.636 155.539Z" fill="#233862"/>
<path d="M124.112 106.239C124.112 106.239 134.287 141.588 138.011 143.87C141.734 146.151 161.323 149.271 165.309 150.976C165.309 150.976 165.794 150.281 165.506 148.799C165.44 148.472 164.876 147.279 164.876 147.279C164.876 147.279 152.709 138.127 144.697 137.209C142.704 136.986 148.749 106.633 135.31 105.413C123.063 104.312 124.112 106.239 124.112 106.239Z" fill="#2B478B"/>
<path d="M109.611 48.2336C109.611 48.2336 109.886 46.87 110.188 45.8342C110.319 45.3753 109.375 42.3465 108.719 41.9794C108.064 41.6123 106.346 43.6446 106.831 45.2049C107.08 46.0047 107.487 48.627 107.487 48.627L109.611 48.2336Z" fill="#FFB27D"/>
<path d="M109.611 48.2338C109.611 48.2338 109.965 47.4471 110.293 47.316C110.621 47.1849 110.962 45.9 111.198 45.3755C111.198 45.3755 110.975 45.0346 110.568 45.4673C110.319 45.7295 109.782 46.5031 109.782 46.5031L109.611 48.2338Z" fill="#FFB27D"/>
<path d="M156.459 52.8231C156.525 52.9673 156.63 53.2295 156.708 53.4655C156.708 53.4 156.708 53.3344 156.708 53.2689C156.708 52.7837 158.505 50.1745 159.239 50.0041C159.973 49.8467 161.022 52.2855 160.091 53.6491C159.619 54.344 158.465 56.7303 158.465 56.7303L156.551 55.7469C156.551 55.7469 156.446 54.8816 156.171 54.6718C155.895 54.4489 155.948 53.1115 155.869 52.5608C155.882 52.5477 156.197 52.2855 156.459 52.8231Z" fill="#FFB27D"/>
<path d="M126.145 73.5786C126.119 73.5917 128.19 75.0864 129.947 74.8766C131.599 74.6799 132.937 72.7787 132.923 72.7656C132.268 72.5296 132.215 71.5856 132.819 67.6128L132.504 67.6259L127.246 67.875C127.246 67.875 127.128 69.5009 126.905 71.0087C126.722 72.2936 126.459 73.4868 126.145 73.5786Z" fill="#FFB27D"/>
<path d="M127.247 67.8749C127.247 67.8749 127.129 69.5007 126.906 71.0085C129.778 71.3494 131.666 68.9762 132.505 67.6257L127.247 67.8749Z" fill="#ED975D"/>
<path d="M133.107 67.1539C133.107 67.1539 134.956 65.0167 135.611 63.0499C136.083 61.647 136.149 56.1795 130.655 56.1532C130.655 56.1532 129.069 56.0746 127.456 56.8482C126.171 57.4644 124.23 58.9198 125.424 63.8629L125.673 65.5149L133.107 67.1539Z" fill="#163560"/>
<path d="M119.562 104.876C119.562 104.876 124.715 108.128 133.303 106.043C133.408 106.017 138.181 105.256 138.181 105.256C138.063 104.928 133.041 96.6287 132.923 96.3272C131.402 92.3937 134.929 73.6311 132.595 72.5821C132.005 73.2246 130.301 73.6704 128.859 73.5393C127.18 73.395 126.63 72.6739 126.761 71.8872C124.912 72.7657 123.483 73.5786 123.483 73.5786C121.791 76.1222 119.562 104.876 119.562 104.876Z" fill="#FFB27D"/>
<path d="M126.079 69.1731C126.079 69.1731 132.818 70.2875 133.447 66.0787C134.077 61.8699 135.375 59.182 131.101 58.2905C126.826 57.3989 125.751 58.8805 125.187 60.231C124.637 61.5815 124.335 68.7666 126.079 69.1731Z" fill="#FFB27D"/>
<path d="M128.033 57.7267C128.033 57.7267 129.148 62.9451 131.875 64.0858C134.602 65.2396 135.953 64.6627 135.953 64.6627C135.953 64.6627 134.038 62.6042 134.025 59.523C134.038 59.5361 129.777 55.5895 128.033 57.7267Z" fill="#163560"/>
<path d="M128.439 58.1986C128.439 58.1986 126.892 59.0902 126.394 60.1129C125.896 61.1356 125.424 63.3121 124.781 63.1417C124.781 63.1417 123.89 59.5753 125.738 57.9101C127.705 56.1532 128.439 58.1986 128.439 58.1986Z" fill="#163560"/>
<path d="M158.031 56.717C158.031 56.717 153.691 69.9334 152.524 71.9657C151.83 73.1982 144.002 78.0757 139.452 81.288C139.4 81.3274 139.347 81.3929 139.282 81.4978C138.141 83.2548 134.627 94.1111 135.466 96.0517C139.006 104.246 141.445 107.406 142.324 109.701C142.769 110.842 142.179 112.126 141.012 112.546C139.557 113.07 137.407 113.713 134.876 114.146C134.391 114.224 133.893 114.303 133.382 114.369C126.393 115.26 121.673 113.621 119.26 112.402C118.12 111.825 117.438 110.632 117.517 109.373C117.661 106.777 118.959 104.22 119.536 97.9922C119.982 93.2589 115.904 86.0738 116.074 83.5563C116.14 82.5599 116.927 81.3667 117.346 80.5931C118.093 79.2295 118.513 77.997 118.015 77.3021C114.684 72.7393 107.512 66.4457 107.224 64.8723C106.791 62.5647 106.988 48.2993 106.988 48.2993C107.263 48.2076 107.67 47.9715 108.194 47.9322C108.666 47.8929 109.256 48.0371 109.256 48.0371C109.256 48.0371 111.157 59.8637 111.302 60.48C111.446 61.1093 119.457 70.1301 121.62 70.1039C123.574 70.0645 126.328 71.5724 126.747 71.8739C126.747 71.8739 124.99 74.9814 124.557 79.164C124.256 82.1009 126.21 80.7898 127.442 78.7837C129.107 76.0696 132.464 72.1886 132.464 72.1886C132.464 72.1886 135.191 71.4806 137.223 72.2148C139.256 72.9491 149.771 67.0095 150.112 66.472C150.453 65.9213 156.078 55.432 156.078 55.432C156.078 55.432 156.55 55.1567 157.297 55.55C158.031 55.9696 158.031 56.717 158.031 56.717Z" fill="#86D1CD"/>
<path d="M128.032 66.8917C128.032 66.8917 127.743 67.4686 127.35 67.4817C126.957 67.4948 125.973 67.403 125.908 67.2981C125.842 67.1932 125.672 66.5901 125.672 66.5901C125.672 66.5901 127.311 66.5246 128.032 66.8917Z" fill="white"/>
<path d="M141.026 112.572C139.571 113.097 137.42 113.739 134.89 114.172C132.477 110.855 128.399 106.672 129.448 98.9756C130.537 91.03 138.351 82.6648 139.282 81.511C138.141 83.2679 134.627 94.1243 135.467 96.0648C139.007 104.26 141.445 107.419 142.324 109.714C142.77 110.868 142.18 112.153 141.026 112.572Z" fill="#7FBFBC"/>
<path d="M117.374 80.6064C118.121 79.2428 118.541 78.0103 118.043 77.3154C114.712 72.7526 107.54 66.459 107.252 64.8856C107.96 66.5901 116.653 71.6905 119.105 73.8802C121.504 76.0698 117.466 80.5015 117.374 80.6064Z" fill="#86D1CD"/>
<path d="M67.4769 32.647C67.4769 32.647 68.8237 34.4934 68.6826 36.6005C68.5739 38.1645 67.1837 39.7502 67.0859 39.8154L69.2908 40.9884C69.2908 40.9884 70.92 38.0885 70.3769 35.6664C70.2031 34.9278 69.432 33.7331 68.8563 33.2117C68.2155 32.6252 67.4769 32.647 67.4769 32.647Z" fill="#6BB7BF"/>
<path d="M62.9801 32.8424L61.5898 29.7578C61.5898 29.7578 68.0958 29.975 70.2572 35.2754C70.2463 35.2862 65.6954 32.0387 62.9801 32.8424Z" fill="#86D1CD"/>
<path d="M37.2301 148.109C37.2301 148.109 35.8833 149.956 36.0245 152.063C36.1331 153.627 37.5233 155.212 37.6211 155.278L35.4162 156.451C35.4162 156.451 33.787 153.551 34.3301 151.129C34.5039 150.39 35.275 149.195 35.8507 148.674C36.4915 148.087 37.2301 148.109 37.2301 148.109Z" fill="#6BB7BF"/>
<path d="M41.7269 148.304L43.1172 145.22C43.1172 145.22 36.6113 145.437 34.4499 150.737C34.4607 150.748 39.0116 147.501 41.7269 148.304Z" fill="#86D1CD"/>
<path d="M17.7523 124.066C17.7523 124.066 16.1991 122.893 15.7973 121.144C15.504 119.841 16.2426 118.212 16.3077 118.146L14.2332 117.734C14.2332 117.734 13.6141 120.493 14.6568 122.328C14.9718 122.893 15.9059 123.664 16.5032 123.957C17.1549 124.261 17.7523 124.066 17.7523 124.066Z" fill="#6BB7BF"/>
<path d="M21.3692 122.795L23.2591 124.956C23.2591 124.956 17.9153 126.379 14.8633 122.599C14.8524 122.599 19.3599 124.12 21.3692 122.795Z" fill="#86D1CD"/>
<path d="M123.14 28.9206C123.14 28.9206 125.269 25.8469 128.538 28.0192L130.526 26.1184C130.526 26.1184 128.669 24.7065 124.378 27.2371C121.576 28.8989 123.14 28.9206 123.14 28.9206Z" fill="#5685D8"/>
<path d="M121.032 31.9293C121.032 31.9293 120.608 28.4103 126.506 26.2054C126.506 26.2054 124.377 27.2373 123.715 30.7563L121.032 31.9293Z" fill="#739AF0"/>
<path d="M103.983 148.884C103.983 148.884 101.787 145.858 104.919 143.492L103.783 140.988C103.783 140.988 101.836 142.273 102.804 147.159C103.445 150.353 103.983 148.884 103.983 148.884Z" fill="#5685D8"/>
<path d="M106.126 151.869C106.126 151.869 102.665 151.104 102.537 144.809C102.537 144.809 102.806 147.159 105.907 148.949L106.126 151.869Z" fill="#739AF0"/>
<path d="M163.799 112.266C163.799 112.266 161.67 109.192 158.401 111.365L156.414 109.464C156.414 109.464 158.271 108.052 162.561 110.583C165.363 112.244 163.799 112.266 163.799 112.266Z" fill="#5685D8"/>
<path d="M165.907 115.275C165.907 115.275 166.331 111.756 160.433 109.551C160.433 109.551 162.562 110.583 163.225 114.102L165.907 115.275Z" fill="#739AF0"/>
<path d="M144.73 13.2479C144.73 13.2479 146.479 12.1509 146.653 10.8149C146.653 10.8149 148.347 10.9018 148.717 11.4558C148.717 11.4558 147.935 13.6606 147.022 14.0733C147.033 14.0733 144.969 14.2037 144.73 13.2479Z" fill="#86D1CD"/>
<path d="M110.197 29.9215C110.197 29.9215 108.34 28.7485 108.144 27.3257C108.144 27.3257 106.33 27.4234 105.939 28.01C105.939 28.01 106.776 30.356 107.753 30.8013C107.753 30.8013 109.958 30.9534 110.197 29.9215Z" fill="#86D1CD"/>
<path d="M106.428 108.663C106.428 108.663 104.57 107.49 104.375 106.068C104.375 106.068 102.561 106.165 102.17 106.752C102.17 106.752 103.006 109.098 103.984 109.543C103.984 109.543 106.189 109.695 106.428 108.663Z" fill="#86D1CD"/>
<path d="M252.058 145.746C252.058 145.746 250.201 146.919 250.006 148.342C250.006 148.342 248.192 148.244 247.801 147.658C247.801 147.658 248.637 145.311 249.615 144.866C249.615 144.866 251.819 144.714 252.058 145.746Z" fill="#86D1CD"/>
<path d="M164.977 47.9281C164.977 47.9281 166.845 46.7442 167.04 45.3214C167.04 45.3214 168.854 45.4192 169.256 46.0057C169.256 46.0057 168.42 48.3626 167.442 48.8079C167.431 48.8188 165.216 48.9599 164.977 47.9281Z" fill="#86D1CD"/>
<path d="M169.361 85.9822C169.361 85.9822 168.063 84.3957 167.355 84.1728C166.66 83.9499 165.297 82.901 165.126 83.3337C164.956 83.7663 166.044 84.435 165.978 84.9333C165.926 85.4315 162.517 86.2182 162.543 86.7427C162.569 87.2671 163.343 88.5258 164.641 88.3816C165.939 88.2374 169.23 87.4507 169.912 87.7916C170.581 88.1456 169.361 85.9822 169.361 85.9822Z" fill="#FFB27D"/>
<path d="M204.461 78.2855C202.533 80.8685 200.291 82.9008 197.97 84.5135C190.615 89.627 182.643 90.3875 182.643 90.3875C180.729 89.7712 174.868 89.1419 171.393 88.5781C169.885 88.329 168.823 88.1061 168.758 87.9094L168.85 84.8937C168.85 84.8937 181.581 84.225 183.692 83.2417C187.022 80.3834 189.959 76.6597 191.86 73.7489C193.473 71.297 195.282 69.4877 198.272 68.4256C202.586 66.8785 210.439 70.2744 204.461 78.2855Z" fill="#B8D7FC"/>
<path d="M198.626 82.6123L197.983 84.5135C190.628 89.627 182.656 90.3875 182.656 90.3875C181.122 90.3875 174.881 89.1419 171.406 88.5781C171.537 88.5912 180.847 89.3123 182.905 89.1026C184.977 88.8928 194.627 80.5276 194.627 80.5276L198.626 82.6123Z" fill="#80B4F1"/>
<path d="M190.326 178.353H204.395C205.404 177.671 204.12 170.984 204.12 170.984C204.12 170.984 200.278 169.529 199.622 172.492C198.954 175.455 194.732 176.399 192.49 176.753C190.956 177.002 190.47 177.842 190.326 178.353Z" fill="#233862"/>
<path d="M211.188 178.353H225.256C226.266 177.671 224.981 170.984 224.981 170.984C224.981 170.984 221.139 169.529 220.484 172.492C219.815 175.455 215.593 176.399 213.351 176.753C211.817 177.002 211.332 177.842 211.188 178.353Z" fill="#233862"/>
<path d="M194.102 110.173C194.102 110.173 194.731 118.066 195.478 127.545C196.488 140.434 199.215 172.361 199.215 172.361C199.215 172.361 200.998 173.882 204.958 173.056C204.958 173.056 208.328 162.042 209.337 149.455C209.35 149.245 209.363 149.035 209.39 148.839C210.321 136.042 211.789 109.071 211.789 109.071L194.102 110.173Z" fill="#2B478B"/>
<path d="M193.893 107.446C193.893 107.446 194.745 118.066 195.479 127.546L209.325 149.468C209.338 149.258 209.351 149.049 209.377 148.852C210.308 136.055 211.777 109.085 211.777 109.085L193.893 107.446Z" fill="#233862"/>
<path d="M197.932 107.446C197.932 107.446 207.975 132.449 211.187 141.929C213.469 148.681 219.933 172.374 219.933 172.374C219.933 172.374 222.739 173.226 225.099 171.574C225.099 171.574 227.498 147.37 222.647 140.552C220.077 136.933 222.004 102.922 211.581 102.634C201.144 102.345 197.932 107.446 197.932 107.446Z" fill="#2B478B"/>
<path d="M202.414 70.5889C203.948 71.4018 205.443 71.4411 206.741 71.1658C207.934 70.9167 208.944 70.3922 209.678 69.9333C210.425 69.4613 210.858 69.0417 210.858 69.0417C210.858 69.0417 210.806 68.9631 210.714 68.8188C210.255 68.0452 208.891 65.2525 209.494 60.7814C209.508 60.729 209.062 60.8077 208.393 60.965C206.4 61.437 202.388 62.5777 202.218 62.6302H202.204C202.204 62.6302 202.152 63.5742 201.995 65.2656C201.982 65.4098 201.968 65.5672 201.955 65.7245C201.929 65.9212 201.916 66.131 201.89 66.3539C201.706 68.0977 202.414 70.5889 202.414 70.5889Z" fill="#FFB27D"/>
<path d="M201.996 65.2524C204.972 65.9343 209.417 61.5419 209.417 61.5419C209.089 61.3059 208.749 61.1092 208.395 60.965C206.402 61.437 202.389 62.5777 202.219 62.6301H202.206C202.206 62.6301 202.167 63.5611 201.996 65.2524Z" fill="#ED975D"/>
<path d="M200.987 62.381C200.987 62.381 202.206 62.8137 203.767 63.0235C206.048 63.3251 209.051 63.1546 209.995 60.3881C211.581 55.7466 213.613 52.9538 208.933 51.0527C206.428 50.0431 204.829 49.9775 203.74 50.3709C202.796 50.7118 202.246 51.3673 201.813 52.036C200.921 53.4783 199.099 61.5681 200.987 62.381Z" fill="#FFB27D"/>
<path d="M198.154 52.4164C200.855 54.3569 204.605 52.4557 205.759 52.967C206.926 53.4784 207.136 55.432 207.149 56.0483C207.175 56.6645 207.254 57.189 208.827 56.8219C209.089 56.7563 209.273 56.7825 209.404 56.8612C210.06 57.2545 209.22 59.1295 208.971 59.5359C208.971 59.5359 208.604 60.8864 209.417 61.542C209.509 61.6207 211.095 62.3156 214.911 56.4809C215.514 55.5631 216.078 53.5046 215.16 51.5117C214.229 49.5187 210.374 47.6044 207.096 46.5817C205.864 46.2015 204.959 46.2146 204.251 46.4768C203.058 46.9095 202.429 48.0371 201.799 49.1647C200.737 51.0528 198.154 52.4164 198.154 52.4164Z" fill="#A9453D"/>
<path d="M215.554 109.203C215.554 109.203 214.242 109.491 212.59 109.766C210.978 110.042 209.024 110.304 207.634 110.291C200.58 110.238 194.68 108.154 194.68 108.154C193.356 108.154 192.753 106.095 192.53 103.237C192.385 101.296 192.412 98.9886 192.517 96.681C192.556 95.9337 192.595 95.1863 192.635 94.4652C192.726 93.0098 192.831 91.62 192.936 90.4006C193.028 89.2468 193.12 88.2372 193.159 87.4505C193.159 87.4505 192.976 81.9567 193.041 77.1317C193.094 73.6702 195.034 70.5103 195.532 69.999C196.948 68.5043 201.039 67.5602 201.852 67.4291C201.918 67.416 201.944 67.416 201.944 67.416C205.314 69.3041 209.837 66.7473 209.837 66.7473C209.942 66.7604 210.034 66.7866 210.139 66.8129C210.466 66.7473 213.875 67.2456 214.662 67.6782C216.616 68.7403 217.756 80.58 217.756 80.58C218.084 88.6174 217.678 101.48 218.307 106.397C218.543 107.996 216.97 108.875 215.554 109.203Z" fill="#B8D7FC"/>
<path d="M210.138 66.8127C210.138 66.8127 205.13 71.9787 201.537 70.9298C201.537 70.9298 201.065 70.2349 202.678 70.012C204.29 69.776 206.034 69.8677 210.138 66.8127Z" fill="#80B4F1"/>
<path d="M200.947 59.3916C200.947 59.3916 200.855 59.9947 202.245 60.4667C202.245 60.4667 203.425 60.8732 203.634 60.2569C203.634 60.2569 202.704 59.3653 200.947 59.3916Z" fill="white"/>
<path d="M212.891 86.3622C212.891 86.3622 205.614 98.5428 201.484 100.68C198.691 102.135 194.784 102.896 192.541 103.237C192.397 101.296 192.423 98.9886 192.528 96.681C195.492 96.327 199.989 95.7501 199.989 95.7501L212.891 86.3622Z" fill="#80B4F1"/>
<path d="M203.293 80.2522L199.412 94.2553C199.412 94.2553 194.849 94.5438 192.646 94.4651C192.738 93.0098 192.738 92.9704 192.843 91.7379C192.843 91.7379 198.088 88.9976 203.293 80.2522Z" fill="#80B4F1"/>
<path d="M179.929 95.2912C179.929 95.2912 178.631 93.7047 177.923 93.4818C177.229 93.2589 175.865 92.2099 175.694 92.6426C175.524 93.0753 176.612 93.744 176.547 94.2422C176.494 94.7405 173.085 95.5272 173.111 96.0516C173.138 96.5761 173.911 97.8348 175.209 97.6906C176.507 97.5464 179.798 96.7597 180.48 97.1006C181.149 97.4415 179.929 95.2912 179.929 95.2912Z" fill="#FFB27D"/>
<path d="M218.188 75.8598C218.188 75.8598 218.411 83.2809 201.51 98.1625L198.115 92.0788C197.485 91.7116 209.037 66.8783 212.354 67.075C218.778 67.4552 218.188 75.8598 218.188 75.8598Z" fill="#B8D7FC"/>
<path d="M200.133 91.3577C200.133 91.3577 180.899 93.5604 180.191 93.9407C179.483 94.3209 177.948 95.8156 178.46 97.6774C178.46 97.6774 188.411 98.923 193.892 98.9099C198.612 98.8837 201.667 98.1364 201.667 98.1364L200.133 91.3577Z" fill="#B8D7FC"/>
</svg>
