<svg width="300" height="161" viewBox="0 0 300 161" fill="none" xmlns="http://www.w3.org/2000/svg">
<path d="M279.226 159.815L228.697 160.125L164.251 159.907L20.179 159.425C20.179 159.425 -0.484662 143.867 0.00869587 116.767C0.329952 99.4537 4.59807 62.8879 49.3674 54.3401C91.3602 46.3202 80.1966 -4.66777 142.107 0.346125C166.534 2.31956 177.377 21.9391 196.25 16.7187C276.037 -5.36765 293.545 40.5605 299.557 85.1578C301.772 101.611 295.783 152.805 279.226 159.815Z" fill="#E5F0FA"/>
<path d="M156.403 34.8123H141.866C141.201 34.8123 140.65 34.2616 140.65 33.5961V19.5641C140.65 18.8986 141.201 18.3479 141.866 18.3479H156.403C157.069 18.3479 157.619 18.8986 157.619 19.5641V33.5961C157.608 34.273 157.069 34.8123 156.403 34.8123Z" fill="#C0D8FB"/>
<path d="M155.772 34.1009H142.486C141.878 34.1009 141.373 33.6076 141.373 32.988V20.1722C141.373 19.5641 141.866 19.0593 142.486 19.0593H155.772C156.38 19.0593 156.885 19.5526 156.885 20.1722V32.988C156.874 33.6076 156.38 34.1009 155.772 34.1009Z" fill="#DFEBFD"/>
<path d="M148.773 20.5737C148.773 20.3786 148.934 20.218 149.129 20.218C149.324 20.218 149.485 20.3786 149.485 20.5737C149.485 20.7687 149.324 20.9294 149.129 20.9294C148.934 20.9179 148.773 20.7687 148.773 20.5737Z" fill="#B7D3F3"/>
<path d="M151.607 21.0671C151.699 20.895 151.917 20.8376 152.089 20.9294C152.261 21.0212 152.318 21.2392 152.227 21.4113C152.135 21.5834 151.917 21.6408 151.745 21.549C151.584 21.4457 151.515 21.2392 151.607 21.0671Z" fill="#B7D3F3"/>
<path d="M154.04 22.9947C154.2 22.8915 154.418 22.9373 154.521 23.098C154.625 23.2586 154.579 23.4766 154.418 23.5799C154.257 23.6831 154.04 23.6372 153.936 23.4766C153.833 23.316 153.879 23.098 154.04 22.9947Z" fill="#B7D3F3"/>
<path d="M155.244 25.9891C155.439 25.9891 155.6 26.1498 155.6 26.3448C155.6 26.5399 155.439 26.7005 155.244 26.7005C155.049 26.7005 154.888 26.5399 154.888 26.3448C154.888 26.1383 155.049 25.9891 155.244 25.9891Z" fill="#B7D3F3"/>
<path d="M154.384 30.0623C154.58 30.0623 154.739 29.9031 154.739 29.7066C154.739 29.5102 154.58 29.351 154.384 29.351C154.187 29.351 154.028 29.5102 154.028 29.7066C154.028 29.9031 154.187 30.0623 154.384 30.0623Z" fill="#B7D3F3"/>
<path d="M152.422 31.6686C152.559 31.8062 152.559 32.0242 152.422 32.1619C152.284 32.2996 152.066 32.2996 151.928 32.1619C151.791 32.0242 151.791 31.8062 151.928 31.6686C152.066 31.5309 152.284 31.5309 152.422 31.6686Z" fill="#B7D3F3"/>
<path d="M148.773 32.8044C148.773 32.6094 148.934 32.4487 149.129 32.4487C149.324 32.4487 149.485 32.6094 149.485 32.8044C149.485 32.9995 149.324 33.1601 149.129 33.1601C148.934 33.1601 148.773 32.9995 148.773 32.8044Z" fill="#B7D3F3"/>
<path d="M146.628 21.0671C146.536 20.895 146.318 20.8376 146.146 20.9294C145.974 21.0212 145.916 21.2392 146.008 21.4113C146.1 21.5834 146.318 21.6408 146.49 21.549C146.662 21.4457 146.731 21.2392 146.628 21.0671Z" fill="#B7D3F3"/>
<path d="M144.195 22.9947C144.035 22.8915 143.817 22.9373 143.713 23.098C143.61 23.2586 143.656 23.4766 143.817 23.5799C143.977 23.6831 144.195 23.6372 144.298 23.4766C144.413 23.316 144.367 23.098 144.195 22.9947Z" fill="#B7D3F3"/>
<path d="M143.002 25.9893C142.807 25.9893 142.646 26.1499 142.646 26.3449C142.646 26.54 142.807 26.7006 143.002 26.7006C143.197 26.7006 143.358 26.54 143.358 26.3449C143.346 26.1384 143.197 25.9893 143.002 25.9893Z" fill="#B7D3F3"/>
<path d="M143.61 29.4542C143.472 29.5919 143.472 29.8099 143.61 29.9476C143.748 30.0853 143.966 30.0853 144.103 29.9476C144.241 29.8099 144.241 29.5919 144.103 29.4542C143.977 29.3165 143.748 29.3165 143.61 29.4542Z" fill="#B7D3F3"/>
<path d="M146.065 32.2653C146.262 32.2653 146.421 32.1061 146.421 31.9096C146.421 31.7132 146.262 31.554 146.065 31.554C145.869 31.554 145.71 31.7132 145.71 31.9096C145.71 32.1061 145.869 32.2653 146.065 32.2653Z" fill="#B7D3F3"/>
<path d="M149.038 26.3335C149.038 26.1384 149.198 25.9778 149.393 25.9778C149.588 25.9778 149.749 26.1384 149.749 26.3335C149.749 26.5285 149.588 26.6891 149.393 26.6891C149.198 26.6891 149.038 26.5285 149.038 26.3335Z" fill="#B7D3F3"/>
<path d="M149.427 21.9506H149.336V26.3449H149.427V21.9506Z" fill="#B7D3F3"/>
<path d="M151.585 24.3934L149.257 26.2216L149.434 26.4472L151.762 24.619L151.585 24.3934Z" fill="#B7D3F3"/>
<path d="M61.1763 105.202C61.1763 105.202 58.7096 102.334 61.0272 100.498C61.0272 100.498 62.7138 99.4766 64.0906 99.5569C64.0906 99.5569 62.1401 102.827 62.7712 103.148C63.4022 103.469 64.6872 99.3504 64.6872 99.3504C64.6872 99.3504 68.5308 98.9833 69.77 99.5684C69.77 99.5684 66.4885 102.253 67.1769 102.414C67.8654 102.574 71.4221 99.9355 71.4221 99.9355C71.4221 99.9355 75.0018 100.544 74.8068 102.724C74.6117 104.904 73.3841 105.58 72.8448 105.523C72.3056 105.466 69.1389 104.261 69.0701 104.697C69.0012 105.144 70.9058 106.59 72.2482 106.659C72.2482 106.659 69.7241 109.436 68.0489 108.632C66.3738 107.829 66.2247 106.556 65.1806 106.085C64.1365 105.603 63.2416 105.615 63.6776 106.097C64.1135 106.579 65.9952 107.061 66.5918 108.116C67.1884 109.172 67.7277 109.883 65.9952 109.619C64.2627 109.355 61.4402 108.093 61.3255 106.636C61.1763 105.202 61.1763 105.202 61.1763 105.202Z" fill="#C8DBF4"/>
<path d="M73.0279 102.792C73.0279 102.792 63.3099 102.414 61.1643 105.19C61.1643 105.19 60.6939 106.613 59.2253 107.91L58.9958 108.529C58.9958 108.529 60.6824 106.751 61.2791 106.648C61.302 106.648 60.3612 103.206 73.0279 102.792Z" fill="#C8DBF4"/>
<path d="M59.2371 107.91C59.2371 107.91 57.1489 109.447 57.0112 112.201L57.3899 112.235C57.3899 112.235 58.0553 109.39 59.26 108.277C60.4647 107.164 59.2371 107.91 59.2371 107.91Z" fill="#C8DBF4"/>
<path d="M52.5602 101.588C52.5602 101.588 56.4841 99.3964 54.6483 96.4133C54.6483 96.4133 53.1797 94.589 51.6193 94.1186C51.6193 94.1186 52.4569 98.5588 51.6193 98.6621C50.7818 98.7654 51.0457 93.6482 51.0457 93.6482C51.0457 93.6482 46.9152 91.6633 45.2975 91.8239C45.2975 91.8239 47.8561 96.1609 47.0185 96.0576C46.1809 95.9544 43.3126 91.56 43.3126 91.56C43.3126 91.56 39.0789 90.7798 38.4019 93.2811C37.725 95.7937 38.815 97.0443 39.446 97.205C40.0771 97.3656 44.0928 97.3082 43.9895 97.836C43.8862 98.3638 41.167 99.1899 39.6525 98.7195C39.6525 98.7195 41.3277 102.85 43.5191 102.643C45.7105 102.437 46.3875 101.072 47.7528 100.968C49.1067 100.865 50.1049 101.232 49.4279 101.599C48.751 101.966 46.4448 101.714 45.3549 102.655C44.2534 103.584 43.3699 104.158 45.4122 104.582C47.4545 104.995 51.103 104.743 51.8373 103.171C52.5602 101.588 52.5602 101.588 52.5602 101.588Z" fill="#C8DBF4"/>
<path d="M40.3411 94.0613C40.3411 94.0613 51.3097 97.618 52.5718 101.588C52.5718 101.588 52.5144 103.366 53.6158 105.397V106.177C53.6158 106.177 52.4685 103.515 51.8375 103.148C51.826 103.148 54.2813 99.7062 40.3411 94.0613Z" fill="#C8DBF4"/>
<path d="M53.6042 105.397C53.6042 105.397 55.2908 107.967 54.327 111.099L53.891 110.985C53.891 110.985 54.3156 107.543 53.4321 105.81C52.5486 104.066 53.6042 105.397 53.6042 105.397Z" fill="#C8DBF4"/>
<path d="M58.8015 98.5588C58.8015 98.5588 53.6384 95.6674 56.0479 91.7435C56.0479 91.7435 57.9754 89.3341 60.0406 88.7145C60.0406 88.7145 58.9392 94.566 60.0406 94.7037C61.1421 94.8414 60.7979 88.095 60.7979 88.095C60.7979 88.095 66.2363 85.479 68.3703 85.6856C68.3703 85.6856 64.9972 91.3993 66.0986 91.2616C67.2001 91.124 70.9863 85.3414 70.9863 85.3414C70.9863 85.3414 76.5624 84.3087 77.4573 87.6131C78.3522 90.9174 76.9066 92.5696 76.0805 92.7761C75.2544 92.9827 69.9537 92.9138 70.0914 93.6022C70.229 94.2906 73.8088 95.3921 75.8051 94.7725C75.8051 94.7725 73.6022 100.211 70.7109 99.9356C67.8196 99.6602 66.9247 97.8704 65.1348 97.7327C63.345 97.595 62.037 98.0769 62.9319 98.5588C63.8269 99.0406 66.8559 98.7194 68.3015 99.947C69.7472 101.175 70.9174 101.932 68.2327 102.483C65.5479 103.033 60.729 102.689 59.7653 100.624C58.8015 98.5588 58.8015 98.5588 58.8015 98.5588Z" fill="#D4E4F8"/>
<path d="M74.9098 88.6342C74.9098 88.6342 60.4418 93.3154 58.7897 98.5473C58.7897 98.5473 58.8585 100.888 57.4128 103.573V104.605C57.4128 104.605 58.9273 101.094 59.7534 100.612C59.7649 100.624 56.5179 96.0805 74.9098 88.6342Z" fill="#D4E4F8"/>
<path d="M57.4129 103.584C57.4129 103.584 55.1871 106.969 56.4491 111.099L57.0228 110.95C57.0228 110.95 56.4606 106.407 57.6309 104.123C58.8127 101.829 57.4129 103.584 57.4129 103.584Z" fill="#D4E4F8"/>
<path d="M58.6179 120.037C64.2054 120.037 68.7374 115.505 68.7374 109.917H48.4983C48.4983 115.505 53.0303 120.037 58.6179 120.037Z" fill="#D4E4F8"/>
<path d="M68.8754 120.553H48.3608C48.3608 119.865 48.923 119.303 49.6114 119.303H67.6362C68.3246 119.303 68.8754 119.865 68.8754 120.553Z" fill="#D4E4F8"/>
<path d="M68.9671 109.917H48.1658V110.227H68.9671V109.917Z" fill="#9FC1F4"/>
<path d="M70.9976 121.173V122.148C70.9976 122.492 70.8828 122.768 70.7566 122.768H35.3152C35.1775 122.768 35.0742 122.492 35.0742 122.148V121.173C35.0742 120.829 35.189 120.553 35.3152 120.553H70.7566C70.8828 120.553 70.9976 120.829 70.9976 121.173Z" fill="#9ABFE2"/>
<path d="M70.9976 121.173V122.148C70.9976 122.492 70.8943 122.768 70.7681 122.768H42.6352C42.509 122.768 42.4058 122.492 42.4058 122.148V121.173C42.4058 120.829 42.509 120.553 42.6352 120.553H70.7681C70.8943 120.553 70.9976 120.829 70.9976 121.173Z" fill="#BAD4F4"/>
<path d="M62.0367 122.756H36.8755V159.425H62.0367V122.756Z" fill="#C8DBF4"/>
<path d="M69.0814 122.756H43.9202V159.425H69.0814V122.756Z" fill="#DFEBFD"/>
<path d="M67.7279 157.406H45.2744V123.8H67.7279V157.406ZM45.5154 157.165H67.487V124.041H45.5154V157.165Z" fill="#B7D3F3"/>
<path d="M67.6013 134.907H45.3887V135.148H67.6013V134.907Z" fill="#B7D3F3"/>
<path d="M67.6013 146.242H45.3887V146.483H67.6013V146.242Z" fill="#B7D3F3"/>
<path d="M58.7786 125.957H54.6596C54.4646 125.957 54.2925 125.797 54.2925 125.59C54.2925 125.395 54.4531 125.223 54.6596 125.223H58.7786C58.9736 125.223 59.1457 125.384 59.1457 125.59C59.1343 125.797 58.9736 125.957 58.7786 125.957Z" fill="#B7D3F3"/>
<path d="M58.7786 137.041H54.6596C54.4646 137.041 54.2925 136.88 54.2925 136.674C54.2925 136.478 54.4531 136.306 54.6596 136.306H58.7786C58.9736 136.306 59.1457 136.467 59.1457 136.674C59.1343 136.88 58.9736 137.041 58.7786 137.041Z" fill="#B7D3F3"/>
<path d="M58.7786 148.594H54.6596C54.4646 148.594 54.2925 148.434 54.2925 148.227C54.2925 148.032 54.4531 147.86 54.6596 147.86H58.7786C58.9736 147.86 59.1457 148.021 59.1457 148.227C59.1343 148.434 58.9736 148.594 58.7786 148.594Z" fill="#B7D3F3"/>
<path d="M42.4399 115.528V120.622H37.2998V115.517C37.2998 115.471 37.2998 115.413 37.3113 115.367C37.3686 114.782 37.7358 114.289 38.2636 114.071C38.6307 113.91 38.8946 113.578 38.9176 113.176L38.952 112.442H40.8336L40.8451 113.176C40.8566 113.578 41.109 113.922 41.4761 114.071C41.9924 114.289 42.3711 114.782 42.4284 115.367C42.4399 115.413 42.4399 115.471 42.4399 115.528Z" fill="#C8DBF4"/>
<path d="M40.9712 112.752H38.7683L38.8257 112.178H40.9138L40.9712 112.752Z" fill="#B7D3F3"/>
<path d="M42.4399 115.528V118.809H37.2998V115.505C37.2998 115.459 37.2998 115.402 37.3113 115.356H42.4284C42.4399 115.413 42.4399 115.471 42.4399 115.528Z" fill="white"/>
<path d="M46.6623 117.765V120.611H43.7939V117.754C43.7939 117.731 43.7939 117.696 43.7939 117.674C43.8284 117.341 44.0349 117.077 44.3217 116.951C44.5282 116.859 44.6774 116.675 44.6889 116.446L44.7118 116.033H45.7674L45.7788 116.446C45.7788 116.664 45.928 116.859 46.1345 116.951C46.4214 117.077 46.6394 117.352 46.6738 117.674C46.6623 117.708 46.6623 117.742 46.6623 117.765Z" fill="#C8DBF4"/>
<path d="M45.8361 116.216H44.6084L44.6428 115.895H45.8016L45.8361 116.216Z" fill="#B7D3F3"/>
<path d="M46.6623 117.765V119.601H43.7939V117.754C43.7939 117.731 43.7939 117.697 43.7939 117.674H46.6623C46.6623 117.708 46.6623 117.742 46.6623 117.765Z" fill="white"/>
<g opacity="0.5">
<path d="M271.654 30.9229H203.743V159.816H271.654V30.9229Z" fill="#BAD4F4"/>
<path d="M268.763 33.1831H206.726V159.815H268.763V33.1831Z" fill="#DFEBFD"/>
<path d="M258.23 95.6331C258.23 94.0613 259.458 92.7877 260.972 92.7877C262.487 92.7877 263.714 94.0613 263.714 95.6331C263.714 97.205 262.487 98.4786 260.972 98.4786C259.458 98.4786 258.23 97.205 258.23 95.6331Z" fill="#C8DBF4"/>
<path d="M250.634 52.3782H225.026V60.7767H250.634V52.3782Z" fill="white"/>
<path d="M245.885 54.9712H229.776V55.8317H245.885V54.9712Z" fill="#BAD4F4"/>
<path d="M243.636 57.3003H232.036V58.1608H243.636V57.3003Z" fill="#BAD4F4"/>
<path d="M250.944 61.0866H224.716V52.057H250.944V61.0866ZM225.335 60.4441H250.325V52.688H225.335V60.4441Z" fill="#BAD4F4"/>
</g>
<path d="M221.954 159.345H214.829C214.886 158.966 215.058 157.831 215.403 156.786C215.517 156.419 215.655 156.064 215.804 155.765C216.493 154.377 220.898 155.26 220.898 155.26C220.898 155.26 221.311 155.616 221.621 156.947C221.77 157.532 221.897 158.312 221.954 159.345Z" fill="#233862"/>
<path d="M208.874 50.485C208.874 50.485 203.195 51.4832 201.91 54.8334C200.625 58.1837 193.373 112.327 193.373 112.327C193.373 112.327 196.964 115.172 204.675 114.151C212.385 113.13 208.874 50.485 208.874 50.485Z" fill="#AEC3FF"/>
<path d="M200.418 157.096C200.395 158.071 200.28 158.978 199.925 159.345H185.824C186.007 158.84 186.512 158.071 187.958 157.831C189.599 157.567 192.169 156.775 193.66 155.192C194.188 154.629 194.589 153.964 194.762 153.195C195.427 150.247 200.246 154.102 200.246 154.102C200.246 154.102 200.452 155.651 200.418 157.096Z" fill="#233862"/>
<path d="M194.349 155.662C195.92 156.167 198.938 157.704 200.843 156.981C202.082 156.511 208.989 136.524 209.436 127.782C209.471 127.151 209.597 126.256 209.792 125.177C210.205 122.917 210.916 119.819 211.742 116.4C213.957 107.233 216.94 95.7707 216.882 92.0992C216.779 86.4083 199.925 90.9059 199.925 90.9059C199.925 90.9059 198.766 95.5756 198.536 102.333C198.077 115.746 196.815 138.395 193.396 154.125C193.259 154.79 193.695 155.456 194.349 155.662Z" fill="#233862"/>
<path d="M206.052 92.1221L214.966 156.695C214.966 156.695 218.879 157.635 221.919 156.878C221.919 156.878 224.524 122.538 224.306 114.231C224.088 105.925 226.176 92.0188 223.824 90.4814C221.472 88.944 206.052 92.1221 206.052 92.1221Z" fill="#2B478B"/>
<path d="M224.96 53.4451C224.96 53.4451 215.597 47.3871 208.885 50.485C207.818 50.9783 206.591 52.3551 205.719 53.3189C203.286 55.9922 198.548 98.4784 198.548 98.4784C198.548 98.4784 212.018 103.033 224.96 96.9295V53.4451Z" fill="white"/>
<path d="M208.346 50.3358C208.346 50.3358 198.869 54.2253 197.584 57.2084C196.299 60.1915 192.123 78.5261 192.123 80.6716C192.123 82.8171 199.385 81.1535 200.556 77.6885C201.531 74.8087 204.801 65.9626 206.533 60.3751L208.346 50.3358Z" fill="#AEC3FF"/>
<path d="M210.308 53.296C212.373 53.6976 215.413 53.2731 217.639 51.8045C216.63 49.4065 216.228 47.5134 216.079 46.2857C216.067 46.2169 216.067 46.1595 216.056 46.0907C215.987 45.4597 215.999 45.0237 216.033 44.8286H210.686C210.686 44.8286 209.229 45.4941 209.229 45.9645C209.229 46.2169 209.229 46.4464 209.218 46.6758C209.206 47.2954 209.183 47.8232 209.149 48.2936C209.046 49.7966 208.874 50.4965 208.874 50.4965C208.874 50.4965 208.22 52.883 210.308 53.296Z" fill="#DCABB0"/>
<path d="M209.149 48.2706C213.199 49.0508 215.551 46.8364 216.079 46.2742C216.159 46.1939 216.194 46.148 216.194 46.148C216.148 46.1251 216.102 46.1021 216.056 46.0907C214.553 45.4826 211.123 45.9645 209.207 46.6643C209.207 47.2724 209.184 47.8117 209.149 48.2706Z" fill="#CB7F83"/>
<path d="M217.41 43.9452C216.687 47.8461 211.662 47.7199 209.482 47.4675C208.874 47.3987 208.484 47.3184 208.484 47.3184C207.795 47.1348 207.405 46.0448 207.233 44.6221C206.877 41.8111 207.325 37.6692 207.807 36.6136C208.518 35.0188 209.872 33.2978 214.932 34.5484C219.991 35.799 218.339 38.9542 217.41 43.9452Z" fill="#DCABB0"/>
<path d="M207.612 34.4451C208.3 33.4814 209.769 32.3111 211.099 31.5997C213.968 30.0508 217.628 31.6456 217.639 31.6571C221.781 33.4814 222.86 36.6365 220.668 41.5701C218.351 46.7791 216.136 46.1939 216.136 46.1939C216.136 46.1939 216.607 45.9071 216.561 44.2779C216.561 44.1861 216.549 44.1058 216.549 44.0369C216.526 43.7042 216.641 43.3715 216.894 43.1535C217.41 42.6945 217.662 41.3062 217.226 40.9161C216.71 40.4457 215.976 41.0194 215.746 41.4554C215.54 41.7652 215.173 41.8684 214.84 41.6504C213.555 40.8358 214.392 39.2066 213.153 38.2084C211.926 37.2102 209.424 38.0478 207.577 37.2561C205.179 36.3612 207.084 35.1679 207.612 34.4451Z" fill="#233862"/>
<path d="M207.038 116.308C207.853 116.515 208.656 116.687 209.459 116.824C210.171 116.951 210.87 117.031 211.582 117.1C215.586 117.444 219.613 116.882 224.317 115.539C225.373 115.241 226.474 114.885 227.61 114.507C227.736 114.461 227.3 102.024 226.807 89.1964C226.761 87.877 226.704 86.5461 226.658 85.2266C226.635 84.6644 226.612 84.1137 226.589 83.5515C226.142 72.2043 225.694 61.9585 225.602 61.4078C225.384 60.1571 225.189 59.0901 224.971 58.1722C224.329 55.4875 223.537 54.0074 221.805 52.7453C221.633 52.6191 220.244 51.9192 219.028 51.3111C218.018 50.8063 217.112 50.3703 217.112 50.3703C216.71 50.5653 216.229 51.4947 215.712 52.7912C214.783 55.1891 213.773 58.8492 213.073 61.5799C213.073 61.5913 213.073 61.5913 213.073 61.5913C212.626 63.3582 212.305 64.735 212.213 65.1251C212.052 65.7906 211.846 67.0871 211.605 68.8311C211.272 71.2061 210.882 74.4416 210.469 78.1131C210.423 78.4917 210.389 78.8703 210.343 79.2604C210.297 79.6964 210.239 80.1439 210.194 80.5914C210.182 80.7405 210.159 80.8782 210.148 81.0273C209.987 82.4845 209.826 83.976 209.666 85.502C209.528 86.7641 207.624 87.6705 207.486 88.9555C207.406 89.7127 207.256 96.6427 207.05 98.8571C206.866 100.417 206.981 115.562 207.038 116.308Z" fill="#AEC3FF"/>
<path d="M220.852 65.9626C220.864 65.9856 221.174 77.4361 212.569 78.8244C203.952 80.2127 209.677 80.5798 209.677 80.5798C209.677 80.5798 225.878 79.8914 226.153 79.4669C226.417 79.0538 220.852 65.9626 220.852 65.9626Z" fill="#9DB0F4"/>
<path d="M213.578 83.7465C213.578 83.7465 213.739 83.8612 214.049 84.0563L214.06 84.0677C215.379 84.9053 219.269 87.1885 224.948 88.726C225.545 88.8866 226.165 89.0357 226.796 89.1849C226.75 87.8654 226.692 86.5345 226.646 85.2151C227.392 85.1577 228.115 85.0659 228.78 84.9168C228.758 84.7447 228.735 84.5726 228.712 84.389C227.989 84.0907 227.266 83.8038 226.578 83.5399C226.015 83.322 225.465 83.1154 224.948 82.9204C222.619 82.0369 220.887 81.4288 220.887 81.4288L213.98 83.6203L213.578 83.7465Z" fill="#9DB0F4"/>
<path d="M211.742 83.5629C211.742 83.5629 212.626 83.7809 214.037 84.0677H214.049C216.653 84.5955 221.036 85.3298 224.937 85.2839C225.511 85.2725 226.084 85.2495 226.635 85.2151C227.381 85.1577 228.104 85.0659 228.769 84.9168C230.203 84.6185 231.396 84.1022 232.177 83.3105C237.994 77.3902 228.999 56.1184 227.117 54.0532C224.914 51.6323 220.887 50.7948 218.661 50.4964C218.569 50.485 218.477 50.4735 218.397 50.462C217.617 50.3702 217.112 50.3473 217.089 50.3473C217.089 50.3473 217.261 50.9095 217.559 51.8618C217.674 52.2289 217.8 52.6535 217.95 53.1353C219.315 57.61 221.954 66.3986 223.113 71.3666C223.537 73.1794 223.767 74.4874 223.663 74.866C223.204 76.5641 218.512 77.4361 215.529 77.8147C214.29 77.9753 213.349 78.0557 213.131 78.0671C213.119 78.0671 213.096 78.0671 213.085 78.0671L212.913 78.7785L212.5 80.4766L212.098 82.1402L211.742 83.5629Z" fill="#AEC3FF"/>
<path d="M195.519 93.7514L215.506 92.9139L211.444 68.0165L191.469 68.854L195.519 93.7514Z" fill="#ABDDDA"/>
<path d="M213.085 78.0672C213.085 78.0672 209.195 77.7918 209 78.6982C208.541 80.8093 212.339 82.5418 213.578 82.4271C214.817 82.3123 213.98 77.9295 213.085 78.0672Z" fill="#DCABB0"/>
<path d="M192.558 73.9138C192.558 73.9138 196.276 72.7549 196.677 73.5925C197.607 75.543 194.314 78.113 193.086 78.2737C191.87 78.4343 191.664 73.9826 192.558 73.9138Z" fill="#DCABB0"/>
<path d="M216.687 49.0967C216.687 49.0967 218.328 49.8769 219.143 51.0586C219.143 51.0586 213.027 61.6716 213.05 61.5798C213.073 61.488 215.116 50.4505 216.687 49.0967Z" fill="#9DB0F4"/>
<path d="M209.069 49.2458C208.53 49.4524 207.497 50.5079 207.268 51.0931L206.545 60.3636C206.545 60.3636 208.094 53.5599 208.885 50.485C209.081 49.7048 209.035 49.4638 209.069 49.2458Z" fill="#9DB0F4"/>
<path d="M204.824 68.2917C204.824 68.2917 204.663 67.6033 203.757 67.6836C202.851 67.764 197.733 68.0164 197.733 68.0164C197.733 68.0164 196.747 68.0049 196.839 68.6359L204.824 68.2917Z" fill="#233862"/>
<path d="M210.687 44.8171C210.687 44.8171 210.021 45.4252 208.954 45.2302C208.323 45.1154 207.968 44.2893 207.968 44.2893C207.968 44.2893 209.184 44.0828 210.687 44.8171Z" fill="white"/>
<path d="M133.103 67.7067C132.679 66.8806 142.477 63.8975 142.626 72.0666C142.626 72.0666 160.984 71.6191 152.218 61.3848C149.189 57.8395 149.499 54.9138 149.59 52.1831C149.682 49.4524 147.697 41.5357 140.905 42.3274C140.905 42.3274 139.127 41.6046 136.901 42.7519C131.852 45.3908 120.54 70.7242 133.103 67.7067Z" fill="#163560"/>
<path d="M163.106 76.851C163.106 76.851 164.299 75.0267 165.263 74.9923C166.227 74.9578 168.005 74.453 167.868 74.8087C167.73 75.1644 166.617 75.1988 166.514 75.4168C166.411 75.6348 168.155 75.956 168.659 75.9905C169.164 76.0249 170.334 75.9905 170.3 76.2429C170.266 76.4953 168.177 77.5279 166.709 77.3787C165.24 77.2411 163.416 77.8033 163.416 77.8033L163.106 76.851Z" fill="#DCABB0"/>
<path d="M145.827 77.4362C145.827 77.4362 146.481 78.7212 147.651 80.2012C149.074 81.9796 151.266 84.0334 154.008 84.4349C155.316 84.63 156.601 84.3432 157.782 83.8269C161.121 82.3468 163.634 78.9392 163.634 78.9392C164.219 77.3329 163.255 76.2429 163.255 76.2429C163.255 76.2429 156.52 77.7574 155.878 77.4362C155.235 77.1149 151.495 66.3299 150.6 64.976C149.705 63.6221 146.665 62.9108 146.665 62.9108L145.827 77.4362Z" fill="#F9DDBF"/>
<path d="M147.652 80.2013C149.074 81.9797 151.266 84.0334 154.008 84.435C155.316 84.63 156.601 84.3432 157.783 83.8269C157.656 83.8384 154.318 84.2514 152.987 81.8764C151.633 79.4555 150.164 75.6004 148.156 76.8854C147.296 77.4362 147.33 78.813 147.652 80.2013Z" fill="#F2CCAA"/>
<path d="M120.677 150.189C120.677 150.189 118.624 152.071 119.025 153.402C119.427 154.733 121.285 155.628 121.538 157.257C121.79 158.886 122.788 159.781 123.695 159.781C124.601 159.781 127.997 159.781 127.997 159.781C127.997 159.781 128.663 158.634 127.057 158.289C125.45 157.945 124.842 156.029 124.945 154.251C125.049 152.472 124.796 150.097 124.796 150.097L121.389 149.306L120.677 150.189Z" fill="#233862"/>
<path d="M138.094 150.992C138.094 150.992 137.36 158.943 138.255 159.391L149.808 159.368C149.808 159.368 149.808 158.037 147.95 157.739C146.091 157.44 142.833 156.35 142.282 153.941C141.731 151.509 138.094 150.992 138.094 150.992Z" fill="#233862"/>
<path d="M129.856 93.9464C132.231 88.6113 133.688 87.0853 133.413 85.4331C133.206 84.2055 134.044 62.4633 134.044 62.4633C134.331 62.3715 134.893 62.3027 135.203 62.2338C136.178 62.0158 136.981 61.3274 137.325 60.3866C137.727 59.2507 138.048 57.5756 138.048 55.4874L138.358 55.5448L143.475 56.5545C143.475 56.5545 143.36 58.1607 143.36 59.6867C143.36 59.6982 143.36 59.7097 143.36 59.7211C143.349 61.0406 144.221 62.1994 145.483 62.5665C146.125 62.7501 146.687 62.9107 146.687 62.9107C146.687 62.9107 148.569 68.2803 148.925 73.799C149.28 79.3178 145.506 81.7157 148.948 92.7302C152.47 103.986 128.536 96.8951 129.856 93.9464Z" fill="#DCABB0"/>
<path d="M143.464 56.543C143.464 56.543 143.349 58.1493 143.349 59.6752C140.48 59.5949 138.966 56.979 138.346 55.5333L143.464 56.543Z" fill="#CB7F83"/>
<path d="M144.416 57.9886C144.416 57.9886 137.635 58.1034 137.635 53.8811C137.635 49.6589 136.752 46.825 141.077 46.5726C145.403 46.3201 146.252 47.9379 146.596 49.3377C146.94 50.7374 146.183 57.851 144.416 57.9886Z" fill="#DCABB0"/>
<path d="M144.164 46.4693C144.164 46.4693 142.305 51.4259 139.46 52.1602C136.614 52.8945 135.375 52.1257 135.375 52.1257C135.375 52.1257 137.555 50.3932 138.014 47.3643C138.014 47.3528 142.764 44.1058 144.164 46.4693Z" fill="#163560"/>
<path d="M143.705 46.8709C143.705 46.8709 145.081 47.3872 145.644 48.3854C146.194 49.3721 146.665 50.6686 146.561 52.2634C146.561 52.2634 147.961 48.8902 146.389 46.9857C144.726 44.9663 143.705 46.8709 143.705 46.8709Z" fill="#163560"/>
<path d="M142.948 55.3611C142.948 55.3611 143.418 55.9807 144.347 55.9348C145.105 55.9004 145.391 55.2464 145.391 55.2464C145.391 55.2464 144.003 54.9137 142.948 55.3611Z" fill="#EBF3FA"/>
<path d="M130.774 72.0665C130.774 72.0665 130.797 75.2791 130.969 78.1933C131.084 80.1209 131.256 81.9222 131.543 82.5647C132.243 84.171 133.023 84.4349 133.023 84.4349L139.092 85.9265L141.226 86.4428L147.95 84.4349C147.95 84.4349 151.013 75.8872 149.785 71.0683C148.558 66.2495 146.676 62.9107 146.676 62.9107C146.676 62.9107 141.192 68.2803 134.044 62.4518L130.774 72.0665Z" fill="#F9DDBF"/>
<path d="M130.98 78.2048C131.095 80.1324 131.267 81.9337 131.554 82.5762C132.254 84.1825 133.034 84.4464 133.034 84.4464L139.104 85.938L141.743 85.1578C141.743 85.1578 132.334 81.1306 133.31 73.5696L130.98 78.2048Z" fill="#F2CCAA"/>
<path d="M147.525 85.7314C147.525 85.7314 150.853 96.1034 151.071 99.6372C151.289 103.171 144.703 149.799 144.439 151.417C144.186 152.954 142.282 153.93 142.282 153.93C142.282 153.93 141.41 154.446 140.159 154.09C138.427 153.597 137.876 153.012 137.876 153.012C137.876 153.012 135.283 119.762 136.889 107.875C138.496 96.0001 138.519 85.7199 138.519 85.7199H147.525V85.7314Z" fill="#95CCCA"/>
<path d="M133.413 85.4216C133.413 85.4216 128.33 92.2369 127.86 96.8492C127.39 101.462 127.114 117.651 126.104 122.148C125.095 126.646 121.389 135.285 121.389 149.306C121.389 149.306 121.779 150.109 122.961 150.533C123.339 150.671 123.856 150.797 124.349 150.912C125.336 151.142 126.334 150.66 126.781 149.753C129.294 144.705 137.28 128.424 137.681 125.039C137.968 122.653 140.492 106.82 145.988 97.5261C147.307 95.3003 145.173 86.4313 145.173 86.4313L133.413 85.4216Z" fill="#ABDDDA"/>
<path d="M143.097 55.476C143.097 55.476 143.211 55.9694 144.451 55.9005C144.451 55.9005 145.495 55.8317 145.46 55.2925C145.46 55.2925 144.451 54.9024 143.097 55.476Z" fill="white"/>
<path d="M148.053 84.1367C148.053 84.1367 146.711 85.1923 144.06 85.2496C140.882 85.3185 133.023 84.435 133.023 84.435C133.023 84.435 132.679 85.4103 132.69 86.4429C132.69 86.4429 142.294 88.8638 147.858 86.7986C147.858 86.7986 148.581 85.4447 148.053 84.1367Z" fill="#233862"/>
<path d="M143.372 86.3396C143.372 85.4332 144.026 84.6989 144.818 84.6989C145.609 84.6989 146.263 85.4332 146.263 86.3396C146.263 87.246 145.609 87.9803 144.818 87.9803C144.026 87.9803 143.372 87.246 143.372 86.3396ZM143.854 86.3396C143.854 86.9821 144.29 87.4984 144.818 87.4984C145.357 87.4984 145.781 86.9821 145.781 86.3396C145.781 85.6971 145.346 85.1808 144.818 85.1808C144.29 85.1808 143.854 85.6971 143.854 86.3396Z" fill="white"/>
<path d="M134.044 93.0056C134.044 93.0056 134.572 94.2333 135.237 94.4169C135.903 94.6004 136.408 95.2085 136.649 95.3921C136.889 95.5757 137.325 95.6216 137.211 95.8166C137.096 96.0117 135.88 95.6675 135.719 95.5986C135.559 95.5412 136.683 96.7345 137.05 97.1016C137.417 97.4688 138.243 98.008 138.048 98.249C137.842 98.5014 135.501 98.226 134.526 97.5835C133.562 96.9525 132.679 94.3824 132.679 94.3824L134.044 93.0056Z" fill="#DCABB0"/>
<path d="M134.044 62.4518C134.044 62.4518 130.109 63.0255 128.594 65.8135C127.08 68.6015 123.454 81.4174 124.234 83.6547C125.014 85.892 132.702 95.3691 132.702 95.3691C132.702 95.3691 134.801 94.8298 134.801 93.7628C134.801 93.7628 130.154 82.8516 130.235 82.0025C130.315 81.1535 134.595 74.6136 134.434 71.6535C134.262 68.6933 134.044 62.4518 134.044 62.4518Z" fill="#F9DDBF"/>
<path d="M163.576 140.173C163.496 140.873 163.565 141.928 163.725 143.179C164.345 148.136 166.364 156.041 166.364 156.041L168.888 156.351C168.705 154.951 169.232 149.593 169.932 143.661C170.988 134.712 172.434 124.431 172.434 124.431C172.434 124.431 166.926 119.888 163.691 121.139C160.444 122.401 163.955 136.697 163.576 140.173Z" fill="#D69396"/>
<path d="M163.725 143.179C164.345 148.135 166.364 156.041 166.364 156.041L168.888 156.35C168.705 154.951 169.233 149.593 169.932 143.661C169.038 143.821 166.594 144.131 164.551 143.363C164.23 143.248 163.955 143.19 163.725 143.179Z" fill="#DFEBFD"/>
<path d="M166.043 87.6704C166.043 87.6704 167.374 87.0279 168.865 87.6704C170.357 88.313 171.447 91.0322 170.781 93.5793C170.116 96.1264 172.376 96.1608 171.321 98.2031C170.954 98.9259 166.031 99.5455 165.871 96.723C165.768 94.979 167.351 94.8872 166.892 92.9941C166.433 91.101 166.043 87.6704 166.043 87.6704Z" fill="#2C3A64"/>
<path d="M158.987 139.622C158.838 140.483 158.884 141.917 159.021 143.58C159.446 148.629 160.823 155.846 160.823 155.846L163.324 156.419C163.232 155.042 164.047 149.845 165.079 144.028C166.685 134.987 168.797 124.454 168.797 124.454C168.797 124.454 163.588 119.578 160.272 120.634C156.944 121.701 159.572 136.192 158.987 139.622Z" fill="#DCABB0"/>
<path d="M168.854 155.846C168.854 155.846 169.45 156.947 170.598 157.2C171.321 157.36 171.929 157.739 172.319 158.267C172.64 158.714 172.319 159.334 171.768 159.334L165.951 159.299C165.458 159.299 165.068 158.863 165.125 158.37C165.171 157.934 165.217 157.44 165.24 157.05C165.286 156.213 166.192 155.456 166.192 155.456C166.192 155.456 166.995 155.915 167.293 155.972C167.982 156.11 168.854 155.846 168.854 155.846Z" fill="#212D4C"/>
<path d="M169.967 99.8209C169.967 99.8209 173.764 106.223 174.533 111.455C174.533 111.455 172.686 113.945 171.929 112.201C171.183 110.445 165.79 101.071 169.967 99.8209Z" fill="#DCABB0"/>
<path d="M169.244 88.4506C169.198 88.3818 167.5 85.697 164.322 85.1578C161.752 84.7218 159.331 86.5461 158.941 89.1276C158.539 91.7206 158.952 95.0823 163.186 96.2985L169.244 88.4506Z" fill="#2C3A64"/>
<path d="M168.464 100.004L163.679 102.85L162.475 99.4767C162.475 99.4767 163.025 98.249 163.186 96.2871C163.255 95.461 163.255 94.5087 163.106 93.4531L167.271 95.2659C167.271 95.2659 167.202 95.6446 167.167 96.1953C167.133 96.7919 167.156 97.595 167.374 98.3523C167.557 98.9948 167.89 99.6029 168.464 100.004Z" fill="#DCABB0"/>
<path d="M167.374 98.3522C165.079 98.4325 163.186 96.287 163.186 96.287L167.167 96.1952C167.133 96.7918 167.156 97.5949 167.374 98.3522Z" fill="#CB7F83"/>
<path d="M168.406 96.9983C168.406 96.9983 163.909 98.5013 162.096 94.956C160.146 91.1353 161.832 88.1637 163.37 87.8654C166.444 87.2803 168.315 88.3473 168.946 89.5635C169.565 90.7797 170.885 96.1951 168.406 96.9983Z" fill="#DCABB0"/>
<path d="M166.456 95.0708C166.456 95.0708 166.674 95.5297 167.867 95.1855C167.867 95.1855 168.865 94.8987 168.716 94.3709C168.728 94.3709 167.661 94.2102 166.456 95.0708Z" fill="white"/>
<path d="M157.002 136.501C158.298 137.741 167.902 140.311 173.317 138.463C174.292 138.131 172.732 108.219 171.814 102.437C171.562 100.853 170.299 99.6258 168.716 99.4078C168.452 99.3733 168.154 99.3389 167.844 99.3045C167.913 100.016 167.672 100.681 166.433 100.922C164.781 101.244 163.232 100.211 162.429 99.4881C161.144 99.752 160.386 99.8552 159.365 100.28C158.241 100.75 157.575 101.92 157.736 103.125L158.046 105.408L159.033 112.671C159.159 113.589 159.147 114.507 159.01 115.425C158.585 118.19 157.92 124.913 157.472 130.03C157.139 133.633 156.933 136.433 157.002 136.501Z" fill="#A0BDE9"/>
<path d="M165.251 88.29C165.251 88.29 165.676 92.5123 161.671 94.0038C160.076 94.6004 159.25 88.1523 162.578 86.8673C165.905 85.5823 169.186 87.1083 169.576 89.3571C169.967 91.6059 169.668 92.0763 169.668 92.0763C169.668 92.0763 168.119 87.7967 165.251 88.29Z" fill="#2C3A64"/>
<path d="M162.819 102.093C162.819 102.093 164.654 109.355 164.723 112.247C164.723 112.247 168.751 119.28 168.991 119.785C169.232 120.289 167.534 120.966 167.534 120.966C167.534 120.966 162.475 115.574 161.511 113.314C160.536 111.053 157.082 103.687 158.459 101.484C159.847 99.2816 162.819 102.093 162.819 102.093Z" fill="#DCABB0"/>
<path d="M174.533 111.455C174.533 111.455 174.889 116.4 171.378 120.301C171.378 120.301 170.414 119.142 170.54 118.786C170.667 118.431 172.043 112.912 173.042 112.132C174.04 111.352 174.533 111.455 174.533 111.455Z" fill="#DCABB0"/>
<path d="M168.991 119.785C168.991 119.785 171.24 119.773 171.366 120.301C171.493 120.829 170.793 122.492 169.141 121.907C167.488 121.333 167.534 120.966 167.534 120.966L168.991 119.785Z" fill="#DCABB0"/>
<path d="M170.541 118.775C170.541 118.775 168.728 119.612 169.347 120.507C169.967 121.402 171.195 120.863 171.378 120.301C171.562 119.727 170.541 118.775 170.541 118.775Z" fill="#DCABB0"/>
<path d="M164.15 105.925C164.15 105.925 161.786 108.128 158.149 107.783C158.149 107.783 156.359 101.427 159.228 100.635C162.107 99.8552 164.482 103.63 164.15 105.925Z" fill="#8EADDC"/>
<path d="M171.206 100.945L173.294 104.502C173.294 104.502 173.03 106.154 171.47 106.315C169.91 106.487 171.206 100.945 171.206 100.945Z" fill="#8EADDC"/>
<path d="M160.283 87.7049C160.283 87.7049 158.952 86.982 157.461 87.7049C155.969 88.4277 154.879 91.4911 155.545 94.3595C156.21 97.2278 153.95 97.2737 155.005 99.5684C155.373 100.383 160.295 101.071 160.455 97.9048C160.559 95.9428 158.975 95.8395 159.434 93.7055C159.905 91.5714 160.283 87.7049 160.283 87.7049Z" fill="#2C3A64"/>
<path d="M159.021 143.592C159.446 148.64 160.822 155.857 160.822 155.857L163.324 156.431C163.232 155.054 164.046 149.856 165.079 144.039C163.737 144.177 161.281 144.292 159.021 143.592Z" fill="white"/>
<path d="M163.393 155.846C163.393 155.846 163.989 156.947 165.137 157.2C165.859 157.36 166.468 157.739 166.858 158.267C167.179 158.714 166.858 159.334 166.307 159.334L160.49 159.299C159.997 159.299 159.606 158.863 159.664 158.37C159.71 157.934 159.756 157.44 159.779 157.05C159.824 156.213 160.731 155.456 160.731 155.456C160.731 155.456 161.534 155.915 161.832 155.972C162.509 156.11 163.393 155.846 163.393 155.846Z" fill="#2C3A64"/>
<path d="M111.109 54.4894C111.109 54.4894 120.861 71.5274 118.899 77.4018C116.949 83.2762 110.397 83.6549 110.397 83.6549L111.109 54.4894Z" fill="#F9DDBF"/>
<path d="M116.157 159.345H102.55C101.574 158.68 102.813 152.22 102.813 152.22C102.813 152.22 106.531 150.809 107.173 153.677C107.816 156.546 111.9 157.452 114.069 157.808C115.537 158.037 116.008 158.852 116.157 159.345Z" fill="#233862"/>
<path d="M95.9751 159.345H82.3561C81.3809 158.68 82.62 152.22 82.62 152.22C82.62 152.22 86.3374 150.809 86.9799 153.677C87.6225 156.546 91.707 157.452 93.8755 157.808C95.3556 158.037 95.826 158.852 95.9751 159.345Z" fill="#233862"/>
<path d="M112.497 93.3843C112.497 93.3843 111.889 101.014 111.166 110.193C110.191 122.653 107.552 153.563 107.552 153.563C107.552 153.563 105.819 155.043 101.999 154.228C101.999 154.228 98.7404 143.569 97.7651 131.396C97.7537 131.201 97.7307 130.994 97.7192 130.799C96.8128 118.408 95.4016 92.3287 95.4016 92.3287L112.497 93.3843Z" fill="#2B478B"/>
<path d="M112.704 90.7454C112.704 90.7454 111.877 101.014 111.166 110.193L97.7651 131.396C97.7537 131.201 97.7307 130.994 97.7192 130.799C96.8128 118.408 95.4016 92.3287 95.4016 92.3287L112.704 90.7454Z" fill="#233862"/>
<path d="M108.802 90.7454C108.802 90.7454 99.0845 114.943 95.9752 124.11C93.7608 130.639 87.5193 153.563 87.5193 153.563C87.5193 153.563 84.8 154.389 82.5283 152.794C82.5283 152.794 80.2107 129.376 84.8918 122.779C87.3816 119.28 85.5114 86.3626 95.5966 86.0872C105.693 85.8004 108.802 90.7454 108.802 90.7454Z" fill="#2B478B"/>
<path d="M104.454 55.0745C102.974 55.8547 101.517 55.9006 100.266 55.6367C99.1191 55.3958 98.1324 54.8909 97.4325 54.4435C96.7097 53.9845 96.2852 53.583 96.2852 53.583C96.2852 53.583 96.3311 53.5141 96.4228 53.365C96.8588 52.6192 98.1897 49.9229 97.6046 45.586C97.5931 45.5286 98.0291 45.6089 98.6716 45.7581C100.599 46.217 104.477 47.3185 104.649 47.3644H104.661C104.661 47.3644 104.707 48.2708 104.867 49.9115C104.879 50.0606 104.89 50.2098 104.913 50.3589C104.936 50.554 104.948 50.749 104.982 50.967C105.143 52.6651 104.454 55.0745 104.454 55.0745Z" fill="#DCABB0"/>
<path d="M104.856 49.9114C101.976 50.5769 97.6848 46.3203 97.6848 46.3203C97.9946 46.0908 98.3273 45.9072 98.6715 45.7581C100.599 46.217 104.477 47.3184 104.649 47.3643H104.661C104.661 47.3643 104.695 48.2822 104.856 49.9114Z" fill="#CB7F83"/>
<path d="M114.011 86.6723C113.805 89.4489 113.22 91.4338 111.935 91.4338C111.935 91.4338 106.221 93.4416 99.3942 93.499C98.0633 93.5105 96.1701 93.2466 94.5983 92.9827C93.0035 92.7073 91.7299 92.4434 91.7299 92.4434C90.3531 92.1222 88.8386 91.2846 89.0451 89.7128C89.1484 88.8752 89.2287 87.8082 89.2861 86.569C89.2861 86.4887 89.2975 86.4084 89.2975 86.3281C89.4467 82.7025 89.4238 77.7115 89.4467 72.9271C89.4582 69.9899 89.4926 67.133 89.5844 64.7236C89.5844 64.7236 88.242 55.2695 89.7335 53.7091C91.489 51.8963 96.6291 51.3341 96.9503 51.4029C97.0421 51.38 97.1454 51.3571 97.2372 51.3456C97.2372 51.3456 101.62 53.8124 104.878 51.9881C104.878 51.9881 104.913 51.9996 104.97 51.9996C105.762 52.1258 109.72 53.0437 111.086 54.4893C111.556 54.9827 113.438 58.0346 113.495 61.3963C113.564 66.066 113.38 71.3782 113.38 71.3782C113.426 72.1355 113.507 73.1222 113.598 74.2351C113.69 75.4283 113.805 76.7707 113.885 78.1705C113.931 78.8818 113.965 79.5932 114 80.316C114.126 82.5533 114.161 84.7907 114.011 86.6723Z" fill="#F9DDBF"/>
<path d="M96.9849 51.4144C96.9849 51.4144 101.838 56.4169 105.303 55.3957C105.303 55.3957 105.762 54.7188 104.202 54.5008C102.641 54.2828 100.955 54.3746 96.9849 51.4144Z" fill="#F2CCAA"/>
<path d="M105.842 47.1349C105.842 47.1349 104.661 47.5594 103.146 47.7659C100.943 48.0642 98.0405 47.8921 97.1226 45.2188C95.5852 40.7212 93.6232 38.025 98.1438 36.1892C100.565 35.2025 102.114 35.1566 103.158 35.5237C104.076 35.845 104.615 36.499 105.016 37.13C105.9 38.5183 107.667 46.3547 105.842 47.1349Z" fill="#DCABB0"/>
<path d="M105.361 34.4224C106.382 34.6748 106.841 36.2811 105.866 36.9466C104.122 38.1398 101.999 37.6694 101.207 38.0251C100.083 38.5299 99.8764 40.4115 99.8649 41.0082C99.842 41.6048 99.7616 42.1096 98.2357 41.7539C97.9833 41.6966 97.7997 41.708 97.6849 41.7883C97.0539 42.167 97.8571 43.9798 98.1095 44.3813C98.1095 44.3813 98.4651 45.6893 97.6849 46.3204C97.5932 46.4007 96.0557 47.0661 92.3727 41.4212C91.7876 40.5377 91.2369 38.5414 92.1318 36.6138C93.0267 34.6863 95.7918 32.3113 99.1191 32.3113C101.735 32.3113 103.204 33.9061 105.361 34.4224Z" fill="#163560"/>
<path d="M105.877 44.232C105.877 44.232 105.969 44.8172 104.615 45.2761C104.615 45.2761 103.479 45.6662 103.272 45.0696C103.272 45.0811 104.179 44.2206 105.877 44.232Z" fill="white"/>
<path d="M100.978 83.3565C100.978 83.3565 104.626 85.7659 106.037 85.9151C106.99 86.0183 110.776 85.8692 110.799 85.3873C110.833 84.7103 108.493 83.999 107.885 83.7236C107.276 83.4483 106.806 83.1385 106.806 82.8746C106.806 82.6107 109.147 83.4827 108.894 82.909C108.642 82.3353 106.473 81.3486 105.957 81.2454C105.429 81.1536 103.754 81.7273 103.089 81.4175C102.435 81.1306 100.978 83.3565 100.978 83.3565Z" fill="#D69396"/>
<path d="M102.572 81.2454C103.054 82.1518 100.966 83.3565 100.966 83.3565C100.966 83.3565 95.195 86.0986 89.2861 86.569C89.2861 86.4887 89.2976 86.4084 89.2976 86.3281C89.4468 82.7025 89.4238 77.7115 89.4468 72.9271C89.4582 72.9271 101.781 79.7423 102.572 81.2454Z" fill="#F2CCAA"/>
<path d="M91.0074 52.8372C91.0074 52.8372 88.5061 53.8927 85.5345 59.4459C82.5629 64.999 79.7519 76.7478 80.9566 78.6524C82.1613 80.5685 92.3039 84.9398 101.138 83.7696C101.138 83.7696 103.33 81.7732 102.894 81.0045C102.894 81.0045 88.0702 74.958 88.0702 74.2351C88.0587 73.5123 93.3594 67.2822 93.6577 64.1844C93.956 61.0866 91.0074 52.8372 91.0074 52.8372Z" fill="#F9DDBF"/>
<path d="M105.67 66.8692C105.67 66.8692 105.498 68.7738 105.67 69.2672C105.842 69.7605 110.891 69.8752 111.017 69.4048C111.143 68.9459 111.338 67.5347 111.017 67.2937C110.707 67.0528 105.67 66.8692 105.67 66.8692Z" fill="#DCABB0"/>
<path d="M108.998 84.5268H107.862C105.051 84.5268 102.756 82.2322 102.756 79.4212V74.522C102.756 71.711 102.813 69.2213 105.842 68.2919L111.155 68.6935C115.744 69.9556 114.115 71.711 114.115 74.522V79.4212C114.103 82.2207 111.809 84.5268 108.998 84.5268Z" fill="#DCABB0"/>
<path d="M111.028 68.6246C111.028 68.6246 112.279 68.9459 113.174 68.4525C114.459 67.7412 116.008 67.3396 116.271 67.0183C116.73 66.4676 118.956 64.1959 118.956 64.1959L120.023 64.9072C120.023 64.9072 118.991 69.095 118.153 69.8408C117.316 70.5866 115.824 73.2484 113.3 73.627C112.003 73.8221 111.028 68.6246 111.028 68.6246Z" fill="#DCABB0"/>
<path d="M118.956 64.1958C118.956 64.1958 118.566 63.1403 118.887 63.0026C119.209 62.8649 119.404 63.6336 119.404 63.6336C119.404 63.6336 120.241 61.8897 121.102 62.6469C121.951 63.4042 120.035 64.9187 120.035 64.9187L118.956 64.1958Z" fill="#DCABB0"/>
<path d="M105.647 68.3492C105.647 68.3492 104.397 68.6705 103.502 68.1771C102.217 67.4658 100.668 67.0642 100.404 66.7429C99.945 66.1922 97.7191 63.9205 97.7191 63.9205L96.6521 64.6318C96.6521 64.6318 97.6847 68.8196 98.5223 69.5654C99.3598 70.3112 100.851 72.973 103.376 73.3516C104.661 73.5467 105.647 68.3492 105.647 68.3492Z" fill="#DCABB0"/>
<path d="M97.7078 63.9205C97.7078 63.9205 98.0979 62.8649 97.7766 62.7272C97.4554 62.5895 97.2603 63.3583 97.2603 63.3583C97.2603 63.3583 96.4227 61.6143 95.5622 62.3715C94.7132 63.1288 96.6293 64.6433 96.6293 64.6433L97.7078 63.9205Z" fill="#DCABB0"/>
<path d="M113.208 77.4018C113.208 77.4018 116.18 78.7098 117.752 79.1687C119.209 79.5932 121.022 80.6258 121.056 80.7865C121.091 80.9471 121.114 82.4042 120.368 82.691C119.622 82.9779 111.591 84.1252 110.397 83.6548C110.397 83.6548 111.258 77.8952 113.208 77.4018Z" fill="#DCABB0"/>
<path d="M120.942 77.7689C120.942 77.7689 119.53 77.8722 118.693 78.9048C118.693 78.9048 118.349 79.3523 117.752 79.1687C117.752 79.1687 115.526 80.5914 116.937 83.2762C116.937 83.2762 119.943 83.0926 120.368 82.691C120.804 82.2895 120.942 77.7689 120.942 77.7689Z" fill="white"/>
<path d="M120.368 82.691C120.368 82.691 121.871 82.3353 122.135 80.8323C122.41 79.3293 122.123 77.9066 121.136 77.7804C120.15 77.6542 119.519 78.1934 119.255 78.9048C118.991 79.6276 118.199 82.7598 120.368 82.691Z" fill="#A3B4E6"/>
<path d="M108.837 56.7381C108.837 56.7381 111.832 56.6004 112.979 59.4573C114.126 62.3027 114.344 67.2019 111.694 67.9706C109.893 68.4984 107.942 68.1313 106.198 67.4543C105.28 67.0986 104.959 66.3299 104.443 65.7104C101.058 61.7635 102.148 57.0823 108.837 56.7381Z" fill="#DCABB0"/>
<path d="M102.756 76.702C102.756 76.702 108.642 77.964 114.103 76.702C114.103 76.702 114.723 77.769 114.803 78.0788C114.975 78.7557 114.666 79.8572 113.449 81.2684C111.66 83.3451 105.567 84.8825 103.433 83.5631C101.563 82.4043 101.138 78.4459 102.756 76.702Z" fill="white"/>
<path d="M109.342 79.2031C110.432 79.5817 112.027 80.4652 113.449 81.2683C114.78 82.0141 116.318 83.4139 116.318 83.586C116.318 83.7581 116.019 85.1693 115.228 85.284C114.448 85.3988 106.347 84.7448 105.292 84.022C105.292 84.022 104.064 83.6663 103.903 82.2665C103.674 80.2357 104.672 77.5853 109.342 79.2031Z" fill="#DCABB0"/>
<path d="M116.88 80.6144C116.88 80.6144 115.48 80.3964 114.436 81.2225C114.436 81.2225 114 81.5896 113.461 81.2684C113.461 81.2684 110.971 82.1633 111.763 85.1005C111.763 85.1005 114.734 85.5824 115.239 85.2841C115.744 84.9858 116.88 80.6144 116.88 80.6144Z" fill="white"/>
<path d="M115.228 85.2841C115.228 85.2841 116.765 85.2726 117.362 83.8614C117.958 82.4616 118.004 81.0045 117.063 80.6718C116.123 80.3276 115.4 80.7177 114.975 81.3487C114.562 81.9912 113.094 84.8711 115.228 85.2841Z" fill="#A3B4E6"/>
<path d="M110.03 65.3088C110.03 65.3088 110.638 66.0201 111.43 65.7677C112.222 65.5038 112.348 64.6433 112.348 64.6433C112.348 64.6433 111.189 64.6433 110.03 65.3088Z" fill="white"/>
<path d="M106.233 63.496C106.233 63.496 105.074 62.4749 104.707 63.2207C104.339 63.955 105.177 65.0449 105.865 65.0564C106.554 65.0679 106.692 63.8173 106.233 63.496Z" fill="#CB7F83"/>
<path d="M106.405 63.4501C106.405 63.4501 105.521 62.6699 105.235 63.2321C104.948 63.7943 105.602 64.6204 106.118 64.6318C106.646 64.6548 106.749 63.7025 106.405 63.4501Z" fill="#DCABB0"/>
<path d="M105.361 58.2297C105.361 58.2297 106.795 60.1802 109.824 60.1114C109.824 60.1114 111.005 59.9393 111.51 59.1705C111.51 59.1705 110.558 59.5492 110.053 59.3885C110.053 59.3885 112.899 58.9525 112.864 58.1953C112.83 57.438 111.338 56.5775 110.237 56.4513C109.365 56.3481 106.737 56.3595 105.946 56.7955C105.165 57.2315 105.143 57.9773 105.361 58.2297Z" fill="#163560"/>
<path d="M106.646 56.5775C106.646 56.5775 103.353 57.1168 102.756 59.7442C102.515 60.7997 103.02 62.3487 103.02 62.3487C103.02 62.3487 102.951 59.2164 105.59 59.0902C107.506 58.9984 108.768 58.8034 108.768 58.8034L106.646 56.5775Z" fill="#163560"/>
<path d="M107.116 72.342C107.116 72.4568 107.024 72.5371 106.921 72.5371C106.818 72.5371 106.726 72.4453 106.726 72.342C106.726 72.2273 106.818 72.147 106.921 72.147C107.024 72.147 107.116 72.2273 107.116 72.342Z" fill="#CB7F83"/>
<path d="M112.073 72.342C112.073 72.4568 111.981 72.5371 111.878 72.5371C111.774 72.5371 111.683 72.4453 111.683 72.342C111.683 72.2273 111.774 72.147 111.878 72.147C111.981 72.147 112.073 72.2273 112.073 72.342Z" fill="#CB7F83"/>
<path d="M116.237 76.0823C116.076 75.4972 115.663 75.0038 115.113 74.7514C114.413 74.4301 113.403 73.9827 112.956 73.9024C112.21 73.7647 110.695 72.8698 110.569 73.3402C110.443 73.7991 111.636 74.3384 111.648 74.8547C111.659 75.371 108.286 76.6216 108.378 77.1494C108.47 77.6771 109.422 78.8704 110.73 78.5491C112.038 78.2278 115.273 77.4706 116.019 77.2641C116.409 77.1494 116.363 76.5986 116.237 76.0823Z" fill="#D69396"/>
</svg>
